<?xml version="1.0" encoding="utf-8"?>
<!-- Generator: Adobe Illustrator 16.0.0, SVG Export Plug-In . SVG Version: 6.00 Build 0)  -->
<!DOCTYPE svg PUBLIC "-//W3C//DTD SVG 1.1//EN" "http://www.w3.org/Graphics/SVG/1.1/DTD/svg11.dtd">
<svg version="1.1" id="Слой_1" xmlns="http://www.w3.org/2000/svg" xmlns:xlink="http://www.w3.org/1999/xlink" x="0px" y="0px"
	 width="612px" height="612px" viewBox="0 80.5 612 612" enable-background="new 0 80.5 612 612" xml:space="preserve">
<path fill="#D6D6D4" d="M564.205,386.924c0-142.923-116.271-259.204-259.205-259.204c-142.933,0-259.204,116.281-259.204,259.204
	c0,73.088,30.525,139.078,79.352,186.243c1.143,1.489,2.497,2.696,4.082,3.713c46.251,42.83,107.908,69.249,175.77,69.249
	c67.862,0,129.52-26.419,175.771-69.249c1.583-1.017,2.938-2.224,4.081-3.713C533.679,526.002,564.205,460.012,564.205,386.924z
	 M305.733,134.885c139.016,0,252.101,113.768,252.101,253.6c0,59.294-21.347,111.092-55.37,154.326
	c-19.532-48.826-59.346-87.646-119.862-105.897c32.979-24.012,54.551-62.908,54.551-106.863
	c0-72.799-58.945-132.024-131.419-132.024c-72.475,0-131.42,59.225-131.42,132.024c0,43.956,21.571,82.852,54.55,106.863
	c-60.516,18.251-105.105,57.916-120.723,108.584c-34.022-43.233-54.508-97.719-54.508-157.013
	C53.633,248.653,166.716,134.885,305.733,134.885z"/>
</svg>
