<?xml version="1.0" encoding="utf-8"?>
<!-- Generator: Adobe Illustrator 16.0.0, SVG Export Plug-In . SVG Version: 6.00 Build 0)  -->
<!DOCTYPE svg PUBLIC "-//W3C//DTD SVG 1.1//EN" "http://www.w3.org/Graphics/SVG/1.1/DTD/svg11.dtd">
<svg version="1.1" id="Layer_1" xmlns="http://www.w3.org/2000/svg" xmlns:xlink="http://www.w3.org/1999/xlink" x="0px" y="0px"
	 width="612px" height="626px" viewBox="0 0 612 626" enable-background="new 0 0 612 626" xml:space="preserve">
<g>
	<path fill="#BE1E2D" d="M306,594L306,594L306,594z"/>
	<path fill="#3988D8" d="M526.654,469.688c-0.479-0.956-0.956-1.911-1.555-2.749c-0.119-0.238-0.357-0.479-0.478-0.837
		c-0.718-1.194-1.436-2.391-2.152-3.467c-0.119-0.119-0.237-0.357-0.357-0.478c-0.837-1.195-1.673-2.271-2.511-3.229
		c-0.238-0.239-0.357-0.479-0.598-0.717c-0.837-0.957-1.793-1.913-2.63-2.75c-13.388-11.833-45.78-37.413-158.26-86.66
		l-102.917-0.717c-80.803,35.381-120.966,58.929-142.123,73.751c-8.248,5.855-13.626,10.279-17.452,13.626
		c-0.956,0.837-1.793,1.674-2.63,2.75c-0.239,0.238-0.358,0.478-0.598,0.717c-0.836,0.956-1.673,2.032-2.51,3.229
		c-0.12,0.118-0.239,0.357-0.359,0.478c-0.717,1.076-1.434,2.271-2.151,3.467c-0.12,0.239-0.359,0.479-0.478,0.837
		c-0.479,0.956-0.957,1.793-1.554,2.749C130.528,544.155,212.407,594,306,594l0,0C399.474,594,481.353,544.275,526.654,469.688z"/>
	<path fill="#DCC5A1" d="M251.374,269.831v83.433v41.238c15.061,17.69,34.784,26.895,54.626,27.134V219.389
		C278.747,219.389,251.374,236.242,251.374,269.831z"/>
	<path fill="#EDD9B4" d="M306,219.389v202.247c19.842,0.12,39.564-8.726,54.626-27.134v-41.238v-83.433
		C360.626,236.242,333.253,219.389,306,219.389z"/>
	<path fill="#BC9F82" d="M251.374,330.193v3.944c0,0,27.851,33.11,54.507,34.307c26.655,1.194,54.745-32.034,54.745-32.034v-6.096"
		/>
	<rect x="251.374" y="330.193" fill="none" width="109.252" height="38.251"/>
	<rect x="251.374" y="351.71" fill="none" width="109.252" height="69.926"/>
	<path fill="#80604B" d="M310.184,266.365c-2.391,0-4.063,3.466-4.063,3.466s-1.793-3.466-4.063-3.466
		c-9.563,0.119-49.126,3.945-60.603,18.646c0,0,55.821-0.956,58.929-1.913c3.108-0.956,5.857-6.933,5.857-6.933
		s2.749,6.096,5.855,6.933c3.108,0.957,58.931,1.913,58.931,1.913C359.311,270.429,319.865,266.484,310.184,266.365"/>
	<g>
		<path fill="#DCC5A1" d="M306.119,46.069c-97.179,0-116.542,76.978-113.554,145.35c-0.12,0-0.239,0-0.359,0.119
			c-9.563,3.108-13.029,19.245-7.53,35.859c3.347,10.16,9.204,18.169,15.419,22.113c4.901,23.07,10.758,40.043,13.388,44.346
			c12.073,19.484,65.503,62.276,92.636,62.276l0,0V46.069L306.119,46.069z"/>
		<path fill="#EDD9B4" d="M419.674,191.658c3.108-68.372-16.256-145.589-113.555-145.589v310.064
			c27.134,0,80.563-42.912,92.637-62.275c2.75-4.304,8.606-21.517,13.508-44.824c5.978-4.185,11.476-11.834,14.702-21.635
			C432.345,210.903,429.117,195.005,419.674,191.658z"/>
	</g>
	<polygon fill="#FFFFFF" points="360.626,353.264 364.331,371.553 351.78,469.569 306.239,421.636 	"/>
	<polygon fill="#FFFFFF" points="251.374,353.264 246.593,371.911 259.98,468.61 306.239,421.636 	"/>
	<path fill="#80604B" d="M425.412,203.611c8.726-42.792,3.106-142.481-30.242-139.134C364.212,33.04,256.275,27.183,226.631,61.13
		c-67.655,13.029-36.337,143.079-36.337,143.079c2.151,12.67,5.02,24.265,8.008,33.947c4.542-0.358,9.084-0.599,13.626-0.836
		c-4.9-8.965-8.965-18.169-10.519-24.863c-0.837-3.825-2.869-17.81-2.749-20.918c0.956-23.428,17.93-91.441,46.976-96.82
		c11.355-2.032,39.685,23.428,58.331,23.428c19.604-0.478,44.107-26.297,56.777-24.504c30.241,4.064,55.939,66.579,55.702,96.82
		c0,3.825-4.901,27.014-12.192,43.509c4.9-0.239,9.802-0.598,14.583-0.956c2.51-8.726,4.781-18.647,6.574-29.285L425.412,203.611
		L425.412,203.611z"/>
	<g>
		<path fill="#342214" d="M249.94,183.65c7.65,0,13.746,6.933,13.746,15.658c0,8.606-6.216,15.659-13.746,15.659
			c-7.65,0-13.746-7.052-13.746-15.659C236.074,190.702,242.29,183.65,249.94,183.65"/>
		<path fill="#342214" d="M361.701,183.65c7.649,0,13.746,6.933,13.746,15.658c0,8.606-6.215,15.659-13.746,15.659
			c-7.649,0-13.746-7.052-13.746-15.659C347.836,190.702,354.052,183.65,361.701,183.65"/>
		<path fill="#FFFFFF" d="M277.313,282.502c4.901,10.758,15.778,18.408,28.448,18.408c12.671,0,23.548-7.53,28.448-18.408H277.313z"
			/>
	</g>
</g>
</svg>
