<?xml version="1.0" ?><svg style="enable-background:new 0 0 48 48;" version="1.1" viewBox="0 0 48 48" xml:space="preserve" xmlns="http://www.w3.org/2000/svg" xmlns:xlink="http://www.w3.org/1999/xlink"><g id="Icons"><g><path d="M20.03878,25.7976l-0.05734,0.69329l-5.85865,1.63541    c-3.17201,0.87701-5.66671,2.10525-6.75038,4.80742l-1.5578,3.94651c0,0,17.42907,6.85011,36.37077,0.03556l-1.5578-3.9465    c-1.08367-2.714-3.57837-3.9304-6.75038-4.80742l-5.85865-1.63543l-0.06765-0.7388" style="fill:#F4F4F4;"/><path d="M11.16856,29.17913v9.25544c0,0-4.31383-1.04599-5.35394-1.55435    c0,0,0.49132-2.4907,1.68608-4.24293S9.64395,29.79253,11.16856,29.17913z" style="fill:#464747;"/><path d="M36.51358,29.17913v9.25544c0,0,4.31383-1.04599,5.35394-1.55435    c0,0-0.49132-2.4907-1.68608-4.24293S38.03819,29.79253,36.51358,29.17913z" style="fill:#464747;"/><path d="M24.99772,29.87407l0.50077-0.44748c0.52081-0.46532,1.10753-0.85107,1.74129-1.14437    l0.52197-0.24164c0,0,1.66923,2.73657,0,4.4606l-0.69816-0.26654c-0.53599-0.20471-1.0451-0.47378-1.5161-0.80137l-0.54977-0.3825    V29.87407" style="fill:#F43735;"/><path d="M23.00228,29.87407l-0.63236-0.56506c-0.43347-0.38736-0.92207-0.70847-1.44972-0.95277    l-0.68194-0.31566c0,0-1.66923,2.73657,0,4.4606l0.83334-0.31821c0.44621-0.17028,0.87006-0.39443,1.26218-0.66712l0.6685-0.46509    V29.87407" style="fill:#F43735;"/><path d="M24.36918,31.43581h-0.73835c-0.34717,0-0.62854-0.28137-0.62854-0.62854v-0.6897    c0-0.34717,0.28137-0.62854,0.62854-0.62854h0.73835c0.34717,0,0.62854,0.28137,0.62854,0.62854v0.6897    C24.99772,31.15444,24.71634,31.43581,24.36918,31.43581z" style="fill:#F43735;"/><path d="M30.93908,20.40983c2.16908-1.01509,2.09992-3.57501,2.81592-4.20216    c0.71588-0.62704,1.1402,0.32608,1.1402,0.32608c0.53031-2.13201-2.25387-3.3109-2.75766-4.26413    c-0.5039-0.95312,0.98104-0.97828,0.98104-0.97828c-2.22734-2.88447-5.43572-1.90622-5.43572-1.90622s-3.48373-2.97091-7.36571,0    c0,0-3.20838-0.97826-5.43573,1.90622c0,0,1.48493,0.02516,0.98104,0.97828c-0.50378,0.95324-3.28796,2.13212-2.75765,4.26413    c0,0,0.42432-0.95312,1.1402-0.32608c0.716,0.62715,0.64684,3.18707,2.81592,4.20216" style="fill:#1FAA22;"/><path d="M24.02433,28.27237c0.22438,0.10611,1.24955,0.42385,2.49771-1.39203    c0.28867-0.41994,0.69492-0.76871,1.17912-0.97119c0.24569-0.10286,0.50019-0.24731,0.66596-0.4432    c0.41424-0.48988,1.31685-2.74018,1.48702-3.78294c0.17017-1.04973,0.34775-5.26996-0.68797-6.97059    c0,0-0.31821-3.63223-1.59069-3.98913c0,0-3.26016,3.09671-7.095,0c-1.2799,0.3569-1.59058,3.98913-1.59058,3.98913    c-1.03583,1.70063-0.86566,5.92086-0.68808,6.97059c0.17017,1.04276,1.07278,3.29306,1.48702,3.78294    c0.16577,0.19588,0.42026,0.34033,0.66596,0.4432c0.48397,0.20237,0.88964,0.55125,1.17715,0.97142    C22.77477,28.69623,23.79983,28.37848,24.02433,28.27237" style="fill:#F4F4F4;"/><path d="M25.30133,17.04518c0,0,1.69819,1.48296,3.53331,0.27349c0,0-0.54826-1.10535-1.66738-0.9566    C26.04814,16.5107,25.30133,17.04518,25.30133,17.04518z" style="fill:#BFBFBF;"/><path d="M22.72288,17.04518c0,0-1.69819,1.48296-3.53331,0.27349c0,0,0.54826-1.10535,1.66738-0.9566    C21.97607,16.5107,22.72288,17.04518,22.72288,17.04518z" style="fill:#BFBFBF;"/><path d="M29.85402,21.68069c0,0,0.83601,0.35794,1.03919-0.98648    c0.2033-1.34431,0.68588-3.29063,1.37164-3.5069c0,0-1.90578-0.14758-2.33727,0.69515" style="fill:#BFBFBF;"/><path d="M18.20182,21.68301c0,0-0.82014,0.35562-1.02332-0.9888    c-0.2033-1.34431-0.68588-3.29063-1.37164-3.5069c0,0,1.90578-0.14758,2.33728,0.69515" style="fill:#BFBFBF;"/><path d="M24.07796,25.20381c-2.04698,0.11514-2.96315-2.14906-3.04435-2.6863    c-0.08109-0.53726-1.02946-1.23171-1.02946-1.23171s0.68611,0.64904,1.54378,0.73025    c0.85767,0.08109,2.10119,0.48814,2.53003,0.89381c0.42883-0.40567,1.67248-0.81272,2.53003-0.89381    c0.85767-0.0812,1.54378-0.73025,1.54378-0.73025s-0.94825,0.69445-1.02946,1.23171    C27.04123,23.05475,26.12506,25.31895,24.07796,25.20381" style="fill:#F43735;"/><line style="fill:none;stroke:#30302F;stroke-width:0.8;stroke-linecap:round;stroke-linejoin:round;stroke-miterlimit:10;" x1="11.16856" x2="11.16856" y1="29.17913" y2="38.26461"/><path d="    M20.03878,25.7976l-0.05734,0.69329l-5.85865,1.63541c-3.17201,0.87701-5.66671,2.10525-6.75038,4.80742l-1.5578,3.94651    c0,0,17.42907,6.85011,36.37077,0.03556l-1.5578-3.9465c-1.08367-2.714-3.57837-3.9304-6.75038-4.80742l-5.85865-1.63543    l-0.06765-0.7388" style="fill:none;stroke:#30302F;stroke-width:0.8;stroke-linecap:round;stroke-linejoin:round;stroke-miterlimit:10;"/><path d="    M24.02433,28.27237c0.22438,0.10611,1.24955,0.42385,2.49771-1.39203c0.28867-0.41994,0.69492-0.76871,1.17912-0.97119    c0.24569-0.10286,0.50019-0.24731,0.66596-0.4432c0.41424-0.48988,1.31685-2.74018,1.48702-3.78294    c0.17017-1.04973,0.34775-5.26996-0.68797-6.97059c0,0-0.31821-3.63223-1.59069-3.98913c0,0-3.26016,3.09671-7.095,0    c-1.2799,0.3569-1.59058,3.98913-1.59058,3.98913c-1.03583,1.70063-0.86566,5.92086-0.68808,6.97059    c0.17017,1.04276,1.07278,3.29306,1.48702,3.78294c0.16577,0.19588,0.42026,0.34033,0.66596,0.4432    c0.48397,0.20237,0.88964,0.55125,1.17715,0.97142C22.77477,28.69623,23.79983,28.37848,24.02433,28.27237" style="fill:none;stroke:#30302F;stroke-width:0.8;stroke-linecap:round;stroke-linejoin:round;stroke-miterlimit:10;"/><path d="    M24.96401,19.56513c0,0,0.80334-0.65509,0.96957,0.15719c0.16623,0.81238-0.08317,0.49785-0.48478,0.73372    c-0.40161,0.23585-1.01034,0.99575-1.37083,1.04811" style="fill:none;stroke:#30302F;stroke-width:0.8;stroke-linecap:round;stroke-linejoin:round;stroke-miterlimit:10;"/><path d="    M23.19191,19.56513c0,0-0.80322-0.65509-0.96945,0.15719c-0.16623,0.81238,0.08306,0.49785,0.48478,0.73372    c0.40161,0.23585,1.01034,0.99575,1.37072,1.04811" style="fill:none;stroke:#30302F;stroke-width:0.8;stroke-linecap:round;stroke-linejoin:round;stroke-miterlimit:10;"/><path d="    M25.75634,19.3873c0,0,1.41983,0.75564,1.77349,1.30691c0.35365,0.55128,1.63587,0.89311,2.42554-0.11422" style="fill:none;stroke:#30302F;stroke-width:0.8;stroke-linecap:round;stroke-linejoin:round;stroke-miterlimit:10;"/><path d="    M22.41672,19.3873c0,0-1.41983,0.75564-1.77349,1.30691c-0.35365,0.55128-1.63587,0.89311-2.42554-0.11422" style="fill:none;stroke:#30302F;stroke-width:0.8;stroke-linecap:round;stroke-linejoin:round;stroke-miterlimit:10;"/><path d="    M29.85402,21.68069c0,0,0.83601,0.35794,1.03919-0.98648c0.2033-1.34431,0.68588-3.29063,1.37164-3.5069    c0,0-1.90578-0.14758-2.33727,0.69515" style="fill:none;stroke:#30302F;stroke-width:0.8;stroke-linecap:round;stroke-linejoin:round;stroke-miterlimit:10;"/><path d="    M18.16532,21.69815c0,0-0.78364,0.34048-0.98682-1.00394c-0.2033-1.34431-0.68588-3.29063-1.37164-3.5069    c0,0,1.90578-0.14758,2.33728,0.69515" style="fill:none;stroke:#30302F;stroke-width:0.8;stroke-linecap:round;stroke-linejoin:round;stroke-miterlimit:10;"/><path d="    M24.49973,16.36452c0,0,0.43405,0.93516,1.13337,0.45617c0.69932-0.47899,1.72947-3.2795,3.52937-2.10733" style="fill:none;stroke:#30302F;stroke-width:0.8;stroke-linecap:round;stroke-linejoin:round;stroke-miterlimit:10;"/><path d="    M23.59086,16.36452c0,0-0.43405,0.93516-1.13337,0.45617c-0.69932-0.47899-1.72947-3.2795-3.52937-2.10733" style="fill:none;stroke:#30302F;stroke-width:0.8;stroke-linecap:round;stroke-linejoin:round;stroke-miterlimit:10;"/><path d="    M24.07796,25.20381c-2.04698,0.11514-2.96315-2.14906-3.04435-2.6863c-0.08109-0.53726-1.02946-1.23171-1.02946-1.23171    s0.68611,0.64904,1.54378,0.73025c0.85767,0.08109,2.10119,0.48814,2.53003,0.89381    c0.42883-0.40567,1.67248-0.81272,2.53003-0.89381c0.85767-0.0812,1.54378-0.73025,1.54378-0.73025    s-0.94825,0.69445-1.02946,1.23171C27.04123,23.05475,26.12506,25.31895,24.07796,25.20381" style="fill:none;stroke:#30302F;stroke-width:0.8;stroke-linecap:round;stroke-linejoin:round;stroke-miterlimit:10;"/><path d="    M30.93908,20.40983c2.16908-1.01509,2.09992-3.57501,2.81592-4.20216c0.71588-0.62704,1.1402,0.32608,1.1402,0.32608    c0.53031-2.13201-2.25387-3.3109-2.75766-4.26413c-0.5039-0.95312,0.98104-0.97828,0.98104-0.97828    c-2.22734-2.88447-5.43572-1.90622-5.43572-1.90622s-3.48373-2.97091-7.36571,0c0,0-3.20838-0.97826-5.43573,1.90622    c0,0,1.48493,0.02516,0.98104,0.97828c-0.50378,0.95324-3.28796,2.13212-2.75765,4.26413c0,0,0.42432-0.95312,1.1402-0.32608    c0.716,0.62715,0.64684,3.18707,2.81592,4.20216" style="fill:none;stroke:#30302F;stroke-width:0.8;stroke-linecap:round;stroke-linejoin:round;stroke-miterlimit:10;"/><path d="    M25.30133,17.04518c0,0,1.69819,1.48296,3.53331,0.27349c0,0-0.54826-1.10535-1.66738-0.9566    C26.04814,16.5107,25.30133,17.04518,25.30133,17.04518z" style="fill:none;stroke:#30302F;stroke-width:0.8;stroke-linecap:round;stroke-linejoin:round;stroke-miterlimit:10;"/><path d="    M22.72288,17.04518c0,0-1.69819,1.48296-3.53331,0.27349c0,0,0.54826-1.10535,1.66738-0.9566    C21.97607,16.5107,22.72288,17.04518,22.72288,17.04518z" style="fill:none;stroke:#30302F;stroke-width:0.8;stroke-linecap:round;stroke-linejoin:round;stroke-miterlimit:10;"/><path d="    M24.99772,29.87407l0.50077-0.44748c0.52081-0.46532,1.10753-0.85107,1.74129-1.14437l0.52197-0.24164    c0,0,1.66923,2.73657,0,4.4606l-0.69816-0.26654c-0.53599-0.20471-1.0451-0.47378-1.5161-0.80137l-0.54977-0.3825V29.87407" style="fill:none;stroke:#30302F;stroke-width:0.8;stroke-linecap:round;stroke-linejoin:round;stroke-miterlimit:10;"/><path d="    M23.00228,29.87407l-0.63236-0.56506c-0.43347-0.38736-0.92207-0.70847-1.44972-0.95277l-0.68194-0.31566    c0,0-1.66923,2.73657,0,4.4606l0.83334-0.31821c0.44621-0.17028,0.87006-0.39443,1.26218-0.66712l0.6685-0.46509V29.87407" style="fill:none;stroke:#30302F;stroke-width:0.8;stroke-linecap:round;stroke-linejoin:round;stroke-miterlimit:10;"/><path d="    M24.36918,31.43581h-0.73835c-0.34717,0-0.62854-0.28137-0.62854-0.62854v-0.6897c0-0.34717,0.28137-0.62854,0.62854-0.62854    h0.73835c0.34717,0,0.62854,0.28137,0.62854,0.62854v0.6897C24.99772,31.15444,24.71634,31.43581,24.36918,31.43581z" style="fill:none;stroke:#30302F;stroke-width:0.8;stroke-linecap:round;stroke-linejoin:round;stroke-miterlimit:10;"/><line style="fill:none;stroke:#30302F;stroke-width:0.8;stroke-linecap:round;stroke-linejoin:round;stroke-miterlimit:10;" x1="28.01856" x2="27.76174" y1="26.52643" y2="28.04058"/><line style="fill:none;stroke:#30302F;stroke-width:0.8;stroke-linecap:round;stroke-linejoin:round;stroke-miterlimit:10;" x1="19.98144" x2="20.23826" y1="26.49089" y2="28.04058"/><line style="fill:none;stroke:#30302F;stroke-width:0.8;stroke-linecap:round;stroke-linejoin:round;stroke-miterlimit:10;" x1="36.51358" x2="36.51358" y1="29.17913" y2="38.26461"/></g></g></svg>