<?xml version="1.0" ?><svg style="enable-background:new 0 0 48 48;" version="1.1" viewBox="0 0 48 48" xml:space="preserve" xmlns="http://www.w3.org/2000/svg" xmlns:xlink="http://www.w3.org/1999/xlink"><g id="Icons"><g><path d="M35.28257,28.856c-0.02,0.22-0.04,0.33-0.04,0.33s-0.01,0.03-0.01,0.08    c-0.06,0.41-0.16,0.82-0.29,1.22c-0.25,0.72-0.51,1.39-0.8,2.01c-0.02,0.04-0.04,0.09-0.06,0.14c-0.67,1.48-1.42,2.7-2.22,3.72    c-1.33,1.72-2.75,2.82-4.01,3.53c-0.23,0.13-0.45,0.25-0.67,0.35c-1.79,0.86-3.11,0.91-3.11,0.91c-1.03-0.03-2.06-0.38-3.06-0.94    c-0.22-0.12-0.44-0.26-0.66-0.41c-1.3-0.87-2.54-2.09-3.62-3.44c0,0-0.01-0.01-0.03-0.04c-1.13-1.43-1.4871-3.2847-2.1571-4.7247    c-0.06-0.11-0.2878-0.2955-0.3379-0.4055c-0.29-0.64-0.4819-1.0985-0.6419-1.6385c-0.11-0.38-0.1834-0.8676-0.2534-1.3176    c0,0-0.0675-0.3954-0.0675-0.4054c-0.62-3.52,0.0675-9.9326,0.0675-9.9326c0.03-0.44-0.0706-1.4841-0.0506-1.5541    c0.04-0.24,0.244-0.1686,0.304-0.3886c0.01-0.05,0.2434-0.3485,0.2534-0.3885c0.42-1.5,0.3735-3.1745,1.1335-4.1845    c0.01-0.02,0.02-0.03,0.03-0.04c0-0.01,0-0.01,0-0.01c1.35-1.79,3.08-2.86,4.67-3.51c0.24-0.1,0.48-0.18,0.71-0.26    c2.06-0.7,3.71-0.7,3.71-0.7c1.22-0.02,2.31,0.11,3.28,0.37c0.25,0.06,0.49,0.13,0.72,0.21c1.97,0.67,3.42,1.83,4.47,3.1    c0,0.01,0.01,0.02,0.01,0.02c1.47,1.78,2.16,3.75,2.46,4.83c0.03,0.12,0.06,0.23,0.08,0.35c0.07,0.29,0.1,0.47,0.1,0.47    c0.02,0.14,0.04,0.28,0.05,0.42c0.06,0.36,0.1,0.74,0.14,1.14c0.03,0.3,0.05,0.6,0.07,0.89c0.03,0.3,0.05,0.59,0.06,0.88    c0.04,0.57,0.06,1.13,0.07,1.67C35.66257,24.456,35.42257,27.446,35.28257,28.856z" style="fill:#F43735;"/><path d="M14.98217,11.3306c0,0,2.46,9.0371,8.7815,15.0833c0,0,7.1585-6.1223,8.2611-16.2166    c0,0,2.762,1.1616,3.3611,7.5639c0.5992,6.4022-0.1437,11.4256-0.1437,11.4256s-1.1957,4.8947-3.3816,7.1653l-8.0105-6.9284    l-7.1186,6.9284c0,0-2.9781-3.1742-3.9156-8.0502c-0.9374-4.876-0.1304-11.8162,0.2811-13.0622    C13.50837,13.9938,14.98217,11.3306,14.98217,11.3306z" style="fill:#303030;"/><path d="M15.02417,17.3689c0,0,1.5889,6.906,7.5783,10.2062l-4.8282,4.4406    C17.77427,32.0157,12.70177,27.5751,15.02417,17.3689z" style="fill:#FFFFFF;"/><path d="M32.86217,17.3689c0,0-1.589,6.906-7.5783,10.2062l4.8281,4.4406    C30.11197,32.0157,35.18457,27.5751,32.86217,17.3689z" style="fill:#FFFFFF;"/><g><path d="M31.31257,15.996l-0.56-0.28l-3.97-2.04l1.29-6.24c-0.23-0.08-0.47-0.15-0.72-0.21l-1.29,6.25     l-4.54-0.13l-1.16-5.79c-0.23,0.08-0.47,0.16-0.71,0.26l1.12,5.56c-0.01,0.01-0.02,0.01-0.02,0.01l-4.06,2.55l-0.6,0.38     c-0.17,0.11-0.23,0.35-0.12,0.52c0.07,0.11,0.2,0.18,0.32,0.18c0.07,0,0.14-0.02,0.2-0.06l0.52-0.33l3.91-2.46l0.97,4.83     l-2.64,1.77l-0.57,0.39c-0.18,0.11-0.22,0.35-0.11,0.52c0.08,0.11,0.2,0.16,0.32,0.16c0.07,0,0.14-0.02,0.2-0.06l0.56-0.38     l2.4-1.61l1.23,6.16l0.11,0.54c0.04,0.18,0.19,0.3,0.37,0.3s0.33-0.12,0.37-0.3l0.1-0.51l0.01-0.01l1.28-6.21l2.57,1.41     l0.59,0.32c0.18,0.1,0.41,0.03,0.5-0.15c0.1-0.18,0.04-0.41-0.14-0.51l-0.55-0.3l-2.81-1.54l0.94-4.55l3.87,1.99l0.48,0.24     c0.19,0.09,0.41,0.02,0.51-0.16C31.57257,16.316,31.50257,16.096,31.31257,15.996z M23.77257,24.536l-1-5h2.03L23.77257,24.536z      M24.96257,18.786h-2.34l-0.95-4.69l4.23,0.13L24.96257,18.786z" style="fill:#303030;"/><path d="M30.46257,33.676c-0.14-0.15-0.38-0.15-0.53,0l-0.54,0.54l-2.6,2.58l-0.96-2.79l1.81-1.3     l0.38-0.28c0.16-0.12,0.2-0.35,0.08-0.52c-0.12-0.17-0.35-0.2-0.52-0.09l-0.53,0.38l-1.48,1.07l-1.16-3.35v-0.01l-0.21-0.6     c-0.05-0.16-0.21-0.25-0.36-0.26c-0.16,0.01-0.3,0.11-0.35,0.27l-0.2,0.65v0.01l-1.02,3.4l-1.5-0.95l-0.53-0.33     c-0.18-0.11-0.41-0.05-0.52,0.12c-0.11,0.18-0.05,0.41,0.12,0.52l0.37,0.23l1.84,1.16l-0.81,2.71l-2.54-2.4l-0.45-0.42     c-0.15-0.14-0.39-0.14-0.53,0.01c-0.14,0.15-0.14,0.39,0.01,0.53l0.43,0.41l2.84,2.67l-0.65,2.16c0.22,0.15,0.44,0.29,0.66,0.41     l0.71-2.35h4.64l0.82,2.38c0.22-0.1,0.44-0.22,0.67-0.35l-0.79-2.3l2.9-2.88l0.5-0.5     C30.61257,34.056,30.61257,33.816,30.46257,33.676z M23.87257,30.646l1.01,2.92h-1.88L23.87257,30.646z M21.94257,37.106     l0.84-2.79h2.36l0.96,2.79H21.94257z" style="fill:#303030;"/></g></g></g></svg>