<?xml version="1.0" ?><svg style="enable-background:new 0 0 48 48;" version="1.1" viewBox="0 0 48 48" xml:space="preserve" xmlns="http://www.w3.org/2000/svg" xmlns:xlink="http://www.w3.org/1999/xlink"><g id="Icons"><g><path d="M12.58785,34.4637c0,0,0.08958,0.61333-0.1421,1.54732s-0.47581,1.96204,0.27833,2.11542    c0.75414,0.15337,0.87265,0.06557,0.87265,0.06557s0.10203,0.96507,0.82975,1.04363    c0.72773,0.07856,1.2615-0.25046,1.54574-1.51859c0,0,1.05898-0.32422,0.62459-0.96751s-2.04171-0.98233-1.81417-2.28585H12.58785    z" style="fill:#464747;"/><path d="M35.44394,34.4637c0,0-0.08958,0.61333,0.1421,1.54732s0.47581,1.96204-0.27833,2.11542    c-0.75414,0.15337-0.87265,0.06557-0.87265,0.06557s-0.10203,0.96507-0.82975,1.04363    c-0.72772,0.07856-1.2615-0.25046-1.54574-1.51859c0,0-1.05898-0.32422-0.62459-0.96751s2.04171-0.98233,1.81417-2.28585H35.44394    z" style="fill:#464747;"/><path d="M25.02003,39.44316c-0.01329,0.05077,0,1.70081,0,1.70081l0.35875,0.06346    c0,0,0.73079,0.6854,1.93992,0.5204s1.10283-0.25385,1.10283-0.25385s0.06644-1.07887-0.47834-1.33272    c-0.54477-0.25385-0.59792-0.38078-0.57135-0.69809" style="fill:#464747;"/><path d="M22.63322,39.44316c0.01329,0.05077,0,1.70081,0,1.70081l-0.35875,0.06346    c0,0-0.73079,0.6854-1.93992,0.5204c-1.20913-0.165-1.10283-0.25385-1.10283-0.25385s-0.06643-1.07887,0.47834-1.33272    c0.54477-0.25385,0.59792-0.38078,0.57135-0.69809" style="fill:#464747;"/><path d="M29.10712,36.61335c0,0-1.1182,2.25613-1.1182,2.81833h-2.53066    c0,0-1.1182,0.16866-0.94164-0.78707c0.17656-0.95573-0.41258-1.55259-0.41258-1.55259" style="fill:#50ABFE;"/><path d="M18.62739,36.61335c0,0,1.1182,2.25613,1.1182,2.81833h2.53066c0,0,1.1182,0.16866,0.94164-0.78707    c-0.17656-0.95573,0.41258-1.55259,0.41258-1.55259" style="fill:#50ABFE;"/><path d="M13.59673,24.67227c0,0-2.38288,4.61693-1.06749,9.79143l2.25462-0.03709l0.15854-0.42292    c0,0-0.83315-1.15406-0.65415-2.95512c0,0,1.81295,0.67427,2.32744-0.72654s0.32538-2.73755,0.32538-2.73755L13.59673,24.67227z" style="fill:#FFD24A;"/><path d="M34.25131,24.67227c0,0,2.38287,4.61693,1.06749,9.79143l-2.25462-0.03709l-0.15854-0.42292    c0,0,0.83315-1.15406,0.65415-2.95512c0,0-1.81294,0.67427-2.32744-0.72654s-0.32537-2.73755-0.32537-2.73755L34.25131,24.67227z" style="fill:#FFD24A;"/><path d="M14.22223,23.14475l3.9377,2.9944h11.82733l3.79427-3.23596l0.62175,1.76908l-3.41971,3.02495    v1.89532c0,0,0.38783,1.53705,1.61421,1.45604h1.217c0,0,1.25434,6.36678-9.98748,5.92083c0,0-7.14627,0.50459-9.24498-3.54626    c0,0-0.45651-0.95512-0.33918-2.51673c0,0,2.19861,0.61002,2.6693-1.23191l0.02943-2.14799l-3.34514-2.85424L14.22223,23.14475z" style="fill:#50ABFE;"/><path d="M14.22223,22.86481l3.79051,3.27434h11.78009l4.02195-3.11065V16.0428    c0-5.41033-4.38594-9.79626-9.79626-9.79626h-0.00002c-5.41033,0-9.79626,4.38594-9.79626,9.79626V22.86481z" style="fill:#FFD24A;"/><path d="M32.57988,15.86004c0.17366,0.04608,0.35696,0.07373,0.43414,0.07373h1.03229    c0.19295,0,0.35696-0.15667,0.35696-0.34099v-1.34552c0-0.18432-0.16401-0.34099-0.35696-0.34099h-1.03229    c-0.08683,0-0.29908,0.03686-0.50167,0.09216" style="fill:#464747;"/><path d="M15.39754,14.00765c-0.06753-0.06451-0.15436-0.10137-0.25084-0.10137h-0.65604h-0.36661    c-0.2026,0-0.35696,0.15667-0.35696,0.34099v1.34552c0,0.18432,0.15436,0.34099,0.35696,0.34099h0.17366h0.84899    c0.06753,0,0.13507-0.01843,0.1833-0.05529" style="fill:#464747;"/><ellipse cx="28.00719" cy="15.08467" rx="3.39651" ry="3.29601" style="fill:#FFFFFF;"/><ellipse cx="19.90118" cy="15.08467" rx="3.39651" ry="3.29601" style="fill:#FFFFFF;"/><path d="M28.0078,10.64592c-1.73999,0-3.25,0.90997-4.04999,2.25995    c-0.80005-1.34998-2.32001-2.25995-4.05005-2.25995c-2.56995,0-4.64996,1.98999-4.64996,4.43994    c0,2.45001,2.08002,4.44,4.64996,4.44c1.73004,0,3.25-0.90997,4.05005-2.25995c0.79999,1.34998,2.31,2.25995,4.04999,2.25995    c2.57001,0,4.64997-1.98999,4.64997-4.44C32.65776,12.63591,30.5778,10.64592,28.0078,10.64592z M19.89781,18.26591    c-1.83002,0-3.32001-1.43005-3.32001-3.18005c0-1.75995,1.48999-3.17999,3.32001-3.17999    c1.83997,0,3.32996,1.42004,3.32996,3.17999C23.22777,16.83586,21.73778,18.26591,19.89781,18.26591z M28.0078,18.26591    c-1.84003,0-3.33002-1.43005-3.33002-3.18005c0-1.75995,1.48999-3.17999,3.33002-3.17999    c1.83997,0,3.33002,1.42004,3.33002,3.17999C31.33781,16.83586,29.84776,18.26591,28.0078,18.26591z" style="fill:#D5D5D5;"/><polyline points="    33.81477,23.0285 34.40327,24.67227 30.18514,28.19291 29.65229,26.41138 33.81477,23.0285 33.81477,15.93377   " style="fill:none;stroke:#30302F;stroke-width:0.7;stroke-linecap:round;stroke-linejoin:round;stroke-miterlimit:10;"/><polyline points="    14.18523,15.93377 14.18523,23.0285 18.34771,26.41138 17.81486,28.19291 13.59673,24.67227 14.18523,23.0285   " style="fill:none;stroke:#30302F;stroke-width:0.7;stroke-linecap:round;stroke-linejoin:round;stroke-miterlimit:10;"/><path d="    M14.49066,13.90628c0.00164-0.00848,0.00329-0.01699,0.00496-0.02552c0.53303-2.73588,2.23487-5.16966,4.7121-6.44734    c4.52926-2.33606,10.6102-1.24601,13.35286,3.46849c0.71392,1.22571,1.03229,2.26711,1.16736,3.00438" style="fill:none;stroke:#30302F;stroke-width:0.7;stroke-linecap:round;stroke-linejoin:round;stroke-miterlimit:10;"/><ellipse cx="28.00719" cy="15.08467" rx="3.32608" ry="3.17725" style="fill:none;stroke:#30302F;stroke-width:0.7;stroke-linecap:round;stroke-linejoin:round;stroke-miterlimit:10;"/><path d="    M23.95494,17.27007c0.80075,1.34552,2.31542,2.25789,4.05198,2.25789c2.56626,0,4.65014-1.99063,4.65014-4.44206    s-2.08388-4.44206-4.65014-4.44206c-1.73656,0-3.25124,0.91237-4.05198,2.25789" style="fill:none;stroke:#30302F;stroke-width:0.7;stroke-linecap:round;stroke-linejoin:round;stroke-miterlimit:10;"/><ellipse cx="19.90118" cy="15.08467" rx="3.32608" ry="3.17725" style="fill:none;stroke:#30302F;stroke-width:0.7;stroke-linecap:round;stroke-linejoin:round;stroke-miterlimit:10;"/><path d="    M23.95494,17.27007c-0.80075,1.34552-2.31542,2.25789-4.05198,2.25789c-2.56626,0-4.65014-1.99063-4.65014-4.44206    s2.08388-4.44206,4.65014-4.44206c1.73656,0,3.25124,0.91237,4.05198,2.25789" style="fill:none;stroke:#30302F;stroke-width:0.7;stroke-linecap:round;stroke-linejoin:round;stroke-miterlimit:10;"/><ellipse cx="27.32311" cy="15.35068" rx="1.13642" ry="1.08557" style="fill:#30302F;"/><ellipse cx="20.57855" cy="15.35068" rx="1.13642" ry="1.08557" style="fill:#30302F;"/><path d="    M32.57988,15.86004c0.17366,0.04608,0.35696,0.07373,0.43414,0.07373h1.03229c0.19295,0,0.35696-0.15667,0.35696-0.34099v-1.34552    c0-0.18432-0.16401-0.34099-0.35696-0.34099h-1.03229c-0.08683,0-0.29908,0.03686-0.50167,0.09216" style="fill:none;stroke:#30302F;stroke-width:0.7;stroke-linecap:round;stroke-linejoin:round;stroke-miterlimit:10;"/><path d="    M15.39754,14.00765c-0.06753-0.06451-0.15436-0.10137-0.25084-0.10137h-0.65604h-0.36661    c-0.2026,0-0.35696,0.15667-0.35696,0.34099v1.34552c0,0.18432,0.15436,0.34099,0.35696,0.34099h0.17366h0.84899    c0.06753,0,0.13507-0.01843,0.1833-0.05529" style="fill:none;stroke:#30302F;stroke-width:0.7;stroke-linecap:round;stroke-linejoin:round;stroke-miterlimit:10;"/><path d="    M27.58476,22.38979c0,0-3.92289,1.4371-7.68359,0" style="fill:none;stroke:#30302F;stroke-width:0.7;stroke-linecap:round;stroke-linejoin:round;stroke-miterlimit:10;"/><line style="fill:none;stroke:#30302F;stroke-width:0.7;stroke-linecap:round;stroke-linejoin:round;stroke-miterlimit:10;" x1="30.08534" x2="17.91466" y1="26.05944" y2="26.05944"/><path d="    M33.70778,31.04858c0,0,1.58717,6.04451-9.96481,6.04451" style="fill:none;stroke:#30302F;stroke-width:0.7;stroke-linecap:round;stroke-linejoin:round;stroke-miterlimit:10;"/><path d="    M14.28825,31.04856c0,0-1.42554,6.11803,9.96478,6.04453" style="fill:none;stroke:#30302F;stroke-width:0.7;stroke-linecap:round;stroke-linejoin:round;stroke-miterlimit:10;"/><path d="    M35.47076,34.4637l-2.25462-0.03709c0.03538,1.0642,0.03835,1.16587-1.3378,1.94053    c-1.37614,0.77465,0.14944,1.34992,0.14944,1.34992c0.89182,2.99516,2.37549,0.47496,2.37549,0.47496    c2.08326,0.25013,1.27714-1.75093,1.10257-2.33457c-0.17457-0.58364,0-1.66755,0-1.66755    c1.17832-4.58576-1.10257-9.51762-1.10257-9.51762" style="fill:none;stroke:#30302F;stroke-width:0.7;stroke-linecap:round;stroke-linejoin:round;stroke-miterlimit:10;"/><path d="    M12.52924,34.4637l2.25462-0.03709c-0.03538,1.0642-0.03835,1.16587,1.3378,1.94053    c1.37614,0.77465-0.14944,1.34992-0.14944,1.34992c-0.89182,2.99516-2.37549,0.47496-2.37549,0.47496    c-2.08326,0.25013-1.27714-1.75093-1.10257-2.33457c0.17457-0.58364,0-1.66755,0-1.66755    c-1.17832-4.58576,1.10257-9.51762,1.10257-9.51762" style="fill:none;stroke:#30302F;stroke-width:0.7;stroke-linecap:round;stroke-linejoin:round;stroke-miterlimit:10;"/><path d="    M29.10712,36.61335c0,0-1.1182,2.25613-1.1182,2.81833h-2.53066c0,0-1.1182,0.16866-0.94164-0.78707    c0.17656-0.95573-0.41258-1.55259-0.41258-1.55259" style="fill:none;stroke:#30302F;stroke-width:0.7;stroke-linecap:round;stroke-linejoin:round;stroke-miterlimit:10;"/><path d="    M18.62739,36.61335c0,0,1.1182,2.25613,1.1182,2.81833h2.53066c0,0,1.1182,0.16866,0.94164-0.78707    c-0.17656-0.95573,0.41258-1.55259,0.41258-1.55259" style="fill:none;stroke:#30302F;stroke-width:0.7;stroke-linecap:round;stroke-linejoin:round;stroke-miterlimit:10;"/><path d="    M25.02003,39.44316c-0.01329,0.05077,0,1.70081,0,1.70081l0.35875,0.06346c0,0,0.73079,0.6854,1.93992,0.5204    s1.10283-0.25385,1.10283-0.25385s0.06644-1.07887-0.47834-1.33272c-0.54477-0.25385-0.59792-0.38078-0.57135-0.69809" style="fill:none;stroke:#30302F;stroke-width:0.7;stroke-linecap:round;stroke-linejoin:round;stroke-miterlimit:10;"/><path d="    M22.63322,39.44316c0.01329,0.05077,0,1.70081,0,1.70081l-0.35875,0.06346c0,0-0.73079,0.6854-1.93992,0.5204    c-1.20913-0.165-1.10283-0.25385-1.10283-0.25385s-0.06643-1.07887,0.47834-1.33272    c0.54477-0.25385,0.59792-0.38078,0.57135-0.69809" style="fill:none;stroke:#30302F;stroke-width:0.7;stroke-linecap:round;stroke-linejoin:round;stroke-miterlimit:10;"/><ellipse cx="30.78431" cy="26.59231" rx="0.35276" ry="0.33698" style="fill:#30302F;"/><ellipse cx="17.2652" cy="26.63695" rx="0.35276" ry="0.33698" style="fill:#30302F;"/><path d="    M30.98356,27.52651V29.355c0,1.04399,0.89718,1.86219,1.93675,1.76625l0.78747-0.07267c0,0-0.19149-1.51097-0.72017-2.17183" style="fill:none;stroke:#30302F;stroke-width:0.7;stroke-linecap:round;stroke-linejoin:round;stroke-miterlimit:10;"/><path d="    M14.28823,31.04858c0,0,0.12549-1.51097,0.65417-2.17183" style="fill:none;stroke:#30302F;stroke-width:0.7;stroke-linecap:round;stroke-linejoin:round;stroke-miterlimit:10;"/><path d="    M16.94187,27.52651V29.355c0,1.04399-0.89718,1.86219-1.93675,1.76625l-0.71689-0.07267" style="fill:none;stroke:#30302F;stroke-width:0.7;stroke-linecap:round;stroke-linejoin:round;stroke-miterlimit:10;"/></g></g></svg>