<?xml version="1.0" ?><svg style="enable-background:new 0 0 48 48;" version="1.1" viewBox="0 0 48 48" xml:space="preserve" xmlns="http://www.w3.org/2000/svg" xmlns:xlink="http://www.w3.org/1999/xlink"><g id="Icons"><g><path d="M27.88052,25.50135l0.56185,1.32458l5.37298,1.66438    c3.14882,0.83225,5.64217,2.83654,6.70739,5.40343l1.5569,3.73904C23.24496,44.10293,5.92037,37.6094,5.92037,37.6094    l1.5569-3.73904c1.06521-2.567,3.55856-4.57129,6.70738-5.41523l5.16227-1.76993l0.78435-1.26582" style="fill:#A67358;"/><path d="M20.16612,40.05172l-2.68443-0.00001l-0.54491-4.57885l-2.21157-1.91674    c0,0,4.21694-6.27029,4.35112-6.46982C19.04301,31.83404,19.33775,36.22945,20.16612,40.05172z" style="fill:#464747;"/><path d="M27.74164,40.05172l2.68443-0.00001l0.54491-4.57885l2.21157-1.91674    c0,0-4.21694-6.27029-4.35113-6.46982C28.86475,31.83404,28.57001,36.22945,27.74164,40.05172z" style="fill:#464747;"/><path d="M19.48256,27.23978c0,0-1.0298,4.10814,0.68355,12.81193l7.09693,0.38083    c0,0,2.31572-6.88522,1.11373-13.29993L19.48256,27.23978z" style="fill:#F4F4F4;"/><path d="M23.75774,29.95437c-0.1272,0.11479-1.52374,1.37513-1.52374,1.37513l0.83138,1.32469    L22.234,40.46428l3.40325,0.01052l-0.89497-7.51394l0.89497-1.38827L23.75774,29.95437z" style="fill:#F43735;"/><polygon points="19.34143,26.83051 20.76614,32.65419 23.75774,29.95437   " style="fill:#8D8D8D;"/><polygon points="24.05896,29.95437 28.44763,27.0863 27.13422,32.43002   " style="fill:#8D8D8D;"/><path d="M19.93177,25.51493l-0.58198,1.16477l4.54892,3.3794l4.67027-3.0521l-0.825-1.58761    C27.74398,25.41938,23.90815,28.52134,19.93177,25.51493z" style="fill:#DDBEA8;"/><path d="M23.95903,9.98259l-1.88469-2.46156c-3.02006,0.48065-5.59536,2.15672-5.59536,5.02842    l0.11708,4.26658c-0.86618,0.16411,0.04681,4.62985,0.9131,4.46574v-0.01169v0.01169    c0.01167,0.01169,0.01167,0.03518,0.02335,0.04687c0.44488,1.641,1.38133,3.0944,2.61044,4.07896    c1.06521,0.89079,2.3528,1.41833,3.74581,1.41833c1.4516,0,2.79768-0.52754,3.89803-1.44171    c1.19397-0.97287,2.0954-2.3912,2.51681-4.05558c0-0.01169,0.01167-0.02338,0.01167-0.03518    c0.93645,0.16411,1.96653-4.26647,1.04186-4.43056l0.1053-4.31346c0-2.90677-2.64546-4.59465-5.71245-5.0518L23.95903,9.98259z" style="fill:#8D8D8D;"/><path d="M25.45732,17.70684c0.03514-0.15242-0.29265-1.62931,1.36966-1.93404    c1.6622-0.29304,3.04341-0.25786,2.77422,0.59777c-0.25752,0.85563-0.62045,2.26215-1.69733,2.3677    C26.82698,18.85551,25.153,19.03131,25.45732,17.70684z" style="fill:#FFFFFF;"/><path d="M22.54256,17.70684c-0.03502-0.15242,0.30444-1.62931-1.36954-1.93404    c-1.6622-0.29304-3.03174-0.25786-2.77422,0.59777c0.25752,0.85563,0.63212,2.26215,1.70901,2.3677    C21.17302,18.85551,22.85868,19.03131,22.54256,17.70684z" style="fill:#FFFFFF;"/><g><path d="M24.36876,19.69945l0.4331,0.72668l-0.84283,0.78528l-0.77256-0.84394l0.44477-0.66802     C23.85442,19.60927,24.09879,19.60335,24.36876,19.69945z" style="fill:#30302F;"/></g><path d="    M27.88052,25.50135l0.56185,1.32458l5.37298,1.66438c3.14882,0.83225,5.64217,2.83654,6.70739,5.40343l1.5569,3.73904    C23.24496,44.10293,5.92037,37.6094,5.92037,37.6094l1.5569-3.73904c1.06521-2.567,3.55856-4.57129,6.70738-5.41523    l5.16227-1.76993l0.78435-1.26582" style="fill:none;stroke:#30302F;stroke-width:0.8;stroke-linecap:round;stroke-linejoin:round;stroke-miterlimit:10;"/><path d="    M23.95903,9.98259l-1.88469-2.46156c-3.02006,0.48065-5.59536,2.15672-5.59536,5.02842l0.11708,4.26658    c-0.86618,0.16411,0.04681,4.62985,0.9131,4.46574v-0.01169v0.01169c0.01167,0.01169,0.01167,0.03518,0.02335,0.04687    c0.44488,1.641,1.38133,3.0944,2.61044,4.07896c1.06521,0.89079,2.3528,1.41833,3.74581,1.41833    c1.4516,0,2.79768-0.52754,3.89803-1.44171c1.19397-0.97287,2.0954-2.3912,2.51681-4.05558    c0-0.01169,0.01167-0.02338,0.01167-0.03518c0.93645,0.16411,1.96653-4.26647,1.04186-4.43056l0.1053-4.31346    c0-2.90677-2.64546-4.59465-5.71245-5.0518L23.95903,9.98259z" style="fill:none;stroke:#30302F;stroke-width:0.8;stroke-linecap:round;stroke-linejoin:round;stroke-miterlimit:10;"/><path d="    M25.45732,17.70684c0.03514-0.15242-0.29265-1.62931,1.36966-1.93404c1.6622-0.29304,3.04341-0.25786,2.77422,0.59777    c-0.25752,0.85563-0.62045,2.26215-1.69733,2.3677C26.82698,18.85551,25.153,19.03131,25.45732,17.70684z" style="fill:none;stroke:#30302F;stroke-width:0.8;stroke-linecap:round;stroke-linejoin:round;stroke-miterlimit:10;"/><path d="    M22.54256,17.70684c-0.03502-0.15242,0.30444-1.62931-1.36954-1.93404c-1.6622-0.29304-3.03174-0.25786-2.77422,0.59777    c0.25752,0.85563,0.63212,2.26215,1.70901,2.3677C21.17302,18.85551,22.85868,19.03131,22.54256,17.70684z" style="fill:none;stroke:#30302F;stroke-width:0.8;stroke-linecap:round;stroke-linejoin:round;stroke-miterlimit:10;"/><path d="    M17.69641,21.28177c0.72574,0.73839,1.51009,1.33616,2.31778,1.78162c0.53839,0.30473,1.08856,0.53921,1.63873,0.70332    c0.74921,0.23436,1.49841,0.3516,2.25929,0.3516c0.70228,0,1.40468-0.09374,2.09529-0.29306    c0.55017-0.15242,1.08867-0.36338,1.62717-0.65643c0.87785-0.45704,1.73247-1.08999,2.5167-1.88705" style="fill:none;stroke:#30302F;stroke-width:0.8;stroke-linecap:round;stroke-linejoin:round;stroke-miterlimit:10;"/><path d="    M19.93224,22.04365c0,0-0.01167,0.45715,0.08195,1.01974c0.07016,0.3751,0.18724,0.78526,0.38628,1.16036" style="fill:none;stroke:#30302F;stroke-width:0.8;stroke-linecap:round;stroke-linejoin:round;stroke-miterlimit:10;"/><path d="    M21.57108,22.77035c0,0-0.01179,0.43366,0.08183,0.99636c0.07027,0.37498,0.18736,0.79695,0.39807,1.18374" style="fill:none;stroke:#30302F;stroke-width:0.8;stroke-linecap:round;stroke-linejoin:round;stroke-miterlimit:10;"/><path d="    M27.73997,22.04365c0,0,0.02346,0.51571-0.1053,1.12517c-0.07027,0.33991-0.18736,0.71501-0.3746,1.05492" style="fill:none;stroke:#30302F;stroke-width:0.8;stroke-linecap:round;stroke-linejoin:round;stroke-miterlimit:10;"/><path d="    M25.62122,24.95045c0.19903-0.36329,0.31612-0.7619,0.38628-1.1252c0.10541-0.58606,0.08195-1.0549,0.08195-1.0549" style="fill:none;stroke:#30302F;stroke-width:0.8;stroke-linecap:round;stroke-linejoin:round;stroke-miterlimit:10;"/><polyline points="    23.91221,25.24349 23.91221,24.95045 23.91221,24.11831 23.91221,22.91097   " style="fill:none;stroke:#30302F;stroke-width:0.8;stroke-linecap:round;stroke-linejoin:round;stroke-miterlimit:10;"/><polyline points="    28.44763,26.83051 23.91221,29.95437 19.34979,26.6797   " style="fill:none;stroke:#30302F;stroke-width:0.8;stroke-linecap:round;stroke-linejoin:round;stroke-miterlimit:10;"/><path d="    M23.91221,29.95437l3.16942,2.69982l1.36599-5.82368c0,0,0.92066,9.51184-1.18458,13.60202" style="fill:none;stroke:#30302F;stroke-width:0.8;stroke-linecap:round;stroke-linejoin:round;stroke-miterlimit:10;"/><path d="    M23.93556,29.95437l-3.16942,2.69982l-1.41635-5.97449c0,0-0.41592,6.4588,1.00158,13.49246" style="fill:none;stroke:#30302F;stroke-width:0.8;stroke-linecap:round;stroke-linejoin:round;stroke-miterlimit:10;"/><polyline points="    25.53229,31.43584 24.82681,32.80569 25.63725,40.4748   " style="fill:none;stroke:#30302F;stroke-width:0.8;stroke-linecap:round;stroke-linejoin:round;stroke-miterlimit:10;"/><polyline points="    22.3528,31.36571 23.14916,32.80569 22.234,40.36618   " style="fill:none;stroke:#30302F;stroke-width:0.8;stroke-linecap:round;stroke-linejoin:round;stroke-miterlimit:10;"/><line style="fill:none;stroke:#30302F;stroke-width:0.8;stroke-linecap:round;stroke-linejoin:round;stroke-miterlimit:10;" x1="24.82681" x2="23.14916" y1="32.80569" y2="32.80569"/><polyline points="    28.44763,26.83051 33.0722,33.55611 30.86075,35.47285 30.31584,40.05171   " style="fill:none;stroke:#30302F;stroke-width:0.8;stroke-linecap:round;stroke-linejoin:round;stroke-miterlimit:10;"/><polyline points="    19.34979,26.6797 14.72521,33.55611 16.93678,35.47285 17.48169,40.05171   " style="fill:none;stroke:#30302F;stroke-width:0.8;stroke-linecap:round;stroke-linejoin:round;stroke-miterlimit:10;"/></g></g></svg>