<?xml version="1.0" ?><svg style="enable-background:new 0 0 48 48;" version="1.1" viewBox="0 0 48 48" xml:space="preserve" xmlns="http://www.w3.org/2000/svg" xmlns:xlink="http://www.w3.org/1999/xlink"><g id="Icons"><g><path d="M10.4441,20.82263c0,0,2.43646-10.21896,13.6036-9.57502    c11.16714,0.64394,13.38249,8.61327,13.38249,8.61327s-0.21604-7.40523-7.17451-11.12607s-13.97657-0.28643-15.97489,2.5128    S10.40115,16.10356,10.4441,20.82263z" style="fill:#FFE291;"/><polygon points="17.113,39.16163 13.6061,38.57683 13.0106,33.47413 16.20424,35.45669   " style="fill:#CE9E34;"/><polygon points="31.3731,39.16163 34.7096,38.57683 35.084,33.47413 32.33335,35.06209   " style="fill:#CE9E34;"/><path d="M28.03592,35.88633h4.13h1.37c0,0,4.37-5.5,3.97-15.36c0,0-1.47834-8.75386-13.45822-9.27872    c0,0-11.83713,0.19535-13.60178,9.57872c-0.03,0.39-0.06,0.78-0.07,1.19c0,0-0.21,4.4,1.35,8.71c0.34,0.94,0.76,1.87,1.28,2.75    c0.52,0.87,1.14,1.69,1.87,2.41h1.42h3.77" style="fill:#FFD24A;"/><path d="M16.3007,35.88223c0,0,0.0508,3.3555,2.1353,4.9316h11.2361c0,0,2.3387-1.0168,2.4912-4.9316" style="fill:#FFD24A;"/><circle cx="18.04203" cy="25.47235" r="4.69015" style="fill:#F4F4F4;"/><circle cx="29.82458" cy="25.47235" r="4.69015" style="fill:#F4F4F4;"/><path d="M27.2306,37.71253h-6.3658c-0.4428,0-0.8018-0.359-0.8018-0.8019v-1.5612    c0-0.4428,0.359-0.8018,0.8018-0.8018h6.3658c0.4428,0,0.8018,0.359,0.8018,0.8018v1.5612    C28.0324,37.35353,27.6734,37.71253,27.2306,37.71253z" style="fill:#AD8027;"/><polyline points="10.376,22.01883 8.0898,22.68873 8.8905,29.55243 11.728,30.72883   " style="fill:#CE9E34;"/><polyline points="37.624,22.01883 39.9102,22.68873 39.1094,29.55243 36.272,30.72883   " style="fill:#CE9E34;"/><path d="    M28.03592,35.88633h4.13h1.37c0,0,4.37-5.5,3.97-15.36c0,0-0.83-13.1-13.79-13.34c0,0-12.15-0.2-13.27,13.64    c-0.03,0.39-0.06,0.78-0.07,1.19c0,0-0.21,4.4,1.35,8.71c0.34,0.94,0.76,1.87,1.28,2.75c0.52,0.87,1.14,1.69,1.87,2.41h1.42h3.77" style="fill:none;stroke:#303030;stroke-width:0.75;stroke-linecap:round;stroke-linejoin:round;stroke-miterlimit:10;"/><path d="    M16.3007,35.88223c0,0,0.0508,3.3555,2.1353,4.9316h11.2361c0,0,2.3387-1.0168,2.4912-4.9316" style="fill:none;stroke:#303030;stroke-width:0.75;stroke-linecap:round;stroke-linejoin:round;stroke-miterlimit:10;"/><polyline points="    13.0106,33.47413 13.6061,38.57683 17.113,39.16163   " style="fill:none;stroke:#303030;stroke-width:0.75;stroke-linecap:round;stroke-linejoin:round;stroke-miterlimit:10;"/><polyline points="    35.084,33.47413 34.7096,38.57683 31.3731,39.16163   " style="fill:none;stroke:#303030;stroke-width:0.75;stroke-linecap:round;stroke-linejoin:round;stroke-miterlimit:10;"/><polyline points="    10.376,22.01883 8.0898,22.68873 8.8905,29.55243 11.728,30.72883   " style="fill:none;stroke:#303030;stroke-width:0.75;stroke-linecap:round;stroke-linejoin:round;stroke-miterlimit:10;"/><polyline points="    37.624,22.01883 39.9102,22.68873 39.1094,29.55243 36.272,30.72883   " style="fill:none;stroke:#303030;stroke-width:0.75;stroke-linecap:round;stroke-linejoin:round;stroke-miterlimit:10;"/><path d="    M10.4441,20.82263c0,0,2.26182-9.7277,12.7456-9.5732c0,0,3.1649,0,4.8427,0.305" style="fill:none;stroke:#303030;stroke-width:0.75;stroke-linecap:round;stroke-linejoin:round;stroke-miterlimit:10;"/><path d="    M29.8246,12.16453c0,0,1.1439,0.4576,1.9065,0.9914" style="fill:none;stroke:#303030;stroke-width:0.75;stroke-linecap:round;stroke-linejoin:round;stroke-miterlimit:10;"/><path d="    M33.8284,14.49053c0.15252,0.0382,3.0134,2.9604,3.642,5.7128" style="fill:none;stroke:#303030;stroke-width:0.75;stroke-linecap:round;stroke-linejoin:round;stroke-miterlimit:10;"/><circle cx="23.9478" cy="9.30473" r="0.8389" style="fill:#303030;"/><circle cx="18.04203" cy="25.47235" r="4.69015" style="fill:none;stroke:#303030;stroke-width:0.75;stroke-miterlimit:10;"/><line style="fill:none;stroke:#303030;stroke-width:0.75;stroke-miterlimit:10;" x1="15.83792" x2="15.83792" y1="21.33223" y2="29.63503"/><line style="fill:none;stroke:#303030;stroke-width:0.75;stroke-miterlimit:10;" x1="20.3923" x2="20.3923" y1="21.41593" y2="29.63503"/><line style="fill:none;stroke:#303030;stroke-width:0.75;stroke-linecap:round;stroke-linejoin:round;stroke-miterlimit:10;" x1="18.042" x2="18.042" y1="20.78223" y2="22.38373"/><line style="fill:none;stroke:#303030;stroke-width:0.75;stroke-linecap:round;stroke-linejoin:round;stroke-miterlimit:10;" x1="18.042" x2="18.042" y1="28.56103" y2="30.16253"/><circle cx="18.04202" cy="25.47235" r="0.90145" style="fill:#303030;"/><circle cx="29.82458" cy="25.47235" r="4.69015" style="fill:none;stroke:#303030;stroke-width:0.75;stroke-miterlimit:10;"/><line style="fill:none;stroke:#303030;stroke-width:0.75;stroke-miterlimit:10;" x1="27.6204" x2="27.6204" y1="21.33223" y2="29.63503"/><line style="fill:none;stroke:#303030;stroke-width:0.75;stroke-miterlimit:10;" x1="32.1748" x2="32.1748" y1="21.41593" y2="29.63503"/><line style="fill:none;stroke:#303030;stroke-width:0.75;stroke-linecap:round;stroke-linejoin:round;stroke-miterlimit:10;" x1="29.8246" x2="29.8246" y1="20.78223" y2="22.38373"/><line style="fill:none;stroke:#303030;stroke-width:0.75;stroke-linecap:round;stroke-linejoin:round;stroke-miterlimit:10;" x1="29.8246" x2="29.8246" y1="28.56103" y2="30.16253"/><circle cx="29.82458" cy="25.47235" r="0.90145" style="fill:#303030;"/><polyline points="    22.08392,32.06903 23.9478,30.72883 25.8208,32.06903   " style="fill:none;stroke:#303030;stroke-width:0.75;stroke-linecap:round;stroke-linejoin:round;stroke-miterlimit:10;"/><path d="    M27.2306,37.71253h-6.3658c-0.4428,0-0.8018-0.359-0.8018-0.8019v-1.5612c0-0.4428,0.359-0.8018,0.8018-0.8018h6.3658    c0.4428,0,0.8018,0.359,0.8018,0.8018v1.5612C28.0324,37.35353,27.6734,37.71253,27.2306,37.71253z" style="fill:none;stroke:#303030;stroke-width:0.75;stroke-linecap:round;stroke-linejoin:round;stroke-miterlimit:10;"/><path d="    M13.35192,19.56713c0,0,2.339-4.9319,6.71108-5.5484" style="fill:none;stroke:#303030;stroke-width:0.75;stroke-linecap:round;stroke-linejoin:round;stroke-miterlimit:10;"/></g></g></svg>