<?xml version="1.0" ?><svg style="enable-background:new 0 0 48 48;" version="1.1" viewBox="0 0 48 48" xml:space="preserve" xmlns="http://www.w3.org/2000/svg" xmlns:xlink="http://www.w3.org/1999/xlink"><g id="Icons"><g><polyline points="11.79221,37.47406 9.80641,41.9018 16.33578,41.9018 14.46166,37.47406   " style="fill:#F4F4F4;"/><polyline points="36.20779,37.47406 38.19359,41.9018 31.66413,41.9018 33.53835,37.47406   " style="fill:#F4F4F4;"/><polyline points="16.83303,35.46977 18.06003,37.79753 30.3237,37.79753 31.4402,35.20812   " style="fill:#CCCCCC;"/><path d="M15.89751,14.1887c0-4.46481,3.61574-8.0905,8.09049-8.0905    c4.46481,0,8.09059,3.62569,8.09059,8.0905" style="fill:#F4F4F4;"/><circle cx="23.59206" cy="10.1434" r="1.49841" style="fill:#F43735;"/><path d="M29.77051,35.92268H18.20548c-1.27465,0-2.30797-1.03333-2.30797-2.30807V16.12758h16.18108    V33.6146C32.07859,34.88935,31.04525,35.92268,29.77051,35.92268z" style="fill:#F4F4F4;"/><rect height="11.44065" style="fill:#DBDBDB;" width="3.0759" x="11.53314" y="26.03341"/><rect height="5.15803" style="fill:#50ABFE;" width="2.67681" x="22.4137" y="26.02513"/><rect height="1.93888" style="fill:#50ABFE;" width="15.97679" x="15.89751" y="14.1887"/><rect height="11.44065" style="fill:#DBDBDB;" transform="matrix(-1 -1.224647e-16 1.224647e-16 -1 69.85781 63.50747)" width="3.0759" x="33.39095" y="26.03341"/><rect height="2.24055" style="fill:#50ABFE;" width="10.77586" x="18.36418" y="18.10133"/><rect height="2.24046" style="fill:#50ABFE;" width="10.77586" x="18.36418" y="21.74533"/><path d="M15.10391,26.03341h-3.45972c-0.43828,0-0.79359-0.3553-0.79359-0.79359v-6.97243    c0-0.43828,0.3553-0.79358,0.79359-0.79358h3.45972c0.43828,0,0.7936,0.3553,0.7936,0.79358v6.97243    C15.89751,25.67811,15.54219,26.03341,15.10391,26.03341z" style="fill:#F4F4F4;"/><path d="M32.89609,26.03341h3.45972c0.43829,0,0.79359-0.3553,0.79359-0.79359v-6.97243    c0-0.43828-0.3553-0.79358-0.79359-0.79358h-3.45972c-0.43829,0-0.79359,0.3553-0.79359,0.79358v6.97243    C32.1025,25.67811,32.45781,26.03341,32.89609,26.03341z" style="fill:#F4F4F4;"/><path d="    M15.89751,14.1887c0-4.46481,3.61574-8.0905,8.09049-8.0905c4.46481,0,8.09059,3.62569,8.09059,8.0905" style="fill:none;stroke:#303030;stroke-width:0.75;stroke-linecap:round;stroke-linejoin:round;stroke-miterlimit:10;"/><line style="fill:none;stroke:#303030;stroke-width:0.75;stroke-linecap:round;stroke-linejoin:round;stroke-miterlimit:10;" x1="32.07859" x2="15.89751" y1="14.1887" y2="14.1887"/><path d="    M29.77051,35.92268H18.20548c-1.27465,0-2.30797-1.03333-2.30797-2.30807V16.12758h16.18108V33.6146    C32.07859,34.88935,31.04525,35.92268,29.77051,35.92268z" style="fill:none;stroke:#303030;stroke-width:0.75;stroke-linecap:round;stroke-linejoin:round;stroke-miterlimit:10;"/><circle cx="23.59206" cy="10.1434" r="1.49841" style="fill:none;stroke:#303030;stroke-width:0.75;stroke-linecap:round;stroke-linejoin:round;stroke-miterlimit:10;"/><circle cx="27.1662" cy="12.1753" r="0.8049" style="fill:#303030;"/><line style="fill:none;stroke:#303030;stroke-width:0.75;stroke-linecap:round;stroke-linejoin:round;stroke-miterlimit:10;" x1="15.89751" x2="15.89751" y1="14.1887" y2="16.12758"/><line style="fill:none;stroke:#303030;stroke-width:0.75;stroke-linecap:round;stroke-linejoin:round;stroke-miterlimit:10;" x1="32.07859" x2="32.07859" y1="14.1887" y2="16.12758"/><rect height="2.24055" style="fill:none;stroke:#303030;stroke-width:0.75;stroke-linecap:round;stroke-linejoin:round;stroke-miterlimit:10;" width="10.77586" x="18.36418" y="18.10133"/><rect height="2.24046" style="fill:none;stroke:#303030;stroke-width:0.75;stroke-linecap:round;stroke-linejoin:round;stroke-miterlimit:10;" width="10.77586" x="18.36418" y="21.74533"/><rect height="5.15803" style="fill:none;stroke:#303030;stroke-width:0.75;stroke-linecap:round;stroke-linejoin:round;stroke-miterlimit:10;" width="2.67681" x="22.4137" y="26.02513"/><circle cx="23.75211" cy="33.69529" r="0.92505" style="fill:#303030;"/><polyline points="    16.83303,35.46977 18.06003,37.79753 30.3237,37.79753 31.4402,35.20812   " style="fill:none;stroke:#303030;stroke-width:0.75;stroke-linecap:round;stroke-miterlimit:10;"/><line style="fill:none;stroke:#303030;stroke-width:0.75;stroke-miterlimit:10;" x1="20.37638" x2="21.29196" y1="35.92268" y2="37.79753"/><line style="fill:none;stroke:#303030;stroke-width:0.75;stroke-miterlimit:10;" x1="27.88305" x2="26.96748" y1="35.92268" y2="37.79753"/><path d="M17.70675,14.1887    c0,0,0.08042-2.76255,1.84918-4.24999" style="fill:none;stroke:#303030;stroke-width:0.75;stroke-linecap:round;stroke-miterlimit:10;"/><line style="fill:none;stroke:#303030;stroke-width:0.75;stroke-linecap:round;stroke-miterlimit:10;" x1="17.92405" x2="19.95917" y1="27.3812" y2="27.3812"/><line style="fill:none;stroke:#303030;stroke-width:0.75;stroke-linecap:round;stroke-miterlimit:10;" x1="17.92405" x2="19.95917" y1="29.31456" y2="29.31456"/><line style="fill:none;stroke:#303030;stroke-width:0.75;stroke-linecap:round;stroke-miterlimit:10;" x1="17.92405" x2="19.95917" y1="31.24793" y2="31.24793"/><path d="    M15.10391,26.03341h-3.45972c-0.43828,0-0.79359-0.3553-0.79359-0.79359v-6.97243c0-0.43828,0.3553-0.79358,0.79359-0.79358    h3.45972c0.43828,0,0.7936,0.3553,0.7936,0.79358v6.97243C15.89751,25.67811,15.54219,26.03341,15.10391,26.03341z" style="fill:none;stroke:#303030;stroke-width:0.75;stroke-linecap:round;stroke-linejoin:round;stroke-miterlimit:10;"/><rect height="11.44065" style="fill:none;stroke:#303030;stroke-width:0.75;stroke-linecap:round;stroke-linejoin:round;stroke-miterlimit:10;" width="3.0759" x="11.53314" y="26.03341"/><polyline points="    11.53314,37.47406 9.80641,41.9018 16.33578,41.9018 14.46166,37.47406   " style="fill:none;stroke:#303030;stroke-width:0.75;stroke-linecap:round;stroke-linejoin:round;stroke-miterlimit:10;"/><line style="fill:none;stroke:#303030;stroke-width:0.75;stroke-linecap:round;stroke-miterlimit:10;" x1="13.43136" x2="13.43136" y1="17.66139" y2="21.24568"/><path d="    M32.89609,26.03341h3.45972c0.43829,0,0.79359-0.3553,0.79359-0.79359v-6.97243c0-0.43828-0.3553-0.79358-0.79359-0.79358    h-3.45972c-0.43829,0-0.79359,0.3553-0.79359,0.79358v6.97243C32.1025,25.67811,32.45781,26.03341,32.89609,26.03341z" style="fill:none;stroke:#303030;stroke-width:0.75;stroke-linecap:round;stroke-linejoin:round;stroke-miterlimit:10;"/><rect height="11.44065" style="fill:none;stroke:#303030;stroke-width:0.75;stroke-linecap:round;stroke-linejoin:round;stroke-miterlimit:10;" transform="matrix(-1 -1.224647e-16 1.224647e-16 -1 69.85781 63.50747)" width="3.0759" x="33.39095" y="26.03341"/><polyline points="    36.46685,37.47406 38.19359,41.9018 31.66413,41.9018 33.39095,37.47406   " style="fill:none;stroke:#303030;stroke-width:0.75;stroke-linecap:round;stroke-linejoin:round;stroke-miterlimit:10;"/><line style="fill:none;stroke:#303030;stroke-width:0.75;stroke-linecap:round;stroke-miterlimit:10;" x1="34.56864" x2="34.56864" y1="17.66139" y2="21.24568"/><path d="M28.82063,34.34416    c0,0,1.65809,0.24693,1.65809-2.43421v-2.46944" style="fill:none;stroke:#303030;stroke-width:0.75;stroke-linecap:round;stroke-miterlimit:10;"/><line style="fill:none;stroke:#303030;stroke-width:0.75;stroke-linecap:round;stroke-miterlimit:10;" x1="30.47872" x2="30.47872" y1="27.90587" y2="26.79461"/></g></g></svg>