<?xml version="1.0" ?><svg style="enable-background:new 0 0 48 48;" version="1.1" viewBox="0 0 48 48" xml:space="preserve" xmlns="http://www.w3.org/2000/svg" xmlns:xlink="http://www.w3.org/1999/xlink"><g id="Icons"><g><path d="M40.54008,14.92367c-0.92853-3.48212-4.34436-2.61987-4.34436-2.61987    c-0.40247,0.08246-0.75458,0.36096-1.07104,0.75043l0.00244-0.02264c-4.82166-6.83868-11.40106-5.31299-11.40106-5.31299    s-7.32806-1.31494-10.50641,5.62439l-0.02814,0.3042c-0.36401-0.72095-0.81744-1.22668-1.38727-1.34338    c0,0-3.41577-0.86224-4.34436,2.61987c0,0-1.62494,2.38776-0.79584,5.43866c0,0,0.01166,0.0484,0.03503,0.1283    c0.15503,0.57599,0.7608,2.92682,0.52869,3.65228c-0.26526,0.8291-0.56372,3.94635,0.49744,4.97449    c1.06128,1.02795,2.95148,8.92078,7.42847,5.27289c0,0,0.90967,1.65369,2.29535,2.26941l-0.005-0.02539    c0.27026,0.38434,0.5578,0.75305,0.88184,1.08551c0,0,2.11597,2.8847,5.40021,2.74335c0,0,4.06097,0.36621,6.89795-4.28101    l-0.07306,0.47754c1.3858-0.61572,2.29541-2.26941,2.29541-2.26941c4.47693,3.64789,6.36719-4.24493,7.42841-5.27289    c1.06128-1.02814,0.76282-4.14539,0.4975-4.97449c-0.23218-0.72546,0.37372-3.07629,0.52875-3.65228    c0.02338-0.0799,0.03503-0.1283,0.03503-0.1283C42.16502,17.31142,40.54008,14.92367,40.54008,14.92367z" style="fill:#72502A;"/><path d="M14.67892,23.67137c0,0-0.67328,9.59424,3.64692,14.02669c0,0,2.11596,2.88472,5.40021,2.74339    c0,0,6.7208,0.61028,8.91027-9.63099c0,0,1.19897-5.76374,0.17485-8.94209c0,0-7.46066-1.86429-9.08512-5.99609    c0,0-1.90113,5.47381-9.08512,6.49792L14.67892,23.67137z" style="fill:#F9D9C0;"/><path d="    M14.67892,23.67137c0,0-0.67328,9.59424,3.64692,14.02669c0,0,2.11596,2.88472,5.40021,2.74339    c0,0,6.7208,0.61028,8.91027-9.63099c0,0,1.19897-5.76374,0.17485-8.94209c0,0-7.46066-1.86429-9.08512-5.99609    c0,0-1.90113,5.47381-9.08512,6.49792L14.67892,23.67137z" style="fill:none;stroke:#303030;stroke-width:0.75;stroke-linecap:round;stroke-linejoin:round;stroke-miterlimit:10;"/><polyline points="    21.86536,29.49347 23.72604,30.12914 25.3615,29.49347   " style="fill:none;stroke:#303030;stroke-width:0.75;stroke-linecap:round;stroke-linejoin:round;stroke-miterlimit:10;"/><path d="    M23.72604,15.87228V7.69685c0,0-7.32805-1.31491-10.5064,5.62441" style="fill:none;stroke:#303030;stroke-width:0.75;stroke-linecap:round;stroke-linejoin:round;stroke-miterlimit:10;"/><path d="    M23.72604,7.69685c0,0,6.57938-1.52566,11.40104,5.31297" style="fill:none;stroke:#303030;stroke-width:0.75;stroke-linecap:round;stroke-linejoin:round;stroke-miterlimit:10;"/><path d="    M14.64092,22.3702c0,0-0.0842-9.52434-2.83669-10.08812c0,0-3.41581-0.86224-4.34436,2.61987c0,0-1.62493,2.38772-0.79584,5.43866    c0,0,0.82899,2.95149,0.56368,3.78058c-0.26522,0.82909-0.56368,3.94634,0.49747,4.97444    c1.06125,1.028,2.95149,8.92078,7.42846,5.2729c0,0,0.9097,1.65373,2.29536,2.26941" style="fill:none;stroke:#303030;stroke-width:0.75;stroke-linecap:round;stroke-linejoin:round;stroke-miterlimit:10;"/><path d="    M7.45988,14.90196c0,0,3.28311,1.06115,3.81373,0.26522c0.53062-0.79584-0.46422-0.89539-0.46422-0.89539" style="fill:none;stroke:#303030;stroke-width:0.75;stroke-linecap:round;stroke-linejoin:round;stroke-miterlimit:10;"/><path d="    M6.66403,20.34062c0,0,0.76269,3.28311,3.88004,3.68103" style="fill:none;stroke:#303030;stroke-width:0.75;stroke-linecap:round;stroke-linejoin:round;stroke-miterlimit:10;"/><line style="fill:none;stroke:#303030;stroke-width:0.75;stroke-linecap:round;stroke-linejoin:round;stroke-miterlimit:10;" x1="11.74304" x2="12.64848" y1="24.28355" y2="24.54195"/><path d="    M7.72519,29.09564c0,0,3.34941,1.88996,5.73722,1.32637" style="fill:none;stroke:#303030;stroke-width:0.75;stroke-linecap:round;stroke-linejoin:round;stroke-miterlimit:10;"/><path d="    M8.81959,29.81125c0,0,2.22186,2.60065,4.80858,2.26903" style="fill:none;stroke:#303030;stroke-width:0.75;stroke-linecap:round;stroke-linejoin:round;stroke-miterlimit:10;"/><path d="    M32.81116,21.86837c0,0,0.63207-9.02251,3.38455-9.58629c0,0,3.41581-0.86224,4.34436,2.61987    c0,0,1.62493,2.38772,0.79594,5.43866c0,0-0.82909,2.95149-0.56378,3.78058c0.26531,0.82909,0.56378,3.94634-0.49747,4.97444    c-1.06125,1.028-2.95149,8.92078-7.42845,5.2729c0,0-0.90961,1.65373-2.29537,2.26941" style="fill:none;stroke:#303030;stroke-width:0.75;stroke-linecap:round;stroke-linejoin:round;stroke-miterlimit:10;"/><path d="    M40.54007,14.90196c0,0-3.28311,1.06115-3.81373,0.26522c-0.53062-0.79584,0.46432-0.89539,0.46432-0.89539" style="fill:none;stroke:#303030;stroke-width:0.75;stroke-linecap:round;stroke-linejoin:round;stroke-miterlimit:10;"/><path d="    M41.33601,20.34062c0,0-0.76279,3.28311-3.88004,3.68103" style="fill:none;stroke:#303030;stroke-width:0.75;stroke-linecap:round;stroke-linejoin:round;stroke-miterlimit:10;"/><line style="fill:none;stroke:#303030;stroke-width:0.75;stroke-linecap:round;stroke-linejoin:round;stroke-miterlimit:10;" x1="36.25691" x2="35.35157" y1="24.28355" y2="24.54195"/><path d="    M40.27476,29.09564c0,0-3.34941,1.88996-5.73713,1.32637" style="fill:none;stroke:#303030;stroke-width:0.75;stroke-linecap:round;stroke-linejoin:round;stroke-miterlimit:10;"/><path d="    M39.18036,29.81125c0,0-2.22186,2.60065-4.80858,2.26903" style="fill:none;stroke:#303030;stroke-width:0.75;stroke-linecap:round;stroke-linejoin:round;stroke-miterlimit:10;"/><path d="    M13.68008,14.86748c0,0,2.36242-4.26991,5.86273-4.58675" style="fill:none;stroke:#303030;stroke-width:0.75;stroke-linecap:round;stroke-linejoin:round;stroke-miterlimit:10;"/><path d="    M14.52593,19.99461c0,0,2.62025,0.09197,5.01688-2.30465" style="fill:none;stroke:#303030;stroke-width:0.75;stroke-linecap:round;stroke-linejoin:round;stroke-miterlimit:10;"/><line style="fill:none;stroke:#303030;stroke-width:0.75;stroke-linecap:round;stroke-linejoin:round;stroke-miterlimit:10;" x1="20.55196" x2="21.27724" y1="16.49165" y2="15.7032"/><path d="    M34.25868,14.58521c0,0-1.77052-2.266-3.70774-3.01079" style="fill:none;stroke:#303030;stroke-width:0.75;stroke-linecap:round;stroke-linejoin:round;stroke-miterlimit:10;"/><line style="fill:none;stroke:#303030;stroke-width:0.75;stroke-linecap:round;stroke-linejoin:round;stroke-miterlimit:10;" x1="28.65293" x2="27.7906" y1="10.82973" y2="10.51611"/><path d="    M26.86347,34.0356c-0.6512-0.02955-1.74229-0.50315-1.74229-0.50315c-0.88232-0.59532-1.53921-0.0592-1.53921-0.0592    c-0.62164-0.592-1.59841,0-1.59841,0c-0.38485,0.32555-1.51373,0.50979-1.51373,0.50979l3.19682,0.6709L26.86347,34.0356z" style="fill:none;stroke:#303030;stroke-width:0.75;stroke-linecap:round;stroke-linejoin:round;stroke-miterlimit:10;"/><path d="    M21.86536,35.83879c0,0,2.11046,0.70179,3.49614,0" style="fill:none;stroke:#303030;stroke-width:0.75;stroke-linecap:round;stroke-linejoin:round;stroke-miterlimit:10;"/></g></g></svg>