<?xml version="1.0" ?><svg style="enable-background:new 0 0 48 48;" version="1.1" viewBox="0 0 48 48" xml:space="preserve" xmlns="http://www.w3.org/2000/svg" xmlns:xlink="http://www.w3.org/1999/xlink"><g id="Icons"><g><path d="M34.32019,18.70432c0,0,1.7228-2.08717,4.88335-0.3154c0,0-0.04796,0.23946-0.81406,0.7661    c-0.76621,0.52676,1.04031,5.97974-4.31641,7.75456" style="fill:#EFC0A0;"/><path d="M13.6798,18.70432c0,0-1.72291-2.08717-4.88335-0.3154c0,0,0.04785,0.23946,0.81406,0.7661    c0.7661,0.52676-1.04031,5.97974,4.3163,7.75456" style="fill:#EFC0A0;"/><path d="M24.05778,6.43417c0,0-6.99026,0.07436-8.84938,5.27988s-1.63602,4.38751-1.41293,6.99027    c0.22309,2.60276-2.00243,3.49525-0.14602,7.3622c0.70268,1.46359,1.31532,2.97007,2.10263,4.39225    c0.80864,1.46066,1.80957,2.86896,3.19124,3.83942c1.74627,1.22651,3.76246,1.3635,5.83666,1.2897    c1.11016-0.03949,2.16255-0.1555,3.18718-0.60744c0.79973-0.35275,1.52205-0.86021,2.15093-1.46519    c1.26928-1.22098,2.15274-2.78408,2.91523-4.35488c0.4964-1.0226,0.94101-2.06923,1.4329-3.09386    c1.8564-3.86696-0.36911-4.75944-0.14602-7.3622c0.22309-2.60276,0.44619-1.78475-1.41293-6.99027    C31.04816,6.50854,24.05778,6.43417,24.05778,6.43417" style="fill:#F9D9C0;"/><path d="M26.10963,20.79127c0,0,0.72277-3.06915,3.55359-3.11564    c2.83093-0.04649,3.49344,2.78433,3.49344,2.78433S29.9644,24.37498,26.10963,20.79127z" style="fill:#FFF2E3;"/><path d="M22.37572,20.79127c0,0-0.72277-3.06915-3.5537-3.11564    c-2.83082-0.04649-3.49344,2.78433-3.49344,2.78433S18.52083,24.37498,22.37572,20.79127z" style="fill:#FFF2E3;"/><path d="M28.14909,29.03826c-0.40729,0.28845-1.42535-0.25458-2.25677-0.42432    c-0.83142-0.16956-1.70612,0-1.70612,0s-0.87463-0.16956-1.70612,0c-0.83142,0.16974-1.84949,0.71277-2.25677,0.42432    c0,0,0.06116,0.13495,0.22113,0.31329h-0.0058c0,0,0.26202,2.07306,3.74261,1.71454h0.00494    c3.48059,0.35852,3.74274-1.71454,3.74274-1.71454h-0.00098C28.08793,29.17321,28.14909,29.03826,28.14909,29.03826z" style="fill:#FFB7AB;"/><path d="    M24.05778,6.43417c0,0-6.99026,0.07436-8.84938,5.27988s-1.63602,4.38751-1.41293,6.99027    c0.22309,2.60276-2.00243,3.49525-0.14602,7.3622c0.70268,1.46359,1.31532,2.97007,2.10263,4.39225    c0.80864,1.46066,1.80957,2.86896,3.19124,3.83942c1.74627,1.22651,3.76246,1.3635,5.83666,1.2897    c1.11016-0.03949,2.16255-0.1555,3.18718-0.60744c0.79973-0.35275,1.52205-0.86021,2.15093-1.46519    c1.26928-1.22098,2.15274-2.78408,2.91523-4.35488c0.4964-1.0226,0.94101-2.06923,1.4329-3.09386    c1.8564-3.86696-0.36911-4.75944-0.14602-7.3622c0.22309-2.60276,0.44619-1.78475-1.41293-6.99027    C31.04816,6.50854,24.05778,6.43417,24.05778,6.43417" style="fill:none;stroke:#30302F;stroke-width:0.8;stroke-linecap:round;stroke-linejoin:round;stroke-miterlimit:10;"/><path d="    M34.32019,18.70432c0,0,1.7228-2.08717,4.88335-0.3154c0,0-0.04796,0.23946-0.81406,0.7661    c-0.76621,0.52676,1.04031,5.97974-4.31641,7.75456" style="fill:none;stroke:#30302F;stroke-width:0.8;stroke-linecap:round;stroke-linejoin:round;stroke-miterlimit:10;"/><path d="    M13.6798,18.70432c0,0-1.72291-2.08717-4.88335-0.3154c0,0,0.04785,0.23946,0.81406,0.7661    c0.7661,0.52676-1.04031,5.97974,4.3163,7.75456" style="fill:none;stroke:#30302F;stroke-width:0.8;stroke-linecap:round;stroke-linejoin:round;stroke-miterlimit:10;"/><path d="    M25.74221,22.76616c0,0,1.22888-0.00632,1.1685,0.69885c-0.06048,0.70505-0.80593,0.86619-1.1685,1.00725    c-0.27478,0.10684-0.723,0.53904-1.05555,0.85818c-0.13496,0.12943-0.31359,0.20177-0.50047,0.20177l0,0    c-0.18698,0-0.36562-0.07233-0.50047-0.20177c-0.33255-0.31915-0.78077-0.75134-1.05555-0.85818    c-0.36257-0.14106-1.10802-0.3022-1.1685-1.00725c-0.06037-0.70517,1.1685-0.69885,1.1685-0.69885" style="fill:none;stroke:#30302F;stroke-width:0.8;stroke-linecap:round;stroke-linejoin:round;stroke-miterlimit:10;"/><path d="    M21.45953,23.33681c0,0-0.06613,1.0578-0.59977,1.30886c-0.53375,0.25121-3.01396,2.00933-3.01396,3.01399    c0,0-0.08418,1.65701,0.61839,2.51497" style="fill:none;stroke:#30302F;stroke-width:0.8;stroke-linecap:round;stroke-linejoin:round;stroke-miterlimit:10;"/><path d="    M26.90078,23.33681c0,0,0.06601,1.0578,0.59977,1.30886c0.53375,0.25121,3.01385,2.00933,3.01385,3.01399    c0,0,0.08418,1.65701-0.61827,2.51497" style="fill:none;stroke:#30302F;stroke-width:0.8;stroke-linecap:round;stroke-linejoin:round;stroke-miterlimit:10;"/><path d="    M26.10963,20.79127c0,0,0.72277-3.06915,3.55359-3.11564c2.83093-0.04649,3.49344,2.78433,3.49344,2.78433    S29.9644,24.37498,26.10963,20.79127z" style="fill:none;stroke:#30302F;stroke-width:0.8;stroke-linecap:round;stroke-linejoin:round;stroke-miterlimit:10;"/><path d="    M22.37572,20.79127c0,0-0.72277-3.06915-3.5537-3.11564c-2.83082-0.04649-3.49344,2.78433-3.49344,2.78433    S18.52083,24.37498,22.37572,20.79127z" style="fill:none;stroke:#30302F;stroke-width:0.8;stroke-linecap:round;stroke-linejoin:round;stroke-miterlimit:10;"/><circle cx="29.8052" cy="20.52814" r="1.48408" style="fill:#73BFE5;"/><circle cx="29.67306" cy="20.6295" r="0.84447" style="fill:#30302F;"/><ellipse cx="30.28419" cy="20.29112" rx="0.33227" ry="0.33226" style="fill:#FFFFFF;" transform="matrix(0.59719 -0.8021 0.8021 0.59719 -4.07674 32.46437)"/><circle cx="18.73185" cy="20.52814" r="1.48411" style="fill:#73BFE5;"/><g><path d="     M24.18619,28.61399c0,0,0.87466-0.16961,1.7061,0c0.83144,0.1697,1.84952,0.71273,2.25678,0.4243     c0,0-0.69738,1.61185-3.96287,1.11985" style="fill:none;stroke:#30302F;stroke-width:0.8;stroke-linecap:round;stroke-linejoin:round;stroke-miterlimit:10;"/><path d="     M24.18619,28.61399c0,0-0.87466-0.16961-1.7061,0c-0.83144,0.1697-1.84952,0.71273-2.25678,0.4243     c0,0,0.69738,1.61185,3.96287,1.11985" style="fill:none;stroke:#30302F;stroke-width:0.8;stroke-linecap:round;stroke-linejoin:round;stroke-miterlimit:10;"/><path d="     M27.92891,29.35154c0,0-0.26214,2.07307-3.74271,1.71456" style="fill:none;stroke:#30302F;stroke-width:0.8;stroke-linecap:round;stroke-linejoin:round;stroke-miterlimit:10;"/><path d="     M20.43863,29.35154c0,0,0.26202,2.07307,3.7426,1.71456" style="fill:none;stroke:#30302F;stroke-width:0.8;stroke-linecap:round;stroke-linejoin:round;stroke-miterlimit:10;"/></g><circle cx="29.8052" cy="20.52814" r="1.48408" style="fill:none;stroke:#30302F;stroke-width:0.8;stroke-linecap:round;stroke-linejoin:round;stroke-miterlimit:10;"/><circle cx="18.73185" cy="20.52814" r="1.48411" style="fill:none;stroke:#30302F;stroke-width:0.8;stroke-linecap:round;stroke-linejoin:round;stroke-miterlimit:10;"/><path d="    M26.10963,20.79127c0,0-0.56806-0.84895-0.20854-1.74719" style="fill:none;stroke:#30302F;stroke-width:0.8;stroke-linecap:round;stroke-linejoin:round;stroke-miterlimit:10;"/><path d="    M22.36579,20.79127c0,0,0.56806-0.84895,0.20854-1.74719" style="fill:none;stroke:#30302F;stroke-width:0.8;stroke-linecap:round;stroke-linejoin:round;stroke-miterlimit:10;"/><path d="    M27.29032,16.2767c0,0,1.83925-1.90978,5.19254-0.67978" style="fill:none;stroke:#30302F;stroke-width:0.8;stroke-linecap:round;stroke-linejoin:round;stroke-miterlimit:10;"/><path d="    M21.81104,16.2767c0,0-1.83925-1.90978-5.19243-0.67978" style="fill:none;stroke:#30302F;stroke-width:0.8;stroke-linecap:round;stroke-linejoin:round;stroke-miterlimit:10;"/><path d="    M27.46534,10.00514c0,0,3.77668-0.80311,4.82704,2.71865c1.05035,3.52174,3.46004,5.63399,4.01614,8.53218    c0.55598,2.89819-3.70717,6.4636-1.73002,10.73589c1.97715,4.27229,1.78046,7.42338,1.78046,7.42338" style="fill:none;stroke:#30302F;stroke-width:0.8;stroke-linecap:round;stroke-linejoin:round;stroke-miterlimit:10;"/><path d="    M20.52168,10.00514c0,0-3.77668-0.80311-4.82704,2.71865c-1.05036,3.52174-3.46004,5.63399-4.01614,8.53218    c-0.55599,2.89819,3.70717,6.4636,1.73002,10.73589s-1.78046,7.42338-1.78046,7.42338" style="fill:none;stroke:#30302F;stroke-width:0.8;stroke-linecap:round;stroke-linejoin:round;stroke-miterlimit:10;"/><path d="    M27.29032,8.91054c0,0,1.72697-0.77141,3.93918,0.21418" style="fill:none;stroke:#30302F;stroke-width:0.8;stroke-linecap:round;stroke-linejoin:round;stroke-miterlimit:10;"/><path d="    M20.84126,8.91054c0,0-1.72686-0.77141-3.93906,0.21418" style="fill:none;stroke:#30302F;stroke-width:0.8;stroke-linecap:round;stroke-linejoin:round;stroke-miterlimit:10;"/><path d="    M13.19502,26.48089c0.05913,0.44303,0.07087,0.89723,0.04141,1.34285c-0.02415,0.36751-0.07865,0.73936-0.2038,1.08726    c-0.14783,0.41087-0.44833,0.63778-0.70833,0.97024c-0.45668,0.58408-0.5412,1.41888-0.51536,2.13614    c0.03058,0.84476,0.23788,1.68015,0.54707,2.4643c0.20098,0.50972,0.44788,1.00105,0.73112,1.46989    c1.69594,2.80714,0.51999,5.61426,0.51999,5.61426" style="fill:none;stroke:#30302F;stroke-width:0.8;stroke-linecap:round;stroke-linejoin:round;stroke-miterlimit:10;"/><path d="    M34.57658,26.48089c-0.05913,0.44303-0.07076,0.89723-0.04142,1.34285c0.02415,0.36751,0.07877,0.73936,0.20391,1.08726    c0.14771,0.41087,0.44822,0.63778,0.70821,0.97024c0.45668,0.58408,0.5412,1.41888,0.51536,2.13614    c-0.03047,0.84476-0.23788,1.68015-0.54707,2.4643c-0.20098,0.50972-0.44788,1.00105-0.73112,1.46989    c-1.69594,2.80714-0.51988,5.61426-0.51988,5.61426" style="fill:none;stroke:#30302F;stroke-width:0.8;stroke-linecap:round;stroke-linejoin:round;stroke-miterlimit:10;"/><path d="    M26.31038,8.08655c0.02494-0.00711,0.51401-0.86044,1.76974-0.86044" style="fill:none;stroke:#30302F;stroke-width:0.8;stroke-linecap:round;stroke-linejoin:round;stroke-miterlimit:10;"/><path d="    M21.83688,8.08655c-0.02483-0.00711-0.5139-0.86044-1.76963-0.86044" style="fill:none;stroke:#30302F;stroke-width:0.8;stroke-linecap:round;stroke-linejoin:round;stroke-miterlimit:10;"/><circle cx="18.57182" cy="20.6295" r="0.84447" style="fill:#30302F;"/><ellipse cx="19.18295" cy="20.29112" rx="0.33227" ry="0.33226" style="fill:#FFFFFF;" transform="matrix(0.59719 -0.8021 0.8021 0.59719 -8.54842 23.56007)"/></g></g></svg>