<?xml version="1.0" ?><svg id="Layer_1" style="enable-background:new 0 0 48 48;" version="1.1" viewBox="0 0 48 48" xml:space="preserve" xmlns="http://www.w3.org/2000/svg" xmlns:xlink="http://www.w3.org/1999/xlink"><style type="text/css">
	.st0{fill:#2D2D2D;}
	.st1{fill:none;stroke:#303030;stroke-width:0.75;stroke-linecap:round;stroke-linejoin:round;stroke-miterlimit:10;}
	.st2{fill:#707070;}
	.st3{fill:#464747;}
	.st4{fill:#1489F2;}
</style><g><path class="st0" d="M37.15271,21.30725l0.99424-3.3954l-1.00467,0.29395c0,0,2.03828-6.29759,2.21438-7.60928l-0.52814,5.76535   l1.05001,0.25679l-2.47043,6.07279"/><path class="st1" d="M37.23957,21.0106l0.90738-3.09874l-1.00467,0.29395c0,0,2.03828-6.29759,2.21438-7.60928l-0.52814,5.76535   l1.05001,0.25679l-2.72101,6.35844"/><path class="st2" d="M23.81875,6.41094c0,0-12.42004-0.46997-13.07001,12.79004l1.76001,12.88001   c0.19,1.38,0.79999,2.67004,1.75,3.69006l4.62,4.91992c3.48999,1.18994,6.95996,1.21997,10.38995,0l2.18005-2.52002   l2.07996-2.41992c0.79004-0.92004,1.32001-2.04004,1.53003-3.23999l0.75-4.32007l1.72998-10   C37.53872,18.19097,36.88876,6.45098,23.81875,6.41094z"/><path class="st0" d="M10.84729,21.30725l-0.99425-3.3954l1.00467,0.29395c0,0-2.03828-6.29759-2.21438-7.60928l0.52814,5.76535   l-1.05001,0.25679l2.47043,6.07279"/><path class="st1" d="M10.76042,21.0106l-0.73553-2.8481l0.72384-0.29552c0,0-1.9293-5.95876-2.1054-7.27045l0.52814,5.76535   l-1.05001,0.25679l2.72101,6.35844"/><path class="st3" d="M10.34801,19.20343L10.34801,19.20343c-0.77751,0.25318-1.25021,1.03991-1.1087,1.84527l0.63144,5.0669   c0.13795,0.78511,0.81991,1.35769,1.61705,1.35769h0.39199"/><path class="st3" d="M37.34135,19.20343L37.34135,19.20343c0.77751,0.25318,1.25021,1.03991,1.1087,1.84527l-0.63144,5.0669   c-0.13795,0.78511-0.81991,1.35769-1.61705,1.35769h-0.39199"/><path class="st1" d="M23.82156,6.40681c0,0-12.42837-0.46029-13.07283,12.79662l1.76167,12.88072   c0.18863,1.37921,0.80108,2.66576,1.75267,3.68178l4.61555,4.92803l5.26511,0.90117l5.12183-0.90117l4.26005-4.94274   c0.79381-0.92102,1.32276-2.04023,1.53043-3.23826l2.48269-14.32213C37.53874,18.19082,36.89429,6.45283,23.82156,6.40681z"/><path class="st1" d="M10.34801,19.20343L10.34801,19.20343c-0.77751,0.25318-1.25021,1.03991-1.1087,1.84527l0.63144,5.0669   c0.13795,0.78511,0.53503,1.45044,2.00904,1.35769"/><path class="st1" d="M37.37646,19.21534c0.77751,0.25318,1.2151,1.028,1.07359,1.83336l-0.63144,5.0669   c-0.13795,0.78511-0.81991,1.35769-1.61705,1.35769h-0.26801"/><path class="st3" d="M25.21212,21.93551l1.15412,0.50493l6.08639-2.49362c0,0,1.10891,0.15698,2.09902,1.24681l-1.48777,3.85527   l-4.2839,0.2101L26.279,23.5395l-0.40779-1.31563"/><path class="st4" d="M28.27,22.95191l2.97-1.12c0,0,0.76,0.02,1.3,0.31l-0.5,1.39l-2.43,0.28l-1.37-0.53l-0.23-0.38L28.27,22.95191   z"/><g><path class="st1" d="M25.21212,21.93551l1.15412,0.50493l6.08639-2.49362c0,0,1.10891,0.15698,2.09902,1.24681l-1.48777,3.85527    l-4.2839,0.2101L26.279,23.5395l-0.40779-1.31563"/><path class="st1" d="M31.42923,8.30423c0,0-2.76514,2.9024-3.51916,7.52373l-0.91836-1.43533c0,0-1.86673,2.59432-1.77958,7.54288    "/></g><path class="st3" d="M23.08576,21.93551l-1.15412,0.50493l-6.08639-2.49362c0,0-1.10891,0.15698-2.09902,1.24681L15.234,25.0489   l4.2839,0.2101l2.50097-1.7195l0.40779-1.31563"/><g><path class="st1" d="M23.08576,21.93551l-1.15412,0.50493l-6.08639-2.49362c0,0-1.10891,0.15698-2.09902,1.24681L15.234,25.0489    l4.2839,0.2101l2.50097-1.7195l0.40779-1.31563"/><path class="st1" d="M16.8657,8.30423c0,0,2.76514,2.9024,3.51916,7.52373l0.91836-1.43533c0,0,1.86673,2.59432,1.77958,7.54288"/></g><path class="st1" d="M26.279,23.53949c0,0-0.99874,1.46928-1.06688,2.83626"/><path class="st1" d="M22.01888,23.53949c0,0,0.99875,1.46928,1.06688,2.83626"/><line class="st1" x1="24.14376" x2="24.14376" y1="30.63147" y2="37.04073"/><g><line class="st1" x1="26.75427" x2="26.75427" y1="31.57049" y2="36.10171"/><line class="st1" x1="29.04257" x2="29.04257" y1="32.36233" y2="35.30986"/></g><g><line class="st1" x1="21.47985" x2="21.47985" y1="31.57049" y2="36.10171"/><line class="st1" x1="19.19155" x2="19.19155" y1="32.36233" y2="35.30986"/></g><path class="st1" d="M11.93758,27.89586c0.2881-0.01519,3.34142,0.86983,3.34142,0.86983l1.14562,9.30812"/><path class="st1" d="M35.80957,27.89586c-0.28809-0.01519-3.34142,0.86983-3.34142,0.86983l-1.12983,9.52335"/><path class="st4" d="M20.47302,22.90191l-0.23,0.38l-1.37,0.53l-2.43-0.28l-0.5-1.39c0.54-0.29,1.3-0.31,1.3-0.31l2.97,1.12   L20.47302,22.90191z"/></g></svg>