<?xml version="1.0" ?><svg style="enable-background:new 0 0 48 48;" version="1.1" viewBox="0 0 48 48" xml:space="preserve" xmlns="http://www.w3.org/2000/svg" xmlns:xlink="http://www.w3.org/1999/xlink"><g id="Icons"><g><path d="M10.22391,21.13578l-1.51698-3.19913l1.60576,0.25561c0,0-3.12533-5.92906-3.37752-7.16976    l0.71377,5.45905l-1.69134,0.26809l3.8242,5.70568" style="fill:#FFD24A;"/><path d="M37.7761,21.13578l1.51688-3.19913l-1.60567,0.25561c0,0,3.12533-5.92906,3.37753-7.16976    l-0.71377,5.45905l1.69133,0.26809l-3.8242,5.70568" style="fill:#FFD24A;"/><path d="M11.95689,26.36139c-1.04417-0.37637-1.83884-1.31918-1.96974-2.49676L9.8989,23.07006    c-0.13747-1.2372,0.49684-2.38238,1.51848-2.95492" style="fill:#F9D9C0;"/><path d="M36.04311,26.36139c1.04417-0.37637,1.83884-1.31918,1.96965-2.49676l0.08834-0.79457    c0.12561-1.1309-0.39352-2.18486-1.26396-2.79493" style="fill:#F9D9C0;"/><path d="M23.86561,7.72481c0,0-11.77997-0.44-12.40002,12.13l1.92004,15.58002l4.63,4.79999h12.17999    l4.40997-4.76001l2.27002-16.58002C36.87562,18.8948,36.25563,7.76479,23.86561,7.72481z M33.52559,34.56484l-4.03998,4.51996    l-3.46997-2.98999h-4.44L18.6656,39.0848l-4.21997-4.21997l-0.35004-8.78003l4.82001,1.67999l5.06-3.56l4.88,3.81l5.07001-1.51996    L33.52559,34.56484z" style="fill:#F43735;"/><path d="M14.60071,20.10517l6.9252,2.33991C21.52591,22.44508,17.38289,27.90898,14.60071,20.10517z" style="fill:#FFFFFF;"/><path d="M33.17034,20.10517l-6.9251,2.33991C26.24524,22.44508,30.38825,27.90898,33.17034,20.10517z" style="fill:#FFFFFF;"/><polygon points="33.52338,34.56438 29.49043,39.08286 26.01746,36.09544 21.57367,36.09544     18.66095,39.08286 14.44126,34.86317 14.09317,26.08002 18.91602,27.76263 23.97823,24.20661 28.85738,28.01707     33.92488,26.49607   " style="fill:#F9D9C0;"/><g><path d="     M23.8651,7.72317c0,0-11.78432-0.43643-12.39538,12.13348l1.92045,15.57574l4.6264,4.80112h12.17711l4.40814-4.75749     l2.26961-16.57951C36.87145,18.89651,36.26039,7.7668,23.8651,7.72317z" style="fill:none;stroke:#303030;stroke-width:0.75;stroke-linecap:round;stroke-linejoin:round;stroke-miterlimit:10;"/><polygon points="     33.52338,34.56438 29.49043,39.08286 26.01746,36.09544 21.57367,36.09544 18.66095,39.08286 14.44126,34.86317      14.09317,26.08002 18.91602,27.76263 23.97823,24.20661 28.85738,28.01707 33.92488,26.49607    " style="fill:none;stroke:#303030;stroke-width:0.75;stroke-linecap:round;stroke-linejoin:round;stroke-miterlimit:10;"/><polyline points="     22.31411,30.34316 23.97078,30.78821 25.64227,30.45647    " style="fill:none;stroke:#303030;stroke-width:0.75;stroke-linecap:round;stroke-linejoin:round;stroke-miterlimit:10;"/><polyline points="     20.16068,34.77905 21.17082,33.89209 26.63669,33.89209 27.60113,34.77905    " style="fill:none;stroke:#303030;stroke-width:0.75;stroke-linecap:round;stroke-linejoin:round;stroke-miterlimit:10;"/><path d="     M17.37706,11.39348c0,0-2.19509,1.46794-3.28389,4.22732" style="fill:none;stroke:#303030;stroke-width:0.75;stroke-linecap:round;stroke-linejoin:round;stroke-miterlimit:10;"/><path d="     M18.43703,10.65367c0,0,1.00027-0.51796,1.48258-0.60729" style="fill:none;stroke:#303030;stroke-width:0.75;stroke-linecap:round;stroke-linejoin:round;stroke-miterlimit:10;"/></g><path d="M18.43703,40.65367c0,0,1.00027-0.51796,1.48258-0.60729" style="fill:#303030;"/><path d="    M14.60071,20.10517l6.9252,2.33991C21.52591,22.44508,17.38289,27.90898,14.60071,20.10517z" style="fill:none;stroke:#303030;stroke-width:0.75;stroke-linecap:round;stroke-linejoin:round;stroke-miterlimit:10;"/><path d="    M33.17034,20.10517l-6.9251,2.33991C26.24524,22.44508,30.38825,27.90898,33.17034,20.10517z" style="fill:none;stroke:#303030;stroke-width:0.75;stroke-linecap:round;stroke-linejoin:round;stroke-miterlimit:10;"/><path d="    M10.22391,21.13578l-1.51698-3.19913l1.60576,0.25561c0,0-3.12533-5.92906-3.37752-7.16976l0.71377,5.45905l-1.69134,0.26809    l3.8242,5.70568" style="fill:none;stroke:#303030;stroke-width:0.75;stroke-linecap:round;stroke-linejoin:round;stroke-miterlimit:10;"/><path d="    M11.95689,26.36139c-1.04417-0.37637-1.83884-1.31918-1.96974-2.49676L9.8989,23.07006    c-0.13747-1.2372,0.49684-2.38238,1.51848-2.95492" style="fill:none;stroke:#303030;stroke-width:0.75;stroke-linecap:round;stroke-linejoin:round;stroke-miterlimit:10;"/><path d="    M37.7761,21.13578l1.51688-3.19913l-1.60567,0.25561c0,0,3.12533-5.92906,3.37753-7.16976l-0.71377,5.45905l1.69133,0.26809    l-3.8242,5.70568" style="fill:none;stroke:#303030;stroke-width:0.75;stroke-linecap:round;stroke-linejoin:round;stroke-miterlimit:10;"/><path d="    M36.04311,26.36139c1.04417-0.37637,1.83884-1.31918,1.96965-2.49676l0.08834-0.79457    c0.12561-1.1309-0.39352-2.18486-1.26396-2.79493" style="fill:none;stroke:#303030;stroke-width:0.75;stroke-linecap:round;stroke-linejoin:round;stroke-miterlimit:10;"/><line style="fill:none;stroke:#303030;stroke-width:0.75;stroke-linecap:round;stroke-linejoin:round;stroke-miterlimit:10;" x1="23.47976" x2="23.31429" y1="24.55677" y2="28.39039"/></g></g></svg>