<?xml version="1.0" ?><svg style="enable-background:new 0 0 48 48;" version="1.1" viewBox="0 0 48 48" xml:space="preserve" xmlns="http://www.w3.org/2000/svg" xmlns:xlink="http://www.w3.org/1999/xlink"><g id="Icons"><g><path d="M22.34888,9.93992c0,0-6.52013,0.03987-10.90265,6.96368c0,0-3.31039,3.18619-4.27615,6.65942    s-2.41803,7.44954,1.00011,9.70096s6.9928,0.94419,8.13299-0.04446c0,0,1.82081-2.10335,4.52703-0.26075    c2.70622,1.84261,5.83661,0.96838,7.418-1.09663c1.58139-2.06501,2.29938,1.70354,5.19628,2.24999    c2.89689,0.54644,6.95826,0.17986,8.14071-3.01659c1.18246-3.19646-0.36647-7.82309-2.48818-10.74758    s-6.23781-9.61199-13.44591-10.40804H22.34888z" style="fill:#72502A;"/><path d="M22.26434,20.73299c0,0-2.98429-1.01511-3.72972,2.83004l1.21716,8.29912    c0,0,1.98867,2.34524,4.24823,2.19195s4.24821-2.08776,4.24821-2.08776l1.25202-8.19782c0,0,0.06849-3.2759-3.37613-3.15508    S22.26434,20.73299,22.26434,20.73299z" style="fill:#F9D9C0;"/><path d="M17.82201,19.40908c0,0,0.11379-4.29387,3.089-6.35059c0,0,0.18269-2.66875,3.089-4.28091    c0,0,2.38164,0.6711,2.99088,4.22287c0,0,2.94897,1.83766,3.18713,6.04131l-0.71264,3.99959c0,0-0.25352-2.30977-2.73268-2.30844    s-6.11603,0.04054-6.11603,0.04054s-2.20428,0.95461-2.11691,2.99505L17.82201,19.40908z" style="fill:#FFD24A;"/><path d="M22.52715,40.48895c-4.32993-2.22006-6.59536-8.54857-6.59536-8.54857    s-3.36514-3.44801-4.07794-4.88033c-0.71279-1.43241-0.13264-2.84461,1.35931-4.03811    c1.49195-1.19358,1.49195-4.77423,1.49195-4.77423c0.13264-3.94538-3.54747-4.37639-3.54747-4.37639    c-0.95954-3.31116,0.43101-6.16664,0.43101-6.16664s4.38129,3.28135,5.85966,11.24756    C18.77385,26.09486,19.75178,36.08585,22.52715,40.48895z" style="fill:#FFD24A;"/><path d="M25.22774,40.48895c3.20425-1.34366,5.93427-3.46008,6.84046-8.54855    c0,0,3.36515-3.44802,4.07795-4.88035c0.7128-1.43241,0.13264-2.84461-1.35931-4.03811    c-1.49195-1.19358-1.49195-4.77423-1.49195-4.77423c-0.13264-3.94538,3.54747-4.37639,3.54747-4.37639    c0.95955-3.31116-0.43101-6.16665-0.43101-6.16665C25.73568,20.73299,30.76095,32.22569,25.22774,40.48895z" style="fill:#FFD24A;"/><path d="M25.73568,20.73299c0.23208-3.68145-0.92831-4.97188-0.92831-4.97188    c-0.0331-2.35389-0.80735-3.45045-0.80735-3.45045s-0.77428,1.09656-0.80738,3.45045c0,0-1.1604,1.29042-0.92829,4.97188" style="fill:#F43735;"/><path d="M11.58866,7.70469c0,0,4.8405,4.53943,6.43191,13.0283c0,0,1.8566,11.70477,1.95606,12.73253    c0,0,1.55823,6.19981,2.91764,6.82974c0,0-3.0171,0.06636-3.81276-4.74105c0,0-1.99236-12.66491-2.2877-14.19004    c-0.29526-1.52505-2.18816-9.71419-5.50361-12.0018L11.58866,7.70469z" style="fill:#F43735;"/><path d="M36.41133,7.70469c0,0-4.8405,4.53943-6.43191,13.0283c0,0-1.8566,11.70477-1.95606,12.73253    c0,0-1.55823,6.19981-2.91761,6.82974c0,0,3.01707,0.06636,3.81273-4.74105c0,0,1.99236-12.66491,2.2877-14.19004    c0.29526-1.52505,2.18815-9.71419,5.50361-12.0018L36.41133,7.70469z" style="fill:#F43735;"/><path d="    M24.00001,8.77759c0,0-1.92852,0.07967-2.9909,4.22287c0,0-3.08092,1.61381-3.1871,6.76633" style="fill:none;stroke:#303030;stroke-width:0.75;stroke-linecap:round;stroke-linejoin:round;stroke-miterlimit:10;"/><path d="    M24.00001,20.73425h-2.96244c0,0-2.11993-0.15302-2.50295,2.82878" style="fill:none;stroke:#303030;stroke-width:0.75;stroke-linecap:round;stroke-linejoin:round;stroke-miterlimit:10;"/><path d="    M24.00001,34.0541c0,0-2.51568,0.12978-4.24823-2.19195" style="fill:none;stroke:#303030;stroke-width:0.75;stroke-linecap:round;stroke-linejoin:round;stroke-miterlimit:10;"/><path d="    M22.34888,9.93992c0,0-4.99142,0.67599-6.98065,3.09633" style="fill:none;stroke:#303030;stroke-width:0.75;stroke-linecap:round;stroke-linejoin:round;stroke-miterlimit:10;"/><path d="    M11.58866,7.70469c0,0,4.8405,4.53943,6.43191,13.0283c0,0,1.8566,11.70477,1.95606,12.73253c0,0,1.55823,6.19981,2.91764,6.82974    c0,0-3.0171,0.06636-3.81276-4.74105c0,0-1.99236-12.66491-2.2877-14.19004c-0.29526-1.52505-2.18816-9.71419-5.50361-12.0018    L11.58866,7.70469z" style="fill:none;stroke:#303030;stroke-width:0.75;stroke-linecap:round;stroke-linejoin:round;stroke-miterlimit:10;"/><path d="    M11.58866,7.70469c0,0-1.39056,2.85547-0.43101,6.16664c0,0,3.68011,0.43101,3.54747,4.37639c0,0,0,3.58065-1.49195,4.77423    c-1.49195,1.19349-2.07211,2.60569-1.35931,4.03811c0.7128,1.43233,4.07794,4.88033,4.07794,4.88033    s1.18709,5.67187,5.517,7.89195" style="fill:none;stroke:#303030;stroke-width:0.75;stroke-linecap:round;stroke-linejoin:round;stroke-miterlimit:10;"/><path d="    M13.28391,14.80291c0,0-5.07698,5.30141-6.43638,9.64463c-1.35931,4.34321-1.02776,7.02874,1.09412,8.65325    c2.12188,1.62459,6.41212,1.7958,8.36153,0.11874" style="fill:none;stroke:#303030;stroke-width:0.75;stroke-linecap:round;stroke-linejoin:round;stroke-miterlimit:10;"/><path d="    M24.00001,8.77759c0,0,1.92852,0.07967,2.99088,4.22287c0,0,3.08092,1.61381,3.18713,6.76633" style="fill:none;stroke:#303030;stroke-width:0.75;stroke-linecap:round;stroke-linejoin:round;stroke-miterlimit:10;"/><path d="    M24.00001,20.73425h2.96241c0,0,2.11995-0.15302,2.50295,2.82878" style="fill:none;stroke:#303030;stroke-width:0.75;stroke-linecap:round;stroke-linejoin:round;stroke-miterlimit:10;"/><path d="    M25.73568,20.73299c0.23208-3.68145-0.92831-4.97188-0.92831-4.97188c-0.0331-2.35389-0.80735-3.45045-0.80735-3.45045    s-0.77428,1.09656-0.80738,3.45045c0,0-1.1604,1.16761-0.92829,4.84906" style="fill:none;stroke:#303030;stroke-width:0.75;stroke-linecap:round;stroke-linejoin:round;stroke-miterlimit:10;"/><path d="    M24.00001,34.0541c0,0,2.51565,0.12978,4.24821-2.19195" style="fill:none;stroke:#303030;stroke-width:0.75;stroke-linecap:round;stroke-linejoin:round;stroke-miterlimit:10;"/><path d="    M25.65112,9.93992c0,0,4.99142,0.67599,6.98065,3.09633" style="fill:none;stroke:#303030;stroke-width:0.75;stroke-linecap:round;stroke-linejoin:round;stroke-miterlimit:10;"/><path d="    M36.41133,7.70469c0,0-4.8405,4.53943-6.43191,13.0283c0,0-1.8566,11.70477-1.95606,12.73253c0,0-1.55823,6.19981-2.91761,6.82974    c0,0,3.01707,0.06636,3.81273-4.74105c0,0,1.99236-12.66491,2.2877-14.19004c0.29526-1.52505,2.18815-9.71419,5.50361-12.0018    L36.41133,7.70469z" style="fill:none;stroke:#303030;stroke-width:0.75;stroke-linecap:round;stroke-linejoin:round;stroke-miterlimit:10;"/><path d="    M36.41133,7.70469c0,0,1.39056,2.85547,0.43101,6.16664c0,0-3.6801,0.43101-3.54747,4.37639c0,0,0,3.58065,1.49195,4.77423    c1.49195,1.19349,2.07211,2.60569,1.35931,4.03811c-0.7128,1.43233-4.07794,4.88033-4.07794,4.88033    s-1.18709,5.67187-5.517,7.89195" style="fill:none;stroke:#303030;stroke-width:0.75;stroke-linecap:round;stroke-linejoin:round;stroke-miterlimit:10;"/><path d="    M34.71609,14.80291c0,0,5.07698,5.30141,6.43637,9.64463c1.35931,4.34321,1.02776,7.02874-1.09412,8.65325    c-2.12188,1.62459-6.41212,1.7958-8.36153,0.11874" style="fill:none;stroke:#303030;stroke-width:0.75;stroke-linecap:round;stroke-linejoin:round;stroke-miterlimit:10;"/><polyline points="    22.98782,28.84987 23.95975,29.23667 24.86506,28.87943   " style="fill:none;stroke:#303030;stroke-width:0.75;stroke-linecap:round;stroke-linejoin:round;stroke-miterlimit:10;"/><polygon points="21.87585,30.9517 23.37732,30.46637 23.9264,30.70908 24.43783,30.46637 25.85786,30.9517     23.86686,31.09554   " style="fill:#303030;"/><path d="M22.89427,31.45506c0,0,1.09419,0.55725,1.83116,0    C24.72543,31.45506,23.97499,32.60543,22.89427,31.45506z" style="fill:#303030;"/><circle cx="23.95972" cy="22.60357" r="0.8703" style="fill:#303030;"/><path d="M15.71031,31.71065    c0,0-3.99911,2.17544-7.08357-0.6151" style="fill:none;stroke:#303030;stroke-width:0.75;stroke-linecap:round;stroke-miterlimit:10;"/><path d="M7.86915,29.79316    c0,0-0.1894-0.70353,0-1.54231" style="fill:none;stroke:#303030;stroke-width:0.75;stroke-linecap:round;stroke-miterlimit:10;"/><path d="M39.3522,24.95737    c0,0,1.50214,4.09141,0.19472,5.509" style="fill:none;stroke:#303030;stroke-width:0.75;stroke-linecap:round;stroke-miterlimit:10;"/><path d="    M22.26434,20.73299c0,0-2.98316-1.00804-3.72972,2.83004" style="fill:none;stroke:#303030;stroke-width:0.75;stroke-linecap:round;stroke-linejoin:round;stroke-miterlimit:10;"/></g></g></svg>