<?xml version="1.0" ?><svg style="enable-background:new 0 0 48 48;" version="1.1" viewBox="0 0 48 48" xml:space="preserve" xmlns="http://www.w3.org/2000/svg" xmlns:xlink="http://www.w3.org/1999/xlink"><g id="Icons"><g><path d="M11.14262,24.80862c0,0-2.13984-1.10369-1.47429,1.58735    c0.66547,2.69104,1.26122,4.32103,2.16421,3.47714" style="fill:#D6B6A1;"/><path d="M36.8573,24.80862c0,0,2.13993-1.10369,1.47437,1.58735    c-0.66555,2.69104-1.26122,4.32103-2.16421,3.47714" style="fill:#D6B6A1;"/><path d="M23.70935,7.52015c0,0-12.51712-0.46364-13.16614,12.88798l2.03984,14.97412l4.91409,5.09956    H30.4315l4.68231-5.05317l2.41069-16.04047C37.52451,19.38816,36.87548,7.56645,23.70935,7.52015z" style="fill:#1D97FF;"/><path d="M13.38647,22.20497c0.26842-0.53683,0.80951-0.87853,1.40953-0.8935    c1.33695-0.03333,3.73911,0.03342,5.345,0.80925c0,0,1.15139,0.65424,1.15139,1.67482c0,0-0.10461,2.17205-2.66919,2.19824    c0,0-3.03561,0.05231-4.16088-0.15701c0,0-2.14594-0.62805-1.5702-2.64308L13.38647,22.20497z" style="fill:#FFFFFF;"/><path d="M34.54652,22.17955c-0.26059-0.52125-0.78688-0.85207-1.36941-0.86739    c-1.3312-0.0349-3.75539,0.02733-5.37232,0.80856c0,0-1.15147,0.65424-1.15147,1.67482c0,0,0.10471,2.17205,2.66928,2.19824    c0,0,3.03561,0.05231,4.16089-0.15701c0,0,2.14585-0.62805,1.5702-2.64308L34.54652,22.17955z" style="fill:#FFFFFF;"/><path d="M13.69945,34.77753l4.48214,4.48213l3.09383-3.17313h4.72018l3.6888,3.17313l4.28386-4.79946    c0,0,0.47599-4.6408-0.63466-5.27546c0,0-0.9123-0.47591-2.14193-0.47591c-1.22954,0-5.57068-0.47599-7.30711-2.06264    c0,0-4.15601,2.14193-7.72584,2.10224c0,0-2.10233-0.27764-2.45926,1.86429    C13.69945,30.61273,13.38212,33.42892,13.69945,34.77753z" style="fill:#F9D9C0;"/><path d="M33.78317,29.8469c0,0-1.7906,0.52153-2.02285,3.5435    c-0.23225,3.02197,0.00002,3.5435,0.00002,3.5435l2.3093-2.71671C34.06965,34.21719,34.40443,31.95562,33.78317,29.8469z" style="fill:#D6B6A1;"/><path d="M13.80273,29.8469c0,0,1.7906,0.52153,2.02285,3.5435    c0.23225,3.02197-0.00002,3.5435-0.00002,3.5435l-2.3093-2.71671C13.51625,34.21719,13.18147,31.95562,13.80273,29.8469z" style="fill:#D6B6A1;"/><path d="    M23.70935,7.52015c0,0-12.51712-0.46364-13.16614,12.88798l2.03984,14.97412l4.91409,5.09956H30.4315l4.68231-5.05317    l2.41069-16.04047C37.52451,19.38816,36.87548,7.56645,23.70935,7.52015z" style="fill:none;stroke:#303030;stroke-width:0.75;stroke-linecap:round;stroke-linejoin:round;stroke-miterlimit:10;"/><path d="    M11.14262,24.80862c0,0-2.13984-1.10369-1.47429,1.58735c0.66547,2.69104,1.26122,4.32103,2.16421,3.47714" style="fill:none;stroke:#303030;stroke-width:0.75;stroke-linecap:round;stroke-linejoin:round;stroke-miterlimit:10;"/><g><path d="     M10.54321,20.40813l-4.00118-1.07645c0,0-0.12359,1.4406,1.44391,2.13036c0,0-0.35528,1.27489,0.96139,1.52564     c0,0,1.25401,0.68557,1.33764,1.59683" style="fill:none;stroke:#303030;stroke-width:0.75;stroke-linecap:round;stroke-linejoin:round;stroke-miterlimit:10;"/></g><path d="M26.97621,11.90306h-6.08549l-2.84787,7.19458h3.83711l0.47965-1.28899h2.98252l0.40498,1.28899    h3.95706L26.97621,11.90306z M22.50948,16.27979l0.35981-2.30599h1.9185l0.38974,2.30599H22.50948z" style="fill:#FFFFFF;"/><path d="    M13.69945,34.77753l4.48214,4.48213l3.09383-3.17313h4.72018l3.6888,3.17313l4.28386-4.79946c0,0,0.47599-4.6408-0.63466-5.27546    c0,0-0.9123-0.47591-2.14193-0.47591c-1.22954,0-5.57068-0.47599-7.30711-2.06264c0,0-4.15601,2.14193-7.72584,2.10224    c0,0-2.10233-0.27764-2.45926,1.86429C13.69945,30.61273,13.38212,33.42892,13.69945,34.77753z" style="fill:none;stroke:#303030;stroke-width:0.75;stroke-linecap:round;stroke-linejoin:round;stroke-miterlimit:10;"/><path d="    M13.38647,22.20497c0.26842-0.53683,0.80951-0.87853,1.40953-0.8935c1.33695-0.03333,3.73911,0.03342,5.345,0.80925    c0,0,1.15139,0.65424,1.15139,1.67482c0,0-0.10461,2.17205-2.66919,2.19824c0,0-3.03561,0.05231-4.16088-0.15701    c0,0-2.14594-0.62805-1.5702-2.64308L13.38647,22.20497z" style="fill:none;stroke:#303030;stroke-width:0.75;stroke-linecap:round;stroke-linejoin:round;stroke-miterlimit:10;"/><path d="    M34.54652,22.17955c-0.26059-0.52125-0.78688-0.85207-1.36941-0.86739c-1.3312-0.0349-3.75539,0.02733-5.37232,0.80856    c0,0-1.15147,0.65424-1.15147,1.67482c0,0,0.10471,2.17205,2.66928,2.19824c0,0,3.03561,0.05231,4.16089-0.15701    c0,0,2.14585-0.62805,1.5702-2.64308L34.54652,22.17955z" style="fill:none;stroke:#303030;stroke-width:0.75;stroke-linecap:round;stroke-linejoin:round;stroke-miterlimit:10;"/><path d="    M14.09589,29.8469c0,0,1.88422,1.20378,1.83183,3.74224l0.00107,3.2626" style="fill:none;stroke:#303030;stroke-width:0.75;stroke-linecap:round;stroke-linejoin:round;stroke-miterlimit:10;"/><path d="    M33.59322,29.8469c0,0-1.88413,1.20378-1.83183,3.74224l-0.00105,3.34476" style="fill:none;stroke:#303030;stroke-width:0.75;stroke-linecap:round;stroke-linejoin:round;stroke-miterlimit:10;"/><polyline points="    22.06195,31.5467 23.82162,32.01947 25.59705,31.66707   " style="fill:none;stroke:#303030;stroke-width:0.75;stroke-linecap:round;stroke-linejoin:round;stroke-miterlimit:10;"/><polyline points="    19.77458,35.15926 20.84755,34.21719 26.65331,34.21719 27.67771,35.15926   " style="fill:none;stroke:#303030;stroke-width:0.75;stroke-linecap:round;stroke-linejoin:round;stroke-miterlimit:10;"/><path d="    M21.29238,23.79553c0,0-0.60332,3.14901-3.9198,3.33039" style="fill:none;stroke:#303030;stroke-width:0.75;stroke-linecap:round;stroke-linejoin:round;stroke-miterlimit:10;"/><path d="    M26.65331,23.99998c0,0,0.60342,3.14902,3.91988,3.3304" style="fill:none;stroke:#303030;stroke-width:0.75;stroke-linecap:round;stroke-linejoin:round;stroke-miterlimit:10;"/><line style="fill:none;stroke:#303030;stroke-width:0.75;stroke-linecap:round;stroke-linejoin:round;stroke-miterlimit:10;" x1="23.88455" x2="23.72614" y1="26.64619" y2="29.9839"/><path d="    M16.81783,11.41871c0,0-3.39585,2.27092-4.02381,6.48315" style="fill:none;stroke:#303030;stroke-width:0.75;stroke-linecap:round;stroke-linejoin:round;stroke-miterlimit:10;"/><line style="fill:none;stroke:#303030;stroke-width:0.75;stroke-linecap:round;stroke-linejoin:round;stroke-miterlimit:10;" x1="12.45903" x2="12.2759" y1="19.51349" y2="20.57576"/><line style="fill:none;stroke:#303030;stroke-width:0.75;stroke-linecap:round;stroke-linejoin:round;stroke-miterlimit:10;" x1="7.98594" x2="9.21906" y1="21.46203" y2="21.81731"/><path d="    M36.8573,24.80862c0,0,2.13993-1.10369,1.47437,1.58735c-0.66555,2.69104-1.26122,4.32103-2.16421,3.47714" style="fill:none;stroke:#303030;stroke-width:0.75;stroke-linecap:round;stroke-linejoin:round;stroke-miterlimit:10;"/><g><path d="     M37.45679,20.40813l4.00117-1.07645c0,0,0.12359,1.4406-1.44391,2.13036c0,0,0.35528,1.27489-0.96147,1.52564     c0,0-1.25401,0.68557-1.33756,1.59683" style="fill:none;stroke:#303030;stroke-width:0.75;stroke-linecap:round;stroke-linejoin:round;stroke-miterlimit:10;"/></g><line style="fill:none;stroke:#303030;stroke-width:0.75;stroke-linecap:round;stroke-linejoin:round;stroke-miterlimit:10;" x1="40.01406" x2="38.78094" y1="21.46203" y2="21.81731"/></g></g></svg>