<?xml version="1.0" ?><svg style="enable-background:new 0 0 48 48;" version="1.1" viewBox="0 0 48 48" xml:space="preserve" xmlns="http://www.w3.org/2000/svg" xmlns:xlink="http://www.w3.org/1999/xlink"><g id="Icons"><g><path d="M9.75407,17.92006c0,0,1.75184-4.43894,6.12334-4.53317s5.37958,3.76662,5.37958,3.76662h5.31391    c0,0,0.97088-4.12954,5.23411-3.71767c4.26324,0.41188,6.50373,6.10659,6.50373,6.10659    c-0.00333-0.05598-0.03644-12.52158-14.27481-12.75951C24.03394,6.78293,11.47066,6.21932,9.75407,17.92006z" style="fill:#F43735;"/><polygon points="9.97567,24.42992 8.46534,25.2859 9.35062,30.39992 11.04849,30.39992 11.91591,35.95219     15.0362,38.72871 15.0241,39.30288 16.82208,41.22044 30.76616,41.22044 32.56414,39.61596 32.56414,38.72871 35.71961,36.27011     36.32836,30.39992 38.6494,30.39992 39.53466,25.08914 37.65602,24.42992   " style="fill:#F43735;"/><path d="M21.25699,17.15351l5.3139,0c2.8634-8.77509,11.68058-1.27908,11.78662,2.85669l-1.40601,9.15871    c-4.45396,2.17339-4.306,8.53799-4.306,8.53799l-2.09371,1.67377l-3.33585-0.00124l-1.32132-1.33001h-5.32302l-1.3307,1.17041    l-2.41765-0.05897l-1.83234-1.82868c-0.28532-5.7579-2.84357-7.85172-2.84357-7.85172l-1.51824-0.43044l-1.2785-9.03981    c0,0-0.04937-4.62008,4.66251-6.18725S20.50093,14.76839,21.25699,17.15351z" style="fill:#FFDD4D;"/><path d="M13.31131,23.83559c0,0,4.78411,0.83373,7.13211,0.74743l-1.26201,1.66736    c0,0-3.05248-0.0863-5.5766-0.6037L13.31131,23.83559z" style="fill:#FFFFFF;"/><path d="M33.56134,32.5536l-2.77938,3.97916l-2.0465-1.45435h-9.75604l-2.10202,1.63736    c0,0-1.63834-2.67407-2.82006-4.16217c0,0,0.96952,2.77117,0.93358,4.90024l1.88648,1.76599h2.36351l1.35236-1.19644h5.30137    l1.32132,1.35604h3.33585l2.07507-1.42271C32.62687,37.95672,32.89355,34.7215,33.56134,32.5536z" style="fill:#FFD24A;"/><path d="M34.34797,23.83559c0,0-4.78401,0.83373-7.13201,0.74743l1.26201,1.66736    c0,0,3.05249-0.0863,5.5765-0.6037L34.34797,23.83559z" style="fill:#FFFFFF;"/><path d="    M9.35062,20.01022l1.2785,9.03981l1.51824,0.43044c0,0,3.11649,3.48286,2.87675,9.82241l1.79798,1.91756h13.94408l1.79798-1.60448    c0,0-0.11992-9.43107,4.31507-10.29203l1.47833-9.31371c0,0-1.75807-6.45691-6.55252-6.57437c0,0-4.15535-0.70433-5.23411,3.71767    h-5.31391c0,0-0.83905-3.91731-4.31509-3.75876C16.9419,13.39475,10.18965,12.88806,9.35062,20.01022z" style="fill:none;stroke:#303030;stroke-width:0.75;stroke-linecap:round;stroke-linejoin:round;stroke-miterlimit:10;"/><path d="    M9.35062,20.01022c0,0,0.4703-13.06635,14.68331-13.22729c0,0,13.33313-0.2223,14.32359,13.22728" style="fill:none;stroke:#303030;stroke-width:0.75;stroke-linecap:round;stroke-linejoin:round;stroke-miterlimit:10;"/><polyline points="    9.97567,24.42992 8.46534,25.08914 9.35062,30.39992 11.2059,30.39992   " style="fill:none;stroke:#303030;stroke-width:0.75;stroke-linecap:round;stroke-linejoin:round;stroke-miterlimit:10;"/><polyline points="    11.04849,29.16891 11.91591,35.95219 15.0362,38.72871   " style="fill:none;stroke:#303030;stroke-width:0.75;stroke-linecap:round;stroke-linejoin:round;stroke-miterlimit:10;"/><polyline points="    38.02433,24.42992 39.53466,25.08914 38.6494,30.39992 36.32836,30.39992   " style="fill:none;stroke:#303030;stroke-width:0.75;stroke-linecap:round;stroke-linejoin:round;stroke-miterlimit:10;"/><polyline points="    36.39355,29.52678 35.71961,36.27011 32.58046,38.78642   " style="fill:none;stroke:#303030;stroke-width:0.75;stroke-linecap:round;stroke-linejoin:round;stroke-miterlimit:10;"/><path d="    M13.31131,23.83559c0,0,4.78411,0.83373,7.13211,0.74743l-1.26201,1.66736c0,0-3.05248-0.0863-5.5766-0.6037L13.31131,23.83559z" style="fill:none;stroke:#303030;stroke-width:0.75;stroke-linecap:round;stroke-linejoin:round;stroke-miterlimit:10;"/><path d="    M34.34797,23.83559c0,0-4.78401,0.83373-7.13201,0.74743l1.26201,1.66736c0,0,3.05249-0.0863,5.5765-0.6037L34.34797,23.83559z" style="fill:none;stroke:#303030;stroke-width:0.75;stroke-linecap:round;stroke-linejoin:round;stroke-miterlimit:10;"/><polyline points="    9.35062,20.01022 11.84381,23.40439 13.31131,23.83559   " style="fill:none;stroke:#303030;stroke-width:0.75;stroke-linecap:round;stroke-linejoin:round;stroke-miterlimit:10;"/><polyline points="    38.30875,20.01022 35.81547,23.40439 34.34797,23.83559   " style="fill:none;stroke:#303030;stroke-width:0.75;stroke-linecap:round;stroke-linejoin:round;stroke-miterlimit:10;"/><line style="fill:none;stroke:#303030;stroke-width:0.75;stroke-linecap:round;stroke-linejoin:round;stroke-miterlimit:10;" x1="20.44341" x2="27.60469" y1="24.58302" y2="24.58866"/><polyline points="    13.12416,30.92267 16.87741,36.71577 18.97942,35.07842 28.73547,35.07842 30.59619,36.71577 33.96227,31.99083   " style="fill:none;stroke:#303030;stroke-width:0.75;stroke-linecap:round;stroke-linejoin:round;stroke-miterlimit:10;"/><polyline points="    16.82327,39.16087 16.82327,36.62833 16.82327,36.53276   " style="fill:none;stroke:#303030;stroke-width:0.75;stroke-linecap:round;stroke-linejoin:round;stroke-miterlimit:10;"/><path d="    M30.55181,39.38067v-2.66633c0,0,0-0.01911,0-0.03823v-0.14335" style="fill:none;stroke:#303030;stroke-width:0.75;stroke-linecap:round;stroke-linejoin:round;stroke-miterlimit:10;"/><path d="    M18.6636,7.59227c2.92591,1.26187,2.59339,9.56124,2.59339,9.56124" style="fill:none;stroke:#303030;stroke-width:0.75;stroke-linecap:round;stroke-linejoin:round;stroke-miterlimit:10;"/><path d="    M29.21465,7.73248c-2.92581,1.26187-2.64374,9.42103-2.64374,9.42103" style="fill:none;stroke:#303030;stroke-width:0.75;stroke-linecap:round;stroke-linejoin:round;stroke-miterlimit:10;"/><polyline points="    14.99093,37.33218 16.87741,39.21983 19.24092,39.21983 20.57162,38.04942 25.89464,38.04942 27.21596,39.37943     30.54857,39.37943 32.64552,37.70691   " style="fill:none;stroke:#303030;stroke-width:0.75;stroke-linecap:round;stroke-linejoin:round;stroke-miterlimit:10;"/></g></g></svg>