<?xml version="1.0" ?><svg style="enable-background:new 0 0 48 48;" version="1.1" viewBox="0 0 48 48" xml:space="preserve" xmlns="http://www.w3.org/2000/svg" xmlns:xlink="http://www.w3.org/1999/xlink"><g id="Icons"><g><g><path d="M10.62589,24.84064c0,0-2.22588-1.14811-1.5336,1.65115     c0.69228,2.79926,1.3119,4.49466,2.25115,3.61683" style="fill:#F9D9C0;"/></g><g><path d="M37.37412,24.84064c0,0,2.22586-1.14811,1.53358,1.65115     c-0.69228,2.79926-1.31189,4.49466-2.25115,3.61683" style="fill:#F9D9C0;"/></g><path d="M32.83027,9.5393c-2.09564-1.55599-5.02774-2.66228-9.12909-2.68026    c0,0-4.73093-0.17988-8.63441,2.72523l-1.67292,1.50203c-1.79883,1.97872-3.18394,4.89283-3.3908,9.17406l2.12263,15.57791    l5.10869,5.30656h13.45528l4.87484-5.26159l2.50038-16.68419c0,0-0.25183-4.61401-3.58867-8.19369" style="fill:#F43735;"/><g><path d="M20.2895,24.47413c0,0,1.68182-1.61455-0.14641-2.21248l-4.80452-1.28563l-1.78426,0.83889     l0.88925,1.74748L20.2895,24.47413z" style="fill:#FFFFFF;"/></g><path d="M17.27484,11.40065c0,0-3.4813-2.18505-3.72054-4.54548c0,0-1.39032,4.68929,1.48719,6.84735    C15.04149,13.70253,17.15836,13.60665,17.27484,11.40065z" style="fill:#FFFFFF;"/><path d="M30.57955,11.40065c0,0,3.48129-2.18505,3.72062-4.54548c0,0,1.39024,4.68929-1.48719,6.84735    C32.81298,13.70253,30.69612,13.60665,30.57955,11.40065z" style="fill:#FFFFFF;"/><g><path d="M13.41988,35.10664l4.61231,4.52507l3.15112-1.28724h5.05242l3.63332,1.28724l4.40828-4.84544     c0,0,0.48982-4.68525-0.65309-5.32599c0,0-0.9388-0.48047-2.20414-0.48047c-1.26525,0-5.73246-0.48055-7.51933-2.0824     c0,0-4.27671,2.16245-7.95021,2.12238c0,0-2.16339-0.2803-2.53068,1.88215     C13.41988,30.90194,13.09334,33.74511,13.41988,35.10664z" style="fill:#F9D9C0;"/><path d="M34.08688,30.12878c0,0-1.8426,0.52653-2.0816,3.57745     c-0.23899,3.05092,0.00003,3.57745,0.00003,3.57745l2.37637-2.74274C34.38167,34.54094,34.72618,32.25769,34.08688,30.12878z" style="fill:#D6B6A1;"/><path d="M13.52616,30.12878c0,0,1.8426,0.52653,2.0816,3.57745s-0.00003,3.57745-0.00003,3.57745     l-2.37637-2.74274C13.23137,34.54094,12.88686,32.25769,13.52616,30.12878z" style="fill:#D6B6A1;"/></g><g><path d="M27.24361,24.47413c0,0-1.68182-1.61455,0.14643-2.21248l4.80451-1.28563l1.78436,0.83889     l-0.88935,1.74748L27.24361,24.47413z" style="fill:#FFFFFF;"/></g><g><path d="     M20.2895,24.47413c0,0,1.68182-1.61455-0.14641-2.21248l-4.80452-1.28563l-1.78426,0.83889l0.88925,1.74748L20.2895,24.47413z" style="fill:none;stroke:#303030;stroke-width:0.75;stroke-linecap:round;stroke-linejoin:round;stroke-miterlimit:10;"/></g><g><path d="     M27.24361,24.47413c0,0-1.68182-1.61455,0.14643-2.21248l4.80451-1.28563l1.78436,0.83889l-0.88935,1.74748L27.24361,24.47413z" style="fill:none;stroke:#303030;stroke-width:0.75;stroke-linecap:round;stroke-linejoin:round;stroke-miterlimit:10;"/></g><path d="    M34.4762,11.00535c3.33684,3.57968,3.58867,8.19369,3.58867,8.19369L35.5645,35.88324l-4.87484,5.26159H17.23437l-5.10869-5.30656    l-2.12263-15.57791c0.20687-4.28123,1.59197-7.19534,3.3908-9.17406" style="fill:none;stroke:#303030;stroke-width:0.75;stroke-linecap:round;stroke-linejoin:round;stroke-miterlimit:10;"/><path d="    M15.13625,9.53302c3.90347-2.90512,8.56493-2.67398,8.56493-2.67398c4.10134,0.01799,7.03344,1.12427,9.12909,2.68026" style="fill:none;stroke:#303030;stroke-width:0.75;stroke-linecap:round;stroke-linejoin:round;stroke-miterlimit:10;"/><g><path d="     M10.62589,24.84064c0,0-2.22588-1.14811-1.5336,1.65115c0.69228,2.79926,1.3119,4.49466,2.25115,3.61683" style="fill:none;stroke:#303030;stroke-width:0.75;stroke-linecap:round;stroke-linejoin:round;stroke-miterlimit:10;"/></g><path d="    M13.28538,35.21029l4.66231,4.66231l3.2183-1.63676h4.90983l3.83709,1.63676l4.45598-4.99239c0,0,0.49513-4.82735-0.66008-5.48753    c0,0-0.94897-0.49513-2.22804-0.49513s-5.79457-0.49504-7.60089-2.14547c0,0-4.32305,2.22803-8.03638,2.18675    c0,0-2.18675-0.2888-2.55812,1.93923C13.28538,30.87807,12.95529,33.80747,13.28538,35.21029z" style="fill:none;stroke:#303030;stroke-width:0.75;stroke-linecap:round;stroke-linejoin:round;stroke-miterlimit:10;"/><path d="    M13.69776,30.08146c0,0,1.95993,1.25217,1.90551,3.89259l0.00108,3.55521" style="fill:none;stroke:#303030;stroke-width:0.75;stroke-linecap:round;stroke-linejoin:round;stroke-miterlimit:10;"/><path d="    M33.9789,30.08146c0,0-1.95991,1.25217-1.90551,3.89259l-0.00108,3.47921" style="fill:none;stroke:#303030;stroke-width:0.75;stroke-linecap:round;stroke-linejoin:round;stroke-miterlimit:10;"/><polyline points="    21.984,31.84953 23.81441,32.34133 25.66127,31.97473   " style="fill:none;stroke:#303030;stroke-width:0.75;stroke-linecap:round;stroke-linejoin:round;stroke-miterlimit:10;"/><polyline points="    19.60477,35.60738 20.72086,34.62738 26.76,34.62738 27.82554,35.60738   " style="fill:none;stroke:#303030;stroke-width:0.75;stroke-linecap:round;stroke-linejoin:round;stroke-miterlimit:10;"/><line style="fill:none;stroke:#303030;stroke-width:0.75;stroke-linecap:round;stroke-linejoin:round;stroke-miterlimit:10;" x1="23.87988" x2="23.71511" y1="26.75208" y2="30.22392"/><g><path d="     M37.37412,24.84064c0,0,2.22586-1.14811,1.53358,1.65115c-0.69228,2.79926-1.31189,4.49466-2.25115,3.61683" style="fill:none;stroke:#303030;stroke-width:0.75;stroke-linecap:round;stroke-linejoin:round;stroke-miterlimit:10;"/></g><path d="    M17.27484,11.40065c0,0-3.4813-2.18505-3.72054-4.54548c0,0-1.39032,4.68929,1.48719,6.84735    C15.04149,13.70253,17.15836,13.60665,17.27484,11.40065z" style="fill:none;stroke:#303030;stroke-width:0.75;stroke-linecap:round;stroke-linejoin:round;stroke-miterlimit:10;"/><path d="    M30.57955,11.40065c0,0,3.48129-2.18505,3.72062-4.54548c0,0,1.39024,4.68929-1.48719,6.84735    C32.81298,13.70253,30.69612,13.60665,30.57955,11.40065z" style="fill:none;stroke:#303030;stroke-width:0.75;stroke-linecap:round;stroke-linejoin:round;stroke-miterlimit:10;"/><path d="    M16.70424,11.00535c0,0,3.04696-2.43122,7.99519-2.248" style="fill:none;stroke:#303030;stroke-width:0.75;stroke-linecap:round;stroke-linejoin:round;stroke-miterlimit:10;"/><path d="    M14.48916,13.20281c0,0-2.00723,2.60525-1.83562,5.00751" style="fill:none;stroke:#303030;stroke-width:0.75;stroke-linecap:round;stroke-linejoin:round;stroke-miterlimit:10;"/><path d="    M26.51347,8.91664c0,0,0.79553,0.1234,1.39913,0.32919" style="fill:none;stroke:#303030;stroke-width:0.75;stroke-linecap:round;stroke-linejoin:round;stroke-miterlimit:10;"/></g></g></svg>