<?xml version="1.0" ?><svg style="enable-background:new 0 0 48 48;" version="1.1" viewBox="0 0 48 48" xml:space="preserve" xmlns="http://www.w3.org/2000/svg" xmlns:xlink="http://www.w3.org/1999/xlink"><g id="Icons"><g><path d="M11.27252,38.5043c0,0-4.94542-1.72053-5.36272-4.12567s0.78616-4.45486,3.23917-6.20593    c2.453-1.75107,4.1017-4.24228,4.6594-6.62266c0.10759-0.45921,0.1859-0.98013,0.26202-1.53729    c0.02285-0.16727-0.7002-0.33566-0.67701-0.50877c0.01692-0.12633,0.77984-0.25617,0.79762-0.38497    c0.29737-2.15441,0.75417-4.61778,2.70301-6.13643c2.75685-2.14829,5.94131-2.53724,6.32551-2.68649    c0.3842-0.14925,2.59371-0.41113,4.8936,0.85149s5.50338,2.4711,6.12551,7.6312s1.58845,7.25042,3.05095,8.62977    c1.4625,1.37935,2.72874,2.88876,3.84502,1.64301s-0.56266-1.64301-0.56266-1.64301s2.26289,0.58531,1.548,1.91198    c-0.71489,1.32667-1.11507,1.64495-1.97439,1.7193c0,0,1.2606,1.69619,1.3822,2.92614c0,0-1.55157,1.31308-4.23818,0.26182    c-2.68661-1.05126-3.61987-0.48992-3.61987-0.48992s-4.43679,0.7285-8.17517,3.15564    c-3.73837,2.42714-5.885,2.30589-5.885,2.30589s0.94232-1.55319-2.13602-0.73684c-3.07833,0.81635-2.72078,0.25497-3.92382,0.3409    C12.34667,38.8894,9.89762,36.7427,11.27252,38.5043z" style="fill:#F94646;"/><path d="M17.7367,22.94719c0,0-0.99221,0.94749-1.10865,1.06378    c-0.11644,0.11629,0.33278,1.68553,1.42127,1.50563L17.7367,22.94719z" style="fill:#FFE7D7;"/><path d="M29.86156,22.96408c0,0,0.9922,0.94749,1.10865,1.06378    c0.11644,0.11629-0.33278,1.68553-1.42127,1.50563L29.86156,22.96408z" style="fill:#FFE7D7;"/><path d="M19.88405,36.07365c0,0,0.36755,2.08197-0.38977,3.20955c0,0,6.83276,1.18077,12.70624-0.08279    s7.66098-2.89602,7.66098-2.89602s-1.79042-2.0093-3.65703-2.67077s-3.14565,0.58391-6.27593,1.54319    c-3.13028,0.95928-6.28334,3.29857-6.28334,3.29857S22.36068,36.66756,19.88405,36.07365z" style="fill:#5DF9DB;"/><path d="M29.26921,26.51192c-0.03381-0.07843-0.05438-0.16406-0.05438-0.25537    c0-0.1734,0.06824-0.33014,0.17804-0.44434l-0.00342-0.00256l0.00842-0.00848c0.05658-0.05255,0.11969-0.09393,0.18793-0.12427    c0.00146-0.00067,0.0025-0.00208,0.00397-0.00269c0.07251-0.03156,0.15131-0.04962,0.23688-0.04962    c0.00031,0,0.00055,0.00018,0.00055,0.00018l0.00116-0.00018c0.01733,0,0.03192,0.00873,0.04895,0.01019    c0.31952,0.02692,0.57147,0.28534,0.57147,0.612c0,0.0896-0.0202,0.17371-0.05402,0.25055    c-0.00653,0.01636-0.0188,0.02856-0.02661,0.04419L30.39,26.55788c0,0,2.18591,1.84125,0.18494,2.29517    c0,0-0.61377,1.14349-1.5722,0.26062c0,0-0.72314,0.42883-1.05103-0.26062L29.26921,26.51192z" style="fill:#5DF9DB;"/><path d="M20.43286,29.50557c-0.03627,0.09912,0.10785,3.05074-1.35037,3.43303    c-1.45822,0.38229-2.08802,0.3424-2.08802,0.3424s2.64888,1.51939,2.8505,2.86031c0,0,3.15137,0.92236,3.775,2.66217    c0,0,1.71684-2.35326,4.66656-3.19281c2.94973-0.83955,5.9521-1.80158,5.9521-1.80158s-4.13671-0.4164-5.41463-0.84716    c-1.27792-0.43076-1.91402-1.52456-1.71802-3.23915c0,0-1.64812,1.69976-3.19263,1.48739    C22.36884,30.99779,20.43286,29.50557,20.43286,29.50557z" style="fill:#FFE7D7;"/><path d="M18.32774,26.51192c0.03381-0.07843,0.05438-0.16406,0.05438-0.25537    c0-0.1734-0.06824-0.33014-0.17804-0.44434l0.00342-0.00256l-0.00842-0.00848c-0.05658-0.05255-0.11969-0.09393-0.18793-0.12427    c-0.00146-0.00067-0.0025-0.00208-0.00397-0.00269c-0.07251-0.03156-0.15131-0.04962-0.23688-0.04962l-0.00085,0.00018    l-0.00085-0.00018c-0.01733,0-0.03192,0.00873-0.04895,0.01019c-0.31952,0.02692-0.57147,0.28534-0.57147,0.612    c0,0.0896,0.0202,0.17371,0.05402,0.25055c0.00653,0.01636,0.0188,0.02856,0.02661,0.04419l-0.02185,0.01636    c0,0-2.18591,1.84125-0.18494,2.29517c0,0,0.61377,1.14349,1.5722,0.26062c0,0,0.72314,0.42883,1.05103-0.26062L18.32774,26.51192    z" style="fill:#5DF9DB;"/><path d="M30.43007,20.43723c-0.10092,0.72301-0.24386,1.56373-0.4876,2.26162    c-0.57174,1.6562,0.05856,3.28219-1.62298,5.60273c-1.68155,2.33731-3.20292,2.76265-3.20292,2.76265s-1.41244,0.52973-2.59796,0    c0,0-1.50493-0.55427-3.19493-2.89147c-1.62264-2.22806-1.13029-3.6741-1.5591-5.26318c0,0,0.79107-1.49074,0.89934-2.2415    c0,0-0.11967,0.20376,3.34401-1.03103s4.33981-1.49364,5.83108-1.48258C29.3303,18.16555,30.62928,19.2533,30.43007,20.43723z" style="fill:#FFE7D7;"/><path d="    M27.1848,30.00489c0,0-0.54651,2.64841,1.64787,3.05199c1.34521,0.25219,3.55639,0.32788,5.40597,0.681" style="fill:none;stroke:#30302F;stroke-width:0.8;stroke-linecap:round;stroke-linejoin:round;stroke-miterlimit:10;"/><path d="    M20.37796,29.44827c0,0,0.49279,3.20503-1.70159,3.60861c-0.49605,0.09248-1.10979,0.15972-1.78235,0.23541" style="fill:none;stroke:#30302F;stroke-width:0.8;stroke-linecap:round;stroke-linejoin:round;stroke-miterlimit:10;"/><path d="    M17.76459,22.90959c0.42881,1.58907-0.06354,3.03512,1.5591,5.26318c1.68999,2.3372,3.19493,2.89147,3.19493,2.89147    c1.18551,0.52973,2.59796,0,2.59796,0s1.52137-0.42533,3.20292-2.76265c1.68155-2.32053,1.05124-3.94653,1.62298-5.60273    c0.24374-0.6979,0.38668-1.53861,0.4876-2.26162" style="fill:none;stroke:#30302F;stroke-width:0.8;stroke-linecap:round;stroke-linejoin:round;stroke-miterlimit:10;"/><path d="    M30.41329,20.44554c0,0,0.00833-0.00831,0.01678-0.00831v-0.00845" style="fill:none;stroke:#30302F;stroke-width:0.8;stroke-linecap:round;stroke-linejoin:round;stroke-miterlimit:10;"/><path d="    M18.71306,20.66095c0,0-0.34442,2.22702-2.08501,3.35002" style="fill:none;stroke:#30302F;stroke-width:0.8;stroke-linecap:round;stroke-linejoin:round;stroke-miterlimit:10;"/><path d="    M25.2146,10.20582c1.64497,0.26469,3.12849,1.00194,4.5744,1.81615c2.96716,1.65446,4.46098,5.06719,4.64442,8.36515    c0.0537,0.96513,0.16621,1.94172,0.47755,2.86126c0.38238,1.12925,1.07623,2.15792,1.73986,3.13937    c0.65878,0.97425,1.41882,1.89925,2.36555,2.60756c0.59236,0.43517,1.55632,0.71445,2.11823,0.05625    c0.2809-0.31654,0.3199-0.82058,0.10521-1.18446c-0.22314-0.3639-0.68354-0.56214-1.0965-0.46575    c0.34582-0.10553,0.7325-0.09303,1.05865,0.07028c0.34281,0.1802,0.59153,0.51073,0.73053,0.87382    c0.12233,0.35439,0.25994,0.85171,0.1552,1.2121c-0.29768,1.1067-1.17705,1.62694-2.2262,1.44755" style="fill:none;stroke:#30302F;stroke-width:0.8;stroke-linecap:round;stroke-linejoin:round;stroke-miterlimit:10;"/><path d="    M14.10835,19.02292c0.50518-2.84031,2.00155-5.5569,4.5751-6.95801c1.45839-0.80067,3.02675-1.62403,4.53608-1.76881" style="fill:none;stroke:#30302F;stroke-width:0.8;stroke-linecap:round;stroke-linejoin:round;stroke-miterlimit:10;"/><path d="    M10.1662,34.86435c-1.00518-1.72507-0.71271-3.97766-0.01887-5.78365c0.56098-1.46012,1.52947-2.70594,2.33234-4.034    c0.88643-1.46639,1.35806-2.95744,1.46664-4.67023c0.00948-0.17166,0.02857-0.33369,0.04767-0.50519" style="fill:none;stroke:#30302F;stroke-width:0.8;stroke-linecap:round;stroke-linejoin:round;stroke-miterlimit:10;"/><path d="    M17.77028,25.62458c-0.35313-0.20173-1.04443-0.63887-1.14535-1.61419c0.01493,0.14386-0.15567,0.41492-0.20891,0.54165    c-0.20786,0.49466-0.44941,0.97578-0.71757,1.44058c-0.6604,1.14485-1.53907,2.10431-2.31336,3.16437    c-0.36886,0.50485-0.64072,1.15216-0.45404,1.74888c0.12164,0.38878,0.42302,0.69838,0.7597,0.92766    c0.58135,0.39559,1.24869,0.67452,1.90411,0.92011c0.70671,0.26492,1.4091,0.55253,2.0673,0.92428    c1.26952,0.71699,2.33813,1.79983,2.39542,3.33426c0.02801,0.75058-0.16851,1.49639-0.44802,2.18723" style="fill:none;stroke:#30302F;stroke-width:0.8;stroke-linecap:round;stroke-linejoin:round;stroke-miterlimit:10;"/><path d="    M30.08448,22.46437c0.11863,0.70576,0.44084,1.32126,0.91201,1.8496c1.60668,1.80203,3.94734,5.13434,1.53294,8.97832" style="fill:none;stroke:#30302F;stroke-width:0.8;stroke-linecap:round;stroke-linejoin:round;stroke-miterlimit:10;"/><path d="    M31.22878,24.59047c-0.35312,0.43725-1.04904,0.71595-1.36848,0.92613" style="fill:none;stroke:#30302F;stroke-width:0.8;stroke-linecap:round;stroke-linejoin:round;stroke-miterlimit:10;"/><path d="M18.20752,25.80964    l-0.00845-0.00845c-0.1177-0.10928-0.26064-0.17662-0.42879-0.17662c-0.34468,0-0.6221,0.27754-0.6221,0.6222    c0,0.34467,0.27742,0.62218,0.6221,0.62218c0.24384,0,0.45402-0.14291,0.55495-0.36154" style="fill:none;stroke:#30302F;stroke-width:0.8;stroke-linejoin:round;stroke-miterlimit:10;"/><path d="M17.20697,26.55788    c0,0-2.18593,1.84127-0.18495,2.29519c0,0,0.61375,1.14349,1.57218,0.26064c0,0,0.72313,0.42879,1.05102-0.26064" style="fill:none;stroke:#30302F;stroke-width:0.8;stroke-linejoin:round;stroke-miterlimit:10;"/><path d="M29.27177,26.50742    c0.10081,0.21863,0.31099,0.36154,0.55486,0.36154c0.34465,0,0.62219-0.27752,0.62219-0.62218    c0-0.34467-0.27754-0.6222-0.62219-0.6222c-0.16818,0-0.31112,0.06734-0.42882,0.17662l-0.00833,0.00845" style="fill:none;stroke:#30302F;stroke-width:0.8;stroke-linejoin:round;stroke-miterlimit:10;"/><path d="M27.95179,28.85307    c0.32788,0.68943,1.0509,0.26064,1.0509,0.26064c0.95842,0.88284,1.57218-0.26064,1.57218-0.26064    c2.00098-0.45392-0.18495-2.29519-0.18495-2.29519" style="fill:none;stroke:#30302F;stroke-width:0.8;stroke-linejoin:round;stroke-miterlimit:10;"/><path d="    M23.61997,38.80347c0.29745-2.65455,11.6478-5.32253,11.6478-5.32253s0.98631-0.07535,2.02182,0.74685" style="fill:none;stroke:#30302F;stroke-width:0.8;stroke-linecap:round;stroke-linejoin:round;stroke-miterlimit:10;"/><polygon points="23.21952,9.78604 24.15387,8.61571 25.08822,9.78604 25.08822,10.86495 24.15387,11.77175     23.21952,10.86495   " style="fill:#5DF9DB;"/><path d="    M23.6452,38.80764c-0.10925-0.9921-1.76557-1.9842-3.80023-2.84181" style="fill:none;stroke:#30302F;stroke-width:0.8;stroke-linecap:round;stroke-linejoin:round;stroke-miterlimit:10;"/><polygon points="    23.21952,9.78604 24.15387,8.61571 25.08822,9.78604 25.08822,10.86495 24.15387,11.77175 23.21952,10.86495   " style="fill:none;stroke:#30302F;stroke-width:0.8;stroke-linecap:round;stroke-linejoin:round;stroke-miterlimit:10;"/><path d="    M39.86151,31.00509c0.21677,0.17893,1.09905,0.97057,1.66627,2.96089" style="fill:none;stroke:#30302F;stroke-width:0.8;stroke-linecap:round;stroke-linejoin:round;stroke-miterlimit:10;"/><path d="    M13.17144,23.69524c-0.52394,0.99928-1.2605,1.90376-2.02506,2.72573c-1.46859,1.57875-3.54145,2.55803-4.5369,4.537    c-0.56329,1.11967-0.97161,2.75121-0.57822,3.98787" style="fill:none;stroke:#30302F;stroke-width:0.8;stroke-linecap:round;stroke-linejoin:round;stroke-miterlimit:10;"/><path d="M24.56447,27.40654c-0.5784-0.04563-0.76383,0.11081-0.76383,0.11081    s-0.18533-0.15644-0.76373-0.11081c-0.57841,0.04563-0.92701,0.01954-1.03821-0.03909    c0.19929,0.17512,0.40127,0.35407,0.58419,0.54587c0.09175,0.09618,0.15962,0.20901,0.2505,0.30594    c0.08915,0.09494,0.19245,0.17649,0.3049,0.24214c0.33426,0.19515,0.74082,0.22663,1.10743,0.10725    c0.20092-0.06547,0.37075-0.18669,0.50766-0.34629c0.13419-0.15664,0.26503-0.30855,0.41339-0.45219    c0.14162-0.13721,0.2868-0.27178,0.43583-0.40271C25.49139,27.42608,25.14288,27.45218,24.56447,27.40654z" style="fill:#F43735;"/><path d="    M30.43007,20.43723c0,0,0.21678-2.92989-3.82547-2.15237c-6.04056,1.16187-7.42374,3.84225-12.6112,1.58894    c-0.36156-0.15125-0.73991-0.33619-1.14349-0.55482c0,0,0.51295-0.01678,1.26119-0.2942    c0.72301-0.26909,1.67311-0.77361,2.58951-1.71523c1.8665-1.93374,3.7918-5.34718,9.90399-4.6325    c6.11232,0.71468,6.08709,7.48263,3.68253,8.69338" style="fill:none;stroke:#30302F;stroke-width:0.8;stroke-linecap:round;stroke-linejoin:round;stroke-miterlimit:10;"/><path d="M25.57651,20.20749c0,0,0.25508-0.05104,0.58494-0.05197    c0.3368-0.00486,0.77602,0.03507,1.19777,0.12673c0.85194,0.1737,1.58711,0.58204,1.58711,0.58204    s-0.81687-0.21585-1.62599-0.17881c-0.40265,0.01215-0.79523,0.0743-1.07404,0.14837    c-0.28726,0.075-0.42939,0.14734-0.42939,0.14734c-0.20208,0.10289-0.44929,0.02245-0.55218-0.17951    c-0.10289-0.20208-0.02244-0.44929,0.17962-0.55218c0.03356-0.01713,0.06852-0.02917,0.1037-0.03646L25.57651,20.20749z" style="fill:#30302F;"/><path d="    M23.34293,25.5151c0,0,0.4695,0.49293,0.91542,0" style="fill:none;stroke:#30302F;stroke-width:0.6;stroke-linecap:round;stroke-linejoin:round;stroke-miterlimit:10;"/><path d="M22.07812,20.9812c0,0-0.14212-0.07234-0.42938-0.14734    c-0.27893-0.07407-0.67138-0.13622-1.07414-0.14837c-0.809-0.03704-1.62589,0.17881-1.62589,0.17881    s0.73505-0.40834,1.58711-0.58204c0.42163-0.09166,0.86097-0.13159,1.19777-0.12673    c0.32985,0.00093,0.58494,0.05197,0.58494,0.05197l0.02639,0.00532c0.22233,0.04444,0.36654,0.26076,0.3221,0.48297    c-0.04444,0.22245-0.26076,0.36663-0.48309,0.32221C22.14687,21.0106,22.11029,20.99729,22.07812,20.9812z" style="fill:#30302F;"/><g><path d="M28.5414,22.55412l-0.01872-0.04894c-2.34711-2.03506-3.13131,0.76289-3.13131,0.76289     s0.43216,0.41377,1.08476,0.45654C27.97781,23.69025,28.33236,23.00435,28.5414,22.55412z" style="fill:#FFFFFF;"/></g><g><path d="M28.39194,22.33799c0,0,0.29004-0.35924,0.33348-0.63104c0,0-0.40536,0.47456-0.66902,0.47362" style="fill:#30302F;"/><path d="M27.90274,22.16156c0,0,0.32693-0.30866,0.39252-0.57274c0,0-0.30508,0.32438-0.56673,0.28477" style="fill:#30302F;"/><g><g><path d="M28.06519,22.87286c-0.39719-0.4241-0.89725-0.83926-1.39316-0.78101       c-0.49963,0.05676-0.88647,0.64859-1.07056,1.198l-0.0314-0.12082c0.21375,0.26993,0.5419,0.49832,0.91223,0.59216       c-0.38721-0.01117-0.77286-0.14975-1.10431-0.41309c-0.03177-0.02524-0.04443-0.06561-0.03586-0.10266l0.00433-0.01852       c0.07693-0.32996,0.19434-0.63693,0.38266-0.92804c0.1842-0.28387,0.47189-0.55994,0.85938-0.64743       c0.38681-0.09024,0.7702,0.02335,1.08182,0.17841c0.31528,0.15997,0.58551,0.36877,0.83731,0.58914       c0.1319,0.11545,0.14523,0.31595,0.02982,0.44785c-0.11545,0.1319-0.31595,0.14523-0.44785,0.02979       C28.08173,22.88977,28.0722,22.88034,28.06519,22.87286z" style="fill:#30302F;"/></g><g><path d="M28.52585,22.94821c-0.12982,0.17886-0.26511,0.29205-0.422,0.39984       c-0.15463,0.10245-0.33029,0.17126-0.49771,0.18402c0.12686-0.11176,0.20566-0.24802,0.25595-0.38895       c0.04755-0.13632,0.07925-0.29907,0.06943-0.41522c-0.01617-0.19119,0.12573-0.35928,0.31693-0.37546       s0.35928,0.12573,0.37543,0.31693c0.00729,0.08627-0.01758,0.16785-0.0647,0.23291L28.52585,22.94821z" style="fill:#30302F;"/></g></g></g><path d="M27.50422,22.48679c0.00059,0.4014-0.30492,0.73029-0.68237,0.73459    s-0.68391-0.31761-0.6845-0.71902c-0.00059-0.40141,0.30492-0.7303,0.68237-0.7346S27.50364,22.08539,27.50422,22.48679z" style="fill:#30302F;"/><ellipse cx="27.07405" cy="22.45077" rx="0.19982" ry="0.20239" style="fill:#FFFFFF;" transform="matrix(0.99993 -0.01172 0.01172 0.99993 -0.26133 0.31893)"/><g><path d="M19.53101,22.55412l0.01873-0.04894c2.34711-2.03506,3.1313,0.76289,3.1313,0.76289     s-0.43216,0.41377-1.08475,0.45654C20.0946,23.69025,19.74006,23.00435,19.53101,22.55412z" style="fill:#FFFFFF;"/></g><g><path d="M19.68048,22.33799c0,0-0.29004-0.35924-0.33348-0.63104c0,0,0.40537,0.47456,0.66902,0.47362" style="fill:#30302F;"/><path d="M20.16967,22.16156c0,0-0.32693-0.30866-0.39252-0.57274c0,0,0.30508,0.32438,0.56673,0.28477" style="fill:#30302F;"/><g><g><path d="M19.56479,22.41901c0.2518-0.22037,0.52203-0.42917,0.83731-0.58914       c0.31161-0.15506,0.69501-0.26865,1.08182-0.17841c0.38748,0.08749,0.67517,0.36356,0.85938,0.64743       c0.18829,0.29111,0.30573,0.59808,0.38263,0.92804l0.0043,0.0184c0.00922,0.03952-0.00604,0.07907-0.0358,0.10278       c-0.33145,0.26334-0.71713,0.40192-1.10431,0.41309c0.3703-0.09384,0.69849-0.32224,0.91223-0.59216l-0.0314,0.12082       c-0.18408-0.54941-0.57095-1.14124-1.07056-1.198c-0.49591-0.05826-0.99597,0.3569-1.39316,0.78101       c-0.11877,0.12894-0.31955,0.13715-0.44849,0.0184c-0.12891-0.11877-0.13715-0.31955-0.01837-0.44849       C19.54745,22.43509,19.55716,22.42584,19.56479,22.41901z" style="fill:#30302F;"/></g><g><path d="M20.1409,22.72791c-0.00983,0.11615,0.02188,0.2789,0.06943,0.41522       c0.05026,0.14093,0.12909,0.27719,0.25595,0.38895c-0.16742-0.01276-0.34308-0.08157-0.49771-0.18402       c-0.15692-0.10779-0.29218-0.22098-0.422-0.39984l-0.03302-0.04553c-0.1127-0.15527-0.07819-0.37253,0.07709-0.48523       c0.1553-0.1127,0.37253-0.07819,0.48523,0.07712C20.12674,22.56464,20.14758,22.64789,20.1409,22.72791z" style="fill:#30302F;"/></g></g></g><path d="M20.56819,22.48679c-0.00059,0.4014,0.30492,0.73029,0.68237,0.73459    s0.68391-0.31761,0.6845-0.71902c0.00059-0.40141-0.30492-0.7303-0.68237-0.7346S20.56878,22.08539,20.56819,22.48679z" style="fill:#30302F;"/><ellipse cx="21.01167" cy="22.46437" rx="0.20239" ry="0.19982" style="fill:#FFFFFF;" transform="matrix(0.01172 -0.99993 0.99993 0.01172 -1.69747 43.21125)"/></g></g></svg>