<?xml version="1.0" ?><svg style="enable-background:new 0 0 48 48;" version="1.1" viewBox="0 0 48 48" xml:space="preserve" xmlns="http://www.w3.org/2000/svg" xmlns:xlink="http://www.w3.org/1999/xlink"><g id="Icons"><g><path d="M24.5504,40.13079c-0.01061,0.04246,0,1.42236,0,1.42236l0.2866,0.05307    c0,0,0.58381,0.57319,1.54974,0.4352s0.88102-0.21229,0.88102-0.21229s0.05307-0.90224-0.38213-1.11454    c-0.4352-0.21229-0.47766-0.31844-0.45643-0.58381" style="fill:#464747;"/><path d="M23.32495,40.13079c0.01061,0.04246,0,1.42236,0,1.42236l-0.28659,0.05307    c0,0-0.58381,0.57319-1.54974,0.4352s-0.88102-0.21229-0.88102-0.21229s-0.05307-0.90224,0.38213-1.11454    c0.4352-0.21229,0.47766-0.31844,0.45643-0.58381" style="fill:#464747;"/><path d="M16.06961,36.56479c0,0-0.25787,2.06355-0.26662,2.96478    c-0.00875,0.90122,0.27526,1.36426,0.78414,0.83233c0,0,1.96429,2.28622,1.90047-0.00254c0,0,0.9625-0.27964,0.27362-1.44342    c-0.68888-1.16378-1.18019-0.63374-0.88447-2.31318L16.06961,36.56479z" style="fill:#464747;"/><path d="M31.93019,36.56479c0,0,0.25787,2.06355,0.26662,2.96478    c0.00875,0.90122-0.27526,1.36426-0.78414,0.83233c0,0-1.96429,2.28622-1.90047-0.00254c0,0-0.9625-0.27964-0.27362-1.44342    c0.68888-1.16378,1.18019-0.63374,0.88447-2.31318L31.93019,36.56479z" style="fill:#464747;"/><path d="M30.32066,26.83927l-0.12613,9.72552l1.83356-0.00149    C32.0281,36.5633,31.99848,30.0461,30.32066,26.83927z" style="fill:#FFD24A;"/><path d="M17.55941,26.83927l0.12613,9.72552l-1.83357-0.00149    C15.85197,36.5633,15.88159,30.0461,17.55941,26.83927z" style="fill:#FFD24A;"/><path d="M30.32068,35.40596c0,0.69872-0.29698,1.36669-0.82635,1.82272    c-0.60225,0.5188-1.42894,1.13304-2.1456,1.27782l-0.63582,1.34309c-0.08054,0.17014-0.25192,0.27862-0.44016,0.27862h-1.43159    c-0.26435,0-0.47865-0.2143-0.47865-0.47865v-1.30022h-0.40007h-0.40007v1.30022c0,0.26435-0.2143,0.47865-0.47865,0.47865    h-1.43596c-0.19069,0-0.36416-0.11033-0.445-0.28304l-0.62661-1.33867c-0.70727-0.14288-1.52884-0.74298-2.12894-1.25736    c-0.53581-0.46437-0.85015-1.13591-0.85015-1.84318l0.01143-22.67489c0,0-0.04545-1.65191,0.31344-2.34084    c2.29038-4.39657,9.90944-4.5657,11.84079,0c0.46573,0.85487,0.56577,2.34084,0.56577,2.34084L30.32068,35.40596z" style="fill:#FFD24A;"/><circle cx="26.68089" cy="14.59832" r="2.25945" style="fill:#FFFFFF;"/><circle cx="21.11901" cy="14.59832" r="2.25945" style="fill:#FFFFFF;"/><path d="M26.67588,11.29333c-1.15997,0-2.19,0.60999-2.77002,1.52002    c-0.58997-0.91003-1.62-1.52002-2.78998-1.52002c-1.83002,0-3.29999,1.48004-3.29999,3.31    c0,1.82001,1.46997,3.29999,3.29999,3.29999c1.16998,0,2.20001-0.60999,2.78998-1.51996    c0.58002,0.90997,1.61005,1.51996,2.77002,1.51996c1.83002,0,3.31-1.47998,3.31-3.29999    C29.98588,12.77337,28.5059,11.29333,26.67588,11.29333z M21.11589,16.93334c-1.28998,0-2.33002-1.03998-2.33002-2.33002    c0-1.28998,1.04004-2.33997,2.33002-2.33997s2.33997,1.04999,2.33997,2.33997    C23.45585,15.89337,22.40586,16.93334,21.11589,16.93334z M26.67588,16.93334c-1.28998,0-2.33002-1.03998-2.33002-2.33002    c0-1.28998,1.04004-2.33997,2.33002-2.33997s2.34003,1.04999,2.34003,2.33997    C29.01591,15.89337,27.96586,16.93334,26.67588,16.93334z" style="fill:#D5D5D5;"/><path d="M19.6331,29.70497v2.38255c0,0-0.26145,1.72977-2.03607,1.70387    c0,0-1.26045,3.34071,2.97909,4.7151l0.73217,1.62171l2.01666,0.00259c0,0,0.3031,0.22431,0.2374-1.78147h0.80014l0.0146,1.39853    c0,0-0.04107,0.38034,0.70836,0.38034c0.74944,0,1.18728,0,1.18728,0s0.4914,0.0616,1.07599-1.62171    c0,0,2.66596-0.4211,2.89932-2.5211l0.07263-2.194c0,0-2.65715,0.1868-2.17751-4.08642H19.6331z" style="fill:#50ABFE;"/><path d="M30.32066,25.04702c-1.12877,1.59313-3.90782,5.52953-3.90782,5.65812l1.07876,0.85015    c0.07859-0.10002,1.93605-2.84335,2.82906-4.165" style="fill:#50ABFE;"/><path d="M17.60418,24.99701c1.10019,1.55741,3.94354,5.57953,3.94354,5.70813l-1.07876,0.85015    c-0.07858-0.10002-1.9932-2.92193-2.86478-4.22216v-0.00714c-0.07144-0.10002-0.03773-0.09488-0.09488-0.17346" style="fill:#50ABFE;"/><path d="    M30.32066,26.65444c0.17146,0.34292,0.40721,0.86444,0.55009,1.41453c0.50009,1.89318,1.22878,5.27948,1.15734,8.49433h-1.91462    c0,0,0.45008,1.67886-0.43579,2.0575c-0.89301,0.38578-1.01446,1.35738-0.15717,1.62885c0,0-0.16431,1.20735,0.58582,1.09305    c0.75013-0.10716,1.20021-0.63583,1.35023-1.0859" style="fill:none;stroke:#30302F;stroke-width:0.7;stroke-linecap:round;stroke-linejoin:round;stroke-miterlimit:10;"/><circle cx="26.67935" cy="14.59962" r="2.33768" style="fill:none;stroke:#30302F;stroke-width:0.7;stroke-linecap:round;stroke-linejoin:round;stroke-miterlimit:10;"/><circle cx="21.11901" cy="14.59962" r="2.33768" style="fill:none;stroke:#30302F;stroke-width:0.7;stroke-linecap:round;stroke-linejoin:round;stroke-miterlimit:10;"/><path d="    M23.90527,16.38124c-0.58582,0.91444-1.61456,1.52169-2.7862,1.52169c-1.82889,0-3.30771-1.47883-3.30771-3.30057    c0-1.82889,1.47883-3.30771,3.30771-3.30771c1.17163,0,2.20038,0.60725,2.7862,1.52169    c0.57867-0.91444,1.60742-1.52169,2.77191-1.52169c1.82889,0,3.30771,1.47883,3.30771,3.30771    c0,1.82174-1.47883,3.30057-3.30771,3.30057C25.51269,17.90293,24.48394,17.29568,23.90527,16.38124z" style="fill:none;stroke:#30302F;stroke-width:0.7;stroke-linecap:round;stroke-linejoin:round;stroke-miterlimit:10;"/><circle cx="25.98882" cy="14.7818" r="0.8725" style="fill:#30302F;"/><circle cx="21.46082" cy="14.7818" r="0.8725" style="fill:#30302F;"/><path d="    M17.59703,33.79139h0.1338c1.05059,0,1.90226-0.85167,1.90226-1.90226V30.3408" style="fill:none;stroke:#30302F;stroke-width:0.7;stroke-linecap:round;stroke-linejoin:round;stroke-miterlimit:10;"/><path d="    M30.32068,35.40596c0,0.69872-0.29698,1.36669-0.82635,1.82272c-0.60225,0.5188-1.42894,1.13304-2.1456,1.27782l-0.63582,1.34309    c-0.08054,0.17014-0.25192,0.27862-0.44016,0.27862h-1.43159c-0.26435,0-0.47865-0.2143-0.47865-0.47865v-1.30022h-0.40007    h-0.40007v1.30022c0,0.26435-0.2143,0.47865-0.47865,0.47865h-1.43596c-0.19069,0-0.36416-0.11033-0.445-0.28304l-0.62661-1.33867    c-0.70727-0.14288-1.52884-0.74298-2.12894-1.25736c-0.53581-0.46437-0.85015-1.13591-0.85015-1.84318l0.01143-22.67489    c0,0-0.04545-1.65191,0.31344-2.34084c2.29038-4.39657,9.90944-4.5657,11.84079,0    c0.46573,0.85487,0.56577,2.34084,0.56577,2.34084L30.32068,35.40596z" style="fill:none;stroke:#30302F;stroke-width:0.7;stroke-linecap:round;stroke-linejoin:round;stroke-miterlimit:10;"/><path d="    M28.29174,30.38366v1.50547c0,1.05059,0.85167,1.90226,1.90226,1.90226h0.12666" style="fill:none;stroke:#30302F;stroke-width:0.7;stroke-linecap:round;stroke-linejoin:round;stroke-miterlimit:10;"/><polyline points="    20.89761,29.70497 23.96242,29.70497 27.06296,29.70497   " style="fill:none;stroke:#30302F;stroke-width:0.7;stroke-linecap:round;stroke-linejoin:round;stroke-miterlimit:10;"/><path d="    M31.23125,40.68068c0,0,1.08538,0.09914,0.95488-1.37991s-0.16078-2.73598-0.16078-2.73598" style="fill:none;stroke:#30302F;stroke-width:0.7;stroke-linecap:round;stroke-linejoin:round;stroke-miterlimit:10;"/><path d="    M17.56719,26.54867c0,0-0.18917,0.57477-0.43734,1.51959c-0.49762,1.8945-1.23247,5.27681-1.1552,8.49652h1.9115    c0,0-0.45324,1.678,0.43854,2.05864c0.89178,0.38064,1.01282,1.35162,0.15366,1.6235c0,0,0.16313,1.20717-0.58727,1.09842    c-0.7504-0.10875-1.1963-0.64165-1.34855-1.08754" style="fill:none;stroke:#30302F;stroke-width:0.7;stroke-linecap:round;stroke-linejoin:round;stroke-miterlimit:10;"/><path d="    M16.76875,40.68068c0,0-1.08538,0.09914-0.95488-1.37991c0.1305-1.47906,0.16078-2.73598,0.16078-2.73598" style="fill:none;stroke:#30302F;stroke-width:0.7;stroke-linecap:round;stroke-linejoin:round;stroke-miterlimit:10;"/><circle cx="27.41079" cy="30.42992" r="0.30612" style="fill:#30302F;"/><circle cx="20.53874" cy="30.42992" r="0.30612" style="fill:#30302F;"/><path d="    M24.5504,40.13079c-0.01061,0.04246,0,1.42236,0,1.42236l0.2866,0.05307c0,0,0.58381,0.57319,1.54974,0.4352    s0.88102-0.21229,0.88102-0.21229s0.05307-0.90224-0.38213-1.11454c-0.4352-0.21229-0.47766-0.31844-0.45643-0.58381" style="fill:none;stroke:#30302F;stroke-width:0.7;stroke-linecap:round;stroke-linejoin:round;stroke-miterlimit:10;"/><path d="    M23.32495,40.13079c0.01061,0.04246,0,1.42236,0,1.42236l-0.28659,0.05307c0,0-0.58381,0.57319-1.54974,0.4352    s-0.88102-0.21229-0.88102-0.21229s-0.05307-0.90224,0.38213-1.11454c0.4352-0.21229,0.47766-0.31844,0.45643-0.58381" style="fill:none;stroke:#30302F;stroke-width:0.7;stroke-linecap:round;stroke-linejoin:round;stroke-miterlimit:10;"/><path d="    M22.0724,24.16205c0,0,2.96318,0.7408,4.60938-1.02888" style="fill:none;stroke:#30302F;stroke-width:0.7;stroke-linecap:round;stroke-linejoin:round;stroke-miterlimit:10;"/><path d="    M25.98882,5.93713c-1.37293,0.4071-2.02567,1.65103-2.02567,1.65103V6.23115" style="fill:none;stroke:#30302F;stroke-width:0.7;stroke-linecap:round;stroke-linejoin:round;stroke-miterlimit:10;"/><path d="    M21.93748,5.93713c1.37293,0.4071,2.02567,1.65103,2.02567,1.65103" style="fill:none;stroke:#30302F;stroke-width:0.7;stroke-linecap:round;stroke-linejoin:round;stroke-miterlimit:10;"/><path d="    M30.32066,25.04702c-1.12877,1.59313-3.90782,5.52953-3.90782,5.65812l1.07876,0.85015    c0.07859-0.10002,1.93605-2.84335,2.82906-4.165" style="fill:none;stroke:#30302F;stroke-width:0.7;stroke-linecap:round;stroke-linejoin:round;stroke-miterlimit:10;"/><path d="    M17.60418,24.99701c1.10019,1.55741,3.94354,5.57953,3.94354,5.70813l-1.07876,0.85015    c-0.07858-0.10002-1.9932-2.92193-2.86478-4.22216v-0.00714c-0.07144-0.10002-0.03773-0.09488-0.09488-0.17346" style="fill:none;stroke:#30302F;stroke-width:0.7;stroke-linecap:round;stroke-linejoin:round;stroke-miterlimit:10;"/></g></g></svg>