<?xml version="1.0" ?><svg style="enable-background:new 0 0 48 48;" version="1.1" viewBox="0 0 48 48" xml:space="preserve" xmlns="http://www.w3.org/2000/svg" xmlns:xlink="http://www.w3.org/1999/xlink"><g id="Icons"><g><path d="M23.94993,7.17577c0,0-3.15373,0.12151-3.7004,0.54667l-2.81451,1.62249    c-1.50397,0.86697-2.60335,2.2943-3.05765,3.96968l-1.80155,6.64305c-0.26602,0.98104-0.30066,2.0104-0.10112,3.00708    l1.88181,9.40049c0.17068,0.85263,0.50896,1.66281,0.99528,2.38359l1.66272,2.46414    c0.68382,1.01344,1.63702,1.8157,2.75214,2.31665l1.62026,0.72786c1.63683,0.73531,3.50337,0.76855,5.16544,0.092l1.5292-0.62246    c1.24594-0.50719,2.30603-1.38487,3.03687-2.51424l1.57901-2.4403c0.45057-0.69639,0.7652-1.47184,0.92703-2.28527l1.9023-9.55897    c0.20606-1.03532,0.15941-2.105-0.13595-3.11844l-1.93991-6.65636c-0.47963-1.64605-1.58413-3.03911-3.07748-3.88141    l-1.83321-1.0342c-0.48074-0.27114-0.9897-0.47925-1.52258-0.62293C26.18018,7.38909,24.91216,7.11021,23.94993,7.17577z" style="fill:#F43735;"/><path d="    M23.94993,7.17577c0,0-3.15373,0.12151-3.7004,0.54667l-2.81451,1.62249c-1.50397,0.86697-2.60335,2.2943-3.05765,3.96968    l-1.80155,6.64305c-0.26602,0.98104-0.30066,2.0104-0.10112,3.00708l1.88181,9.40049    c0.17068,0.85263,0.50896,1.66281,0.99528,2.38359l1.66272,2.46414c0.68382,1.01344,1.63702,1.8157,2.75214,2.31665    l1.62026,0.72786c1.63683,0.73531,3.50337,0.76855,5.16544,0.092l1.5292-0.62246c1.24594-0.50719,2.30603-1.38487,3.03687-2.51424    l1.57901-2.4403c0.45057-0.69639,0.7652-1.47184,0.92703-2.28527l1.9023-9.55897c0.20606-1.03532,0.15941-2.105-0.13595-3.11844    l-1.93991-6.65636c-0.47963-1.64605-1.58413-3.03911-3.07748-3.88141l-1.83321-1.0342    c-0.48074-0.27114-0.9897-0.47925-1.52258-0.62293C26.18018,7.38909,24.91216,7.11021,23.94993,7.17577z" style="fill:none;stroke:#303030;stroke-width:0.75;stroke-linecap:round;stroke-linejoin:round;stroke-miterlimit:10;"/><polyline points="    22.05927,31.71893 23.81268,32.58032 25.87364,31.71893   " style="fill:none;stroke:#303030;stroke-width:0.75;stroke-linecap:round;stroke-linejoin:round;stroke-miterlimit:10;"/><path d="M23.29768,24.85241l-2.52988-8.08965c-0.03585-0.11471-0.1135-0.21183-0.2176-0.27198    l-3.45961-1.99885c-0.26994-0.15596-0.61455-0.01676-0.70049,0.28288l-2.20184,7.67828    c-0.01871,0.06527-0.02336,0.13371-0.01359,0.20085l0.61557,4.2506c0.01024,0.07105,0.03641,0.13883,0.07645,0.19852    l2.60186,3.87573c0.15633,0.23278,0.47831,0.28222,0.69722,0.10708l3.36119-2.68891    c0.05093-0.04078,0.09293-0.09144,0.12356-0.14889l1.61271-3.02738C23.32356,25.10745,23.33595,24.97486,23.29768,24.85241z     M17.84498,25.93578l-2.18406-1.04584l1.19967-1.13821l4.49121,1.47658L17.84498,25.93578z" style="fill:#303030;"/><path d="M24.7845,25.22067l1.61271,3.02738c0.03064,0.05745,0.07263,0.1081,0.12356,0.14889    l3.36119,2.68891c0.21891,0.17515,0.54089,0.1257,0.69723-0.10708l2.60185-3.87573    c0.04004-0.05968,0.0662-0.12747,0.07645-0.19852l0.61557-4.2506c0.00978-0.06713,0.00512-0.13557-0.0136-0.20085    l-2.20184-7.67828c-0.08594-0.29964-0.43055-0.43884-0.7004-0.28288l-3.4597,1.99885    c-0.10409,0.06015-0.18176,0.15727-0.2176,0.27198l-2.52988,8.08965C24.71179,24.97486,24.72416,25.10745,24.7845,25.22067z     M26.69592,25.22831l4.49121-1.47658l1.19967,1.13821l-2.18406,1.04584L26.69592,25.22831z" style="fill:#303030;"/><line style="fill:none;stroke:#303030;stroke-width:0.75;stroke-linecap:round;stroke-linejoin:round;stroke-miterlimit:10;" x1="15.66093" x2="16.19409" y1="11.01658" y2="13.27243"/><line style="fill:none;stroke:#303030;stroke-width:0.75;stroke-linecap:round;stroke-linejoin:round;stroke-miterlimit:10;" x1="32.35309" x2="31.81993" y1="11.01658" y2="13.27243"/><line style="fill:none;stroke:#303030;stroke-width:0.75;stroke-linecap:round;stroke-linejoin:round;stroke-miterlimit:10;" x1="17.42458" x2="16.77987" y1="32.95966" y2="36.86518"/><line style="fill:none;stroke:#303030;stroke-width:0.75;stroke-linecap:round;stroke-linejoin:round;stroke-miterlimit:10;" x1="30.63143" x2="31.11841" y1="32.95966" y2="37.21278"/><path d="    M19.2075,10.50911c0,0,3.28568-1.95565,8.05771-0.62581" style="fill:none;stroke:#303030;stroke-width:0.75;stroke-linecap:round;stroke-linejoin:round;stroke-miterlimit:10;"/><polygon points="26.69592,25.22831 31.18713,23.75172 32.3868,24.88994 30.20274,25.93578   " style="fill:#FFFFFF;"/><polygon points="21.3518,25.22831 16.86059,23.75172 15.66093,24.88994 17.84498,25.93578   " style="fill:#FFFFFF;"/></g></g></svg>