<?xml version="1.0" ?><svg style="enable-background:new 0 0 48 48;" version="1.1" viewBox="0 0 48 48" xml:space="preserve" xmlns="http://www.w3.org/2000/svg" xmlns:xlink="http://www.w3.org/1999/xlink"><g id="Icons"><g><path d="M14.40987,31.82738c0,0-5.52259,0.90305-8.23762,6.1171    c11.90274,4.43976,23.73236,4.4248,35.48953,0c-2.71503-5.21405-8.23762-6.1171-8.23762-6.1171" style="fill:#1D97FF;"/><path d="M11.99945,22.05471c0,0-5.47814,0.59216-4.3231,4.51302    c0.57559,1.95372,2.33263,2.08945,3.98582,3.00629c1.10458,0.61255,2.10158,1.36715,2.94189,2.30168    c1.09563,1.21852,1.63528,3.00062,2.89121,4.03718c1.53392,1.26603,3.36443,2.23422,5.38007,2.47219    c2.72093,0.3213,5.93809-0.77807,7.79603-2.75948c1.08372-1.15594,1.62564-2.6927,2.72195-3.87531    c0.84893-0.9158,1.85205-1.64557,2.95358-2.24531c1.6228-0.8834,3.29934-1.03554,3.85963-2.93724    c1.15503-3.92086-4.3231-4.51302-4.3231-4.51302" style="fill:#F4F4F4;"/><path d="M14.40987,31.82738c0,0-3.69108,1.12932-5.94156,3.39036c0,0,2.02042-0.62458,3.77213-0.16325    s3.20165,0.79556,4.39502,2.75499c1.19337,1.95944,3.48351,2.98479,6.50649,3.0103s4.99661-0.17499,7.17019-1.9183    s1.66683-3.34641,8.06922-4.65179c0,0-2.51723-2.42231-4.93928-2.42231c0,0-0.64635,0.62834-1.96933,2.762    c-1.32298,2.13366-5.4115,4.555-9.14984,3.768s-5.3262-2.71479-6.04299-3.91777    C15.56314,33.23664,14.40987,31.82738,14.40987,31.82738z" style="fill:#91CAFF;"/><path d="M35.03297,20.45504c0.3454-2.95428-1.40497-4.0202-1.40497-4.0202l-0.25494-0.69891    c-0.07306-0.23798-0.172-0.45233-0.271-0.66644l0.0481-0.00055c0,0-1.05414-4.37128-3.29785-6.1217    c-0.44489-0.34821-0.92841-0.64807-1.44098-0.88989l-1.62488-0.59949C25.73231,7.17733,24.62977,7.0903,23.537,7.14834    c-0.65765,0.03864-1.34436,0.11597-2.03094,0.27075L20.06501,7.806v0.00964c-1.07343,0.35779-2.07928,0.89935-2.84326,1.6441    c-1.48938,1.42157-2.80475,3.41388-2.64996,5.52228c0.0097,0.09668,0.01935,0.19342,0.02899,0.29974l0.05066-0.00061    c-0.06213,0.15118-0.13501,0.29236-0.18488,0.45477l-0.34998,0.69891c0,0-1.75049,1.06592-1.40503,4.0202    c0,0-2.72095,4.0517,1.20935,6.20416c0,0,0.17279,1.18835,1.6413,1.23053c0,0-0.216,2.65894,3.84387,2.23688h8.93243    c4.05975,0.42206,3.84393-2.23688,3.84393-2.23688c1.46838-0.04218,1.64117-1.23053,1.64117-1.23053    C37.75386,24.50674,35.03297,20.45504,35.03297,20.45504z" style="fill:#464747;"/><path d="M19.53745,28.30981v2.85686c0,0-3.3651-0.19308-3.25753,3.27293    c2.82808,5.33439,12.0586,5.39414,15.28845,0c0.44693-3.24799-3.22985-3.27293-3.22985-3.27293v-2.85686" style="fill:#FFE7D7;"/><path d="M23.68086,12.25043c0,0-1.5829,1.49751-3.91054,1.99975    c-2.32775,0.50224-3.35195,2.1855-2.83986,6.23433c0.5121,4.04888-0.93113,4.45883,2.60699,7.8253    c1.60127,1.52349,3.0988,2.61459,5.48415,2.1094c1.41069-0.29862,2.28139-1.15878,3.28043-2.1094    c3.53822-3.36647,2.09499-3.77642,2.6071-7.8253c0.5121-4.04883-0.5121-5.73209-2.83986-6.23433    c-2.32764-0.50224-3.91054-1.99975-3.91054-1.99975H23.68086z" style="fill:#FFE7D7;"/><path d="M28.61549,9.83511l-0.00165-0.00037c0.17413-1.47388-0.61871-2.69128-0.61871-2.69128    c-2.12573,0.14581-2.72253,1.96802-2.72253,1.96802s-1.27112-0.50256-2.16083,0L23.1114,9.11154    c-0.00012-0.00049-0.37732-1.151-1.60535-1.69244c-0.30951-0.14502-0.67694-0.24176-1.11218-0.27075    c0,0-0.16437,0.25146-0.32886,0.65765c-0.16907,0.42004-0.32977,1.0105-0.31653,1.67218l-0.24823,0.02704    c-1.61938,0.61877-2.57147,2.92706-2.57147,2.92706c4.88718-1.80847,9.63992-1.69855,14.25824,0.3299    C31.18702,12.76217,30.23506,10.45382,28.61549,9.83511z" style="fill:#F43735;"/><path d="    M28.33852,30.1266c4.05974,0.42208,3.84388-2.23683,3.84388-2.23683c1.4684-0.04218,1.64117-1.23054,1.64117-1.23054    c3.93028-2.15248,1.20935-6.2042,1.20935-6.2042c0.34544-2.95423-1.40491-4.02017-1.40491-4.02017l-0.25497-0.69892    c-1.54424-5.03032-9.21432-4.57751-9.21432-4.57751h-0.47786c0,0-7.67007-0.45281-9.21431,4.57751l-0.34998,0.69892    c0,0-1.75047,1.06595-1.40502,4.02017c0,0-2.72093,4.05171,1.20934,6.2042c0,0,0.17278,1.18837,1.64129,1.23054    c0,0-0.21597,2.65891,3.84388,2.23683" style="fill:none;stroke:#30302F;stroke-width:0.8;stroke-linecap:round;stroke-linejoin:round;stroke-miterlimit:10;"/><path d="    M23.68086,12.25043c0,0-1.5829,1.49751-3.91054,1.99975c-2.32775,0.50224-3.35195,2.1855-2.83986,6.23433    c0.5121,4.04888-0.93113,4.45883,2.60699,7.8253c1.60127,1.52349,3.0988,2.61459,5.48415,2.1094    c1.41069-0.29862,2.28139-1.15878,3.28043-2.1094c3.53822-3.36647,2.09499-3.77642,2.6071-7.8253    c0.5121-4.04883-0.5121-5.73209-2.83986-6.23433c-2.32764-0.50224-3.91054-1.99975-3.91054-1.99975H23.68086z" style="fill:none;stroke:#30302F;stroke-width:0.8;stroke-linecap:round;stroke-linejoin:round;stroke-miterlimit:10;"/><path d="    M27.99512,11.44436c1.45445-2.07686,0-4.30088,0-4.30088C25.86939,7.28927,25.2726,9.1115,25.2726,9.1115v1.97846" style="fill:none;stroke:#30302F;stroke-width:0.8;stroke-linecap:round;stroke-linejoin:round;stroke-miterlimit:10;"/><path d="    M23.11139,11.07488V9.11161c0,0-0.37707-1.15095-1.60535-1.69253c-0.30951-0.145-0.67694-0.24171-1.11218-0.27073    c0,0-0.16439,0.25146-0.32889,0.65767c-0.31913,0.79304-0.62853,2.18559,0.26121,3.53957" style="fill:none;stroke:#30302F;stroke-width:0.8;stroke-linecap:round;stroke-linejoin:round;stroke-miterlimit:10;"/><path d="    M14.60077,15.28177c-0.00964-0.10634-0.01927-0.20305-0.02902-0.29976c-0.15475-2.10838,1.16059-4.10067,2.64996-5.52224    c0.76402-0.74474,1.76985-1.28634,2.84326-1.64412V7.80602" style="fill:none;stroke:#30302F;stroke-width:0.8;stroke-linecap:round;stroke-linejoin:round;stroke-miterlimit:10;"/><path d="    M28.41131,8.05736c0.51255,0.24182,0.99609,0.54169,1.44096,0.88986c2.24375,1.75047,3.29788,6.12175,3.29788,6.12175" style="fill:none;stroke:#30302F;stroke-width:0.8;stroke-linecap:round;stroke-linejoin:round;stroke-miterlimit:10;"/><path d="    M21.50604,7.41908c0.68658-0.15475,1.37328-0.23207,2.03096-0.27073c1.09278-0.05805,2.19533,0.02902,3.24946,0.30951" style="fill:none;stroke:#30302F;stroke-width:0.8;stroke-linecap:round;stroke-linejoin:round;stroke-miterlimit:10;"/><path d="    M25.2726,9.1115c0,0-1.27113-0.50258-2.16087,0" style="fill:none;stroke:#30302F;stroke-width:0.8;stroke-linecap:round;stroke-linejoin:round;stroke-miterlimit:10;"/><path d="    M19.53745,28.30981v2.85686c0,0-3.3651-0.19307-3.25752,3.27294" style="fill:none;stroke:#30302F;stroke-width:0.8;stroke-linecap:round;stroke-linejoin:round;stroke-miterlimit:10;"/><path d="    M28.33852,28.30981v2.85686c0,0,3.67677,0.02494,3.22986,3.27294" style="fill:none;stroke:#30302F;stroke-width:0.8;stroke-linecap:round;stroke-linejoin:round;stroke-miterlimit:10;"/><path d="    M11.99945,22.05471c0,0-5.47814,0.59216-4.3231,4.51302c0.57559,1.95372,2.33263,2.08945,3.98582,3.00629    c1.10458,0.61255,2.10158,1.36715,2.94189,2.30168c1.09563,1.21852,1.63528,3.00062,2.89121,4.03718    c1.53392,1.26603,3.36443,2.23422,5.38007,2.47219c2.72093,0.3213,5.93809-0.77807,7.79603-2.75948    c1.08372-1.15594,1.62564-2.6927,2.72195-3.87531c0.84893-0.9158,1.85205-1.64557,2.95358-2.24531    c1.6228-0.8834,3.29934-1.03554,3.85963-2.93724c1.15503-3.92086-4.3231-4.51302-4.3231-4.51302" style="fill:none;stroke:#30302F;stroke-width:0.8;stroke-linecap:round;stroke-linejoin:round;stroke-miterlimit:10;"/><path d="    M14.55781,31.82738c0,0-6.37967,1.69378-8.20168,5.9821" style="fill:none;stroke:#30302F;stroke-width:0.8;stroke-linecap:round;stroke-linejoin:round;stroke-miterlimit:10;"/><path d="    M33.44208,31.82738c0,0,6.37968,1.69378,8.20179,5.9821" style="fill:none;stroke:#30302F;stroke-width:0.8;stroke-linecap:round;stroke-linejoin:round;stroke-miterlimit:10;"/><path d="    M38.38136,34.12591c0,0-5.811,1.30922-7.69965,4.31447c-1.88878,3.00529-11.64944,3.54981-14.04624-0.6309    c-2.39691-4.18071-8.46787-2.52117-8.46787-2.52117" style="fill:none;stroke:#30302F;stroke-width:0.8;stroke-linecap:round;stroke-linejoin:round;stroke-miterlimit:10;"/><path d="M25.10583,25.76676c-0.43171-0.49725-1.16433-0.13038-1.16433-0.13038    s-0.73272-0.36687-1.16444,0.13038c-0.43172,0.49714-0.81118,0.54441-0.98124,0.46154c0,0,0.56255,1.38484,2.14568,1.31376    c1.58291,0.07108,2.14557-1.31376,2.14557-1.31376C25.91701,26.31118,25.53755,26.2639,25.10583,25.76676z" style="fill:#F43735;"/><path d="    M31.187,12.76219c0,0-0.95198-2.30837-2.57151-2.92704" style="fill:none;stroke:#30302F;stroke-width:0.8;stroke-linecap:round;stroke-linejoin:round;stroke-miterlimit:10;"/><path d="    M16.92876,12.43228c0,0,0.95211-2.30826,2.57151-2.92704" style="fill:none;stroke:#30302F;stroke-width:0.8;stroke-linecap:round;stroke-linejoin:round;stroke-miterlimit:10;"/><path d="M23.09589,23.31315c0,0,0.14873,0.04754,0.32369,0.0805    c0.1747,0.04214,0.35193,0.06106,0.50635,0.05236c0.08044,0.00379,0.16245-0.0139,0.25303-0.02279    c0.08927-0.0174,0.18266-0.03411,0.27193-0.05402c0.09644-0.01826,0.17688-0.03353,0.23311-0.04416    c0.06076-0.01092,0.10299-0.01188,0.10299-0.01188s-0.00376,0.04329-0.02334,0.10978    c-0.02623,0.05856-0.0418,0.1724-0.10947,0.26305c-0.10825,0.20033-0.37405,0.42337-0.71068,0.43583    c-0.33943,0.01044-0.62657-0.2126-0.73595-0.42068C23.08985,23.48932,23.09589,23.31315,23.09589,23.31315z" style="fill:#30302F;"/><g><g><path d="M26.12092,18.02686c0,0,0.16245,0.02234,0.41698,0.03526      c0.12675,0.00635,0.27481,0.0102,0.43115,0.00555c0.07709-0.00499,0.15679-0.01009,0.23785-0.01519      c0.0814-0.00793,0.16802-0.02755,0.28582-0.0288c0.42842-0.00181,0.7699,0.1772,0.99381,0.33966      c0.22686,0.16654,0.30644,0.33388,0.30644,0.33388s-0.12345-0.13661-0.36676-0.2255      c-0.23411-0.09115-0.59588-0.14421-0.87387-0.05567c-0.05839,0.01599-0.13956,0.05601-0.22584,0.09183      c-0.08854,0.03174-0.17573,0.06301-0.26007,0.09342c-0.16916,0.0543-0.32765,0.09534-0.46415,0.12732      c-0.27243,0.0636-0.4629,0.0916-0.4629,0.0916l-0.01463,0.00216c-0.21949,0.03231-0.42367-0.11938-0.45598-0.33887      c-0.03242-0.2196,0.11938-0.42367,0.33887-0.4561C26.04552,18.02187,26.08475,18.02209,26.12092,18.02686z" style="fill:#30302F;"/></g></g><path d="M28.88385,19.97847c0,0,0.37725-0.42367,0.42293-0.66568c0,0-0.4217,0.45847-0.73256,0.46247" style="fill:#30302F;"/><path d="M28.30351,19.83087c0,0,0.42177-0.37945,0.49372-0.61503c0,0-0.39569,0.39301-0.70497,0.36265" style="fill:#30302F;"/><g><path d="M28.98763,20.35434L28.9678,20.312c-2.57204-1.81685-3.50542,0.53694-3.50542,0.53694     s0.47275,0.36778,1.19902,0.42765C28.3565,21.08713,28.74511,20.73012,28.98763,20.35434z" style="fill:#FFFFFF;"/></g><g><g><path d="M28.55881,20.4762c-0.25601-0.19049-0.51883-0.36533-0.79779-0.5029      c-0.28052-0.11063-0.57333-0.21378-0.86194-0.19214c-0.58087,0.0141-1.08316,0.52191-1.30759,1.10513l-0.04654-0.14337      c0.29303,0.26074,0.69656,0.45291,1.11646,0.53366c-0.43353,0.004-0.87137-0.08832-1.28143-0.3215      c-0.04544-0.02585-0.06558-0.07904-0.05148-0.12714l0.00485-0.01651c0.10352-0.35342,0.26822-0.67233,0.52014-0.95056      c0.25009-0.27499,0.60818-0.47839,0.99521-0.53555c0.39087-0.06335,0.76398,0.02905,1.11832,0.13419      c0.34357,0.12988,0.66037,0.3002,0.96594,0.48706c0.15305,0.09357,0.20123,0.29349,0.10767,0.44653      c-0.0936,0.15305-0.29352,0.20126-0.44656,0.10767c-0.0083-0.0051-0.01633-0.01047-0.02402-0.01617L28.55881,20.4762z" style="fill:#30302F;"/></g><g><path d="M29.08401,20.31531c-0.07205,0.17371-0.14825,0.23575-0.23514,0.32492      c-0.08588,0.07913-0.17816,0.14157-0.27161,0.19345c-0.1886,0.10168-0.3822,0.15967-0.57318,0.19083      c0.14478-0.12827,0.267-0.27457,0.35059-0.42654c0.04089-0.07645,0.0726-0.15387,0.09058-0.2291      c0.01547-0.06531,0.02853-0.1698,0.00211-0.17676c0.03403-0.17581,0.20413-0.29074,0.37994-0.25671      C29.00311,19.96939,29.11804,20.1395,29.08401,20.31531z" style="fill:#30302F;"/></g></g><ellipse cx="27.07806" cy="20.17089" rx="0.71476" ry="0.71476" style="fill:#30302F;" transform="matrix(0.99967 -0.0255 0.0255 0.99967 -0.50551 0.697)"/><ellipse cx="27.35066" cy="20.1085" rx="0.16515" ry="0.16515" style="fill:#FFFFFF;" transform="matrix(0.99967 -0.0255 0.0255 0.99967 -0.50383 0.70393)"/><g><g><path d="M21.5783,18.02686c0,0-0.16245,0.02234-0.41698,0.03526      c-0.12675,0.00635-0.27481,0.0102-0.43115,0.00555c-0.07709-0.00499-0.15679-0.01009-0.23785-0.01519      c-0.0814-0.00793-0.16802-0.02755-0.28582-0.0288c-0.42842-0.00181-0.7699,0.1772-0.99381,0.33966      c-0.22686,0.16654-0.30644,0.33388-0.30644,0.33388s0.12345-0.13661,0.36676-0.2255      c0.23411-0.09115,0.59588-0.14421,0.87387-0.05567c0.05839,0.01599,0.13956,0.05601,0.22584,0.09183      c0.08854,0.03174,0.17573,0.06301,0.26007,0.09342c0.16916,0.0543,0.32765,0.09534,0.46416,0.12732      c0.27243,0.0636,0.4629,0.0916,0.4629,0.0916l0.01462,0.00216c0.21949,0.03231,0.42367-0.11938,0.45598-0.33887      c0.03242-0.2196-0.11938-0.42367-0.33887-0.4561C21.6537,18.02187,21.61448,18.02209,21.5783,18.02686z" style="fill:#30302F;"/></g></g><path d="M18.81072,20.0064c0,0-0.38474-0.41688-0.43472-0.65804c0,0,0.4405,0.45424,0.75138,0.45271" style="fill:#30302F;"/><path d="M19.38834,19.84847c0,0-0.42847-0.37187-0.5046-0.60613c0,0,0.40263,0.38589,0.71132,0.35003" style="fill:#30302F;"/><g><path d="M18.71366,20.38406l0.01907-0.04268c2.53926-1.8624,3.51443,0.47438,3.51443,0.47438     s-0.46612,0.37615-1.1912,0.44895C19.35774,21.10548,18.96284,20.75546,18.71366,20.38406z" style="fill:#FFFFFF;"/></g><g><g><path d="M18.76106,19.97534c0.3022-0.19226,0.61591-0.36819,0.95711-0.50418      c0.35239-0.11142,0.7238-0.21048,1.11574-0.15408c0.38797,0.05026,0.74965,0.24725,1.00459,0.5177      c0.25684,0.27374,0.42722,0.58963,0.537,0.94116l0.00511,0.01639c0.01558,0.0499-0.00607,0.10254-0.04918,0.12808      c-0.40584,0.24045-0.84196,0.34055-1.2755,0.3443c0.4184-0.08826,0.81845-0.28757,1.10678-0.5535l-0.04398,0.14417      c-0.23479-0.5791-0.74606-1.07791-1.32707-1.08163c-0.28896-0.01648-0.57988,0.09186-0.8584,0.20746      c-0.27644,0.14252-0.53613,0.32205-0.7887,0.51706l-0.01065,0.00824c-0.14198,0.10962-0.34596,0.0834-0.4556-0.05859      s-0.0834-0.34598,0.05858-0.4556C18.74461,19.98636,18.75301,19.9805,18.76106,19.97534z" style="fill:#30302F;"/></g><g><path d="M19.25093,20.21222c-0.02628,0.00742-0.01135,0.11166,0.00526,0.1767      c0.0193,0.07489,0.05241,0.15173,0.09467,0.22742c0.08627,0.15048,0.21109,0.29459,0.35812,0.42026      c-0.1915-0.02777-0.38611-0.08228-0.57651-0.18057c-0.09435-0.05023-0.18773-0.11099-0.27499-0.1886      c-0.08846-0.08762-0.16577-0.14825-0.24091-0.32068c-0.03716-0.17517,0.07474-0.34729,0.24991-0.38443      C19.04166,19.92514,19.21378,20.03705,19.25093,20.21222z" style="fill:#30302F;"/></g></g><ellipse cx="20.59999" cy="20.17089" rx="0.71476" ry="0.71476" style="fill:#30302F;" transform="matrix(0.00768 -0.99997 0.99997 0.00768 0.27151 40.6154)"/><ellipse cx="20.32189" cy="20.08858" rx="0.14651" ry="0.14651" style="fill:#FFFFFF;" transform="matrix(0.00768 -0.99997 0.99997 0.00768 0.07787 40.25563)"/></g></g></svg>