<?xml version="1.0" ?><svg style="enable-background:new 0 0 48 48;" version="1.1" viewBox="0 0 48 48" xml:space="preserve" xmlns="http://www.w3.org/2000/svg" xmlns:xlink="http://www.w3.org/1999/xlink"><g id="Icons"><g><path d="M32.50755,16.01359c-2.58183-5.06808-8.50758-4.87681-8.50758-4.87681    s-5.92566-0.19127-8.50749,4.87681v8.69238h5.639l1.7759,6.31808h1.79706l2.5922-6.31808h4.89252L32.50755,16.01359z" style="fill:#FFD24A;"/><polygon points="17.54775,37.54014 16.39814,29.08016 23.29559,31.02406 24.70444,31.02406     31.58894,28.83244 30.42947,37.72739 27.70464,40.38437 23.99997,40.89064 20.33055,40.5708   " style="fill:#F9D9C0;"/><path d="M11.84552,7.10936c0,0,1.77551,8.40639,8.37015,15.10973c0,0,3.29732,1.92438,2.10163,4.42256    l0.97829,4.3824l-6.88451-2.19162l1.15947,8.89496l-2.64512-3.15239l-0.39857-6.5584    C14.52687,28.0166,8.82086,24.99688,11.84552,7.10936z" style="fill:#464747;"/><path d="M36.15444,7.10936c0,0-1.77545,8.40639-8.37009,15.10973c0,0-3.29732,1.92438-2.10162,4.42256    l-0.9783,4.3824l6.88451-2.19162l-1.15947,8.89496l2.64513-3.15239l0.39856-6.5584    C33.47316,28.0166,39.17918,24.99688,36.15444,7.10936z" style="fill:#464747;"/><g><path d="M16.1178,24.20492l4.6438,1.56914C20.76159,25.77406,17.9834,29.43797,16.1178,24.20492z" style="fill:#FFFFFF;"/></g><g><path d="M32.06682,24.20492l-4.6438,1.56914C27.42302,25.77406,30.20122,29.43797,32.06682,24.20492z" style="fill:#FFFFFF;"/></g><g><path d="     M16.1178,24.20492l4.6438,1.56914C20.76159,25.77406,17.9834,29.43797,16.1178,24.20492z" style="fill:none;stroke:#303030;stroke-width:0.75;stroke-linecap:round;stroke-linejoin:round;stroke-miterlimit:10;"/></g><g><path d="     M32.06682,24.20492l-4.6438,1.56914C27.42302,25.77406,30.20122,29.43797,32.06682,24.20492z" style="fill:none;stroke:#303030;stroke-width:0.75;stroke-linecap:round;stroke-linejoin:round;stroke-miterlimit:10;"/></g><g><g><polyline points="      20.54905,35.07217 21.11057,34.57275 26.8559,34.70366 27.45099,35.22947     " style="fill:none;stroke:#303030;stroke-width:0.75;stroke-linecap:round;stroke-linejoin:round;stroke-miterlimit:10;"/><line style="fill:none;stroke:#303030;stroke-width:0.75;stroke-linecap:round;stroke-linejoin:round;stroke-miterlimit:10;" x1="22.71903" x2="25.20536" y1="36.27121" y2="36.38317"/></g><line style="fill:none;stroke:#303030;stroke-width:0.75;stroke-linecap:round;stroke-linejoin:round;stroke-miterlimit:10;" x1="23.96224" x2="23.96224" y1="40.38437" y2="38.64851"/></g><path d="    M11.84552,7.10936c0,0,1.77551,8.40639,8.37015,15.10973c0,0,3.29732,1.92438,2.10163,4.42256l0.97829,4.3824l-6.88451-2.19162    l1.15947,8.89496l-2.64512-3.15239l-0.39857-6.5584C14.52687,28.0166,8.82086,24.99688,11.84552,7.10936z" style="fill:none;stroke:#303030;stroke-width:0.75;stroke-linecap:round;stroke-linejoin:round;stroke-miterlimit:10;"/><polyline points="    17.57055,37.72739 20.33055,40.5708 23.99997,40.89064   " style="fill:none;stroke:#303030;stroke-width:0.75;stroke-linecap:round;stroke-linejoin:round;stroke-miterlimit:10;"/><path d="    M32.4752,15.95079c-2.58183-5.06808-8.47523-4.81401-8.47523-4.81401s-5.85786-0.18908-8.46273,4.7901" style="fill:none;stroke:#303030;stroke-width:0.75;stroke-linecap:round;stroke-linejoin:round;stroke-miterlimit:10;"/><path d="    M36.15444,7.10936c0,0-1.77545,8.40639-8.37009,15.10973c0,0-3.29732,1.92438-2.10162,4.42256l-0.9783,4.3824l6.88451-2.19162    l-1.15947,8.89496l2.64513-3.15239l0.39856-6.5584C33.47316,28.0166,39.17918,24.99688,36.15444,7.10936z" style="fill:none;stroke:#303030;stroke-width:0.75;stroke-linecap:round;stroke-linejoin:round;stroke-miterlimit:10;"/><polyline points="    30.42947,37.72739 27.66948,40.5708 23.99997,40.89064   " style="fill:none;stroke:#303030;stroke-width:0.75;stroke-linecap:round;stroke-linejoin:round;stroke-miterlimit:10;"/><line style="fill:none;stroke:#303030;stroke-width:0.75;stroke-linecap:round;stroke-linejoin:round;stroke-miterlimit:10;" x1="23.29559" x2="24.70444" y1="31.02406" y2="31.02406"/><path d="    M16.39814,17.45316c0,0,2.38439-4.2449,7.21011-3.87847" style="fill:none;stroke:#303030;stroke-width:0.75;stroke-linecap:round;stroke-linejoin:round;stroke-miterlimit:10;"/><line style="fill:none;stroke:#303030;stroke-width:0.75;stroke-linecap:round;stroke-linejoin:round;stroke-miterlimit:10;" x1="25.08889" x2="26.37" y1="13.67253" y2="13.86822"/></g></g></svg>