<?xml version="1.0" encoding="utf-8"?>
<!-- Generator: Adobe Illustrator 16.0.0, SVG Export Plug-In . SVG Version: 6.00 Build 0)  -->
<!DOCTYPE svg PUBLIC "-//W3C//DTD SVG 1.1//EN" "http://www.w3.org/Graphics/SVG/1.1/DTD/svg11.dtd">
<svg version="1.1" id="Layer_1" xmlns="http://www.w3.org/2000/svg" xmlns:xlink="http://www.w3.org/1999/xlink" x="0px" y="0px"
	 width="612px" height="613px" viewBox="0 0 612 613" enable-background="new 0 0 612 613" xml:space="preserve">
<g>
	<path fill="#00A79D" d="M170.81,543.75c1.435-11.476,2.391-18.408,2.391-18.408s0,7.411,0,19.962
		c31.676,19.006,67.655,31.438,106.263,35.382l16.854-117.857l-13.268-19.483l23.189-23.548l22.112,23.309l-12.79,19.724
		l16.854,117.857c38.489-3.944,74.469-16.376,106.024-35.262c0-12.551,0-20.082,0-20.082s0.956,7.053,2.391,18.527
		c29.883-18.407,55.821-42.792,76.022-71.479c-3.945-9.204-8.248-16.495-13.029-20.798c-12.551-11.117-43.15-35.143-148.937-81.521
		l-96.821-0.598c-105.785,46.378-137.581,71.121-150.012,82.237c-4.901,4.303-9.084,11.475-13.029,20.799
		C115.228,501.077,140.927,525.342,170.81,543.75z"/>
	<g>
		<path fill="#DCC5A1" d="M254.96,280.781v116.185c13.985,16.495,32.393,25.102,50.921,25.221V233.688
			C280.42,233.686,254.96,249.345,254.96,280.781z"/>
		<path fill="#EDD9B4" d="M305.881,233.686v188.5c18.407,0.12,36.936-8.128,50.92-25.221V280.781
			C356.801,249.345,331.341,233.686,305.881,233.686z"/>
	</g>
	<path fill="#BC9F82" d="M356.801,276.119v77.815c-19.244,13.985-37.771,21.874-50.92,21.874c-13.029,0-31.676-7.889-50.921-21.874
		v-77.815C254.96,213.366,356.801,213.366,356.801,276.119"/>
	<path fill="#4B1F0D" d="M381.065,131.367c22.353,0,40.521-18.169,40.521-40.521c0-22.353-18.169-40.521-40.521-40.521
		c-22.353,0-40.521,18.288-40.521,40.521C340.545,113.198,358.713,131.367,381.065,131.367"/>
	<path fill="#4B1F0D" d="M341.262,113.557c22.354,0,40.521-18.169,40.521-40.521c0-22.353-18.169-40.521-40.521-40.521
		c-22.352,0-40.521,18.169-40.521,40.521C300.74,95.388,318.909,113.557,341.262,113.557"/>
	<path fill="#4B1F0D" d="M280.42,107.341c22.353,0,40.521-18.168,40.521-40.521s-18.169-40.521-40.521-40.521
		c-22.353,0-40.521,18.168-40.521,40.521C239.78,89.053,258.068,107.341,280.42,107.341"/>
	<path fill="#4B1F0D" d="M225.794,127.184c22.353,0,40.521-18.288,40.521-40.521c0-22.354-18.168-40.521-40.521-40.521
		c-22.352,0-40.521,18.168-40.521,40.521C185.273,109.015,203.562,127.184,225.794,127.184"/>
	<path fill="#4B1F0D" d="M194.358,172.366c22.352,0,40.521-18.168,40.521-40.521c0-22.352-18.169-40.521-40.521-40.521
		c-22.353,0-40.521,18.169-40.521,40.521C153.837,154.078,172.005,172.366,194.358,172.366"/>
	<path fill="#4B1F0D" d="M415.729,173.323c22.354,0,40.521-18.169,40.521-40.521c0-22.353-18.288-40.521-40.521-40.521
		c-22.353,0-40.521,18.169-40.521,40.521C375.209,155.154,393.377,173.323,415.729,173.323"/>
	<path fill="#4B1F0D" d="M417.762,229.98c22.354,0,40.521-18.168,40.521-40.521c0-22.353-18.169-40.521-40.521-40.521
		c-22.352,0-40.521,18.168-40.521,40.521C377.24,211.812,395.529,229.98,417.762,229.98"/>
	<path fill="#4B1F0D" d="M388.477,298.232c22.354,0,40.521-18.168,40.521-40.521s-18.169-40.521-40.521-40.521
		c-22.352,0-40.521,18.168-40.521,40.521C347.836,279.943,366.124,298.232,388.477,298.232"/>
	<path fill="#4B1F0D" d="M191.25,223.765c22.353,0,40.521-18.168,40.521-40.521c0-22.352-18.168-40.521-40.521-40.521
		s-40.521,18.169-40.521,40.521C150.729,205.477,168.897,223.765,191.25,223.765"/>
	<path fill="#4B1F0D" d="M220.655,303.492c22.352,0,40.521-18.17,40.521-40.521c0-22.354-18.169-40.521-40.521-40.521
		c-22.353,0-40.521,18.168-40.521,40.521C180.014,285.204,198.302,303.492,220.655,303.492"/>
	<path fill="#4B1F0D" d="M412.024,268.828c22.353,0,40.521-18.17,40.521-40.521c0-22.353-18.168-40.521-40.521-40.521
		c-22.354,0-40.521,18.168-40.521,40.521C371.384,250.54,389.672,268.828,412.024,268.828"/>
	<path fill="#4B1F0D" d="M197.107,265.96c22.353,0,40.521-18.169,40.521-40.521c0-22.354-18.168-40.521-40.521-40.521
		c-22.352,0-40.521,18.169-40.521,40.521C156.586,247.671,174.755,265.96,197.107,265.96"/>
	<g>
		<path fill="#DCC5A1" d="M188.262,208.585c-4.064-2.988-8.487-4.184-12.312-2.988c-8.965,2.988-12.073,17.931-6.933,33.349
			c5.14,15.539,16.496,25.699,25.46,22.711c0.598-0.238,1.195-0.478,1.793-0.836c4.303,17.69,9.084,30.36,11.594,33.946
			c12.312,18.169,70.643,66.102,98.254,66.102V72.199C203.92,72.199,184.676,145.831,188.262,208.585z"/>
		<path fill="#EDD9B4" d="M437.843,205.716c-4.542-1.554-9.682,0.358-14.463,4.662C427.443,147.146,408.797,72.2,305.881,72.2l0,0
			v288.907l0,0c27.611,0,85.942-48.052,98.254-66.101c2.511-3.706,7.531-16.854,11.834-35.143c1.076,0.838,2.151,1.555,3.467,1.914
			c8.966,2.987,20.32-7.172,25.461-22.711C449.916,223.646,446.808,208.704,437.843,205.716z"/>
	</g>
	<path fill="#4B1F0D" d="M291.896,141.886c22.353,0,40.521-18.168,40.521-40.521c0-22.352-18.168-40.521-40.521-40.521
		s-40.521,18.169-40.521,40.521C251.374,123.717,269.543,141.886,291.896,141.886"/>
	<path fill="#4B1F0D" d="M347.478,139.854c22.354,0,40.521-18.169,40.521-40.521c0-22.353-18.168-40.521-40.521-40.521
		c-22.353,0-40.521,18.169-40.521,40.521C306.956,121.566,325.244,139.854,347.478,139.854"/>
	<path fill="#4B1F0D" d="M251.016,154.556c22.353,0,40.521-18.168,40.521-40.521s-18.168-40.521-40.521-40.521
		s-40.521,18.168-40.521,40.521C210.495,136.268,228.663,154.556,251.016,154.556"/>
	<path fill="#4B1F0D" d="M220.894,168.661c19.006,0,34.545-15.539,34.545-34.545c0-19.005-15.539-34.544-34.545-34.544
		c-19.005,0-34.544,15.539-34.544,34.544C186.349,153.122,201.888,168.661,220.894,168.661"/>
	<path fill="#4B1F0D" d="M380.109,164.956c22.353,0,40.521-18.169,40.521-40.521s-18.169-40.521-40.521-40.521
		c-22.353,0-40.521,18.169-40.521,40.521C339.469,146.787,357.757,164.956,380.109,164.956"/>
	<path fill="#4B1F0D" d="M412.98,192.448c15.777,0,28.567-12.91,28.567-28.568c0-15.778-12.91-28.568-28.567-28.568
		c-15.778,0-28.568,12.91-28.568,28.568C384.412,179.658,397.202,192.448,412.98,192.448"/>
	<path fill="#4B1F0D" d="M202.486,197.946c15.3,0,27.731-12.432,27.731-27.731s-12.431-27.731-27.731-27.731
		c-15.3,0-27.731,12.432-27.731,27.731S187.186,197.946,202.486,197.946"/>
	<path fill="#4B1F0D" d="M196.749,216.832c9.801,0,17.69-8.009,17.69-17.69c0-9.802-8.008-17.691-17.69-17.691
		c-9.802,0-17.691,8.009-17.691,17.691C178.938,208.943,186.947,216.832,196.749,216.832"/>
	<path fill="#4B1F0D" d="M418.001,218.984c9.802,0,17.69-8.009,17.69-17.69c0-9.802-8.01-17.69-17.69-17.69
		c-9.802,0-17.69,8.008-17.69,17.69C400.311,210.976,408.318,218.984,418.001,218.984"/>
	<path fill="#4B1F0D" d="M198.78,232.611c6.933,0,12.432-5.619,12.432-12.433c0-6.813-5.618-12.431-12.432-12.431
		c-6.813,0-12.431,5.618-12.431,12.431C186.349,226.992,191.967,232.611,198.78,232.611"/>
	<path fill="#4B1F0D" d="M415.969,231.533c6.934,0,12.433-5.617,12.433-12.43c0-6.813-5.618-12.432-12.433-12.432
		c-6.813,0-12.432,5.618-12.432,12.432S409.036,231.533,415.969,231.533"/>
	<path fill="#010101" d="M417.881,203.564c-3.227-2.51-33.349-12.909-44.824-13.268c0,0-25.817-3.107-38.607,2.869
		c-12.79,5.857-15.419,5.02-27.852,5.618c0,0-0.479,0-1.194,0c-0.837,0-1.195,0-1.195,0c-12.431-0.598-15.061,0.239-27.851-5.618
		c-12.79-5.857-38.609-2.869-38.609-2.869c-11.475,0.239-41.597,10.639-44.824,13.268c-3.227,2.51,0,6.574,0,6.574
		c13.029-1.076,14.703,20.918,14.703,20.918c1.554,5.978,3.705,11.354,7.172,16.376c4.303,6.215,10.399,11.236,17.571,13.866
		c6.813,2.51,13.148,2.629,20.44,2.629c9.443-0.12,18.169-2.51,25.341-8.606c13.268-11.116,17.81-40.043,17.81-40.043
		c-1.793-0.836-1.913-4.184-1.913-4.184c-0.12-4.901,7.65-5.379,10.16-5.379c0.358,0,0.717,0,1.195,0c0.478,0,0.837,0,1.194,0
		c2.392,0,10.279,0.478,10.16,5.379c0,0-0.119,3.347-1.912,4.184c0,0,4.661,28.927,17.811,40.043
		c7.172,5.978,16.018,8.486,25.341,8.606c7.291,0.12,13.627-0.12,20.438-2.629c7.173-2.63,13.27-7.649,17.571-13.866
		c3.467-5.021,5.737-10.519,7.172-16.376c0,0,1.674-22.113,14.822-20.918C417.881,210.138,421.108,206.074,417.881,203.564
		 M287.473,226.035c-2.391,16.854-6.813,25.699-17.571,30.72c-10.877,5.021-20.32,4.185-20.32,4.185s-9.204,0.836-20.081-4.185
		s-14.941-13.866-17.332-30.72c-0.358-2.868-0.717-5.737-0.717-8.605c0.12-7.889,3.945-16.615,11.595-20.081
		c4.781-2.152,11.236-2.869,16.375-3.228c3.347-0.239,6.813-0.478,10.16-0.478c1.076,0,2.152,0.12,3.228,0.239
		c8.726,0.717,19.245,0.717,26.775,5.738c1.315,0.956,2.63,1.913,3.825,3.227C289.026,209.063,288.668,218.146,287.473,226.035
		 M398.518,226.035c-2.391,16.854-6.454,25.699-17.332,30.72s-20.082,4.185-20.082,4.185s-9.441,0.836-20.319-4.185
		c-10.877-5.021-15.181-13.866-17.57-30.72c-1.076-7.889-1.555-16.973,4.185-23.188c1.194-1.314,2.391-2.271,3.823-3.227
		c7.531-5.021,18.05-5.021,26.775-5.738c1.076-0.119,2.151-0.239,3.106-0.239c3.349,0,6.813,0.239,10.16,0.479
		c5.142,0.358,11.715,1.076,16.376,3.228c7.53,3.466,11.477,12.192,11.596,20.081C399.234,220.179,398.995,223.167,398.518,226.035"
		/>
	<g opacity="0.3">
		<g>
			<g>
				<g>
					<defs>
						<rect id="SVGID_1_" x="211.451" y="193.524" width="76.739" height="67.296"/>
					</defs>
					<clipPath id="SVGID_2_">
						<use xlink:href="#SVGID_1_"  overflow="visible"/>
					</clipPath>
					<path clip-path="url(#SVGID_2_)" fill="#5C3915" d="M287.473,226.035c-2.391,16.854-6.813,25.699-17.571,30.72
						c-10.877,5.021-20.32,4.185-20.32,4.185s-9.204,0.836-20.081-4.185s-14.941-13.866-17.332-30.72
						c-0.358-2.868-0.717-5.737-0.717-8.605c0.12-7.889,3.945-16.615,11.595-20.081c4.781-2.152,11.236-2.869,16.375-3.228
						c3.347-0.239,6.813-0.478,10.16-0.478c1.076,0,2.152,0.12,3.228,0.239c8.726,0.717,19.245,0.717,26.775,5.738
						c1.315,0.956,2.63,1.913,3.825,3.227C289.026,209.063,288.668,218.146,287.473,226.035"/>
				</g>
			</g>
		</g>
	</g>
	<g opacity="0.3">
		<g>
			<g>
				<g>
					<defs>
						<rect id="SVGID_3_" x="322.495" y="193.524" width="76.739" height="67.296"/>
					</defs>
					<clipPath id="SVGID_4_">
						<use xlink:href="#SVGID_3_"  overflow="visible"/>
					</clipPath>
					<path clip-path="url(#SVGID_4_)" fill="#5C3915" d="M398.518,226.035c-2.391,16.854-6.454,25.699-17.332,30.72
						s-20.082,4.185-20.082,4.185s-9.441,0.836-20.319-4.185c-10.877-5.021-15.181-13.866-17.57-30.72
						c-1.076-7.889-1.555-16.973,4.185-23.188c1.194-1.314,2.391-2.271,3.823-3.227c7.531-5.021,18.05-5.021,26.775-5.738
						c1.076-0.119,2.151-0.239,3.106-0.239c3.349,0,6.813,0.239,10.16,0.479c5.142,0.358,11.715,1.076,16.376,3.228
						c7.53,3.466,11.477,12.192,11.596,20.081C399.234,220.179,398.995,223.167,398.518,226.035"/>
				</g>
			</g>
		</g>
	</g>
	<g>
		<polygon fill="#EDEDED" points="254.96,355.967 250.179,372.939 262.729,463.903 305.881,419.319 		"/>
		<polygon fill="#EDEDED" points="356.801,356.325 360.865,372.701 349.15,464.86 305.881,419.319 		"/>
	</g>
	<g opacity="0.1">
		<g>
			<g>
				<g>
					<defs>
						<rect id="SVGID_5_" x="296.198" y="462.827" width="19.482" height="0.598"/>
					</defs>
					<clipPath id="SVGID_6_">
						<use xlink:href="#SVGID_5_"  overflow="visible"/>
					</clipPath>
					<polygon clip-path="url(#SVGID_6_)" fill="#010101" points="296.318,462.827 315.682,462.827 315.682,463.425 296.318,463.425 
											"/>
				</g>
			</g>
		</g>
	</g>
	<g>
		<path fill="#342214" d="M255.08,209.9c7.052,0,12.79,6.456,12.79,14.463c0,8.009-5.738,14.463-12.79,14.463
			c-7.052,0-12.79-6.455-12.79-14.463C242.409,216.354,248.147,209.9,255.08,209.9"/>
		<path fill="#342214" d="M358.594,209.9c7.054,0,12.79,6.456,12.79,14.463c0,8.009-5.736,14.463-12.79,14.463
			c-7.053,0-12.79-6.455-12.79-14.463C345.924,216.354,351.541,209.9,358.594,209.9"/>
		<path fill="#FFFFFF" d="M280.54,301.341c4.542,10.04,14.583,16.974,26.297,16.974s21.755-6.934,26.297-16.974H280.54z"/>
	</g>
	<path fill="#BE1E2D" d="M306,582L306,582L306,582z"/>
	<path fill="#200D45" d="M170.81,543.75c0.837,0.479,1.673,0.956,2.391,1.435c0-12.432,0-19.962,0-19.962
		S172.245,532.275,170.81,543.75z"/>
	<path fill="#200D45" d="M438.561,545.424c0.837-0.479,1.674-0.957,2.511-1.555c-1.436-11.476-2.392-18.527-2.392-18.527
		S438.561,532.873,438.561,545.424z"/>
	<path d="M315.682,462.827l12.91-19.604L306,419.319l-23.069,23.905l13.507,19.604l-16.854,117.857
		c8.726,0.836,17.571,1.314,26.536,1.314l0,0c8.965,0,17.811-0.479,26.536-1.314L315.682,462.827z"/>
</g>
</svg>
