<?xml version="1.0" ?><svg id="Layer_1" style="enable-background:new 0 0 48 48;" version="1.1" viewBox="0 0 48 48" xml:space="preserve" xmlns="http://www.w3.org/2000/svg" xmlns:xlink="http://www.w3.org/1999/xlink"><style type="text/css">
	.st0{fill:#FFDD4D;}
	.st1{fill:#F43735;}
	.st2{fill:none;stroke:#303030;stroke-width:0.75;stroke-linecap:round;stroke-linejoin:round;stroke-miterlimit:10;}
	.st3{fill:#F9D9C0;}
	.st4{fill:#303030;}
	.st5{fill:#FFFFFF;}
</style><g><path class="st0" d="M11.95689,26.5965c-1.04417-0.37637-1.83884-1.31918-1.96974-2.49676L9.8989,23.30517   c-0.13747-1.2372,0.49684-2.38238,1.51848-2.95492"/><path class="st0" d="M36.04311,26.5965c1.04417-0.37637,1.83884-1.31918,1.96965-2.49676l0.08834-0.79457   c0.12561-1.1309-0.39352-2.18486-1.26396-2.79493"/><path class="st1" d="M10.22391,21.37089l-1.51698-3.19913l1.60576,0.25561c0,0-3.12533-5.92906-3.37752-7.16976l0.71377,5.45905   L5.9576,16.98475l3.8242,5.70568"/><path class="st1" d="M37.7761,21.37089l1.51688-3.19913l-1.60567,0.25561c0,0,3.12533-5.92906,3.37753-7.16976l-0.71377,5.45905   l1.69133,0.26809l-3.8242,5.70568"/><g><path class="st0" d="M23.8651,7.11311c0,0-11.55521-0.43907-12.37429,12.07476c-0.01604,0.24504-0.00634,0.49688,0.02296,0.74069    l1.8764,15.61412l4.6264,4.92593h12.17711l4.40814-4.88117l2.20009-16.48945c0.05241-0.39277,0.05331-0.78571-0.00394-1.1778    C36.44323,15.49088,34.45441,7.15135,23.8651,7.11311z"/><polygon class="st0" points="33.30577,34.57068 29.27283,39.08916 26.01746,36.33055 21.57367,36.33055 19.17832,38.99288     14.95863,34.77319 14.09317,26.31513 18.91602,27.99774 23.97823,24.44172 28.85738,28.25218 33.92488,26.73118   "/><polyline class="st0" points="22.31411,30.57827 23.97078,31.02332 25.64227,30.69158   "/><polyline class="st0" points="20.16068,35.01416 21.17082,34.1272 26.63669,34.1272 27.60113,35.01416   "/></g><path class="st2" d="M23.8651,7.11311c0,0-11.55521-0.43907-12.37429,12.07476c-0.01604,0.24504-0.00634,0.49688,0.02296,0.74069   l1.8764,15.61412l4.6264,4.92593h12.17711l4.40814-4.88117l2.20009-16.48945c0.05241-0.39277,0.05331-0.78571-0.00394-1.1778   C36.44323,15.49088,34.45441,7.15135,23.8651,7.11311z"/><polygon class="st3" points="33.30577,34.57068 29.27283,39.08916 26.01746,36.33055 21.57367,36.33055 19.17832,38.99288    14.95863,34.77319 14.09317,26.31513 18.91602,27.99774 23.97823,24.44172 28.85738,28.25218 33.92488,26.73118  "/><polygon class="st2" points="33.30577,34.57068 29.27283,39.08916 26.01746,36.33055 21.57367,36.33055 19.17832,38.99288    14.95863,34.77319 14.09317,26.31513 18.91602,27.99774 23.97823,24.44172 28.85738,28.25218 33.92488,26.73118  "/><polyline class="st2" points="22.31411,30.57827 23.97078,31.02332 25.64227,30.69158  "/><polyline class="st2" points="20.16068,35.01416 21.17082,34.1272 26.63669,34.1272 27.60113,35.01416  "/><path class="st4" d="M18.43703,40.88878c0,0,1.00027-0.51796,1.48258-0.60729L18.43703,40.88878z"/><path class="st1" d="M31.54482,20.73511l-5.754,2.00686c0,0,5.12005,5.77175,8.23635-0.262   C34.30645,21.93923,31.54482,20.73511,31.54482,20.73511z"/><path class="st5" d="M30.93415,22.38766l-2.52438,0.71822c0,0,2.20638,1.76689,3.76957-0.16077   C32.31943,22.77236,30.93415,22.38766,30.93415,22.38766z"/><path class="st1" d="M13.97284,22.47997c3.11629,6.03374,8.23635,0.262,8.23635,0.262l-5.754-2.00686   C16.45518,20.73511,13.69355,21.93923,13.97284,22.47997z"/><g><g><path class="st2" d="M31.54482,20.73511l-5.754,2.00686c0,0,5.12005,5.77175,8.23635-0.262     C34.30645,21.93923,31.54482,20.73511,31.54482,20.73511z"/></g><g><path class="st2" d="M13.97284,22.47997c3.11629,6.03374,8.23635,0.262,8.23635,0.262l-5.754-2.00686     C16.45518,20.73511,13.69355,21.93923,13.97284,22.47997z"/></g></g><path class="st2" d="M10.22391,21.37089l-1.51698-3.19913l1.60576,0.25561c0,0-3.12533-5.92906-3.37752-7.16976l0.71377,5.45905   L5.9576,16.98475l3.8242,5.70568"/><path class="st2" d="M11.95689,26.5965c-1.04417-0.37637-1.83884-1.31918-1.96974-2.49676L9.8989,23.30517   c-0.13747-1.2372,0.49684-2.38238,1.51848-2.95492"/><path class="st2" d="M37.7761,21.37089l1.51688-3.19913l-1.60567,0.25561c0,0,3.12533-5.92906,3.37753-7.16976l-0.71377,5.45905   l1.69133,0.26809l-3.8242,5.70568"/><path class="st2" d="M36.04311,26.5965c1.04417-0.37637,1.83884-1.31918,1.96965-2.49676l0.08834-0.79457   c0.12561-1.1309-0.39352-2.18486-1.26396-2.79493"/><line class="st2" x1="23.47976" x2="23.31429" y1="24.79188" y2="28.6255"/><path class="st2" d="M31.51093,9.17026c0,0-2.62185,2.88131-3.33679,7.46905l-0.87077-1.4249c0,0-1.59517,2.61496-1.51254,7.52756"/><path class="st2" d="M16.54018,9.29159c0,0,2.56764,2.75998,3.28259,7.34772l0.87077-1.4249c0,0,1.59517,2.61496,1.51254,7.52756"/><path class="st5" d="M15.95767,22.9584c1.73583,1.92766,4.18589,0.16077,4.18589,0.16077l-2.80318-0.71822   C17.34038,22.40095,15.80211,22.78565,15.95767,22.9584z"/></g></svg>