<?xml version="1.0" ?><svg style="enable-background:new 0 0 48 48;" version="1.1" viewBox="0 0 48 48" xml:space="preserve" xmlns="http://www.w3.org/2000/svg" xmlns:xlink="http://www.w3.org/1999/xlink"><g id="Icons"><g><path d="M13.7837,18.68176c0,0-4.93905,5.10689,0.48462,10.99873l0.37913,3.9234l2.58823,3.45097h13.54688    l2.56941-3.45097l0.46475-3.9234c0,0,4.57645-2.9632,0.87804-10.99873H13.7837z" style="fill:#1D97FF;"/><path d="M33.71046,20.12243c3.93542-5.95624,0.23672-9.04077,0.23672-9.04077    s-3.55047-6.09811-10.13663-3.40354c-6.58616,2.69448-8.60709,2.94267-9.7416,2.09176c0,0-4.31759,4.88471,0.81919,10.20282    C21.02602,21.84503,27.30678,21.80609,33.71046,20.12243z" style="fill:#464747;"/><path d="M15.83007,20.12244l0.3703-1.02745c0,0,4.45053,1.19511,6.46453,0.03555    s2.13047-2.43285,3.03777-3.165c0.9073-0.73215,1.58909-0.76871,2.54315-0.48348c0.95406,0.28522,2.94193-0.07827,3.25999-0.50992    c0,0-0.27648,3.19463,1.31835,5.0006c0,0-4.92883,1.16797-10.22399,0.84941S15.83007,20.12244,15.83007,20.12244z" style="fill:#F9D9C0;"/><path d="M16.23163,19.02334l-1.96332,4.46507l1.74278,4.27212l1.22458,9.29432l3.45107,3.95429h6.90204    l3.19377-4.24654l0.82748-7.96041l2.20668-0.96477c0,0,2.36356-5.3563-0.66504-7.86471c0,0-1.7467-0.87243-1.74574-5.09749    c0,0-1.16696,0.82401-3.27409,0.59554c-2.10713-0.22847-2.0951,0.30024-3.53308,2.13444    C23.16079,19.43943,20.46187,20.33548,16.23163,19.02334z" style="fill:#F9D9C0;"/><path d="M14.72891,19.97273c0,0-3.36318,2.57536-0.46059,7.78781c0,0,4.00245,2.2468,6.85961,1.05412    s2.60215-1.5896,4.72797-0.40844s4.6778,1.29769,7.96082-0.56878c0,0,2.54281-4.9373-0.66504-7.86471    C33.15167,19.97273,23.52092,22.20764,14.72891,19.97273z" style="fill:#FFD24A;"/><path d="M15.43547,23.34344c0,0,8.26218,1.73474,17.20059-0.11762c0,0,0.5587,1.0585,0.44108,1.76414    c0,0-8.29685,1.97571-18.03966-0.07999C15.03748,24.90997,14.94327,23.82604,15.43547,23.34344z" style="fill:#F43735;"/><g><polyline points="     20.23955,35.96927 20.86151,35.41611 27.225,35.56102 27.88412,36.14339    " style="fill:none;stroke:#303030;stroke-width:0.75;stroke-linecap:round;stroke-linejoin:round;stroke-miterlimit:10;"/><line style="fill:none;stroke:#303030;stroke-width:0.75;stroke-linecap:round;stroke-linejoin:round;stroke-miterlimit:10;" x1="22.64303" x2="25.39687" y1="37.29723" y2="37.42132"/></g><polyline points="    22.38448,30.99106 24.07224,31.75625 25.85589,31.06014   " style="fill:none;stroke:#303030;stroke-width:0.75;stroke-linecap:round;stroke-linejoin:round;stroke-miterlimit:10;"/><path d="    M20.67444,29.01665l2.99759-1.33517c0.18614-0.08285,0.39882-0.0823,0.58441,0.00167l2.9497,1.33351    c3.18216,0.96298,6.74105-1.25611,6.74105-1.25611c2.30287-5.61051-0.79552-7.78781-0.79552-7.78781    c-9.42073,2.09352-18.42276,0-18.42276,0s-3.26585,2.97281-0.46059,7.78781    C14.26831,27.76054,17.38963,29.84102,20.67444,29.01665z" style="fill:none;stroke:#303030;stroke-width:0.75;stroke-linecap:round;stroke-linejoin:round;stroke-miterlimit:10;"/><polyline points="    16.01109,28.61348 17.23567,37.05486 20.68674,41.00915 27.58878,41.00915 30.75217,37.05486 31.61003,28.80221   " style="fill:none;stroke:#303030;stroke-width:0.75;stroke-linecap:round;stroke-linejoin:round;stroke-miterlimit:10;"/><polyline points="    14.26831,27.76054 14.64744,33.60389 17.23567,37.05486   " style="fill:none;stroke:#303030;stroke-width:0.75;stroke-linecap:round;stroke-linejoin:round;stroke-miterlimit:10;"/><polyline points="    33.94719,27.76054 33.35196,33.60389 30.76373,37.05486   " style="fill:none;stroke:#303030;stroke-width:0.75;stroke-linecap:round;stroke-linejoin:round;stroke-miterlimit:10;"/><path d="    M15.43547,23.34344c0,0,8.26218,1.73474,17.20059-0.11762c0,0,0.5587,1.0585,0.44108,1.76414    c0,0-8.29685,1.97571-18.03966-0.07999C15.03748,24.90997,14.94327,23.82604,15.43547,23.34344z" style="fill:none;stroke:#303030;stroke-width:0.75;stroke-linecap:round;stroke-linejoin:round;stroke-miterlimit:10;"/><path d="    M33.71046,20.12244c3.93542-5.95626,0.23672-9.04077,0.23672-9.04077s-3.55047-6.09811-10.13663-3.40354    c-6.58616,2.69448-8.60709,2.94267-9.7416,2.09176c0,0-4.3176,4.88472,0.81919,10.20284" style="fill:none;stroke:#303030;stroke-width:0.75;stroke-linecap:round;stroke-linejoin:round;stroke-miterlimit:10;"/><path d="    M15.75199,20.12244l0.47964-1.0991c0,0,6.02718,1.98551,8.36713-1.41812c0,0,0.92183-2.69448,3.26178-2.19819    c0,0,1.98542,0.60272,3.54538-0.53179c0,0-0.21268,3.67142,1.41823,5.09749" style="fill:none;stroke:#303030;stroke-width:0.75;stroke-linecap:round;stroke-linejoin:round;stroke-miterlimit:10;"/><path d="    M13.7837,18.68176c0,0-4.80539,5.38951,0.48462,10.99873" style="fill:none;stroke:#303030;stroke-width:0.75;stroke-linecap:round;stroke-linejoin:round;stroke-miterlimit:10;"/><path d="    M34.40685,18.95491c0,0,4.4379,5.66091-0.59014,11.07983" style="fill:none;stroke:#303030;stroke-width:0.75;stroke-linecap:round;stroke-linejoin:round;stroke-miterlimit:10;"/><line style="fill:none;stroke:#303030;stroke-width:0.75;stroke-linecap:round;stroke-linejoin:round;stroke-miterlimit:10;" x1="31.40593" x2="33.94719" y1="14.87524" y2="11.08167"/><path d="    M14.06895,9.76989c0,0,1.18944,3.21203,6.12908,1.1322s5.79046-1.9144,6.59411-1.9144" style="fill:none;stroke:#303030;stroke-width:0.75;stroke-linecap:round;stroke-linejoin:round;stroke-miterlimit:10;"/><line style="fill:none;stroke:#303030;stroke-width:0.75;stroke-linecap:round;stroke-linejoin:round;stroke-miterlimit:10;" x1="28.58838" x2="29.62829" y1="9.43672" y2="9.9331"/></g></g></svg>