<?xml version="1.0" ?><svg style="enable-background:new 0 0 48 48;" version="1.1" viewBox="0 0 48 48" xml:space="preserve" xmlns="http://www.w3.org/2000/svg" xmlns:xlink="http://www.w3.org/1999/xlink"><g id="Icons"><g><path d="M7.29637,36.5216l0.55425-1.75737c0,0-1.59045-0.55601-2.16879,0.87868    s0.00001,2.10946,0.00001,2.10946c12.11996,5.00702,24.3309,5.06964,36.63635,0c0,0,0.57833-0.67476-0.00001-2.10946    c-0.57835-1.43469-2.16879-0.87868-2.16879-0.87868l0.55424,1.75737" style="fill:#74C7E8;"/><path d="M14.63951,31.53171c0,0-3.75634-4.05752-3.99959-7.54277s1.60322-5.8439,3.17631-6.79993    c0,0-0.24946-1.94722,0.82823-4.61094s3.45674-5.69345,8.41818-5.81546s6.62881,2.06892,8.1335,3.39317    s2.76539,5.60775,2.62306,6.66857c0,0,3.07111,2.83734,3.34538,5.26657c0.35572,3.15055-0.86544,4.74779-0.86544,4.74779    l-2.72039,4.35651c0,0-4.49532,0.60439-5.42592-1.79299s-0.22484-2.08199,0.62096-3.16508    c0.8458-1.08308,2.07235-4.0959,2.13282-5.68759c0.06047-1.59169,0.47596-1.54016-0.67176-2.16422    c-1.14772-0.62406-6.06429-3.7923-6.06429-3.7923l-0.98331-0.07299c0,0-0.79537,1.9156-5.55734,3.80967    c0,0-1.00666-0.0272-0.71777,1.70452c0.28889,1.73171,0.67601,5.06938,3.25911,7.35086    C20.17124,27.38511,21.86129,30.95691,14.63951,31.53171z" style="fill:#464747;"/><path d="M30.95887,18.66216c0.00687,0.12663-0.25239,0.82325-0.03886,1.7217    c0.11389,0.47924,0.84589,1.31547,0.68877,2.04752c-0.12312,0.57362-1.26734,1.16025-1.49305,1.71887    c-0.29243,0.72374-0.68353,1.4005-1.20592,1.94114c-0.51473,0.58275-1.07798,1.12661-1.68986,1.61221    c-0.90307,0.71865-2.02968,1.60235-3.24357,1.61209c-0.54386,0-1.0586-0.20404-1.5247-0.47585    c-0.39557-0.22462-0.76765-0.50791-1.14195-0.74652c-0.77588-0.49462-1.47575-1.08974-2.09301-1.77213    c-0.07085-0.07832-0.1417-0.14996-0.21266-0.22981c-0.59753-0.68582-1.02414-1.53307-1.32634-2.40234    c-0.06688-0.19237-0.40666-0.42149-0.73278-0.64914c-0.40732-0.28433-0.64374-0.75471-0.63607-1.25139l0.01418-0.9191    c0.91593-0.31985,0.63195-1.80908,0.63195-1.80908c2.14643-1.98293,5.15726-3.27398,7.01474-4.48512    C24.59652,14.16654,26.54018,16.9433,30.95887,18.66216z" style="fill:#F9CAAA;"/><path d="M32.03493,16.0491c0,0-0.92521-4.88988-6.046-6.00676c0,0,0.74447,1.61016-0.19198,2.75221    C25.79695,12.79454,30.07311,15.39672,32.03493,16.0491z" style="fill:#74C7E8;"/><path d="M15.32989,16.26464c0,0,0.92521-4.88988,6.046-6.00676c0,0-0.74447,1.61016,0.19198,2.75221    C21.56787,13.01008,17.29172,15.61226,15.32989,16.26464z" style="fill:#74C7E8;"/><path d="M20.10143,27.218c0,0,0.62163,3.05904-1.84515,3.53501    c-2.46666,0.4661-7.50698,0.39809-9.20647,2.08795c0,0-1.4567,1.13626-1.87427,3.68064    c7.23071-0.16132,13.78061,0.20496,16.8454,3.27191c3.18924-3.65338,10.27106-3.2312,16.89218-3.29138    c-0.12616-0.73804-0.33018-1.34992-0.57286-1.85492c-0.58275-1.23325-1.31115-1.80624-1.31115-1.80624    c-1.69949-1.68986-6.73006-1.62185-9.19672-2.08795c-2.46677-0.47597-1.8549-3.53501-1.8549-3.53501" style="fill:#F9CAAA;"/><path d="M19.20799,30.3548c5.17623,5.51606,9.5658-0.07776,9.5658-0.07776l1.0586,0.47597    c0,0-5.4773,9.73084-11.73151,0.02913" style="fill:#FFC601;"/><ellipse cx="23.69827" cy="10.96972" rx="2.48656" ry="3.62739" style="fill:#FFC601;"/><path d="    M28.77379,30.27703c0,0-4.38957,5.59382-9.5658,0.07776" style="fill:none;stroke:#30302F;stroke-width:0.8;stroke-linecap:round;stroke-linejoin:round;stroke-miterlimit:10;"/><path d="M29.61756,25.51611c0.12111,0.38135,0.34868,0.61193,0.6056,0.61193    c0.39641,0,0.70473-0.55432,0.70473-1.25935c0-0.3725-0.08444-0.71834-0.2349-0.94897    c-0.00368-0.00886-0.00737-0.0133-0.0147-0.0177l0.84383-1.24849c0.03888,0.0195,0.06801,0.04861,0.09714,0.08751    c0.39821,0.50498,0.62151,1.2624,0.62151,2.0782c0,1.54408-0.81568,2.75809-1.86453,2.75809    c-0.67977,0-1.2819-0.50498-1.60246-1.34016" style="fill:#FFC601;"/><path d="M18.39861,25.74255c-0.12111,0.38135-0.34868,0.61192-0.6056,0.61192    c-0.39641,0-0.70473-0.55432-0.70473-1.25935c0-0.3725,0.08444-0.71833,0.2349-0.94897    c0.00368-0.00886,0.00737-0.0133,0.0147-0.0177l-0.78108-1.15436c-0.01938,0.00963-0.02913,0.01936-0.03888,0.03876    c-0.39809,0.5051-0.62151,1.26252-0.62151,2.07831c0,1.54408,0.8158,2.75809,1.86465,2.75809    c0.67977,0,1.2819-0.50498,1.60235-1.34016" style="fill:#FFC601;"/><path d="    M40.91314,36.50212c-0.12616-0.73804-0.3302-1.34991-0.57288-1.85492c-0.58275-1.23325-1.31115-1.80624-1.31115-1.80624    c-1.69949-1.68986-6.73006-1.62185-9.19672-2.08795c-2.46677-0.47597-1.8549-3.53501-1.8549-3.53501" style="fill:none;stroke:#30302F;stroke-width:0.8;stroke-linecap:round;stroke-linejoin:round;stroke-miterlimit:10;"/><path d="    M20.10143,27.218c0,0,0.62163,3.05904-1.84515,3.53501c-2.46666,0.4661-7.50698,0.39809-9.20647,2.08795    c0,0-1.45669,1.13624-1.87428,3.68064" style="fill:none;stroke:#30302F;stroke-width:0.8;stroke-linecap:round;stroke-linejoin:round;stroke-miterlimit:10;"/><path d="    M25.88565,12.79407c1.88948,1.04885,4.96355,2.55652,6.79779,3.5471c1.76785,0.9517,3.02758,1.96167,3.82307,3.68055    c0.40471,0.87441,0.67107,1.81869,0.75219,2.77991c0.12222,1.44961-0.3606,2.87113-1.01391,4.14468    c-0.37442,0.73003-0.7768,1.4474-1.23374,2.12938c-0.25313,0.37776-0.54143,0.7298-0.83007,1.08053    c-0.2688,0.32648-0.51311,0.73954-0.83355,1.01554" style="fill:none;stroke:#30302F;stroke-width:0.8;stroke-linecap:round;stroke-linejoin:round;stroke-miterlimit:10;"/><path d="    M14.52711,31.17059c-0.32045-0.27193-0.56325-0.68952-0.83518-1.01008c-0.29132-0.35933-0.573-0.7089-0.82555-1.08761    c-0.4661-0.67977-0.86431-1.39843-1.23327-2.12683c-0.92257-1.82089-1.3079-3.80137-0.69823-5.79728    c0.1178-0.38556,0.2652-0.76183,0.43593-1.12707c0.78667-1.71887,2.04918-2.72884,3.81669-3.68055    c1.8354-0.99059,4.48671-2.28224,6.38037-3.33109" style="fill:none;stroke:#30302F;stroke-width:0.8;stroke-linecap:round;stroke-linejoin:round;stroke-miterlimit:10;"/><path d="    M24.17055,14.59305c1.34028,1.11686,2.87461,2.07831,4.44794,2.92313c1.09411,0.5876,2.28502,1.11617,3.4251,1.66293    c1.10119,0.52808,2.18242,1.06185,2.9323,2.06508c1.21273,1.62231,1.45065,3.73811,1.2689,5.70211" style="fill:none;stroke:#30302F;stroke-width:0.8;stroke-linecap:round;stroke-linejoin:round;stroke-miterlimit:10;"/><path d="    M11.62336,26.94607c-0.17479-1.90341,0.07765-4.03024,1.21389-5.6327c0.0195-0.01938,0.02913-0.04851,0.04863-0.0679    c0.75742-1.00035,1.8354-1.53445,2.93288-2.06857c0.85456-0.40796,1.71887-0.79642,2.5638-1.20428V17.9629    c0.02913-0.01938,0.06801-0.02913,0.09714-0.04851c0.01938-0.00975,0.02913-0.01938,0.04851-0.01938    c0.08739-0.04863,0.16516-0.08739,0.25255-0.13602c0.15529-0.07767,0.3107-0.15543,0.4661-0.2428    c0.50498-0.27193,1.00033-0.5535,1.48582-0.84481c0.18454-0.10689,0.36908-0.22342,0.54386-0.33994c0.00975,0,0.00975,0,0.00975,0    c0.84493-0.53411,1.66061-1.11686,2.40839-1.73837" style="fill:none;stroke:#30302F;stroke-width:0.8;stroke-linecap:round;stroke-linejoin:round;stroke-miterlimit:10;"/><ellipse cx="23.69827" cy="10.96972" rx="2.48656" ry="3.62739" style="fill:none;stroke:#30302F;stroke-width:0.8;stroke-linecap:round;stroke-linejoin:round;stroke-miterlimit:10;"/><ellipse cx="23.69827" cy="10.96972" rx="1.01943" ry="1.4871" style="fill:#74C7E8;"/><ellipse cx="23.69827" cy="10.96972" rx="1.01943" ry="1.4871" style="fill:none;stroke:#30302F;stroke-width:0.8;stroke-linecap:round;stroke-linejoin:round;stroke-miterlimit:10;"/><path d="    M13.81623,17.189c0.1792-2.00961,0.78249-5.12052,2.03711-6.72426c1.34933-1.7198,3.36289-2.91793,5.61901-3.38169    c2.17163-0.4444,4.51201-0.19315,6.515,0.71506c2.22444,1.01449,3.65815,2.71491,4.63864,4.7728    c0,0,1.10467,2.69077,1.10467,4.34291" style="fill:none;stroke:#30302F;stroke-width:0.8;stroke-linecap:round;stroke-linejoin:round;stroke-miterlimit:10;"/><path d="    M30.95888,18.66217c0.0195,0.35933,0.17479,5.1276-2.04907,7.42922c-0.51473,0.58275-1.07798,1.12661-1.68986,1.61221    c-0.90307,0.71865-2.02968,1.60235-3.24357,1.61209c-0.54386,0-1.0586-0.20404-1.5247-0.47585    c-0.35933-0.20404-0.69927-0.45649-1.0391-0.67989c-0.78666-0.53412-1.5247-1.1265-2.17546-1.81602    c-0.07764-0.08739-0.15529-0.16504-0.23305-0.25255c-1.36976-1.64441-1.87428-4.70026-1.87428-4.70026    c-0.19429-1.32078-0.17479-2.33075-0.17479-2.33075" style="fill:none;stroke:#30302F;stroke-width:0.8;stroke-linecap:round;stroke-linejoin:round;stroke-miterlimit:10;"/><path d="    M30.27272,23.95829c0.49907-0.25893,0.94555-0.66875,1.1988-1.17524c0.2782-0.55663,0.32602-1.32821,0.11235-1.91362    c-0.03331-0.09134-0.07695-0.18212-0.1496-0.24663c-0.16202-0.14357-0.2725-0.09482-0.4394-0.01451" style="fill:none;stroke:#30302F;stroke-width:0.8;stroke-linecap:round;stroke-linejoin:round;stroke-miterlimit:10;"/><path d="    M17.63431,23.95829c-0.49918-0.25893-0.94555-0.66875-1.1988-1.17524c-0.27832-0.55663-0.32602-1.32821-0.11246-1.91362    c0.03331-0.09134,0.07695-0.18212,0.1496-0.24663c0.16202-0.14357,0.38207-0.04538,0.54897,0.03493" style="fill:none;stroke:#30302F;stroke-width:0.8;stroke-linecap:round;stroke-linejoin:round;stroke-miterlimit:10;"/><path d="    M31.52213,22.65353c0.03888,0.0195,0.06801,0.04861,0.09714,0.08751c0.39821,0.50498,0.62151,1.2624,0.62151,2.0782    c0,1.54408-0.81568,2.75809-1.86453,2.75809c-0.67977,0-1.2819-0.50498-1.60246-1.34016" style="fill:none;stroke:#30302F;stroke-width:0.8;stroke-linecap:round;stroke-linejoin:round;stroke-miterlimit:10;"/><path d="    M30.6783,23.90202c0.00733,0.0044,0.01101,0.00884,0.0147,0.0177c0.15046,0.23063,0.2349,0.57647,0.2349,0.94897    c0,0.70503-0.30832,1.25935-0.70473,1.25935c-0.25692,0-0.48449-0.23058-0.6056-0.61193" style="fill:none;stroke:#30302F;stroke-width:0.8;stroke-linecap:round;stroke-linejoin:round;stroke-miterlimit:10;"/><path d="    M17.33787,24.12845c-0.00733,0.0044-0.01101,0.00884-0.0147,0.0177c-0.15046,0.23063-0.2349,0.57647-0.2349,0.94897    c0,0.70504,0.30832,1.25935,0.70473,1.25935c0.25692,0,0.48449-0.23058,0.6056-0.61192" style="fill:none;stroke:#30302F;stroke-width:0.8;stroke-linecap:round;stroke-linejoin:round;stroke-miterlimit:10;"/><path d="    M16.51791,23.01286c-0.39809,0.5051-0.62151,1.26252-0.62151,2.07831c0,1.54408,0.8158,2.75809,1.86465,2.75809    c0.67977,0,1.2819-0.50498,1.60235-1.34016" style="fill:none;stroke:#30302F;stroke-width:0.8;stroke-linecap:round;stroke-linejoin:round;stroke-miterlimit:10;"/><path d="    M26.1848,10.15578c0,0,4.03407,0.81394,5.73553,5.77987" style="fill:none;stroke:#30302F;stroke-width:0.8;stroke-linecap:round;stroke-linejoin:round;stroke-miterlimit:10;"/><path d="    M21.16618,10.15578c0,0-4.03395,0.81394-5.73553,5.77987" style="fill:none;stroke:#30302F;stroke-width:0.8;stroke-linecap:round;stroke-linejoin:round;stroke-miterlimit:10;"/><path d="    M18.10088,30.78214c6.25421,9.70171,11.73151-0.02913,11.73151-0.02913" style="fill:none;stroke:#30302F;stroke-width:0.8;stroke-linecap:round;stroke-linejoin:round;stroke-miterlimit:10;"/><path d="    M40.33945,34.64293c0.47852,0.06811,1.00706,0.19951,1.40493,0.48328c0.37407,0.26659,0.48606,0.75069,0.10979,1.09225    c-0.14856,0.13485-0.34795,0.20021-0.54572,0.23445c-0.68186,0.11792-1.38264,0.12836-2.07286,0.13892    c-0.7486,0.01138-1.4972,0.00905-2.24579,0.01358c-0.86779,0.00522-1.7357,0.01787-2.60291,0.05257    c-0.9206,0.03679-1.84062,0.09772-2.75623,0.2009c-0.90934,0.10236-1.81544,0.2457-2.70574,0.45821    c-0.83924,0.20021-1.66746,0.46193-2.45134,0.82485c-0.7219,0.33426-2.35327,1.54443-2.45261,1.65155" style="fill:none;stroke:#30302F;stroke-width:0.8;stroke-linecap:round;stroke-linejoin:round;stroke-miterlimit:10;"/><path d="    M7.63189,34.64293c-0.47852,0.06811-1.00707,0.19951-1.40493,0.48328C5.8529,35.3928,5.7409,35.87689,6.11705,36.21846    c0.14856,0.13485,0.34807,0.20021,0.54584,0.23445c0.68175,0.11792,1.38253,0.12836,2.07286,0.13892    c0.74848,0.01138,1.49708,0.00905,2.24568,0.01358c0.86791,0.00522,1.7357,0.01787,2.60291,0.05257    c0.9206,0.03679,1.84062,0.09772,2.75635,0.2009c0.90923,0.10236,1.81532,0.2457,2.70574,0.45821    c0.83913,0.20021,1.66746,0.46193,2.45122,0.82485c0.72202,0.33426,1.93881,1.10873,2.5233,1.65155" style="fill:none;stroke:#30302F;stroke-width:0.8;stroke-linecap:round;stroke-linejoin:round;stroke-miterlimit:10;"/><path d="M24.98484,24.89238c-0.75266-0.05944-0.99384,0.14403-0.99384,0.14403    s-0.24129-0.20348-0.99407-0.14403c-0.75266,0.05931-1.20623,0.02542-1.35096-0.05095    c0.19394,0.17038,0.383,0.34563,0.56731,0.52402c0.12221,0.1185,0.24895,0.23595,0.35736,0.36455    c0.10411,0.12326,0.19266,0.25708,0.31046,0.37105c0.13173,0.12767,0.29828,0.22725,0.48154,0.28853    c0.20462,0.06848,0.40633,0.12558,0.62836,0.13068c0.22191-0.00511,0.42374-0.06221,0.62824-0.13068    c0.18315-0.06128,0.34969-0.16086,0.48154-0.28853c0.11769-0.11397,0.20624-0.24779,0.31035-0.37105    c0.10852-0.1286,0.23514-0.24605,0.35747-0.36455c0.18431-0.17839,0.37325-0.35364,0.56719-0.52402    C26.19107,24.9178,25.7375,24.95168,24.98484,24.89238z" style="fill:#F43735;"/><ellipse cx="23.69827" cy="10.96972" rx="2.48656" ry="3.62739" style="fill:none;stroke:#30302F;stroke-width:0.8;stroke-linecap:round;stroke-linejoin:round;stroke-miterlimit:10;"/><path d="M27.14231,16.67125c-0.23305,0.08751-0.43709,0.17479-0.60213,0.27205    c-0.14566,0.08728-0.26218,0.16504-0.34958,0.2233c-0.06801,0.04851-0.15541,0.09703-0.15541,0.09703    c-0.16516,0.07776-0.36908,0.00975-0.45647-0.15529c-0.07765-0.17479-0.00963-0.37882,0.16516-0.45649    c0.00963-0.00961,0.02913-0.00961,0.13591-0.05824c0.09714-0.03888,0.2428-0.10678,0.42734-0.17479    c0.10678-0.03888,0.23305-0.07776,0.36908-0.10689C26.78298,16.38968,26.96752,16.53534,27.14231,16.67125z" style="fill:#30302F;"/><path d="M22.35454,17.10834c-0.07764,0.17479-0.27193,0.25243-0.44672,0.18454    c-0.01938-0.00975-0.03888-0.0195-0.05826-0.02925c0,0-0.05826-0.03876-0.15541-0.09703    c-0.07765-0.05826-0.19417-0.13602-0.33994-0.2233c-0.17479-0.09726-0.38834-0.19429-0.62151-0.27205    c0.18454-0.10678,0.36908-0.2233,0.54386-0.33983c0.00975,0,0.00975,0,0.00975,0c0.10678,0.02911,0.20392,0.05826,0.30106,0.08739    c0.17479,0.06801,0.33019,0.13591,0.42734,0.17479c0.08728,0.03888,0.13591,0.05824,0.13591,0.05824L22.17,16.66162    C22.34479,16.72951,22.42255,16.93355,22.35454,17.10834z" style="fill:#30302F;"/><path d="M23.02513,22.43138c0,0,0.17157,0.04786,0.37205,0.08015    c0.20028,0.04185,0.40158,0.05934,0.57579,0.0504c0.09103,0.00407,0.18378-0.01385,0.28703-0.0224    c0.10151-0.01721,0.20822-0.0336,0.31055-0.05346c0.11078-0.01804,0.20303-0.03299,0.26768-0.04338    c0.06985-0.01079,0.11852-0.01132,0.11852-0.01132s-0.00387,0.04512-0.02576,0.11446    c-0.02963,0.06099-0.04663,0.17961-0.12371,0.2741c-0.1228,0.20853-0.42734,0.44098-0.81385,0.45402    c-0.38967,0.01079-0.71905-0.22176-0.84317-0.43844C23.01647,22.61488,23.02513,22.43138,23.02513,22.43138z" style="fill:#30302F;"/><path d="M29.52157,17.84637c0,0,0,0.11653-0.03876,0.27193l-0.19429-0.11653l-0.09714-0.05826    l0.31081-0.08739L29.52157,17.84637z" style="fill:#30302F;"/><g><g><path d="M29.44254,18.5754l-0.0305-0.04728c-3.36254-1.73597-4.09524,1.23941-4.09524,1.23941      s0.62352,0.35957,1.49968,0.30753C28.81767,19.81955,29.21401,19.06634,29.44254,18.5754z" style="fill:#FFFFFF;"/></g><g><g><path d="M29.21868,18.37639c0,0,0.34691-0.40981,0.37436-0.69404c0,0-0.48793,0.54462-0.84007,0.58236" style="fill:#30302F;"/><path d="M28.54568,18.26782c0,0,0.40184-0.36351,0.45974-0.64311c0,0-0.37089,0.37638-0.7247,0.37428" style="fill:#30302F;"/><g><g><path d="M28.89678,18.98099c-0.60631-0.39465-1.29858-0.71909-1.9569-0.62338         c-0.65767,0.08298-1.16927,0.72849-1.36232,1.41711l-0.06716-0.15829c0.35634,0.26828,0.83357,0.4472,1.31841,0.49512         c-0.49146,0.05038-0.99847-0.01059-1.48708-0.23663c-0.05369-0.02484-0.0817-0.08255-0.07119-0.13815l0.0039-0.02045         c0.07842-0.41446,0.23196-0.79468,0.48457-1.14203c0.25022-0.34311,0.63314-0.62311,1.07032-0.73178         c0.89355-0.20822,1.73413,0.13055,2.44515,0.49637c0.18322,0.09427,0.25533,0.31918,0.16108,0.50241         c-0.09426,0.18323-0.3192,0.25534-0.50242,0.16107C28.92191,18.99658,28.90717,18.98773,28.89678,18.98099z" style="fill:#30302F;"/></g><g><path d="M29.48298,18.7442c-0.06388,0.20432-0.14381,0.28427-0.23321,0.39572         c-0.08928,0.10013-0.18769,0.18225-0.28869,0.25253c-0.20434,0.13828-0.41958,0.22742-0.63491,0.2851         c0.1515-0.16348,0.27474-0.34515,0.35338-0.52899c0.03819-0.09238,0.06584-0.18488,0.07825-0.27347         c0.01062-0.0773,0.01449-0.19815-0.01602-0.2059c0.02071-0.20468,0.20343-0.35382,0.4081-0.3331         C29.35456,18.35678,29.50369,18.53952,29.48298,18.7442z" style="fill:#30302F;"/></g></g></g><path d="M27.99902,18.65236c0.05306,0.47181-0.27974,0.89944-0.74332,0.95514      s-0.88241-0.28162-0.93547-0.75343c-0.05306-0.47181,0.27974-0.89944,0.74332-0.95514      C27.52714,17.84323,27.94596,18.18056,27.99902,18.65236z" style="fill:#30302F;"/><ellipse cx="27.56112" cy="18.60089" rx="0.19534" ry="0.19863" style="fill:#FFFFFF;" transform="matrix(0.99286 -0.1193 0.1193 0.99286 -2.02219 3.42075)"/></g></g><g><g><path d="M18.50959,18.6878l0.02784-0.0489c3.26133-1.91938,4.15755,1.0109,4.15755,1.0109      s-0.60266,0.39352-1.48036,0.39004C19.20234,19.89547,18.76494,19.16534,18.50959,18.6878z" style="fill:#FFFFFF;"/></g><g><g><path d="M18.72209,18.47671c0,0-0.36905-0.38998-0.41219-0.67226c0,0,0.51732,0.51678,0.87101,0.53498" style="fill:#30302F;"/><path d="M19.38806,18.33106c0,0-0.42134-0.34072-0.49462-0.61668c0,0,0.39116,0.35528,0.74431,0.33361" style="fill:#30302F;"/><g><g><path d="M18.66429,18.44232c0.6897-0.40457,1.51023-0.78934,2.41394-0.63089         c0.44252,0.08429,0.84036,0.34268,1.10918,0.67142c0.27144,0.33286,0.44578,0.70398,0.54702,1.11346l0.00497,0.02011         c0.01419,0.05743-0.01342,0.11542-0.06338,0.14197c-0.47535,0.25275-0.97821,0.34167-1.47171,0.31857         c0.48144-0.07468,0.94803-0.27975,1.28899-0.56732l-0.05829,0.16177c-0.23085-0.67691-0.77739-1.29309-1.43865-1.33954         c-0.66261-0.05914-1.33587,0.3031-1.91941,0.73071c-0.16483,0.12363-0.3987,0.09027-0.52235-0.07458         c-0.12365-0.16483-0.09027-0.39868,0.07456-0.52234C18.63928,18.45807,18.6537,18.44873,18.66429,18.44232z" style="fill:#30302F;"/></g><g><path d="M19.21447,18.74265c-0.03003,0.00946-0.01948,0.12991-0.0046,0.20648         c0.0173,0.0878,0.05003,0.17862,0.09327,0.26874c0.08869,0.17923,0.2218,0.35376,0.38211,0.50861         c-0.2182-0.04565-0.43804-0.12274-0.64972-0.24948c-0.10474-0.06461-0.20754-0.14117-0.30223-0.23618         c-0.09543-0.10635-0.17966-0.18176-0.25475-0.38223c-0.03201-0.20322,0.10679-0.39392,0.31-0.42593         C18.99178,18.40067,19.18246,18.53943,19.21447,18.74265z" style="fill:#30302F;"/></g></g></g><path d="M19.95515,18.68477c-0.02687,0.47402,0.32908,0.88258,0.79504,0.91255      c0.46596,0.02996,0.86547-0.33002,0.89235-0.80404c0.02687-0.47402-0.32908-0.88258-0.79504-0.91255      C20.38154,17.85077,19.98203,18.21075,19.95515,18.68477z" style="fill:#30302F;"/><ellipse cx="20.38954" cy="18.60915" rx="0.19863" ry="0.19534" style="fill:#FFFFFF;" transform="matrix(0.06417 -0.99794 0.99794 0.06417 0.5103 37.76246)"/></g></g></g></g></svg>