<?xml version="1.0" ?><svg style="enable-background:new 0 0 48 48;" version="1.1" viewBox="0 0 48 48" xml:space="preserve" xmlns="http://www.w3.org/2000/svg" xmlns:xlink="http://www.w3.org/1999/xlink"><g id="Icons"><g><path d="M22.33001,18.22147c0,0-7.04776-2.7373-10.43661,3.90924L8.51527,33.61185    c0,0-2.86118,4.40105,11.7589,4.48316l7.24851,0.21794c0,0,12.8334,0.83412,11.88321-4.7011    c-0.9502-5.53522-3.43822-12.13835-3.43822-12.13835s-4.2714-5.71987-9.97044-3.32415v0.89416h-3.66722V18.22147z" style="fill:#464747;"/><path d="M22.3914,29.75373l-3.21299,4.1728c0,0,0.61825,0.69578,0.42955,1.69175h8.76791    c0,0-0.24162-1.0875,0.55432-1.58994l-3.48309-4.27461H22.3914z" style="fill:#B2B2B2;"/><path d="    M21.02864,20.88573c-1.26693-0.4255-3.26784-0.71552-5.12669,0.64193c-0.15579,0.11382-0.29901,0.24843-0.42424,0.39513    c-0.56572,0.66291-1.93061,2.58704,0.21149,3.65804c0,0,3.04213,0.79414,5.38518-0.02921    c0.89519-0.31458,1.564-1.11287,1.6696-2.05594c0.00155-0.01393,0.003-0.02804,0.00445-0.04216    C22.86293,22.31463,22.11366,21.25021,21.02864,20.88573z" style="fill:none;stroke:#303030;stroke-width:0.75;stroke-linecap:round;stroke-linejoin:round;stroke-miterlimit:10;"/><path d="M21.02864,20.88573c-1.26693-0.4255-3.26784-0.71552-5.12669,0.64193    c-0.15579,0.11382-0.29901,0.24843-0.42424,0.39513c-0.56572,0.66291-1.93061,2.58704,0.21149,3.65804    c0,0,3.04213,0.79414,5.38518-0.02921c0.89519-0.31458,1.564-1.11287,1.6696-2.05594    c0.00155-0.01393,0.003-0.02804,0.00445-0.04216C22.86293,22.31463,22.11366,21.25021,21.02864,20.88573z" style="fill:#707070;"/><path d="M27.46742,20.88573c1.26693-0.4255,3.26794-0.71552,5.12669,0.64193    c0.1558,0.11382,0.29911,0.24843,0.42434,0.39513c0.56572,0.66291,1.93061,2.58704-0.21148,3.65804    c0,0-3.04224,0.79414-5.3852-0.02921c-0.89529-0.31458-1.5641-1.11287-1.6696-2.05594    c-0.00155-0.01393-0.00309-0.02804-0.00445-0.04216C25.63313,22.31463,26.38239,21.25021,27.46742,20.88573z" style="fill:#707070;"/><polygon points="24.05955,26.14665 22.3914,27.58474 22.3914,29.75373 25.60508,29.75373     25.60508,27.67903   " style="fill:#C9C9C9;"/><circle cx="18.23533" cy="35.19964" r="1.43809" style="fill:#C9C9C9;"/><circle cx="29.76115" cy="35.19964" r="1.43809" style="fill:#C9C9C9;"/><path d="M29.3783,36.58416l-5.1851,4.83068l-5.63932-4.77711c0,0,0.8685-0.12153,1.05408-1.01946h8.76791    C28.37586,35.61827,27.98734,36.61251,29.3783,36.58416z" style="fill:#707070;"/><path d="    M27.46742,20.88573c1.26693-0.4255,3.26794-0.71552,5.12669,0.64193c0.1558,0.11382,0.29911,0.24843,0.42434,0.39513    c0.56572,0.66291,1.93061,2.58704-0.21148,3.65804c0,0-3.04224,0.79414-5.3852-0.02921    c-0.89529-0.31458-1.5641-1.11287-1.6696-2.05594c-0.00155-0.01393-0.00309-0.02804-0.00445-0.04216    C25.63313,22.31463,26.38239,21.25021,27.46742,20.88573z" style="fill:none;stroke:#303030;stroke-width:0.75;stroke-linecap:round;stroke-linejoin:round;stroke-miterlimit:10;"/><path d="M12.45281,21.0792c0,0-0.55941-11.76052,9.77759-13.05411    c10.70206-1.33928,14.63618,7.83755,13.73726,13.44841c0,0-3.91311-5.78838-9.97044-3.32415v0.89416h-3.66722v-0.82204    C22.33001,18.22147,16.6987,15.889,12.45281,21.0792z" style="fill:#707070;"/><rect height="12.45835" style="fill:#B2B2B2;" width="3.66721" x="22.33001" y="6.58516"/><path d="    M26.30166,8.02509c11.24674,2.28223,9.94123,13.8771,9.94123,13.8771l3.17191,10.80189    c0.99606,3.86818-3.01718,4.52577-3.01718,4.52577c-2.80443,0.77364-5.93766,1.12177-9.01286,1.20881" style="fill:none;stroke:#303030;stroke-width:0.75;stroke-linecap:round;stroke-linejoin:round;stroke-miterlimit:10;"/><path d="    M20.5284,38.31295c-5.14468-0.33847-9.00319-1.08309-9.00319-1.08309c-3.91653-1.05408-3.00751-3.61675-3.00751-3.61675    l3.68444-12.13642c0-12.08806,10.02826-13.4516,10.02826-13.4516" style="fill:none;stroke:#303030;stroke-width:0.75;stroke-linecap:round;stroke-linejoin:round;stroke-miterlimit:10;"/><path d="    M12.19913,21.4735c0,0,2.72639-5.04217,9.67877-3.58542" style="fill:none;stroke:#303030;stroke-width:0.75;stroke-linecap:round;stroke-linejoin:round;stroke-miterlimit:10;"/><path d="    M36.24529,21.90693c0,0-3.16485-5.72684-9.84616-4.06903" style="fill:none;stroke:#303030;stroke-width:0.75;stroke-linecap:round;stroke-linejoin:round;stroke-miterlimit:10;"/><rect height="12.45835" style="fill:none;stroke:#303030;stroke-width:0.75;stroke-linecap:round;stroke-linejoin:round;stroke-miterlimit:10;" width="3.66721" x="22.33001" y="6.58516"/><path d="    M21.02864,20.88573c-1.26693-0.4255-3.26784-0.71552-5.12669,0.64193c-0.15579,0.11382-0.29901,0.24843-0.42424,0.39513    c-0.56572,0.66291-1.93061,2.58704,0.21149,3.65804c0,0,3.04213,0.79414,5.38518-0.02921    c0.89519-0.31458,1.564-1.11287,1.6696-2.05594c0.00155-0.01393,0.003-0.02804,0.00445-0.04216    C22.86293,22.31463,22.11366,21.25021,21.02864,20.88573z" style="fill:none;stroke:#303030;stroke-width:0.75;stroke-linecap:round;stroke-linejoin:round;stroke-miterlimit:10;"/><path d="    M27.46742,20.88573c1.26693-0.4255,3.26794-0.71552,5.12669,0.64193c0.1558,0.11382,0.29911,0.24843,0.42434,0.39513    c0.56572,0.66291,1.93061,2.58704-0.21148,3.65804c0,0-3.04224,0.79414-5.3852-0.02921    c-0.89529-0.31458-1.5641-1.11287-1.6696-2.05594c-0.00155-0.01393-0.00309-0.02804-0.00445-0.04216    C25.63313,22.31463,26.38239,21.25021,27.46742,20.88573z" style="fill:none;stroke:#303030;stroke-width:0.75;stroke-linecap:round;stroke-linejoin:round;stroke-miterlimit:10;"/><polygon points="    24.05955,26.14665 22.3914,27.58474 22.3914,29.75373 25.60508,29.75373 25.60508,27.67903   " style="fill:none;stroke:#303030;stroke-width:0.75;stroke-linecap:round;stroke-linejoin:round;stroke-miterlimit:10;"/><line style="fill:none;stroke:#303030;stroke-width:0.75;stroke-linecap:round;stroke-linejoin:round;stroke-miterlimit:10;" x1="22.3914" x2="19.17841" y1="29.75373" y2="33.92653"/><circle cx="18.23533" cy="35.19964" r="1.43809" style="fill:none;stroke:#303030;stroke-width:0.75;stroke-linecap:round;stroke-linejoin:round;stroke-miterlimit:10;"/><line style="fill:none;stroke:#303030;stroke-width:0.75;stroke-linecap:round;stroke-linejoin:round;stroke-miterlimit:10;" x1="17.25378" x2="15.09978" y1="34.1503" y2="30.79098"/><line style="fill:none;stroke:#303030;stroke-width:0.75;stroke-linecap:round;stroke-linejoin:round;stroke-miterlimit:10;" x1="25.60508" x2="28.81809" y1="29.75373" y2="33.92653"/><circle cx="29.76115" cy="35.19964" r="1.43809" style="fill:none;stroke:#303030;stroke-width:0.75;stroke-linecap:round;stroke-linejoin:round;stroke-miterlimit:10;"/><line style="fill:none;stroke:#303030;stroke-width:0.75;stroke-linecap:round;stroke-linejoin:round;stroke-miterlimit:10;" x1="30.74261" x2="32.8967" y1="34.1503" y2="30.79098"/><line style="fill:none;stroke:#303030;stroke-width:0.75;stroke-linecap:round;stroke-linejoin:round;stroke-miterlimit:10;" x1="19.60795" x2="28.37586" y1="35.61827" y2="35.61827"/><line style="fill:none;stroke:#303030;stroke-width:0.75;stroke-linecap:round;stroke-linejoin:round;stroke-miterlimit:10;" x1="21.24477" x2="21.24477" y1="31.40669" y2="35.61827"/><line style="fill:none;stroke:#303030;stroke-width:0.75;stroke-linecap:round;stroke-linejoin:round;stroke-miterlimit:10;" x1="23.03788" x2="23.03788" y1="30.12594" y2="35.61827"/><line style="fill:none;stroke:#303030;stroke-width:0.75;stroke-linecap:round;stroke-linejoin:round;stroke-miterlimit:10;" x1="26.78518" x2="26.78518" y1="31.40669" y2="35.61827"/><line style="fill:none;stroke:#303030;stroke-width:0.75;stroke-linecap:round;stroke-linejoin:round;stroke-miterlimit:10;" x1="24.89141" x2="24.89141" y1="30.12594" y2="35.61827"/><path d="    M8.51527,33.61185c0,0,2.66053,1.09141,4.62422,1.09141" style="fill:none;stroke:#303030;stroke-width:0.75;stroke-linecap:round;stroke-linejoin:round;stroke-miterlimit:10;"/><path d="    M39.40588,33.61185c0,0-2.66053,1.09141-4.6242,1.09141" style="fill:none;stroke:#303030;stroke-width:0.75;stroke-linecap:round;stroke-linejoin:round;stroke-miterlimit:10;"/><polyline points="    18.55387,36.63773 24.1932,41.41484 29.3783,36.58416   " style="fill:none;stroke:#303030;stroke-width:0.75;stroke-linecap:round;stroke-linejoin:round;stroke-miterlimit:10;"/><path d="    M22.2304,10.07852c0,0-3.73697,1.0476-5.19188,3.78753" style="fill:none;stroke:#303030;stroke-width:0.75;stroke-linecap:round;stroke-linejoin:round;stroke-miterlimit:10;"/><line style="fill:none;stroke:#303030;stroke-width:0.75;stroke-linecap:round;stroke-linejoin:round;stroke-miterlimit:10;" x1="16.17678" x2="15.70448" y1="15.31661" y2="16.2031"/><path d="    M25.99722,10.07852c0,0,2.93334,0.60508,4.0673,1.57009" style="fill:none;stroke:#303030;stroke-width:0.75;stroke-linecap:round;stroke-linejoin:round;stroke-miterlimit:10;"/><path d="    M22.2304,24.7277c0,0-1.79147,2.8583-5.62938,2.76768" style="fill:none;stroke:#303030;stroke-width:0.75;stroke-linecap:round;stroke-linejoin:round;stroke-miterlimit:10;"/><path d="    M26.30166,24.77239c0,0,1.79144,2.8136,5.62935,2.72299" style="fill:none;stroke:#303030;stroke-width:0.75;stroke-linecap:round;stroke-linejoin:round;stroke-miterlimit:10;"/><line style="fill:none;stroke:#303030;stroke-width:0.75;stroke-linecap:round;stroke-linejoin:round;stroke-miterlimit:10;" x1="10.64731" x2="13.13949" y1="34.15755" y2="25.92529"/><line style="fill:none;stroke:#303030;stroke-width:0.75;stroke-linecap:round;stroke-linejoin:round;stroke-miterlimit:10;" x1="37.83637" x2="35.3442" y1="34.15755" y2="25.92529"/></g></g></svg>