<?xml version="1.0" ?><svg style="enable-background:new 0 0 48 48;" version="1.1" viewBox="0 0 48 48" xml:space="preserve" xmlns="http://www.w3.org/2000/svg" xmlns:xlink="http://www.w3.org/1999/xlink"><g id="Icons"><g><path d="M14.39091,33.94934c-8.2632,0-6.38322-7.56363-5.81484-8.41861    c0.56838-0.85489,1.53025-3.95428,1.87997-6.00917c0.34974-2.05489,2.14225-6.03339,4.94044-9.96826    c2.7981-3.93486,8.88898-1.6176,8.88898-1.6176s6.58801-2.3609,9.69212,2.09853c3.1042,4.45952,2.84183,5.24646,3.36648,7.25762    s0.56838,4.45942,1.74888,6.90778c1.1804,2.44836,2.26798,9.53106-4.26547,9.39997" style="fill:#AA9771;"/><path d="M14.40494,22.87118v10.29999c0,0.83481,0.31591,1.63871,0.88429,2.25016l4.40702,4.74055    c0.50175,0.53983,1.20547,0.8464,1.94246,0.8464h5.29669c0.75093,0,1.46671-0.31826,1.96962-0.876l4.74836-5.26511    c0.51693-0.57328,0.817-1.30943,0.848-2.08081l0.34013-8.46488c0,0-5.39677-1.43731-5.4405-5.15363    c0,0-1.11905,6.29812-6.40924,5.51119c0,0,2.21209-3.19402,1.90608-6.12321c0,0-1.70063,5.17445-8.52548,4.76553    c0,0,1.48641-1.53024,1.13669-2.62328L14.40494,22.87118z" style="fill:#F9D9C0;"/><path d="    M14.40494,22.87118v10.29999c0,0.83481,0.31591,1.63871,0.88429,2.25016l4.40702,4.74055    c0.50175,0.53983,1.20547,0.8464,1.94246,0.8464h5.29669c0.75093,0,1.46671-0.31826,1.96962-0.876l4.74836-5.26511    c0.51693-0.57328,0.817-1.30943,0.848-2.08081l0.34013-8.46488c0,0-5.39677-1.43731-5.4405-5.15363    c0,0-1.11905,6.29812-6.40924,5.51119c0,0,2.21209-3.19402,1.90608-6.12321c0,0-1.70063,5.17445-8.52548,4.76553    c0,0,1.48641-1.53024,1.13669-2.62328L14.40494,22.87118z" style="fill:none;stroke:#303030;stroke-width:0.75;stroke-linecap:round;stroke-linejoin:round;stroke-miterlimit:10;"/><path d="    M14.40494,33.68311c-8.2632,0-6.38322-7.56363-5.81484-8.41861c0.56838-0.85489,1.53025-3.95428,1.87997-6.00917    c0.34974-2.05489,2.14225-6.03339,4.94044-9.96826c2.7981-3.93486,8.88898-1.6176,8.88898-1.6176s6.58801-2.3609,9.69212,2.09853    c3.1042,4.45952,2.84183,5.24645,3.36648,7.25762s0.56839,4.45942,1.74888,6.90778    c1.1804,2.44836,2.26797,9.53106-4.26547,9.39997" style="fill:none;stroke:#303030;stroke-width:0.75;stroke-linecap:round;stroke-linejoin:round;stroke-miterlimit:10;"/><g><g><g><g><polyline points="        22.26073,31.00074 24.11205,31.63321 25.73926,31.00074       " style="fill:none;stroke:#303030;stroke-width:0.75;stroke-linecap:round;stroke-linejoin:round;stroke-miterlimit:10;"/></g></g></g><g><polyline points="      20.78875,35.44019 21.42921,34.96369 26.85907,34.96369 27.36478,35.52887     " style="fill:none;stroke:#303030;stroke-width:0.75;stroke-linecap:round;stroke-linejoin:round;stroke-miterlimit:10;"/><line style="fill:none;stroke:#303030;stroke-width:0.75;stroke-linecap:round;stroke-linejoin:round;stroke-miterlimit:10;" x1="22.72075" x2="25.25119" y1="36.96307" y2="36.96307"/></g></g><path d="    M8.59011,25.2645c0,0,2.39541-0.77949,3.00779-3.50351" style="fill:none;stroke:#303030;stroke-width:0.75;stroke-linecap:round;stroke-linejoin:round;stroke-miterlimit:10;"/><path d="    M34.54153,31.7874c0,0,3.99048-0.83001,2.99827-4.31862" style="fill:none;stroke:#303030;stroke-width:0.75;stroke-linecap:round;stroke-linejoin:round;stroke-miterlimit:10;"/><path d="    M23.99999,9.8058c0,0-5.12564-1.59319-6.65634,0.90587" style="fill:none;stroke:#303030;stroke-width:0.75;stroke-linecap:round;stroke-linejoin:round;stroke-miterlimit:10;"/><line style="fill:none;stroke:#303030;stroke-width:0.75;stroke-linecap:round;stroke-linejoin:round;stroke-miterlimit:10;" x1="16.50017" x2="15.5943" y1="12.1487" y2="13.6794"/><path d="    M14.40494,31.7874c0,0-2.99356,0.0081-3.62838-2.2725" style="fill:none;stroke:#303030;stroke-width:0.75;stroke-linecap:round;stroke-linejoin:round;stroke-miterlimit:10;"/><line style="fill:none;stroke:#303030;stroke-width:0.75;stroke-linecap:round;stroke-linejoin:round;stroke-miterlimit:10;" x1="10.25935" x2="10.44746" y1="26.81114" y2="27.86921"/><path d="    M22.99177,24.67906c0,0,3.23972-1.20651,3.55016-3.77182" style="fill:none;stroke:#303030;stroke-width:0.75;stroke-linecap:round;stroke-linejoin:round;stroke-miterlimit:10;"/></g></g></svg>