<?xml version="1.0" ?><svg style="enable-background:new 0 0 48 48;" version="1.1" viewBox="0 0 48 48" xml:space="preserve" xmlns="http://www.w3.org/2000/svg" xmlns:xlink="http://www.w3.org/1999/xlink"><g id="Icons"><g><path d="M24.75311,6.48534c0,0-5.21062-1.4303-6.94746,1.83908c0,0-0.91954,1.58352-1.68576,2.04329    c-0.76632,0.45977-1.89016,3.42261-2.04339,5.10846c-0.15323,1.68576-0.2043,3.37153-0.4087,3.93345    c-0.20429,0.56192-0.20429,2.96284,0,3.98453c0.20439,1.02169,0.25547,2.34984-0.15323,3.01391c0,0-1.5906,2.43518-0.62567,4.5843    s1.14029,3.85959-1.05265,4.38597C9.64332,35.90462,9.81877,37.045,9.81877,37.045s2.32448-0.96492,3.24559-0.74565    c0.92101,0.21928,3.11395-0.61401,3.37714-2.19294c0,0,0.23812,1.1842,0.84274,1.84203c0.60464,0.65792,1.45676,2.71931,0,3.33332    c0,0,2.53439-0.35082,2.44666-2.19294c0,0,1.1842,1.00874,1.09647,2.19294c-0.08773,1.1842-0.39473,2.1053,0.48246,2.67549    c0,0-0.35082-1.88602,0.96492-2.54385c1.31574-0.65792,2.10521-0.96492,2.14912-1.88593c0,0,1.66666,3.07013,2.49994,2.9824    c0,0-0.17537-1.14038,0.43864-1.79821c0,0,1.57894,1.79821,3.15786,1.79821c0,0-0.35091-1.92984,0.21927-2.41231    c0.57019-0.48246,1.31574-2.10521,0.83338-2.89467c0,0,1.40347,1.75439,3.02623,1.53511    c1.62283-0.21936,3.33331,1.00874,3.55258,1.71048c0,0,0.26319-2.58767-0.70174-3.5965    c-0.96491-1.00874-0.87719-2.58767-0.43854-3.59641c0.43854-1.00874,0.43854-4.74487-0.04392-6.01276    c-0.48245-1.26789-0.26309-3.15382-0.26309-4.16265c0-1.00874,0.17537-5.30689-0.43864-6.14026    c-0.61401-0.83328-1.31573-2.63158-1.27192-3.33332c0.04391-0.70174-1.71048-2.23676-2.23676-2.76313    C32.23079,8.31717,29.46822,4.82897,24.75311,6.48534z" style="fill:#B26632;"/><path d="M20.02505,18.34569c0,0,1.21506-0.33916,2.51758,0.61088    c0.1851,0.13495,0.21,0.40043,0.0734,0.58443c-0.32777,0.44167-1.00608,1.09105-1.93489,0.60951    C20.68113,20.15051,18.76662,19.37059,20.02505,18.34569z" style="fill:#FFFFFF;"/><path d="M25.1099,25.41284c0,0-0.60602,0.35624-1.10446,0.26723    c-0.49835-0.08911-2.31521-0.14257-2.74273,0.76595c0,0-0.53436,0.87278,0,1.40715    c0.53436,0.53436,1.35754,0.78377,2.0681,0.55219c0.71066-0.23159,2.3672-0.09407,3.18652,0.08653    c0.81941,0.1806,2.47597,0.05594,2.51161-1.20872c0.03556-1.26467-1.08655-1.54972-1.63873-1.54972    S25.39026,25.67703,25.1099,25.41284z" style="fill:#72401F;"/><path d="M30.12834,18.34569c0,0-1.21506-0.33916-2.51758,0.61088    c-0.18509,0.13495-0.21,0.40043-0.0734,0.58443c0.32776,0.44167,1.00608,1.09105,1.9349,0.60951    C29.47226,20.15051,31.38677,19.37059,30.12834,18.34569z" style="fill:#FFFFFF;"/><path d="    M24.75311,6.48534c0,0-5.21062-1.4303-6.94746,1.83908c0,0-0.91954,1.58352-1.68576,2.04329    c-0.76632,0.45977-1.89016,3.42261-2.04339,5.10846c-0.15323,1.68576-0.2043,3.37153-0.4087,3.93345    c-0.20429,0.56192-0.20429,2.96284,0,3.98453c0.20439,1.02169,0.25547,2.34984-0.15323,3.01391c0,0-1.5906,2.43518-0.62567,4.5843    s1.14029,3.85959-1.05265,4.38597C9.64332,35.90462,9.81877,37.045,9.81877,37.045s2.32448-0.96492,3.24559-0.74565    c0.92101,0.21928,3.11395-0.61401,3.37714-2.19294c0,0,0.23812,1.1842,0.84274,1.84203c0.60464,0.65792,1.45676,2.71931,0,3.33332    c0,0,2.53439-0.35082,2.44666-2.19294c0,0,1.1842,1.00874,1.09647,2.19294c-0.08773,1.1842-0.39473,2.1053,0.48246,2.67549    c0,0-0.35082-1.88602,0.96492-2.54385c1.31574-0.65792,2.10521-0.96492,2.14912-1.88593c0,0,1.66666,3.07013,2.49994,2.9824    c0,0-0.17537-1.14038,0.43864-1.79821c0,0,1.57894,1.79821,3.15786,1.79821c0,0-0.35091-1.92984,0.21927-2.41231    c0.57019-0.48246,1.31574-2.10521,0.83338-2.89467c0,0,1.40347,1.75439,3.02623,1.53511    c1.62283-0.21936,3.33331,1.00874,3.55258,1.71048c0,0,0.26319-2.58767-0.70174-3.5965    c-0.96491-1.00874-0.87719-2.58767-0.43854-3.59641c0.43854-1.00874,0.43854-4.74487-0.04392-6.01276    c-0.48245-1.26789-0.26309-3.15382-0.26309-4.16265c0-1.00874,0.17537-5.30689-0.43864-6.14026    c-0.61401-0.83328-1.31573-2.63158-1.27192-3.33332c0.04391-0.70174-1.71048-2.23676-2.23676-2.76313    C32.23079,8.31717,29.46822,4.82897,24.75311,6.48534z" style="fill:none;stroke:#303030;stroke-width:0.75;stroke-linecap:round;stroke-linejoin:round;stroke-miterlimit:10;"/><path d="M20.02505,18.34569    c0,0,1.21506-0.33916,2.51758,0.61088c0.1851,0.13495,0.21,0.40043,0.0734,0.58443    c-0.32777,0.44167-1.00608,1.09105-1.93489,0.60951C20.68113,20.15051,18.76662,19.37059,20.02505,18.34569z" style="fill:none;stroke:#303030;stroke-width:0.75;stroke-miterlimit:10;"/><path d="M30.12834,18.34569    c0,0-1.21506-0.33916-2.51758,0.61088c-0.18509,0.13495-0.21,0.40043-0.0734,0.58443    c0.32776,0.44167,1.00608,1.09105,1.9349,0.60951C29.47226,20.15051,31.38677,19.37059,30.12834,18.34569z" style="fill:none;stroke:#303030;stroke-width:0.75;stroke-miterlimit:10;"/><path d="    M22.81518,23.61592c0,0-0.75364-0.69411,0-1.428c0,0,0.81316-0.75364,0.89244-1.07093    c0.07938-0.31729,0.2777-1.0115,1.48753-0.91228c0,0,0.99156,0.03968,1.17014,0.95197c0,0,0.35698,0.54566,0.69411,0.74886    c0.33713,0.20311,0.91228,1.15508,0.17849,1.71038" style="fill:none;stroke:#303030;stroke-width:0.75;stroke-linecap:round;stroke-linejoin:round;stroke-miterlimit:10;"/><ellipse cx="24.00546" cy="22.9873" rx="0.59394" ry="0.43717" style="fill:#303030;"/><ellipse cx="26.0099" cy="22.9873" rx="0.59394" ry="0.43717" style="fill:#303030;"/><path d="M25.1099,25.41284    c0,0-0.60602,0.35624-1.10446,0.26723c-0.49835-0.08911-2.31521-0.14257-2.74273,0.76595c0,0-0.53436,0.87278,0,1.40715    c0.53436,0.53436,1.35754,0.78377,2.0681,0.55219c0.71066-0.23159,2.3672-0.09407,3.18652,0.08653    c0.81941,0.1806,2.47597,0.05594,2.51161-1.20872c0.03556-1.26467-1.08655-1.54972-1.63873-1.54972    S25.39026,25.67703,25.1099,25.41284z" style="fill:none;stroke:#303030;stroke-width:0.75;stroke-linejoin:round;stroke-miterlimit:10;"/><path d="M22.06503,26.13267c0,0,0.05879,1.3603,0.5542,1.25952    c0.49541-0.10077,0.45432-1.55493,0.45432-1.55493" style="fill:#303030;"/><path d="M23.91578,28.44338c0,0-0.05879-1.3603-0.5542-1.25953s-0.45343,1.41064-0.45343,1.41064" style="fill:#303030;"/><path d="M23.25768,25.67024c0,0,0.05879,1.3602,0.55421,1.25943    c0.49541-0.10077,0.45343-1.41064,0.45343-1.41064" style="fill:#303030;"/><path d="M24.14773,25.67024c0,0,0.05879,1.3602,0.55421,1.25943    c0.49541-0.10077,0.45342-1.41064,0.45342-1.41064" style="fill:#303030;"/><path d="M25.03779,25.67024c0,0,0.05879,1.3602,0.5542,1.25943s0.45343-1.41064,0.45343-1.41064" style="fill:#303030;"/><path d="M25.92784,25.67024c0,0,0.05879,1.3602,0.55421,1.25943    c0.49541-0.10077,0.45343-1.41064,0.45343-1.41064" style="fill:#303030;"/><path d="M26.14161,28.50217c0,0,0.0587-1.3603,0.55411-1.25953s0.45344,1.41064,0.45344,1.41064" style="fill:#303030;"/><path d="M28.04435,26.13267c0,0-0.05879,1.3603-0.5542,1.25952    c-0.49541-0.10077-0.45343-1.41064-0.45343-1.41064" style="fill:#303030;"/><path d="M23.88694,20.67504    c0,0,0.52141-2.40799-0.97962-4.4059c-1.50112-1.99791-4.81578-1.77083-4.81578-1.77083" style="fill:none;stroke:#303030;stroke-width:0.75;stroke-linecap:round;stroke-miterlimit:10;"/><path d="M26.17587,20.67504    c0,0-0.52141-2.40799,0.97962-4.4059c1.50103-1.99791,4.8157-1.77083,4.8157-1.77083" style="fill:none;stroke:#303030;stroke-width:0.75;stroke-linecap:round;stroke-miterlimit:10;"/><path d="M22.48025,22.55013    c0,0-1.55946,1.40531-2.15775,1.62973c-0.59839,0.22433-2.87979,1.83091-3.06682,5.49576    c-0.18694,3.66476-0.71046,4.26315-0.71046,4.26315" style="fill:none;stroke:#303030;stroke-width:0.75;stroke-linecap:round;stroke-miterlimit:10;"/><path d="M27.48739,22.46057    c0,0,1.74419,2.19725,2.51749,2.39053c0.7732,0.19328,2.07821,2.1561,2.15068,3.03541" style="fill:none;stroke:#303030;stroke-width:0.75;stroke-linecap:round;stroke-miterlimit:10;"/><path d="M31.57297,35.20288    c0,0-0.72231-1.94234-0.72231-2.95723c0-1.01499-0.12089-3.38311-0.12089-3.38311" style="fill:none;stroke:#303030;stroke-width:0.75;stroke-linecap:round;stroke-miterlimit:10;"/><line style="fill:none;stroke:#303030;stroke-width:0.75;stroke-linecap:round;stroke-miterlimit:10;" x1="32.43032" x2="32.69901" y1="29.67846" y2="30.96215"/><path d="M23.3308,16.93863    c0,0-2.49985-1.12109-4.16706-0.42643" style="fill:none;stroke:#303030;stroke-width:0.75;stroke-linecap:round;stroke-miterlimit:10;"/><path d="M26.73173,16.93863    c0.01029-0.0203,1.00286-0.68116,2.29803-0.47272" style="fill:none;stroke:#303030;stroke-width:0.75;stroke-linecap:round;stroke-miterlimit:10;"/><path d="M15.31444,19.01215    c0,0-0.47796,1.209-0.19686,1.85562c0.28119,0.64662-1.39593,2.4824-1.30242,4.30577" style="fill:none;stroke:#303030;stroke-width:0.75;stroke-linecap:round;stroke-miterlimit:10;"/><line style="fill:none;stroke:#303030;stroke-width:0.75;stroke-linecap:round;stroke-miterlimit:10;" x1="15.56165" x2="15.68409" y1="17.58277" y2="16.15982"/><path d="M13.48941,34.05975    c0.02811-0.12209,1.42763-2.11292,1.20808-3.40276s0.35679-3.02567,0.74096-3.72198" style="fill:none;stroke:#303030;stroke-width:0.75;stroke-linecap:round;stroke-miterlimit:10;"/><path d="M27.36246,38.71165    c0,0-0.55806-1.6402,0-2.84589" style="fill:none;stroke:#303030;stroke-width:0.75;stroke-linecap:round;stroke-miterlimit:10;"/><path d="M23.41155,30.44138    c0,0,1.54696-0.54484,2.86768,0" style="fill:none;stroke:#303030;stroke-width:0.75;stroke-linecap:round;stroke-miterlimit:10;"/><path d="M26.43207,12.82917    c0,0,0.87637-0.88757,2.03715-1.1266" style="fill:none;stroke:#303030;stroke-width:0.75;stroke-linecap:round;stroke-miterlimit:10;"/><path d="M34.47756,18.59858    c0,0,0.68272,1.77515,0.5803,3.07243c-0.10242,1.29728-0.35459,3.04569,0.01047,3.74183" style="fill:none;stroke:#303030;stroke-width:0.75;stroke-linecap:round;stroke-miterlimit:10;"/><path d="M19.7309,37.08881    c0,0-0.80269-1.59105-0.21817-2.2994" style="fill:none;stroke:#303030;stroke-width:0.75;stroke-linecap:round;stroke-miterlimit:10;"/><path d="M19.92014,33.52033    c0,0,0.31389-1.00351,0.26025-1.35764" style="fill:none;stroke:#303030;stroke-width:0.75;stroke-linecap:round;stroke-miterlimit:10;"/><path d="M17.80565,8.32442    c0,0,2.33809-0.49578,3.58199,0.7925" style="fill:none;stroke:#303030;stroke-width:0.75;stroke-linecap:round;stroke-miterlimit:10;"/><path d="M29.82143,8.67378    c0,0,1.09508-0.6943,2.93573,0.16967" style="fill:none;stroke:#303030;stroke-width:0.75;stroke-linecap:round;stroke-miterlimit:10;"/><path d="M38.0353,38.21707    c0,0-0.77118-2.18458-2.11137-3.21766c-1.34027-1.03317-1.61953-1.59161-1.61953-2.37344" style="fill:none;stroke:#303030;stroke-width:0.75;stroke-linecap:round;stroke-miterlimit:10;"/><path d="M21.18618,40.84782    c0,0,0.06669-2.67567,1.38308-3.96579c1.31648-1.29002,0.68842-3.05791,0.68842-3.05791" style="fill:none;stroke:#303030;stroke-width:0.75;stroke-linecap:round;stroke-miterlimit:10;"/></g></g></svg>