<?xml version="1.0" ?><svg style="enable-background:new 0 0 48 48;" version="1.1" viewBox="0 0 48 48" xml:space="preserve" xmlns="http://www.w3.org/2000/svg" xmlns:xlink="http://www.w3.org/1999/xlink"><g id="Icons"><g><path d="M9.98225,25.05301l-1.7696,1.7543c0,0-1.3516,6.0679,3.5372,9.9215l2.3337-0.1157" style="fill:#07C8E6;"/><path d="M38.01777,25.05301l1.76958,1.7543c0,0,1.3516,6.0679-3.5372,9.9215l-2.3336-0.1157" style="fill:#07C8E6;"/><path d="M38.01777,25.02838c0,5.30289-1.70921,9.47489-5.26233,12.32496    c-0.49101,0.39386-2.01494,1.03074-2.55023,1.35107c-1.93797,1.15977-3.74772,2.05645-6.09268,2.05645    c-2.37177,0-4.60484-0.67183-6.55868-1.85647c-0.27328-0.1657-0.31573-0.73276-0.5777-0.91808    c-0.26198-0.18533-0.74347,0.01108-0.99337-0.19301c-3.49852-2.85721-5.77549-7.51022-5.77549-12.76493    c0-8.68881,6.22559-15.73248,13.90524-15.73248S38.01777,16.33956,38.01777,25.02838z" style="fill:#1D97FF;"/><path d="M33.73933,26.5269c0,0,3.13814,2.34546,2.77496,5.62147c0,0-0.76304,4.58768-5.21624,5.52128    l0.83129-1.40274L33.73933,26.5269z" style="fill:#07649E;"/><path d="M27.98505,14.13641v3.9902l-1.40929,3.2644c-0.22341,0.5176-0.73321,0.8528-1.297,0.8528h-3.81991    c-0.5996,0-1.1339-0.3785-1.3327-0.9441l-1.0647-3.028v-4.5162h-0.8595l0.5512-4.1535c0,0,0.1632-2.8294,2.4485-2.9382h4.8427    c0,0,1.85,0.1451,2.15841,2.1402l0.526,5.1607l-1.30961-0.0563" style="fill:#07C8E6;"/><path d="M14.28982,26.5269c0,0-3.13814,2.34546-2.77497,5.62147c0,0,0.76304,4.58768,5.21624,5.52128    l-0.83129-1.40274L14.28982,26.5269z" style="fill:#07649E;"/><rect height="3.8504" style="fill:#71F2FF;" width="5.1434" x="20.80265" y="18.39341"/><path d="M19.06145,13.75551l1.12946,4.09758c0,0-0.03527,0.48062,1.2168,0.54032    c1.25207,0.0597,4.26842,0,4.26842,0s0.68648,0.35419,1.38585-1.72738s0.92306-2.57732,0.92306-2.57732L19.06145,13.75551z" style="fill:#71F2FF;"/><path d="M18.48055,11.97631h10.0598L28.18178,8.5459c-0.11181-1.06968-1.01356-1.88209-2.08907-1.88209    h-4.9304c-1.0231,0-1.89738,0.73715-2.07025,1.74554L18.48055,11.97631z" style="fill:#71F2FF;"/><path d="M33.73933,26.5269l-1.60999,9.74002c0,0-0.74,2.11-3,3.03l-2.75968,1.42189    c-0.70311,0.36227-1.47337,0.58468-2.26365,0.61707c-0.00887,0.00037-0.20265,0.00043-0.21062,0.00011    c-0.79244-0.0322-1.56477-0.2559-2.26937-0.61995l-2.74668-1.41912c-2.27-0.92-3-3.03-3-3.03l-1.61999-9.74002    c2.58766-3.20049,7.58052,0.35443,9.74139,5.16919C25.94606,26.71239,31.51422,23.65959,33.73933,26.5269z" style="fill:#F9D9C0;"/><path d="    M18.48055,10.78401c0,0-8.8792,3.2368-8.4856,14.8279c0,0-0.0127,10.0841,6.9812,12.3744" style="fill:none;stroke:#303030;stroke-width:0.75;stroke-linecap:round;stroke-linejoin:round;stroke-miterlimit:10;"/><path d="    M9.98225,25.05301l-1.7696,1.7543c0,0-1.3516,6.0679,3.5372,9.9215l2.54653-0.11869" style="fill:none;stroke:#303030;stroke-width:0.75;stroke-linecap:round;stroke-linejoin:round;stroke-miterlimit:10;"/><path d="    M24.00076,31.69611c0,0-4.12611-8.1941-8.97241-5.8378c0,0-3.93459,2.0022-3.51059,6.828" style="fill:none;stroke:#303030;stroke-width:0.75;stroke-linecap:round;stroke-linejoin:round;stroke-miterlimit:10;"/><path d="    M31.02395,37.98631c6.99381-2.2903,6.9811-12.3744,6.9811-12.3744c0.39371-11.5911-8.4856-14.8279-8.4856-14.8279l-1.1633-0.4747" style="fill:none;stroke:#303030;stroke-width:0.75;stroke-linecap:round;stroke-linejoin:round;stroke-miterlimit:10;"/><path d="    M38.01777,25.05301l1.76958,1.7543c0,0,1.3516,6.0679-3.5372,9.9215l-2.64636-0.14183" style="fill:none;stroke:#303030;stroke-width:0.75;stroke-linecap:round;stroke-linejoin:round;stroke-miterlimit:10;"/><path d="    M23.99925,31.69611c0,0,4.1262-8.1941,8.97251-5.8378c0,0,3.93449,2.0022,3.51059,6.828" style="fill:none;stroke:#303030;stroke-width:0.75;stroke-linecap:round;stroke-linejoin:round;stroke-miterlimit:10;"/><path d="    M33.73935,26.52692l-1.61,9.74c0,0-0.74,2.11-3,3.03l-2.75968,1.42189c-0.70311,0.36227-1.47337,0.58468-2.26365,0.61707    c-0.00887,0.00037-0.20265,0.00043-0.21062,0.00011c-0.79244-0.0322-1.56477-0.2559-2.26937-0.61995l-2.74668-1.41912    c-2.27-0.92-3-3.03-3-3.03l-1.62-9.74" style="fill:none;stroke:#303030;stroke-width:0.75;stroke-linecap:round;stroke-linejoin:round;stroke-miterlimit:10;"/><path d="    M27.98505,14.13641v3.9902l-1.40929,3.2644c-0.22341,0.5176-0.73321,0.8528-1.297,0.8528h-3.81991    c-0.5996,0-1.1339-0.3785-1.3327-0.9441l-1.0647-3.028v-4.5162h-0.8595l0.5512-4.1535c0,0,0.1632-2.8294,2.4485-2.9382h4.8427    c0,0,1.85,0.1451,2.15841,2.1402l0.526,5.1607l-9.66731-0.2092" style="fill:none;stroke:#303030;stroke-width:0.75;stroke-linecap:round;stroke-linejoin:round;stroke-miterlimit:10;"/><path d="    M27.94932,14.02506l-1.20517,3.58695c-0.1689,0.5025-0.6398,0.8411-1.1699,0.8411h-4.32749    c-0.56091,0-1.05121-0.3783-1.19371-0.9208l-0.9916-3.7768" style="fill:none;stroke:#303030;stroke-width:0.75;stroke-linecap:round;stroke-linejoin:round;stroke-miterlimit:10;"/><line style="fill:none;stroke:#303030;stroke-width:0.75;stroke-linecap:round;stroke-linejoin:round;stroke-miterlimit:10;" x1="25.94605" x2="25.94605" y1="18.39341" y2="21.95361"/><line style="fill:none;stroke:#303030;stroke-width:0.75;stroke-linecap:round;stroke-linejoin:round;stroke-miterlimit:10;" x1="20.80265" x2="20.80265" y1="21.88101" y2="18.45311"/><line style="fill:none;stroke:#303030;stroke-width:0.75;stroke-linecap:round;stroke-linejoin:round;stroke-miterlimit:10;" x1="28.40593" x2="18.48055" y1="11.97631" y2="11.97631"/><g><polyline points="     21.19015,36.68921 21.78935,37.07791 26.58276,37.07791 27.34385,36.52731    " style="fill:none;stroke:#303030;stroke-width:0.75;stroke-linecap:round;stroke-linejoin:round;stroke-miterlimit:10;"/><line style="fill:none;stroke:#303030;stroke-width:0.75;stroke-linecap:round;stroke-linejoin:round;stroke-miterlimit:10;" x1="23.02165" x2="24.79295" y1="38.70441" y2="38.70441"/></g><path d="M14.41108,29.62981c0,0-2.12691,2.5782,0.7985,4.4525L14.41108,29.62981z" style="fill:#303030;"/><path d="M33.59076,29.62981c0,0,1.96659,2.5782-0.73831,4.4525L33.59076,29.62981z" style="fill:#303030;"/><path d="M15.87725,14.69621    c0,0-3.5068,3.9103-3.5378,7.0447" style="fill:none;stroke:#303030;stroke-width:0.75;stroke-linecap:round;stroke-miterlimit:10;"/><line style="fill:none;stroke:#303030;stroke-width:0.75;stroke-linecap:round;stroke-miterlimit:10;" x1="12.14265" x2="12.02905" y1="23.32641" y2="24.50021"/><path d="M35.64305,28.55911    c0,0,1.4765-6.6177-2.0762-11.2761" style="fill:none;stroke:#303030;stroke-width:0.75;stroke-linecap:round;stroke-miterlimit:10;"/></g></g></svg>