<?xml version="1.0" ?><svg style="enable-background:new 0 0 48 48;" version="1.1" viewBox="0 0 48 48" xml:space="preserve" xmlns="http://www.w3.org/2000/svg" xmlns:xlink="http://www.w3.org/1999/xlink"><g id="Icons"><g><path d="M11.12558,28.22808c-2.79973-2.68918-1.73604-7.23354-1.73604-7.23354s0.45957-1.38711,0.79148,0    c0.34033,1.38711,1.33609,6.09313,3.2763,6.09313c0,0,1.6595,0.41705,2.38286-1.57428l0.94455-2.41688    c0,0,1.96582-5.71019,6.32293-3.68484c0,0,2.34875,0.94464,1.30206,4.51885c-1.05528,3.57421-3.41254,4.91029-6.12724,4.79965    c0,0-1.41262-0.08513-2.27213-0.39153c-0.79999-0.28081-2.61256-0.39995-3.54869-0.0085" style="fill:#F4F4F4;"/><path d="M11.69578,29.60341c0,0,1.94678-0.3232,2.02261-1.08793    c0.07583-0.76473,0.47372-0.48647,1.09618-0.40312s1.65887,0.578,3.0664,0.5836s2.93258-0.43093,4.11302-1.00406    c1.18043-0.57314,2.42834-0.56012,2.68586,0.61421s-0.10369,3.57763-4.66308,3.68987    C15.45738,32.10823,12.47888,31.19464,11.69578,29.60341z" style="fill:#F9D9C0;"/><path d="M9.85469,28.23871c0,0-1.32112-0.35707-1.35682,0.62486c0,0,0.28568,1.10675,2.19578,1.01754    c0,0,6.23186-1.571,1.07114-1.571C11.55059,28.31011,9.85469,28.23871,9.85469,28.23871z" style="fill:#464747;"/><path d="M8.81367,17.98831c-1.89734-2.94474-2.41023-7.04289-2.43699-8.70381    C6.37039,8.89429,6.79683,8.65255,7.126,8.86232l6.0166,3.83455" style="fill:#1286DD;"/><path d="M21.61417,31.83418c0,0,6.46086,1.60066,8.78361,9.66662c0,0,4.27085-4.66928,1.10926-14.38301    c0,0,6.19524,0.42647,9.46739,6.73748c0,0,3.28046-12.30755-7.45302-18.13366c0,0,2.16506-2.33614,8.10197-3.60814    c0,0-5.32309-4.93635-13.90389-4.67436c0,0-0.39113-1.5057-0.956-1.44558c-0.42365,0.04508-1.99172,1.73867-2.42907,1.81078    c-1.31206,0.21633-2.24831,0.48275-3.67587,0.98061c0,0-7.82269,1.73475-11.15058,8.46598c0,0-1.32831-0.54674-1.38253,2.14668    s0.95043,2.75953,0.95043,2.75953s-0.3213-1.51562,0.68373-1.70778s0.60332,5.9871,3.38299,6.59377    c0,0,2.15348,0.87379,3.15426-2.69818s2.3667-4.8142,4.63505-5.36788s3.69415,1.51706,3.70392,2.66014    s-0.39494,3.12069-2.22441,5.71284c0,0,3.05659-0.2028,2.18059,2.14018C23.716,31.83316,21.61417,31.83418,21.61417,31.83418z" style="fill:#1D97FF;"/><path d="M20.9319,13.86633c0,0,3.29251,0.63106,4.44479,1.61875l0.16611-5.22006    c0.00982-0.30667-0.35293-0.47524-0.58102-0.27009l-4.02987,3.62443" style="fill:#F9D9C0;"/><path d="    M23.93645,8.06368c0,0-10.39444,1.24376-14.42847,9.1872" style="fill:none;stroke:#303030;stroke-width:0.75;stroke-linecap:round;stroke-linejoin:round;stroke-miterlimit:10;"/><path d="    M8.59301,17.55551c-1.89734-2.94474-2.18958-6.6101-2.21633-8.27101C6.37039,8.89429,6.79683,8.65255,7.126,8.86232    l6.0166,3.83455" style="fill:none;stroke:#303030;stroke-width:0.75;stroke-linecap:round;stroke-linejoin:round;stroke-miterlimit:10;"/><path d="    M19.48925,12.69687c0,0,4.7411-5.36073,6.44622-6.2175c0,0,1.7883-1.46949,1.7883,1.09426l-0.49907,8.3464" style="fill:none;stroke:#303030;stroke-width:0.75;stroke-linecap:round;stroke-linejoin:round;stroke-miterlimit:10;"/><path d="    M20.9319,13.86633c0,0,3.29251,0.63106,4.44479,1.61875l0.16611-5.22006c0.00982-0.30667-0.35293-0.47524-0.58102-0.27009    l-4.02987,3.62443" style="fill:none;stroke:#303030;stroke-width:0.75;stroke-linecap:round;stroke-linejoin:round;stroke-miterlimit:10;"/><path d="    M27.72377,7.57362c0,0,8.41212-0.40332,13.89962,4.53984c0,0-6.53054,1.71752-8.29918,3.80656" style="fill:none;stroke:#303030;stroke-width:0.75;stroke-linecap:round;stroke-linejoin:round;stroke-miterlimit:10;"/><path d="    M29.74149,14.83453c0,0,14.74337,1.94757,11.23294,19.02074c0,0-2.49979-5.55003-9.46739-6.73748" style="fill:none;stroke:#303030;stroke-width:0.75;stroke-linecap:round;stroke-linejoin:round;stroke-miterlimit:10;"/><path d="    M29.96463,25.13249c0,0,6.27614,6.48892,0.53185,16.80733c0,0-1.59563-8.66964-8.88231-10.10564" style="fill:none;stroke:#303030;stroke-width:0.75;stroke-linecap:round;stroke-linejoin:round;stroke-miterlimit:10;"/><path d="    M10.65609,18.30359c0,0-1.74658-2.35647-2.41192,0c0,0-0.58216,2.30101,0.8317,3.85351" style="fill:none;stroke:#303030;stroke-width:0.75;stroke-linecap:round;stroke-linejoin:round;stroke-miterlimit:10;"/><path d="    M11.12558,28.22808c-2.79973-2.68918-1.73604-7.23354-1.73604-7.23354s0.45957-1.38711,0.79148,0    c0.34033,1.38711,1.24663,5.87383,3.2763,6.09313c0,0,1.7091,0.23448,2.38286-1.57428l0.94455-2.41688    c0,0,1.96582-5.71019,6.32293-3.68484c0,0,2.34875,0.94464,1.30206,4.51885c-1.05528,3.57421-3.41254,4.91029-6.12724,4.79965    c0,0-1.41262-0.08513-2.27213-0.39153c-0.79999-0.28081-2.61256-0.39995-3.54869-0.0085" style="fill:none;stroke:#303030;stroke-width:0.75;stroke-linecap:round;stroke-linejoin:round;stroke-miterlimit:10;"/><path d="    M9.85469,28.23871c0,0-1.32112-0.35707-1.35682,0.62486c0,0,0.28568,1.10675,2.19578,1.01754c0,0,6.23186-1.571,1.07114-1.571    C11.55059,28.31011,9.85469,28.23871,9.85469,28.23871z" style="fill:none;stroke:#303030;stroke-width:0.75;stroke-linecap:round;stroke-linejoin:round;stroke-miterlimit:10;"/><path d="    M11.69578,29.60341c0,0,1.42582,2.34849,6.12087,2.47348c0,0,5.56977,0.39277,8.46181-2.92773" style="fill:none;stroke:#303030;stroke-width:0.75;stroke-linecap:round;stroke-linejoin:round;stroke-miterlimit:10;"/><path d="    M21.994,27.69189c0.03464-0.02587,2.03509-0.72071,2.53496,0.38613c0,0,1.00558,2.20366-2.17496,3.44939" style="fill:none;stroke:#303030;stroke-width:0.75;stroke-linecap:round;stroke-linejoin:round;stroke-miterlimit:10;"/><path d="M18.01028,30.56143c0,0,4.28543-0.78865,4.37933-1.61778    C22.38961,28.94365,24.84945,30.98901,18.01028,30.56143z" style="fill:#303030;"/><path d="    M10.53634,17.99477c0,0,1.85481-2.96367,3.39854-4.05926" style="fill:none;stroke:#303030;stroke-width:0.75;stroke-linecap:round;stroke-linejoin:round;stroke-miterlimit:10;"/><line style="fill:none;stroke:#303030;stroke-width:0.75;stroke-linecap:round;stroke-linejoin:round;stroke-miterlimit:10;" x1="15.01549" x2="16.03241" y1="13.13969" y2="12.42226"/><path d="    M40.97443,33.85527c0,0,0.34184-9.29139-6.06849-13.40595" style="fill:none;stroke:#303030;stroke-width:0.75;stroke-linecap:round;stroke-linejoin:round;stroke-miterlimit:10;"/><path d="    M20.75341,20.57732c0,0,2.5835-0.47799,2.5835,1.8116" style="fill:none;stroke:#303030;stroke-width:0.75;stroke-linecap:round;stroke-linejoin:round;stroke-miterlimit:10;"/></g></g></svg>