<?xml version="1.0" ?><svg style="enable-background:new 0 0 48 48;" version="1.1" viewBox="0 0 48 48" xml:space="preserve" xmlns="http://www.w3.org/2000/svg" xmlns:xlink="http://www.w3.org/1999/xlink"><g id="Icons"><g><path d="M37.02726,22.69776c-0.02708-0.04371-0.03135-0.05036,0.06319-0.32305    c0.10736-0.30785,0.28647-0.82473,0.39288-1.75492c0.07506-0.6575-0.18053-1.03851-0.40808-1.24374    c-0.57246-0.51498-1.55681-0.46842-2.07987-0.39716l-0.48362-3.2818c-0.00119-0.00819-0.00623-0.01449-0.00796-0.02251    c0.71635-1.08887,1.0125-2.45143,0.69824-3.81893c-0.29597-1.2865-1.07509-2.38106-2.19436-3.08227    c-0.76558-0.47852-1.62932-0.71629-2.50981-0.73529C23.00858,5.45453,18.36778,7.9524,18.16671,8.06488    c-0.14876-0.01354-0.29229-0.04495-0.44449-0.04495c-2.72596,0-4.9436,2.21764-4.9436,4.9436    c0,0.94456,0.28006,1.81929,0.74141,2.57068c-0.03747,0.04834-0.07399,0.09905-0.08344,0.16289l-0.48267,3.27515    c-0.53303-0.06746-1.47462-0.09501-2.02903,0.40381c-0.22756,0.20523-0.48315,0.58624-0.40809,1.24374    c0.10642,0.93019,0.28552,1.44707,0.39288,1.75492c0.09454,0.27269,0.09026,0.27934,0.06318,0.32305    c-0.1335,0.21378-0.94824,2.03996-0.2955,2.94545c0.1734,0.24134,0.50453,0.48458,1.12687,0.43042l0.06841,0.23754    l-0.95157,6.45718c-0.01805,0.12162,0.0266,0.24419,0.11829,0.3259l3.78443,3.36161l2.51551,3.06897    c0.05416,0.06651,0.13017,0.11212,0.21473,0.12732l3.40247,0.6423c0.28457,0.17578,1.42664,0.82568,2.76302,0.82568    c0.06176,0,0.12589,0.0057,0.18433-0.00665c0.06033,0.0019,0.11972,0.0019,0.19953,0.0019v-0.0057    c0.02803,0.0057,0.05606,0.00855,0.08219,0.00855c0.01283,0,0.11734,0.00475,0.12732,0.0019l0.11924-0.0133    c1.24659-0.06271,2.28985-0.64895,2.55826-0.81237l3.40389-0.6423c0.08456-0.0152,0.16057-0.06081,0.21473-0.12732    l2.50268-3.04331c0.02851-0.02185,0.05463-0.04751,0.07744-0.07601l0.23421-0.20903    c0.05036-0.01521,0.09787-0.04086,0.13824-0.07696l3.39914-3.02526c0.09169-0.08171,0.13634-0.20428,0.11829-0.3259    l-0.95157-6.45718l0.06841-0.23754c0.62519,0.05511,0.953-0.18908,1.12687-0.43042    C37.9755,24.73772,37.16075,22.91154,37.02726,22.69776z" style="fill:#F43735;"/><circle cx="17.54752" cy="12.65667" r="4.70583" style="fill:#F95555;"/><ellipse cx="30.56179" cy="12.65667" rx="4.70579" ry="4.70585" style="fill:#F95555;" transform="matrix(0.97458 -0.22402 0.22402 0.97458 -2.05863 7.16829)"/><polyline points="15.16878,18.82764 16.06511,20.41351 20.20208,20.41351 21.20185,18.82764   " style="fill:#FFFFFF;"/><polyline points="32.23379,18.82764 31.33746,20.41351 27.20048,20.41351 26.20072,18.82764   " style="fill:#FFFFFF;"/><path d="    M13.6051,15.22716l-2.67674,17.83957l3.93009,3.49829l2.58564,3.15448l3.56814,0.67227c0,0,1.31518,0.87906,2.82947,0.82734" style="fill:none;stroke:#303030;stroke-width:0.75;stroke-linecap:round;stroke-linejoin:round;stroke-miterlimit:10;"/><path d="    M34.43292,15.52107l2.58564,17.54565l-3.93019,3.49829l-2.58565,3.15448l-3.56814,0.67227c0,0-1.31518,0.87906-2.82947,0.82734" style="fill:none;stroke:#303030;stroke-width:0.75;stroke-linecap:round;stroke-linejoin:round;stroke-miterlimit:10;"/><path d="    M11.73267,25.7059c-2.14329,0.51759-1.06291-2.43096-0.80431-2.84463c0.25851-0.41376-0.20688-0.56883-0.41376-2.37876    c-0.20679-1.80993,2.44756-1.2174,2.44756-1.2174l0.70691,3.85467l1.91337,2.12025l-0.72399,11.32498" style="fill:none;stroke:#303030;stroke-width:0.75;stroke-linecap:round;stroke-linejoin:round;stroke-miterlimit:10;"/><path d="    M36.26732,25.7059c2.14328,0.51759,1.06291-2.43096,0.80441-2.84463c-0.2586-0.41376,0.20678-0.56883,0.41367-2.37876    c0.20688-1.80993-2.44756-1.2174-2.44756-1.2174l-0.70691,3.85467l-1.91328,2.12025l0.7239,11.32498" style="fill:none;stroke:#303030;stroke-width:0.75;stroke-linecap:round;stroke-linejoin:round;stroke-miterlimit:10;"/><circle cx="17.54752" cy="12.65667" r="4.70583" style="fill:none;stroke:#303030;stroke-width:0.75;stroke-linecap:round;stroke-linejoin:round;stroke-miterlimit:10;"/><line style="fill:none;stroke:#303030;stroke-width:0.75;stroke-linecap:round;stroke-linejoin:round;stroke-miterlimit:10;" x1="21.8224" x2="20.47787" y1="14.07011" y2="13.89778"/><line style="fill:none;stroke:#303030;stroke-width:0.75;stroke-linecap:round;stroke-linejoin:round;stroke-miterlimit:10;" x1="15.83078" x2="16.99589" y1="8.27616" y2="10.82947"/><line style="fill:none;stroke:#303030;stroke-width:0.75;stroke-linecap:round;stroke-linejoin:round;stroke-miterlimit:10;" x1="16.15483" x2="14.74743" y1="12.17401" y2="8.87646"/><ellipse cx="30.56179" cy="12.65667" rx="4.70579" ry="4.70585" style="fill:none;stroke:#303030;stroke-width:0.75;stroke-linecap:round;stroke-linejoin:round;stroke-miterlimit:10;" transform="matrix(0.97458 -0.22402 0.22402 0.97458 -2.05863 7.16829)"/><line style="fill:none;stroke:#303030;stroke-width:0.75;stroke-linecap:round;stroke-linejoin:round;stroke-miterlimit:10;" x1="30.14193" x2="30.00875" y1="17.13957" y2="15.79061"/><line style="fill:none;stroke:#303030;stroke-width:0.75;stroke-linecap:round;stroke-linejoin:round;stroke-miterlimit:10;" x1="34.44645" x2="32.21901" y1="10.00232" y2="11.70977"/><line style="fill:none;stroke:#303030;stroke-width:0.75;stroke-linecap:round;stroke-linejoin:round;stroke-miterlimit:10;" x1="33.61863" x2="30.72017" y1="9.08095" y2="11.19123"/><polyline points="    14.2379,18.0003 14.85845,18.82764 22.5464,18.82764 22.96007,18.0003   " style="fill:none;stroke:#303030;stroke-width:0.75;stroke-linecap:round;stroke-linejoin:round;stroke-miterlimit:10;"/><polyline points="    15.16878,18.82764 16.06511,20.41351 20.20208,20.41351 21.20185,18.82764   " style="fill:none;stroke:#303030;stroke-width:0.75;stroke-linecap:round;stroke-linejoin:round;stroke-miterlimit:10;"/><polyline points="    33.16466,18.0003 32.54411,18.82764 24.85617,18.82764 24.4425,18.0003   " style="fill:none;stroke:#303030;stroke-width:0.75;stroke-linecap:round;stroke-linejoin:round;stroke-miterlimit:10;"/><polyline points="    32.23379,18.82764 31.33746,20.41351 27.20048,20.41351 26.20072,18.82764   " style="fill:none;stroke:#303030;stroke-width:0.75;stroke-linecap:round;stroke-linejoin:round;stroke-miterlimit:10;"/><path d="    M15.41001,30.101c0,0,8.67879-3.78952,17.35364,0.553" style="fill:none;stroke:#303030;stroke-width:0.75;stroke-linecap:round;stroke-linejoin:round;stroke-miterlimit:10;"/><path d="M26.93459,40.39176l-1.38887-6.18834h-3.55097l-0.9825,6.18834c0,0,1.9127,0.91043,3.29112,0.82954    C25.68168,41.14042,26.93459,40.39176,26.93459,40.39176z" style="fill:#303030;"/><path d="    M21.47763,30.81482c0,0,2.18915-0.81726,4.3784,0" style="fill:none;stroke:#303030;stroke-width:0.75;stroke-linecap:round;stroke-linejoin:round;stroke-miterlimit:10;"/><path d="    M18.18527,7.95087c0,0,4.74046-2.63737,12.37657,0" style="fill:none;stroke:#303030;stroke-width:0.75;stroke-linecap:round;stroke-linejoin:round;stroke-miterlimit:10;"/><line style="fill:none;stroke:#303030;stroke-width:0.75;stroke-linecap:round;stroke-linejoin:round;stroke-miterlimit:10;" x1="22.96007" x2="22.61529" y1="21.62017" y2="25.0676"/><polygon points="10.92836,33.06673 12.96216,19.2651 13.66907,23.11978 15.58245,25.24003     14.88331,36.17649 14.42206,36.17649   " style="fill:#303030;"/><polygon points="37.07172,33.06673 35.03783,19.2651 34.33092,23.11978 32.41764,25.24003     33.11678,36.17649 33.57804,36.17649   " style="fill:#303030;"/><path d="    M20.60606,9.08095c0,0,1.9957-0.89902,4.31632-0.58044" style="fill:none;stroke:#303030;stroke-width:0.75;stroke-linecap:round;stroke-linejoin:round;stroke-miterlimit:10;"/></g></g></svg>