<?xml version="1.0" encoding="utf-8"?>
<!-- Generator: Adobe Illustrator 16.0.0, SVG Export Plug-In . SVG Version: 6.00 Build 0)  -->
<!DOCTYPE svg PUBLIC "-//W3C//DTD SVG 1.1//EN" "http://www.w3.org/Graphics/SVG/1.1/DTD/svg11.dtd">
<svg version="1.1" id="Layer_1" xmlns="http://www.w3.org/2000/svg" xmlns:xlink="http://www.w3.org/1999/xlink" x="0px" y="0px"
	 width="612px" height="612px" viewBox="0 0 612 612" enable-background="new 0 0 612 612" xml:space="preserve">
<g>
	<path fill="#FFFFFF" d="M306.239,417.743c0,0-27.612,6.573-49.367,12.789l17.93,154.674c1.195,0.119,2.271,0.239,3.466,0.357
		l17.571-122.878h20.201l17.57,122.878c1.075-0.118,2.151-0.238,3.228-0.357l17.69-150.85L306.239,417.743z"/>
	<path fill="#474648" d="M256.992,430.532c21.635-6.216,49.366-12.789,49.366-12.789l48.291,16.613l5.021-43.271V366.94
		c-0.837-0.358-1.674-0.718-2.511-1.075l-101.123-0.718c-1.195,0.599-2.391,1.075-3.706,1.674v24.265L256.992,430.532z"/>
	<path fill="#DCC5A1" d="M252.331,268.688v81.997v40.401c14.702,17.452,34.186,26.417,53.669,26.656V219.082
		C279.225,219.082,252.331,235.577,252.331,268.688z"/>
	<path fill="#EDD9B4" d="M306,219.082v198.661c19.483,0.119,38.848-8.606,53.67-26.656v-40.401v-81.997
		C359.67,235.577,332.775,219.082,306,219.082z"/>
	<path fill="#BC9F82" d="M252.331,327.975v3.825c0,0,27.373,32.513,53.55,33.708s53.669-31.437,53.669-31.437v-5.978"/>
	<rect x="252.331" y="327.975" fill="none" width="107.219" height="37.533"/>
	<g>
		<path fill="#DCC5A1" d="M194.597,191.59c-0.119,0-0.239,0-0.358,0.119c-9.443,3.108-12.79,18.886-7.411,35.144
			c3.228,9.92,9.084,17.81,15.181,21.754c4.781,22.711,10.519,39.325,13.148,43.508c11.833,19.125,64.308,61.2,90.963,61.2V48.869
			C210.614,48.869,191.608,124.533,194.597,191.59z"/>
		<path fill="#EDD9B4" d="M417.643,191.829C420.631,124.653,401.625,48.87,306.12,48.87v304.445
			c26.656,0,79.13-42.074,90.964-61.199c2.63-4.303,8.486-21.037,13.268-44.107c5.857-4.064,11.236-11.714,14.345-21.156
			C430.073,210.715,426.846,195.176,417.643,191.829z"/>
	</g>
	<path fill="#231F20" d="M380.109,54.129c-55.701-43.868-141.764-17.691-167.702,18.886
		c-32.513,45.78-21.038,115.108-13.268,167.344v-0.238c0.12,0.479,0.239,1.076,0.358,1.674c0.12,0.479,1.076,1.673,1.195,1.912
		c0.239,0.479,2.271,0,2.988-0.358c0.239-0.12,0.359-0.478,0.359-0.717c0.358-4.662,0-13.746,0-13.866
		c-0.598-7.172-2.152-14.104-3.228-21.157c5.259-32.871,20.679-39.804,28.688-79.488c1.673-2.63,3.586-5.259,5.499-7.77
		c2.271-2.869,4.542-5.618,7.172-8.128c1.434-0.836,2.749-1.793,4.064-2.749c30.002-10.997,60.961,2.151,89.17,13.746
		c10.878,4.423,22.949,9.682,34.902,8.726c5.141-0.358,8.966-3.705,9.443-8.008c13.507,40.641,24.743,59.407,31.317,89.17
		c-0.957,5.14-1.913,10.279-2.271,15.658c0,0.12-0.239,9.204,0,13.866c0,0.239,0.119,0.599,0.358,0.717
		c0.718,0.358,2.63,0.837,2.987,0.358c0.12-0.358,1.076-1.555,1.195-1.912c0.479-2.032,0.598-3.706,0.718-5.618
		c0.358-2.63,0.836-5.379,1.195-8.248C423.619,195.654,439.517,67.994,380.109,54.129 M295.601,97.16
		c-0.956-0.239-1.793-0.598-2.749-0.837c1.435,0.358,2.749,0.717,4.184,1.076C296.557,97.399,296.079,97.279,295.601,97.16"/>
	<rect x="252.331" y="349.013" fill="none" width="107.219" height="68.73"/>
	<g opacity="0.1">
		<g>
			<g>
				<g>
					<defs>
						<rect id="SVGID_1_" x="295.84" y="462.687" width="20.32" height="0.718"/>
					</defs>
					<clipPath id="SVGID_2_">
						<use xlink:href="#SVGID_1_"  overflow="visible"/>
					</clipPath>
					<polygon clip-path="url(#SVGID_2_)" fill="#010101" points="295.959,462.687 316.041,462.687 316.16,463.284 295.84,463.284 
											"/>
				</g>
			</g>
		</g>
	</g>
	<g>
		<path fill="#FFFFFF" d="M277.91,283.151c4.781,10.639,15.539,18.049,27.851,18.049c12.433,0,23.069-7.411,27.972-18.049H277.91z"
			/>
		<rect x="233.709" y="195.506" fill="#342214" width="36.291" height="10.5"/>
		<rect x="342.567" y="195.506" fill="#342214" width="36.291" height="10.5"/>
	</g>
	<path fill="#474648" d="M364.689,369.213l4.184,1.913C367.559,370.408,366.124,369.811,364.689,369.213z"/>
	<path fill="#474648" d="M231.413,376.146l19.005-8.485C243.844,370.528,237.509,373.396,231.413,376.146z"/>
	<path fill="#231F20" d="M252.331,366.822l-1.913,0.837C251.135,367.42,251.733,367.062,252.331,366.822L252.331,366.822z"/>
	<path fill="#231F20" d="M229.5,377.103L229.5,377.103c0.598-0.238,1.315-0.598,2.032-0.837L229.5,377.103z"/>
	<path fill="#231F20" d="M359.67,366.943L359.67,366.943c1.673,0.717,3.466,1.554,5.14,2.271L359.67,366.943z"/>
	<path fill="#231F20" d="M387.521,379.373l-18.647-8.247c6.574,2.868,12.79,5.737,18.767,8.486L387.521,379.373z"/>
	<path fill="#BE1E2D" d="M306,586.999L306,586.999L306,586.999z"/>
	<path fill="#474648" d="M227.109,574.688l-35.62-72.196l42.075-28.091l-51.398-24.024l47.215-73.394
		c-89.29,40.762-118.097,63.353-130.05,73.87c-4.064,3.586-7.77,9.204-11.117,16.257
		C120.249,517.552,169.137,556.04,227.109,574.688z"/>
	<path fill="#474648" d="M512.67,450.973c-11.834-10.398-38.848-31.915-124.91-71.479l41.836,70.882L378.198,474.4l42.073,28.091
		l-35.619,72.315c57.973-18.526,107.101-57.136,139.135-107.578C520.439,460.177,516.733,454.559,512.67,450.973z"/>
	<path fill="#231F20" d="M252.331,391.087v-24.265c-0.598,0.238-1.315,0.598-1.913,0.837l-19.005,8.485
		c-0.717,0.359-1.315,0.599-2.032,0.957l-47.215,73.393l51.398,24.025l-42.075,28.09l35.62,72.196
		c15.3,4.901,31.317,8.487,47.813,10.399l-17.93-154.674L252.331,391.087z"/>
	<path fill="#231F20" d="M378.197,474.4l51.397-24.024l-41.836-70.882c-5.977-2.75-12.191-5.618-18.767-8.487l-4.185-1.912
		c-1.674-0.718-3.347-1.554-5.14-2.271v24.146l-5.021,43.271l-17.69,150.968c16.375-1.912,32.393-5.498,47.692-10.399l35.619-72.315
		L378.197,474.4z"/>
	<path fill="#30A7DF" d="M316.041,462.687L316.041,462.687l13.387-20.679l-23.068-24.265l-24.025,24.265l13.626,20.679l0,0
		l-17.571,122.878c9.084,0.956,18.289,1.436,27.612,1.436l0,0c9.323,0,18.527-0.479,27.611-1.436L316.041,462.687z"/>
	<polygon fill="#E7E7E7" points="252.331,350.566 247.669,368.854 260.817,463.763 306.239,417.743 	"/>
	<polygon fill="#E7E7E7" points="359.67,350.566 363.375,368.615 350.943,464.719 306.239,417.743 	"/>
</g>
</svg>
