<?xml version="1.0" ?><svg style="enable-background:new 0 0 48 48;" version="1.1" viewBox="0 0 48 48" xml:space="preserve" xmlns="http://www.w3.org/2000/svg" xmlns:xlink="http://www.w3.org/1999/xlink"><g id="Icons"><g><path d="M8.53333,34.51313c9.09089,11.62927,21.90055,11.18624,30.91707,0.18211l-2.02848-1.05692    L10.69068,33.4986L8.53333,34.51313z" style="fill:#BFE1FF;"/><path d="M19.93538,28.99929c0,0,0.40997,3.18228-1.8717,3.4669    c-2.28167,0.28461-6.97779,0.67536-7.69219,1.17213c0,0,5.50858,7.44627,12.99312,7.18423s12.02359-4.99884,14.05732-7.18423    c0,0-3.16389-0.71085-5.64941-0.93232c-2.48551-0.22147-4.19341-0.53074-3.70789-3.70671H19.93538z" style="fill:#FFE7D7;"/><ellipse cx="31.12113" cy="24.10962" rx="0.68722" ry="1.23159" style="fill:#BFE1FF;"/><ellipse cx="16.93706" cy="24.10962" rx="0.68717" ry="1.23159" style="fill:#BFE1FF;"/><path d="M31.292,17.18923c0.0718,1.92416-0.81211,4.63652-0.81211,4.63652    c-0.47586,3.7153,0.87093,4.08772-2.41527,7.17354c-0.93374,0.869-1.74186,1.65823-3.04383,1.93315    c-2.21773,0.46107-3.60936-0.53207-5.09088-1.93315c-3.2862-3.08582-1.94839-3.45825-2.42426-7.17354    c0,0-0.87333-2.2678-0.71175-4.56438" style="fill:#FFE7D7;"/><path d="M17.62421,23.95222c0.00809-0.99963-0.84213-1.3947-2.16207-3.6312    c-1.32006-2.23639-0.07157-5.0432-0.07157-5.0432l1.82558,2.25844C16.13289,17.60865,17.02619,21.0727,17.62421,23.95222z" style="fill:#FFD24A;"/><path d="M32.59601,15.09951c0,0,1.31994,2.98512,0,5.22151    c-1.32005,2.23651-2.17016,2.63157-2.16207,3.6312c-0.00006-2.95451,1.54888-7.1704,0.07806-6.34357L32.59601,15.09951z" style="fill:#FFD24A;"/><path d="M29.53477,11.1918c-0.1048-0.17159-0.1906-0.41956-0.16203-0.79128    c0.00956-0.15259,0.03812-0.33376,0.09535-0.53403c0.56257-2.03075-2.04989-3.07954-2.04989-3.07954s-3.06055-3.32762-6.79804,0    c0,0-2.62202,1.04879-2.05945,3.07954c0.19061,0.67695,0.0858,1.08693-0.07635,1.32531" style="fill:#FFD24A;"/><path d="M18.71318,10.39619c0,0,2.8169,0.0306,4.28153-0.50812    c1.46463-0.53872,2.60916,0.13603,2.60916,0.13603s2.59213,0.37414,3.77842,0.27883l0.15248,0.88887    c0,0-4.19437,1.22609-5.4108,1.52579c-1.21643,0.2997-5.33728-1.49849-5.54332-1.4423S18.71318,10.39619,18.71318,10.39619z" style="fill:#1D97FF;"/><ellipse cx="24.04753" cy="10.75155" rx="1.1525" ry="1.50325" style="fill:#FFFFFF;"/><path d="M22.13387,12.04919c0,0-4.91474-2.18507-6.29578,0.42568    c-1.38093,2.61075,0.12187,5.77088,4.26489,5.6918c3.71939,1.6398,7.78276,0,7.78276,0    c4.14302,0.07908,5.64594-3.08104,4.26489-5.6918c-1.38104-2.61075-6.29578-0.42568-6.29578-0.42568    S23.99329,13.12677,22.13387,12.04919z" style="fill:#FFD24A;"/><path d="    M31.292,17.18923c0.0718,1.92416-0.81211,4.63652-0.81211,4.63652c-0.47586,3.7153,0.87093,4.08772-2.41527,7.17354    c-0.93374,0.869-1.74186,1.65823-3.04383,1.93315c-2.21773,0.46107-3.60936-0.53207-5.09088-1.93315    c-3.2862-3.08582-1.94839-3.45825-2.42426-7.17354c0,0-0.87333-2.2678-0.71175-4.56438" style="fill:none;stroke:#30302F;stroke-width:0.8;stroke-linecap:round;stroke-linejoin:round;stroke-miterlimit:10;"/><path d="    M22.13387,12.04919c0,0-4.91474-2.18507-6.29578,0.42568c-1.38093,2.61075,0.12187,5.77088,4.26489,5.6918    c3.71939,1.6398,7.78276,0,7.78276,0c4.14302,0.07908,5.64594-3.08104,4.26489-5.6918    c-1.38104-2.61075-6.29578-0.42568-6.29578-0.42568S23.99329,13.12677,22.13387,12.04919z" style="fill:none;stroke:#30302F;stroke-width:0.8;stroke-linecap:round;stroke-linejoin:round;stroke-miterlimit:10;"/><path d="    M15.39056,15.27781c0,0-1.24848,2.80681,0.07157,5.0432c1.31994,2.23651,2.17017,2.63158,2.16209,3.63121" style="fill:none;stroke:#30302F;stroke-width:0.8;stroke-linecap:round;stroke-linejoin:round;stroke-miterlimit:10;"/><path d="    M32.59601,15.09951c0,0,1.31994,2.98512,0,5.22151c-1.32005,2.23651-2.24166,2.63158-2.23357,3.6312" style="fill:none;stroke:#30302F;stroke-width:0.8;stroke-linecap:round;stroke-linejoin:round;stroke-miterlimit:10;"/><ellipse cx="31.12113" cy="24.10962" rx="0.68722" ry="1.23159" style="fill:none;stroke:#30302F;stroke-width:0.8;stroke-linecap:round;stroke-linejoin:round;stroke-miterlimit:10;"/><ellipse cx="16.93706" cy="24.10962" rx="0.68717" ry="1.23159" style="fill:none;stroke:#30302F;stroke-width:0.8;stroke-linecap:round;stroke-linejoin:round;stroke-miterlimit:10;"/><path d="    M29.53477,11.1918c-0.1048-0.17159-0.1906-0.41956-0.16203-0.79128c0.00956-0.15259,0.03812-0.33376,0.09535-0.53403    c0.56257-2.03075-2.04989-3.07954-2.04989-3.07954s-3.06055-3.32762-6.79804,0c0,0-2.62202,1.04879-2.05945,3.07954    c0.19061,0.67695,0.0858,1.08693-0.07635,1.32531" style="fill:none;stroke:#30302F;stroke-width:0.8;stroke-linecap:round;stroke-linejoin:round;stroke-miterlimit:10;"/><ellipse cx="24.04753" cy="10.75155" rx="1.1525" ry="1.50325" style="fill:none;stroke:#30302F;stroke-width:0.8;stroke-linecap:round;stroke-linejoin:round;stroke-miterlimit:10;"/><path d="M24.86946,26.76074c-0.74269-0.14465-0.82189,0.10753-0.82189,0.10753    s-0.07931-0.25218-0.82201-0.10753c-0.74281,0.14497-1.04981,0.12881-1.34691,0.06054c0,0,0.8913,1.28854,2.16891,1.27329    c1.2775,0.01525,2.1688-1.27329,2.1688-1.27329C25.91926,26.88955,25.61226,26.90571,24.86946,26.76074z" style="fill:#F43735;"/><path d="    M27.88575,18.16667c0,0,0.66577-0.29949,1.006-1.11148" style="fill:none;stroke:#30302F;stroke-width:0.8;stroke-linecap:round;stroke-linejoin:round;stroke-miterlimit:10;"/><path d="    M20.10742,18.16439c0,0-0.66578-0.29938-1.006-1.11148" style="fill:none;stroke:#30302F;stroke-width:0.8;stroke-linecap:round;stroke-linejoin:round;stroke-miterlimit:10;"/><path d="    M25.02103,9.84978c1.75426,0.61969,4.36126,0.54641,4.36126,0.54641" style="fill:none;stroke:#30302F;stroke-width:0.8;stroke-linecap:round;stroke-linejoin:round;stroke-miterlimit:10;"/><path d="    M18.71318,10.39619c0,0,2.66219,0.06634,4.41646-0.55335" style="fill:none;stroke:#30302F;stroke-width:0.8;stroke-linecap:round;stroke-linejoin:round;stroke-miterlimit:10;"/><path d="    M28.06462,28.99929c0,0-0.62003,3.00457,1.8717,3.4669c2.49173,0.46221,7.57624,0.3961,9.29307,2.04693" style="fill:none;stroke:#30302F;stroke-width:0.8;stroke-linecap:round;stroke-linejoin:round;stroke-miterlimit:10;"/><path d="    M19.93538,28.99929c0,0,0.62003,3.00457-1.8717,3.4669c-2.49173,0.46221-7.57624,0.3961-9.29307,2.04693" style="fill:none;stroke:#30302F;stroke-width:0.8;stroke-linecap:round;stroke-linejoin:round;stroke-miterlimit:10;"/><path d="    M28.60489,31.74295c0,0-4.02343,2.76435-9.21046,0" style="fill:none;stroke:#30302F;stroke-width:0.8;stroke-linecap:round;stroke-linejoin:round;stroke-miterlimit:10;"/><path d="    M37.62362,33.63832c0,0-13.18246,16.16451-27.25213,0" style="fill:none;stroke:#30302F;stroke-width:0.8;stroke-linecap:round;stroke-linejoin:round;stroke-miterlimit:10;"/><path d="    M23.54346,24.97064c0,0,0.51694,0.5428,1.00809,0" style="fill:none;stroke:#30302F;stroke-width:0.6658;stroke-linecap:round;stroke-linejoin:round;stroke-miterlimit:10;"/><path d="M26.0813,19.94153c0,0,0.20448-0.10195,0.47074-0.15714    c0.27332-0.06304,0.63846-0.09012,0.98859-0.05485c0.71095,0.0619,1.29639,0.39564,1.29639,0.39564s-0.666-0.13745-1.28,0.00239    c-0.30507,0.0629-0.58658,0.1774-0.77296,0.28754c-0.1964,0.11367-0.26763,0.19355-0.26763,0.19355    c-0.15088,0.1692-0.41021,0.184-0.5793,0.03311c-0.16897-0.15077-0.18388-0.41009-0.033-0.57918    c0.03539-0.03971,0.07681-0.07089,0.12165-0.09342L26.0813,19.94153z" style="fill:#30302F;"/><g><path d="M21.48108,20.60867c0,0-0.07136-0.07988-0.26764-0.19355     c-0.1865-0.11015-0.46801-0.22464-0.77308-0.28754c-0.61389-0.13984-1.27989-0.00239-1.27989-0.00239     s0.58534-0.33374,1.29639-0.39564c0.35001-0.03527,0.71516-0.00819,0.98848,0.05485     c0.26638,0.05519,0.47086,0.15714,0.47086,0.15714l0.05417,0.02706c0.20276,0.10118,0.28503,0.34764,0.18387,0.5503     c-0.10116,0.20266-0.34751,0.2849-0.55027,0.18377C21.5564,20.67888,21.51453,20.64611,21.48108,20.60867z" style="fill:#30302F;"/></g><g><path d="M29.13982,21.60603l-0.02513-0.04031c-2.81349-1.50838-3.46833,0.99445-3.46833,0.99445     s0.52124,0.3115,1.26062,0.27869C28.59748,22.64854,28.94102,22.01763,29.13982,21.60603z" style="fill:#FFFFFF;"/></g><g><path d="M28.95356,21.43516c0,0,0.2976-0.3416,0.32429-0.58123c0,0-0.41818,0.45363-0.71556,0.48102" style="fill:#30302F;"/><path d="M28.38747,21.33495c0,0,0.34334-0.30182,0.39564-0.53714c0,0-0.31741,0.31307-0.6157,0.30681" style="fill:#30302F;"/><g><g><path d="M28.67429,21.94128c-0.25897-0.16666-0.52356-0.31796-0.8013-0.43021       c-0.27744-0.08853-0.56534-0.16141-0.84076-0.11993c-0.55591,0.06345-0.99323,0.59998-1.16595,1.17831l-0.05463-0.13431       c0.29697,0.2309,0.69702,0.38809,1.10529,0.43469c-0.41507,0.03625-0.84192-0.0217-1.25101-0.21875       c-0.04507-0.0217-0.06796-0.07092-0.05826-0.11777l0.00351-0.01685c0.07211-0.34808,0.20621-0.66669,0.4223-0.957       c0.21619-0.28586,0.54175-0.51566,0.9115-0.60428c0.37247-0.09094,0.74149-0.03394,1.09079,0.04456       c0.34137,0.1008,0.65842,0.24451,0.96564,0.40469c0.15421,0.08041,0.21405,0.2706,0.13364,0.42477       c-0.08038,0.15421-0.27057,0.21405-0.42477,0.13364c-0.00839-0.00436-0.01651-0.00906-0.02435-0.0141L28.67429,21.94128z" style="fill:#30302F;"/></g><g><path d="M29.17203,21.7489c-0.05637,0.17148-0.12473,0.23801-0.20151,0.33096       c-0.07651,0.08337-0.16052,0.15152-0.24658,0.20963c-0.17404,0.11423-0.35672,0.18686-0.53912,0.23291       c0.12982-0.13608,0.23596-0.28787,0.3045-0.44205c0.03329-0.07748,0.05774-0.15521,0.06927-0.22983       c0.00989-0.06509,0.01462-0.16699-0.01102-0.17404c0.02002-0.17245,0.17603-0.29602,0.34845-0.27603       C29.06845,21.42047,29.19205,21.57645,29.17203,21.7489z" style="fill:#30302F;"/></g></g></g><ellipse cx="27.21278" cy="21.72718" rx="0.71289" ry="0.72592" style="fill:#30302F;" transform="matrix(0.99452 -0.1045 0.1045 0.99452 -2.12151 2.96271)"/><ellipse cx="27.49782" cy="21.69518" rx="0.16472" ry="0.16773" style="fill:#FFFFFF;" transform="matrix(0.99452 -0.1045 0.1045 0.99452 -2.1166 2.99232)"/><g><path d="M19.10117,21.57465l0.02588-0.03983c2.84108-1.45576,3.44922,1.05883,3.44922,1.05883     s-0.52695,0.30175-1.26558,0.25518C19.62403,22.62708,19.29228,21.98989,19.10117,21.57465z" style="fill:#FFFFFF;"/></g><g><path d="M19.29059,21.40728c0,0-0.2775-0.23428-0.29973-0.47436c0,0,0.29231,0.31613,0.58912,0.34905" style="fill:#30302F;"/><path d="M19.85844,21.31763c0,0-0.32398-0.19535-0.37189-0.43161c0,0,0.29784,0.20612,0.59619,0.20541" style="fill:#30302F;"/><g><g><path d="M19.24332,21.3757c0.31015-0.15445,0.62982-0.29224,0.97299-0.38666       c0.35071-0.07199,0.72073-0.12213,1.09143-0.02426c0.36807,0.09549,0.68927,0.33133,0.90012,0.62112       c0.21063,0.29431,0.33881,0.61536,0.40442,0.96469l0.00314,0.01685c0.00925,0.04916-0.01691,0.09677-0.06039,0.11676       c-0.41269,0.18939-0.84055,0.23941-1.25485,0.1954c0.40903-0.039,0.81198-0.18872,1.11316-0.41403l-0.0571,0.13327       c-0.16193-0.58145-0.5892-1.12604-1.14383-1.19983c-0.2746-0.04657-0.56381,0.0209-0.84286,0.10428       c-0.27975,0.10706-0.54712,0.25342-0.80914,0.41522l-0.01132,0.00696c-0.14795,0.09137-0.34198,0.04547-0.43332-0.10251       c-0.09137-0.14795-0.04547-0.34198,0.10248-0.43332C19.22632,21.38467,19.23502,21.37985,19.24332,21.3757z" style="fill:#30302F;"/></g><g><path d="M19.69199,21.6561c-0.02573,0.00659-0.02292,0.10855-0.01422,0.17383       c0.01013,0.07483,0.03311,0.15298,0.06497,0.23108c0.06567,0.15543,0.16898,0.30914,0.2962,0.44763       c-0.18149-0.04944-0.36279-0.12546-0.5347-0.24289c-0.08496-0.05972-0.16766-0.12939-0.24261-0.2142       c-0.07501-0.09436-0.14215-0.16214-0.19531-0.33466c-0.01678-0.17276,0.10965-0.32645,0.28244-0.34323       S19.6752,21.48334,19.69199,21.6561z" style="fill:#30302F;"/></g></g></g><ellipse cx="21.02563" cy="21.73165" rx="0.72592" ry="0.71289" style="fill:#30302F;" transform="matrix(0.12299 -0.99241 0.99241 0.12299 -3.127 39.92484)"/><ellipse cx="20.72078" cy="21.64233" rx="0.16773" ry="0.16472" style="fill:#FFFFFF;" transform="matrix(0.12299 -0.99241 0.99241 0.12299 -3.30572 39.54396)"/></g></g></svg>