<?xml version="1.0" ?><svg style="enable-background:new 0 0 48 48;" version="1.1" viewBox="0 0 48 48" xml:space="preserve" xmlns="http://www.w3.org/2000/svg" xmlns:xlink="http://www.w3.org/1999/xlink"><g id="Icons"><g><path d="M24.02403,7.61052c0,0-6.87796-0.81023-10.86147,11.00517c0,0-2.58414,5.37846-3.44836,6.87414    c-0.86412,1.4956-3.48978,5.28446-3.29036,7.74393s2.82508,5.91603,9.70498,7.11254c0,0,1.46237,0.29917,5.15158-0.4985    c3.6892-0.79767,4.12126,0.06644,5.48397,0.23264c1.36262,0.16619,6.14867,0.79767,9.70489-1.22973    c3.55633-2.02741,5.8828-3.52301,4.88571-7.11254c0,0-0.96378-2.69211-2.49269-5.0186    c-1.5289-2.32658-3.35689-6.51428-4.81925-9.87118C32.58063,13.49159,29.89184,7.71185,24.02403,7.61052z" style="fill:#606060;"/><path d="M29.08448,38.47114c2.88621,0,8.62976-0.28513,9.92585-3.77491    c1.29626-3.48978-3.0245-6.74701-3.92182-7.51138c-0.89745-0.76445-4.05483-3.48978-4.81928-6.81345    c-0.74501-3.23935-4.06493-6.40633-6.26926-6.41121l0.00009-0.00331c-0.0279-0.00209-0.05825,0.0027-0.08641,0.00166    c-0.02825,0.00105-0.0586-0.00375-0.08632-0.00166v0.00331c-2.20433,0.00497-5.52434,3.17186-6.26935,6.41121    c-0.76445,3.32367-3.92193,6.049-4.81927,6.81345c-0.89734,0.76437-5.21802,4.0216-3.92184,7.51138    c1.29618,3.48978,6.70899,3.85331,9.97032,3.7634" style="fill:#464747;"/><path d="M31.57221,30.18537c-2.85754-1.19711-6.11886-6.71021-6.11886-6.71021    c-1.35765,0.77361-2.95604-0.06871-2.95604-0.06871c-2.20112,3.95663-5.947,6.46999-5.947,6.46999    s3.13004,3.51386,3.59137,5.67659l1.69911,0.23177l0.48244-0.85176l3.26346,0.04074l0.69503,0.81102l1.75872,0.00001    C28.2752,34.37264,29.57437,31.82523,31.57221,30.18537z" style="fill:#707070;"/><path d="M19.49826,16.66212c0,0-1.15364,0.74917-1.86236,3.40832s-2.43712,4.66618-2.43712,4.66618    l1.35155,5.13981c0,0,5.04743-3.51924,5.85611-6.31043c0,0,2.28782,0.75246,3.04693-0.09084c0,0,3.27941,5.53225,5.97772,6.64503    l1.43155-5.1095c0,0-1.83295-1.85352-2.82433-5.42304l-1.35692-2.47985C28.68137,17.1078,22.95514,18.27091,19.49826,16.66212z" style="fill:#B2B2B2;"/><path d="M23.91364,21.17779c0,0-2.1916-0.10699-3.01543-0.36562    c-0.54611-0.17134-2.14373-0.59817-2.11051,0.0831c0.03322,0.68135-0.01665,1.91109,1.79468,1.612    c1.81142-0.29917,4.33733-0.40642,6.49771,0.04604s2.17695-0.86037,2.21017-1.29243    c0.03322-0.43206-0.1662-0.79768-1.22973-0.61482C26.997,20.82883,25.72654,21.31591,23.91364,21.17779z" style="fill:#333333;"/><path d="    M24.02403,7.61052c0,0-6.87796-0.81023-10.86147,11.00517c0,0-2.58414,5.37846-3.44836,6.87414    c-0.86412,1.4956-3.48978,5.28446-3.29036,7.74393s2.82508,5.91603,9.70498,7.11254c0,0,1.46237,0.29917,5.15158-0.4985    c3.6892-0.79767,4.12126,0.06644,5.48397,0.23264c1.36262,0.16619,6.14867,0.79767,9.70489-1.22973    c3.55633-2.02741,5.8828-3.52301,4.88571-7.11254c0,0-0.96378-2.69211-2.49269-5.0186    c-1.5289-2.32658-3.35689-6.51428-4.81925-9.87118C32.58063,13.49159,29.89184,7.71185,24.02403,7.61052z" style="fill:none;stroke:#303030;stroke-width:0.75;stroke-linecap:round;stroke-linejoin:round;stroke-miterlimit:10;"/><path d="    M29.08448,38.47114c2.88621,0,8.62976-0.28513,9.92585-3.77491c1.29626-3.48978-3.0245-6.74701-3.92182-7.51138    c-0.89745-0.76445-4.05483-3.48978-4.81928-6.81345c-0.74501-3.23935-4.06493-6.40633-6.26926-6.41121l0.00009-0.00331    c-0.0279-0.00209-0.05825,0.0027-0.08641,0.00166c-0.02825,0.00105-0.0586-0.00375-0.08632-0.00166v0.00331    c-2.20433,0.00497-5.52434,3.17186-6.26935,6.41121c-0.76445,3.32367-3.92193,6.049-4.81927,6.81345    c-0.89734,0.76437-5.21802,4.0216-3.92184,7.51138c1.29618,3.48978,6.70899,3.85331,9.97032,3.7634" style="fill:none;stroke:#303030;stroke-width:0.75;stroke-linecap:round;stroke-linejoin:round;stroke-miterlimit:10;"/><path d="    M15.19878,25.01069l1.35155,4.86574c0,0,3.128,3.62991,3.59137,5.67659l1.69911,0.23177l0.54079-0.81102h3.2051l0.69503,0.81102    h1.50606c0,0,1.77637-4.36366,3.78442-5.59941l1.29042-5.17468" style="fill:none;stroke:#303030;stroke-width:0.75;stroke-linecap:round;stroke-linejoin:round;stroke-miterlimit:10;"/><path d="    M16.55032,29.87643c0,0,3.74588-2.51336,5.947-6.46999c0,0,1.59838,0.84232,2.95604,0.06871c0,0,3.26133,5.51309,6.11885,6.71021" style="fill:none;stroke:#303030;stroke-width:0.75;stroke-linecap:round;stroke-linejoin:round;stroke-miterlimit:10;"/><path d="    M28.68137,17.1078c-5.88106,1.04662-9.32393-0.27353-9.32393-0.27353" style="fill:none;stroke:#303030;stroke-width:0.75;stroke-linecap:round;stroke-linejoin:round;stroke-miterlimit:10;"/><path d="    M23.91364,21.17779c0,0-2.1916-0.10699-3.01543-0.36562c-0.54611-0.17134-2.14373-0.59817-2.11051,0.0831    c0.03322,0.68135-0.01665,1.91109,1.79468,1.612c1.81142-0.29917,4.33733-0.40642,6.49771,0.04604    s2.17695-0.86037,2.21017-1.29243c0.03322-0.43206-0.1662-0.79768-1.22973-0.61482    C26.997,20.82883,25.72654,21.31591,23.91364,21.17779z" style="fill:none;stroke:#303030;stroke-width:0.75;stroke-linecap:round;stroke-linejoin:round;stroke-miterlimit:10;"/><path d="    M18.33437,18.37163c0,0,5.74059,1.77,11.36041,0.39535" style="fill:none;stroke:#303030;stroke-width:0.75;stroke-linecap:round;stroke-linejoin:round;stroke-miterlimit:10;"/><path d="    M18.13992,28.62604c0,0,1.47144,1.81221,2.11949,2.98831" style="fill:none;stroke:#303030;stroke-width:0.75;stroke-linecap:round;stroke-linejoin:round;stroke-miterlimit:10;"/><line style="fill:none;stroke:#303030;stroke-width:0.75;stroke-linecap:round;stroke-linejoin:round;stroke-miterlimit:10;" x1="20.78747" x2="21.09956" y1="32.59854" y2="33.2226"/><path d="    M11.52126,28.23086c0,0-3.21537,6.63566,2.18532,7.55393" style="fill:none;stroke:#303030;stroke-width:0.75;stroke-linecap:round;stroke-linejoin:round;stroke-miterlimit:10;"/><path d="    M36.30577,28.23086c0,0,2.44245,4.54974,0.42324,6.14178" style="fill:none;stroke:#303030;stroke-width:0.75;stroke-linecap:round;stroke-linejoin:round;stroke-miterlimit:10;"/><line style="fill:none;stroke:#303030;stroke-width:0.75;stroke-linecap:round;stroke-linejoin:round;stroke-miterlimit:10;" x1="35.40876" x2="34.36042" y1="35.14921" y2="35.4987"/><path d="    M23.91364,9.3269c0,0-4.25144,0.04892-6.69495,5.13143" style="fill:none;stroke:#303030;stroke-width:0.75;stroke-linecap:round;stroke-linejoin:round;stroke-miterlimit:10;"/><line style="fill:none;stroke:#303030;stroke-width:0.75;stroke-linecap:round;stroke-linejoin:round;stroke-miterlimit:10;" x1="22.57561" x2="25.04911" y1="25.97081" y2="25.97081"/></g></g></svg>