<?xml version="1.0" ?><svg style="enable-background:new 0 0 48 48;" version="1.1" viewBox="0 0 48 48" xml:space="preserve" xmlns="http://www.w3.org/2000/svg" xmlns:xlink="http://www.w3.org/1999/xlink"><g id="Icons"><g><path d="M31.85421,20.1083c2.73575,2.26475,4.48412,5.68002,4.48412,9.51192    c0,6.81244-5.52599,12.33842-12.33832,12.33842c-6.81236,0-12.33834-5.52598-12.33834-12.33842    c0-4.69254,2.6271-8.77813,6.48619-10.86175" style="fill:#F4F4F4;"/><polygon points="19.7488,22.33561 14.52042,29.9161 15.90099,33.49561 27.10497,33.87116     29.60151,30.35855 24,22.33561   " style="fill:#E0E0E0;"/><path d="M14.52041,37.51549c9.91357-7.80453,15.27893,2.99625,15.27893,2.99625    c0.89453-0.34659,1.66757-0.8685,2.30307-1.58896c0,0-1.92651-5.63395-8.37951-6.6264    c-6.453-0.99254-10.54682,2.82376-10.54682,2.82376C13.48461,36.14717,13.93209,36.94661,14.52041,37.51549z" style="fill:#FFA001;"/><path d="M11.66167,29.62022c6.67315-2.89785,5.36621-10.17718,5.36621-10.17718l1.11998-0.68456    l1.62419,0.71209c0,0,1.40197,8.89176-7.81834,12.82581" style="fill:#FFA001;"/><path d="M26.11672,20.4101c0,0-0.34692,9.12443,10.06116,9.50599    c0.09192,1.11136,0.05225,2.14361-0.285,2.99701c-13.57245-0.9928-12.56595-13.0428-12.56595-13.0428" style="fill:#FFA001;"/><path d="M32.5777,19.09097c0,0,1.2187-7.67547-6.27521-8.97195c0,0-7.10489-1.40026-8.86818,7.41612" style="fill:#F4F4F4;"/><polygon points="32.5777,19.09097 17.43431,17.53514 18.47153,19.32434 31.3849,20.77639   " style="fill:#C9C9C9;"/><circle cx="25.76141" cy="14.25579" r="2.73793" style="fill:#464747;"/><circle cx="25.76141" cy="14.25579" r="1.34359" style="fill:#707070;"/><line style="fill:none;stroke:#303030;stroke-width:0.75;stroke-linecap:round;stroke-linejoin:round;stroke-miterlimit:10;" x1="29.96989" x2="29.9608" y1="18.82194" y2="18.82194"/><path d="    M31.85421,20.1083c2.73575,2.26475,4.48412,5.68002,4.48412,9.51192c0,6.81244-5.52599,12.33842-12.33832,12.33842    c-6.81236,0-12.33834-5.52598-12.33834-12.33842c0-4.69254,2.6271-8.77813,6.48619-10.86175" style="fill:none;stroke:#303030;stroke-width:0.75;stroke-linecap:round;stroke-linejoin:round;stroke-miterlimit:10;"/><polygon points="    32.5777,19.09097 17.43431,17.53514 18.47153,19.32434 31.3849,20.77639   " style="fill:none;stroke:#303030;stroke-width:0.75;stroke-linecap:round;stroke-linejoin:round;stroke-miterlimit:10;"/><path d="    M32.5777,19.09097c0,0,1.2187-7.67547-6.27521-8.97195c0,0-7.10489-1.40026-8.86818,7.41612" style="fill:none;stroke:#303030;stroke-width:0.75;stroke-linecap:round;stroke-linejoin:round;stroke-miterlimit:10;"/><circle cx="25.76141" cy="14.25579" r="2.73793" style="fill:none;stroke:#303030;stroke-width:0.75;stroke-linecap:round;stroke-linejoin:round;stroke-miterlimit:10;"/><circle cx="25.76141" cy="14.25579" r="1.34359" style="fill:none;stroke:#303030;stroke-width:0.75;stroke-linecap:round;stroke-linejoin:round;stroke-miterlimit:10;"/><circle cx="20.93742" cy="15.38572" r="0.80399" style="fill:#303030;"/><line style="fill:none;stroke:#303030;stroke-width:0.75;stroke-linecap:round;stroke-linejoin:round;stroke-miterlimit:10;" x1="24.61106" x2="24.7048" y1="10.06268" y2="8.64956"/><line style="fill:none;stroke:#303030;stroke-width:0.75;stroke-linecap:round;stroke-linejoin:round;stroke-miterlimit:10;" x1="23.23919" x2="23.41458" y1="10.29509" y2="6.78086"/><circle cx="24.70478" cy="8.21484" r="0.70656" style="fill:#303030;"/><circle cx="23.43497" cy="6.3729" r="0.70656" style="fill:#303030;"/><path d="M26.11672,20.4101    c0,0-0.34691,9.12444,10.06115,9.506" style="fill:none;stroke:#303030;stroke-width:0.75;stroke-miterlimit:10;"/><path d="M23.32693,19.87031    c0,0-1.00652,12.05,12.56595,13.04279" style="fill:none;stroke:#303030;stroke-width:0.75;stroke-miterlimit:10;"/><path d="M17.02788,19.44303    c0,0,1.30695,7.27933-5.36621,10.17718" style="fill:none;stroke:#303030;stroke-width:0.75;stroke-miterlimit:10;"/><path d="M19.77204,19.47056    c0,0,1.40197,8.89176-7.81834,12.82581" style="fill:none;stroke:#303030;stroke-width:0.75;stroke-miterlimit:10;"/><path d="M29.79933,40.51172    c0,0-5.36535-10.80077-15.27891-2.99623" style="fill:none;stroke:#303030;stroke-width:0.75;stroke-miterlimit:10;"/><path d="M32.1024,38.92279    c0,0-1.9265-5.63396-8.3795-6.62641c-6.453-0.99254-10.54682,2.82375-10.54682,2.82375" style="fill:none;stroke:#303030;stroke-width:0.75;stroke-miterlimit:10;"/><line style="fill:none;stroke:#303030;stroke-width:0.75;stroke-miterlimit:10;" x1="29.14314" x2="27.25437" y1="31.04689" y2="33.46318"/><line style="fill:none;stroke:#303030;stroke-width:0.75;stroke-miterlimit:10;" x1="14.91082" x2="15.90103" y1="30.92227" y2="33.1426"/><line style="fill:none;stroke:#303030;stroke-width:0.75;stroke-miterlimit:10;" x1="23.31012" x2="19.84829" y1="22.2836" y2="22.38763"/><circle cx="31.14666" cy="33.87116" r="0.58979" style="fill:#303030;"/><circle cx="20.93742" cy="28.53548" r="0.58977" style="fill:#303030;"/><path d="M30.83344,20.77639    c0,0,2.42256,3.13636,2.8036,4.71509" style="fill:none;stroke:#303030;stroke-width:0.75;stroke-linecap:round;stroke-miterlimit:10;"/><line style="fill:none;stroke:#303030;stroke-width:0.75;stroke-linecap:round;stroke-miterlimit:10;" x1="33.90926" x2="34.04536" y1="26.74363" y2="27.58746"/><path d="M17.66956,38.01266    c0,0,4.24434,3.31655,9.16252,1.71492" style="fill:none;stroke:#303030;stroke-width:0.75;stroke-linecap:round;stroke-miterlimit:10;"/></g></g></svg>