<?xml version="1.0" ?><svg style="enable-background:new 0 0 48 48;" version="1.1" viewBox="0 0 48 48" xml:space="preserve" xmlns="http://www.w3.org/2000/svg" xmlns:xlink="http://www.w3.org/1999/xlink"><g id="Icons"><g><path d="M33.90517,23.55901c2.88776-0.61053,6.71424-2.6562,7.30359-3.61566    c0.58934-0.95935-1.75082-2.2908-3.48949-2.93012c-1.88812-0.69428-6.9713-2.47751-7.26597-3.40788    c-0.29467-0.93026-2.20998-4.33194-3.38867-6.338S24,5.61017,24,5.61017s-1.88583-0.34888-3.06452,1.65718    s-3.09411,5.40774-3.38878,6.338c-0.29467,0.93038-5.37773,2.7136-7.26597,3.40788    C8.54207,17.65255,6.2019,18.984,6.79124,19.94335c0.58934,0.95946,4.65843,3.15619,7.5463,3.76677" style="fill:#E1E5D6;"/><path d="M33.90517,23.55901c2.88776-0.61053,6.71424-2.6562,7.30359-3.61566    c0.58934-0.95935-20.4789-8.77665-34.41751,0c-0.95285,0.59997,4.65843,3.15619,7.5463,3.76677" style="fill:#8D8D8D;"/><path d="M14.67413,22.9612c0,0-0.19252,1.45064-0.49086,3.27244s0.10617,2.41049-1.81181,3.20255    c-1.91799,0.79206-2.66608,1.26694-2.55165,3.86173c0.11442,2.59479-1.25491,3.10698-1.25491,3.10698    s-0.80587,1.02346,0.42103,1.56875c1.22689,0.54528,1.09057,0.78385,0.54529,2.01074    c-0.54529,1.22689-0.1704,1.29506,0.61345,0.78385c0.78385-0.5112,1.14703,0.3756,1.83449,0.22188s1.57355-1.2331,2.5278-0.77861    c0.95425,0.45449,0.88609,1.54507,1.80626,1.85179c0,0-0.92017-1.43138,0.64753-1.22689s1.77218,0.98833,2.79459,0.78385    s0.67491-1.09057,1.59843-0.44304c0.92352,0.64753,1.59286,1.63586,1.59286,1.63586s0.62571-1.36322,1.57996-1.05649    s0.61345,0.64753,1.49954,0.23856c0.88609-0.40897,3.16039-1.84034,4.18735-1.15873    c1.02695,0.68161,0.99287,0.47712,2.21977,0.47712c0,0-0.88609-0.81793,0.30672-0.95425    c1.19281-0.13632,2.14706,0.63084,2.14706,0.63084s1.03988,0.49381,1.78091,0.52789    c0.74104,0.03408-0.00874-0.37488,0.46839-1.9085c0.47712-1.53362,0.40897-1.02241,1.46545-0.47712    c1.05649,0.54528-0.30672-1.38744,0.57937-1.39237c0.88609-0.00493,0.85201-0.14125,0.61345-0.58429    c-0.23856-0.44305,0.63043,0.19757-0.72424-0.97475c-1.35467-1.17231-0.82333-2.27646-0.84707-3.19033    c-0.02374-0.91387,0.33938-1.88332-1.55535-2.98846c-1.89473-1.10513-2.84073-1.84612-2.78794-3.97492    c0.05278-2.12881-0.65765-3.99837-0.65765-3.99837l-1.07836-4.80281c0,0-9.35558-3.34112-16.03529-0.66888    C16.10867,16.5572,15.04811,20.41717,14.67413,22.9612z" style="fill:#F4F4F4;"/><path d="M30.05161,16.55866c0,0.23798,0.32403,3.32358,0.03441,4.30974    c-0.27804,0.99758,0.22011,2.16518-0.47499,3.25331c-0.66046,1.03155-1.30922,1.88169-1.37873,2.33516h-0.03487    c-0.72378-0.64609-1.87264-1.33756-2.4816-1.32625c-0.81577,0.02263-1.61995-0.68015-1.61995-0.68015h0.03246    c0,0-0.8043,0.70279-1.61995,0.68015c-0.60896-0.01132-1.75782,0.68015-2.48171,1.32625l-0.04106-0.02569    c0-0.43322-0.74052-1.4168-1.43631-2.49994c-0.69579-1.08315-0.18983-2.25911-0.47441-3.24743    c-0.28469-0.98832-0.03441-4.07277-0.03441-4.31202C20.99272,15.86455,26.0597,15.07209,30.05161,16.55866z" style="fill:#F9D9C0;"/><path d="M17.94839,19.39684c0,0,2.36032-1.55658,1.84774-3.30796L18.0405,16.3718    C18.0405,16.3718,17.78689,18.55778,17.94839,19.39684z" style="fill:#F4F4F4;"/><path d="M30.11931,19.39684c0,0-2.36032-1.55658-1.84774-3.30796l1.75563,0.28293    C30.0272,16.3718,30.28082,18.55778,30.11931,19.39684z" style="fill:#F4F4F4;"/><path d="    M33.90517,23.55901c2.88776-0.61053,6.71424-2.6562,7.30359-3.61566c0.58934-0.95935-1.75082-2.2908-3.48949-2.93012    c-1.88812-0.69428-6.9713-2.47751-7.26597-3.40788c-0.29467-0.93026-2.20998-4.33194-3.38867-6.338S24,5.61017,24,5.61017    s-1.88583-0.34888-3.06452,1.65718s-3.09411,5.40774-3.38878,6.338c-0.29467,0.93038-5.37773,2.7136-7.26597,3.40788    C8.54207,17.65255,6.2019,18.984,6.79124,19.94335c0.58934,0.95946,4.65843,3.15619,7.5463,3.76677" style="fill:none;stroke:#30302F;stroke-width:0.8;stroke-linecap:round;stroke-linejoin:round;stroke-miterlimit:10;"/><path d="    M41.20876,19.94335c0,0-17.69223-9.15685-34.41751,0" style="fill:none;stroke:#30302F;stroke-width:0.8;stroke-linecap:round;stroke-linejoin:round;stroke-miterlimit:10;"/><path d="    M32.02656,16.97274c0,0,0.97073,1.94515,1.0571,3.84101c0.08649,1.89583,0.90994,3.98134,0.86153,5.21352" style="fill:none;stroke:#30302F;stroke-width:0.8;stroke-linecap:round;stroke-linejoin:round;stroke-miterlimit:10;"/><path d="    M30.05161,16.55865c0,0.238,0.32404,3.32359,0.03441,4.30976c-0.27804,0.99758,0.22011,2.16518-0.47499,3.25331    c-0.66046,1.03155-1.30922,1.88169-1.37873,2.33516h-0.03487c-0.72378-0.64609-1.87264-1.33756-2.4816-1.32625    c-0.81577,0.02263-1.61995-0.68015-1.61995-0.68015h0.03246c0,0-0.8043,0.70279-1.61995,0.68015    c-0.60896-0.01132-1.75782,0.68015-2.48171,1.32625l-0.04106-0.02569c0-0.43322-0.74052-1.4168-1.43631-2.49994    c-0.69579-1.08315-0.18983-2.25911-0.47441-3.24743c-0.28469-0.98832-0.03441-4.07278-0.03441-4.31202" style="fill:none;stroke:#30302F;stroke-width:0.8;stroke-linecap:round;stroke-linejoin:round;stroke-miterlimit:10;"/><path d="    M17.51665,28.75707c0,0-0.10931,2.74552,0.46065,4.94363c0.56996,2.19822,0.98484,5.83858,2.0494,6.51081" style="fill:none;stroke:#30302F;stroke-width:0.8;stroke-linecap:round;stroke-linejoin:round;stroke-miterlimit:10;"/><path d="    M30.62948,28.75707c0,0,0.10943,2.74552-0.46053,4.94363c-0.56996,2.19822-0.98495,5.83858-2.04951,6.51081" style="fill:none;stroke:#30302F;stroke-width:0.8;stroke-linecap:round;stroke-linejoin:round;stroke-miterlimit:10;"/><path d="    M29.90594,23.44111c0,0,0.44711,6.79623,1.96429,8.72873s1.66778,3.41911,1.61754,4.6083    c-0.05024,1.18931,1.29362,3.41911,2.68084,4.21198" style="fill:none;stroke:#30302F;stroke-width:0.8;stroke-linecap:round;stroke-linejoin:round;stroke-miterlimit:10;"/><path d="    M18.25235,23.26162c0,0-0.45755,6.97572-1.97472,8.90822s-1.66789,3.41911-1.61765,4.6083    c0.05024,1.18931-1.2935,3.41911-2.68083,4.21198" style="fill:none;stroke:#30302F;stroke-width:0.8;stroke-linecap:round;stroke-linejoin:round;stroke-miterlimit:10;"/><path d="    M16.10867,16.70373c0,0-1.02705,2.21416-1.11342,4.11001c-0.08649,1.89583-0.90994,3.98134-0.86153,5.21352" style="fill:none;stroke:#30302F;stroke-width:0.8;stroke-linecap:round;stroke-linejoin:round;stroke-miterlimit:10;"/><path d="    M22.77107,26.51097c0,0,1.23776,0.07874,2.64952-0.02569c0,0,0.61274-0.07098,0.6725,0.60162    c0.05988,0.67257,0.15554,0.87311,1.32746,1.2743c1.17192,0.40119,1.32746,0.95572,1.24372,1.33326" style="fill:none;stroke:#30302F;stroke-width:0.8;stroke-linecap:round;stroke-linejoin:round;stroke-miterlimit:10;"/><path d="    M22.77107,26.51301c0,0-0.61263-0.07096-0.6725,0.6015c-0.05976,0.67255-0.15542,0.87311-1.32734,1.2743    c-1.17203,0.40119-1.32746,0.95572-1.24372,1.33326" style="fill:none;stroke:#30302F;stroke-width:0.8;stroke-linecap:round;stroke-linejoin:round;stroke-miterlimit:10;"/><path d="    M30.21345,19.59048c-0.4018-0.45687-0.81554-0.90446-1.25921-1.32228c-0.19006-0.17892-0.33929-0.3343-0.4548-0.56981    c-0.08901-0.18141-0.1584-0.37233-0.21564-0.56563c-0.01881-0.06326-0.03636-0.86768-0.0515-0.93196" style="fill:none;stroke:#30302F;stroke-width:0.8;stroke-linecap:round;stroke-linejoin:round;stroke-miterlimit:10;"/><path d="    M17.94839,19.59048c0.40181-0.45687,0.81554-0.90446,1.25921-1.32228c0.19006-0.17892,0.33929-0.3343,0.4548-0.56981    c0.08901-0.18141,0.1584-0.37233,0.21564-0.56563c0.01881-0.06326,0.00195-0.97949,0.01709-1.04389" style="fill:none;stroke:#30302F;stroke-width:0.8;stroke-linecap:round;stroke-linejoin:round;stroke-miterlimit:10;"/><path d="    M33.9452,26.02726c0,0-0.52179,2.27396,1.3863,3.24564c1.9082,0.97168,3.05511,1.60521,2.89177,3.71774    c-0.16322,2.11269-0.08442,2.7289,1.2326,3.41426" style="fill:none;stroke:#30302F;stroke-width:0.8;stroke-linecap:round;stroke-linejoin:round;stroke-miterlimit:10;"/><path d="    M14.13372,26.02726c0,0,0.46351,2.27396-1.44457,3.24564s-3.055,1.60521-2.89177,3.71774    c0.16322,2.11269,0.08442,2.7289-1.23248,3.41426" style="fill:none;stroke:#30302F;stroke-width:0.8;stroke-linecap:round;stroke-linejoin:round;stroke-miterlimit:10;"/><path d="    M30.53439,13.75224c0,0-1.5072-0.50666-3.91194-0.54695" style="fill:none;stroke:#30302F;stroke-width:0.8;stroke-linecap:round;stroke-linejoin:round;stroke-miterlimit:10;"/><path d="    M24.02868,24.24338c0.46856,0.09065,0.65323-0.41488,1.16446-0.51855c0.51123-0.10366,0.66734-0.36294,0.68156-0.66114    c0.01422-0.29809-0.34078-0.54435-0.35501-0.59629c0,0,1.13762-0.0232,1.3387,2.88424" style="fill:none;stroke:#30302F;stroke-width:0.8;stroke-linecap:round;stroke-linejoin:round;stroke-miterlimit:10;"/><path d="    M24.21828,24.24338c-0.46868,0.09065-0.65323-0.41488-1.16446-0.51855s-0.66746-0.36294-0.68168-0.66114    c-0.01422-0.29809,0.34078-0.54435,0.35501-0.59629c0,0-1.23283,0.72316-1.02957,2.88424" style="fill:none;stroke:#30302F;stroke-width:0.8;stroke-linecap:round;stroke-linejoin:round;stroke-miterlimit:10;"/><path d="    M28.23231,21.06926c0,0-0.75233,0.17759-1.4074,0.1906c-0.65507,0.0129-1.3403-0.7888-1.3403-0.7888" style="fill:none;stroke:#30302F;stroke-width:0.8;stroke-linecap:round;stroke-linejoin:round;stroke-miterlimit:10;"/><path d="    M27.89267,19.38316c0,0-1.74842,0.03078-1.84213,0l-0.56594-1.07433c0,0,1.84867-0.33657,2.10548-0.32412    c0.25671,0.01234,1.36416,0.28349,1.36416,0.28349" style="fill:none;stroke:#30302F;stroke-width:0.8;stroke-linecap:round;stroke-linejoin:round;stroke-miterlimit:10;"/><path d="    M22.7276,20.47106c0,0-0.68535,0.8017-1.3403,0.7888c-0.65507-0.01302-1.4074-0.1906-1.4074-0.1906" style="fill:none;stroke:#30302F;stroke-width:0.8;stroke-linecap:round;stroke-linejoin:round;stroke-miterlimit:10;"/><path d="    M20.338,19.38316c0,0,1.74841,0.03078,1.84213,0l0.54748-1.07433c0,0-1.84867-0.33657-2.10549-0.32412    c-0.25682,0.01234-1.36428,0.28349-1.36428,0.28349" style="fill:none;stroke:#30302F;stroke-width:0.8;stroke-linecap:round;stroke-linejoin:round;stroke-miterlimit:10;"/><path d="    M24.48438,13.1522c0,0-0.62078-0.06802-1.24156,0.01735" style="fill:none;stroke:#30302F;stroke-width:0.8;stroke-linecap:round;stroke-linejoin:round;stroke-miterlimit:10;"/></g></g></svg>