<?xml version="1.0" ?><svg style="enable-background:new 0 0 48 48;" version="1.1" viewBox="0 0 48 48" xml:space="preserve" xmlns="http://www.w3.org/2000/svg" xmlns:xlink="http://www.w3.org/1999/xlink"><g id="Icons"><g><polygon points="37.02037,22.52764 35.49075,23.39367 34.69736,21.82506 35.87841,17.92002     36.7485,19.2347 38.20142,18.62259   " style="fill:#A67358;"/><polyline points="36.00856,23.10341 35.94424,23.32415 36.74411,24.89634 38.27037,24.03202     39.45641,20.12457 38.00372,20.74061 37.70038,20.28086   " style="fill:#A67358;"/><path d="M19.78942,27.14797c0,0-3.42102,1.06323-6.28539,1.89478S8.63834,31.44061,7.53279,34.104    s-1.60385,3.9904-1.60385,3.9904c11.95517,3.92331,24.00278,3.88522,36.14212-0.086c0,0-1.00221-3.81413-2.48044-5.38353    s-3.73959-3.14545-6.88577-4.13313c-3.14618-0.98768-4.38819-1.60324-4.38819-1.60324L19.78942,27.14797z" style="fill:#5D665B;"/><path d="M19.78942,26.0188c0,0-1.87564,6.82979-1.12349,10.23484l-3.20513-4.03357    c0,0,0.76998-9.42699,0.64079-12.03729c-0.12919-2.6103-0.129-2.7506-0.129-2.7506l-0.00019,0.1403    c0,0-0.06138-5.45218,1.96052-7.62776s4.04695-3.21189,6.88643-2.7411c2.83948,0.47079,5.11059,1.98092,5.96419,3.54653    s1.14201,6.23854,1.26618,7.75409c0.12417,1.51554-0.65294,6.12259-0.23281,8.39727s0.61458,5.94756,0.61458,5.94756    l-3.37415,3.77855c0,0,1.2748-3.58127-0.74069-9.99983" style="fill:#FFF2DC;"/><path d="M19.80615,26.28984c0,0-0.46278,2.11278,3.4789,3.44473l0.41664,5.6744l0.74949-5.59654    c0,0,2.43071-1.04659,3.26088-2.30375l0.71331-1.11833L19.80615,26.28984" style="fill:#DDBEA8;"/><path d="M19.8176,12.23338c0,0-1.24027,0.04417-1.52879,1.92404s-0.7609,5.37578-0.7609,5.37578    s-0.93233-1.82669-1.56048-2.17146c-0.62815-0.34478-1.07374-0.56631-1.07374-0.56631s-0.23427,2.0446,0.48852,3.23059    s1.5809,1.65583,2.14569,1.20523c0,0,0.51401,2.18455,0.6626,2.88444c0.14859,0.69988,0.66271,1.20632,1.43748,1.96953    c0.77477,0.76321,3.33734,1.87501,4.28143,1.91203c0.94408,0.03702,3.44337-0.97622,4.50711-1.94554    c1.06374-0.96932,1.42052-1.57416,1.70393-2.87522c0.28342-1.30106,0.42811-1.96531,0.42811-1.96531    s0.66329,0.53276,1.45743-0.1876c0.79414-0.72036,1.0499-2.55902,1.10416-3.10356c0.05426-0.54454,0.1828-1.01321,0.1828-1.01321    s-0.97139,0.22681-1.61763,1.27259s-1.01996,1.35843-1.01996,1.35843s-0.24889-1.82785-0.4227-2.8182    c-0.17381-0.99035-0.06696-3.12555-1.17532-3.92911c0,0-0.34084-0.67477-1.67173,0.17716    c-1.33088,0.85194-3.47015,0.83321-4.77219,0.58846C21.31139,13.31141,19.8176,12.23338,19.8176,12.23338z" style="fill:#F9D9C0;"/><path d="    M24.05512,13.63923c0,0,2.31989,0.14993,3.58806-0.84996c1.12646-0.88813,2.39265,0.56502,2.46704,2.55161    c0.02129,0.56803,0.0634,1.13524,0.18059,1.69135c0.18013,0.85445,0.39195,2.07509,0.27199,2.62889l1.48693-1.98037    c0,0-0.09533-4.98693-1.17759-6.85159c-1.50151-2.58701-4.19773-3.78611-6.90795-3.68685" style="fill:none;stroke:#30302F;stroke-width:0.8;stroke-linecap:round;stroke-linejoin:round;stroke-miterlimit:10;"/><path d="    M24.18712,7.14232c-2.71022-0.09926-5.40655,1.09984-6.90795,3.68685c-1.08226,1.86466-1.17759,6.85159-1.17759,6.85159    l1.42632,1.98037c0-0.57717,0.23577-1.76227,0.43187-2.64798c0.14577-0.65861,0.18683-1.32937,0.21182-2.00336    c0.07311-1.97248,1.36292-3.09534,2.47248-2.22051c1.26817,0.99989,3.45212,0.84996,3.45212,0.84996" style="fill:none;stroke:#30302F;stroke-width:0.8;stroke-linecap:round;stroke-linejoin:round;stroke-miterlimit:10;"/><path d="    M32.04973,17.68076l1.14739-0.88534c0,0-0.07855,4.01101-1.65596,4.45028c0,0-0.71877,0.29951-0.97837-0.09984l-0.55623,2.55346    c-0.10192,0.68152-0.40364,1.31271-0.86569,1.82391c-1.00972,1.1171-2.80728,2.06387-5.17309,2.474" style="fill:none;stroke:#30302F;stroke-width:0.8;stroke-linecap:round;stroke-linejoin:round;stroke-miterlimit:10;"/><path d="    M23.96778,27.99724c-2.32602-0.4137-4.04537-1.50787-5.04757-2.62033c-0.42284-0.47814-0.71715-1.04813-0.83665-1.67331    c-0.00914-0.04604-0.0184-0.10123-0.02754-0.14716l-0.52811-2.53287" style="fill:none;stroke:#30302F;stroke-width:0.8;stroke-linecap:round;stroke-linejoin:round;stroke-miterlimit:10;"/><path d="    M16.04109,17.5585l-1.14739-0.88538c0,0,0.07844,4.01103,1.65584,4.4503c0,0,0.71888,0.29952,0.97837-0.09984" style="fill:none;stroke:#30302F;stroke-width:0.8;stroke-linecap:round;stroke-linejoin:round;stroke-miterlimit:10;"/><path d="    M16.01668,20.79683c0,0,0.72455,1.91403-0.55588,11.35626l3.20513,4.03357c-0.76643-4.15192,0.96206-10.13297,0.96206-10.13297" style="fill:none;stroke:#30302F;stroke-width:0.8;stroke-linecap:round;stroke-linejoin:round;stroke-miterlimit:10;"/><path d="    M32.006,21.02358c0,0-0.85493,2.31618,0.4255,11.7585l-3.07463,3.63144c0.76632-4.15192-0.96218-10.13297-0.96218-10.13297" style="fill:none;stroke:#30302F;stroke-width:0.8;stroke-linecap:round;stroke-linejoin:round;stroke-miterlimit:10;"/><path d="    M27.8082,12.67636c0,0,1.64803-1.33933,3.7023,0" style="fill:none;stroke:#30302F;stroke-width:0.8;stroke-linecap:round;stroke-linejoin:round;stroke-miterlimit:10;"/><path d="    M20.36353,12.58323c0,0-1.84643-1.04703-3.7385,0.16538" style="fill:none;stroke:#30302F;stroke-width:0.8;stroke-linecap:round;stroke-linejoin:round;stroke-miterlimit:10;"/><path d="    M24.11262,22.07703c0.08307,0,0.36361-0.0155,0.54015-0.2242c0.17665-0.2087,0.46749-0.10817,0.49873-0.03864" style="fill:none;stroke:#30302F;stroke-width:0.8;stroke-linecap:round;stroke-linejoin:round;stroke-miterlimit:10;"/><path d="    M24.12084,22.07703c-0.08307,0-0.36361-0.0155-0.54015-0.2242c-0.17665-0.2087-0.46749-0.10817-0.49873-0.03864" style="fill:none;stroke:#30302F;stroke-width:0.8;stroke-linecap:round;stroke-linejoin:round;stroke-miterlimit:10;"/><path d="    M29.05735,16.95276c-0.7448-0.46865-1.72062-0.23751-2.38837-0.09637c-0.66763,0.14125-1.48011,0.28401-1.48011,0.28401    s-0.26793,1.19771,0.63004,1.19737c0,0,1.60529-0.35632,2.60841,0" style="fill:none;stroke:#30302F;stroke-width:0.8;stroke-linecap:round;stroke-linejoin:round;stroke-miterlimit:10;"/><path d="    M22.41456,18.33777c0,0-1.60528-0.35632-2.60841,0" style="fill:none;stroke:#30302F;stroke-width:0.8;stroke-linecap:round;stroke-linejoin:round;stroke-miterlimit:10;"/><path d="    M19.17611,16.95276c0.7448-0.46865,1.72062-0.23751,2.38837-0.09637c0.66764,0.14125,1.48011,0.28401,1.48011,0.28401" style="fill:none;stroke:#30302F;stroke-width:0.8;stroke-linecap:round;stroke-linejoin:round;stroke-miterlimit:10;"/><path d="    M24.81936,13.63564c0,0,0.95119-4.46266,4.0618-5.03392" style="fill:none;stroke:#30302F;stroke-width:0.8;stroke-linecap:round;stroke-linejoin:round;stroke-miterlimit:10;"/><path d="    M23.3706,13.63564c0,0-0.33457-4.58378-3.553-5.40054" style="fill:none;stroke:#30302F;stroke-width:0.8;stroke-linecap:round;stroke-linejoin:round;stroke-miterlimit:10;"/><path d="M24.96467,23.93532c-0.4889-0.21506-0.85205,0.02094-0.85205,0.02094    s-0.36314-0.236-0.85204-0.02094c-0.48878,0.21495-0.78217,0.30403-0.92886,0.27254c0,0,0.96379,0.6031,1.7809,0.59801    c0.8171,0.00509,1.78078-0.59801,1.78078-0.59801C25.74683,24.23935,25.45344,24.15027,24.96467,23.93532z" style="fill:#30302F;"/><polyline points="    27.93055,26.53402 27.99487,27.32474 28.70277,27.50869   " style="fill:none;stroke:#30302F;stroke-width:0.8;stroke-linecap:round;stroke-linejoin:round;stroke-miterlimit:10;"/><polyline points="    20.0787,26.51562 20.00513,27.28796 19.83044,27.334 19.26958,27.48104   " style="fill:none;stroke:#30302F;stroke-width:0.8;stroke-linecap:round;stroke-linejoin:round;stroke-miterlimit:10;"/><path d="    M31.93913,28.37288l1.87565,0.49653c3.15353,0.83665,5.63596,2.8318,6.71174,5.39695l1.54454,3.74203    C23.25063,44.45348,5.92893,37.9716,5.92893,37.9716l1.54466-3.73289c1.07567-2.56515,3.55809-4.56944,6.71163-5.39695    l1.72849-0.45963" style="fill:none;stroke:#30302F;stroke-width:0.8;stroke-linecap:round;stroke-linejoin:round;stroke-miterlimit:10;"/><path d="    M27.9951,27.32417c0,0-1.65896,1.92354-3.54074,2.43315l-0.49017,8.48257l-0.59973-8.48257    c-1.88178-0.50961-3.54074-2.43315-3.54074-2.43315" style="fill:none;stroke:#30302F;stroke-width:0.8;stroke-linecap:round;stroke-linejoin:round;stroke-miterlimit:10;"/><polygon points="    37.02037,22.52764 35.49075,23.39367 34.69736,21.82506 35.87841,17.92002 36.7485,19.2347 38.20142,18.62259   " style="fill:none;stroke:#30302F;stroke-width:0.8;stroke-linecap:round;stroke-linejoin:round;stroke-miterlimit:10;"/><line style="fill:none;stroke:#30302F;stroke-width:0.8;stroke-linecap:round;stroke-linejoin:round;stroke-miterlimit:10;" x1="35.49075" x2="33.86279" y1="23.39367" y2="28.77674"/><polyline points="    36.00856,23.10341 35.94424,23.32415 36.74411,24.89634 38.27037,24.03202 39.45641,20.12457 38.00372,20.74061     37.70038,20.28086   " style="fill:none;stroke:#30302F;stroke-width:0.8;stroke-linecap:round;stroke-linejoin:round;stroke-miterlimit:10;"/><line style="fill:none;stroke:#30302F;stroke-width:0.8;stroke-linecap:round;stroke-linejoin:round;stroke-miterlimit:10;" x1="36.74168" x2="35.37888" y1="24.89495" y2="29.40099"/></g></g></svg>