<?xml version="1.0" ?><svg style="enable-background:new 0 0 48 48;" version="1.1" viewBox="0 0 48 48" xml:space="preserve" xmlns="http://www.w3.org/2000/svg" xmlns:xlink="http://www.w3.org/1999/xlink"><g id="Icons"><g><path d="M33.15692,27.14745c0,0,0.59901-2.5946,0.48167-3.66444c0,0,1.04602,0.70739,2.93847,0    c1.89244-0.70739,2.14355-0.73595,2.94086-1.43692c0.79731-0.70097,3.85434-1.36144,3.85434-1.36144    s-2.10123,1.89013-3.09555,2.90688c-0.99432,1.01675-1.82209,1.57574-2.89862,2.224S33.65297,27.40185,33.15692,27.14745z" style="fill:#889B4C;"/><path d="M14.84308,27.20177c0,0-0.59901-2.5946-0.48167-3.66444c0,0-1.04603,0.70739-2.93847,0    s-2.14356-0.73595-2.94086-1.43692c-0.79731-0.70097-3.85434-1.36144-3.85434-1.36144s2.10123,1.89013,3.09555,2.90688    c0.99432,1.01675,1.82209,1.57574,2.89862,2.224C11.69845,26.51811,14.34703,27.45617,14.84308,27.20177z" style="fill:#889B4C;"/><g><path d="M14.87101,19.50871l-0.07336,0.43115c-0.479-0.04999-1.02344-0.06909-1.6217-0.0072     c-1.92993,0.19971-2.12964,0.55072-4.52545-0.04065c-2.39581-0.59155-4.39227,0.44-4.39227,0.44s3.75037,1.28979,4.62628,2.1109     c0.87598,0.82117,3.88684,1.53284,5.31018,1.0401c0,0,0.21899,3.9964,1.3139,5.09131l3.84149,4.54376     c0,0,1.63293,1.42334,4.09644,1.25909h0.94031c2.4635,0.16425,4.09644-1.25909,4.09644-1.25909l3.84149-4.54376     c1.09491-1.09491,1.31384-5.09131,1.31384-5.09131c1.42328,0.49274,4.43427-0.21893,5.31018-1.0401     c0.87592-0.82111,4.62634-2.1109,4.62634-2.1109s-1.99658-1.03156-4.39233-0.44     c-2.39581,0.59137-2.59546,0.24036-4.52539,0.04065c-0.59576-0.06165-1.138-0.04291-1.6156,0.00653l-0.07953-0.43048     c-0.79987-2.82611-4.31903-4.69232-4.31903-4.69232c-0.63629-0.98621-2.1615-1.28735-3.29095-1.37128l-0.00195-0.00153     l-0.02069-0.00018c-0.75244-0.05426-1.32544-0.01343-1.32544-0.01343l0.00232,0.00159l-0.17743-0.00159     c0,0-3.57257-0.26654-4.63898,1.38641c0,0-0.63336,0.33789-1.42218,0.93872l-0.00018-0.00018l0.00012,0.00024     C16.69455,16.57273,15.332,17.87974,14.87101,19.50871" style="fill:#B9D67C;"/></g><path d="M17.88797,23.99172c0,0-0.41223,1.57401,1.51781,1.53649c0,0,1.29286,0.22487,1.21789-1.53649" style="fill:#FFFFFF;"/><path d="M16.31404,23.99172c0,0,0.72981-2.62323,3.11938-2.43588c0,0,2.50187,0.18735,3.064,2.43588" style="fill:#889B4C;"/><path d="M31.68596,23.99172c0,0-0.72989-2.62323-3.11938-2.43588c0,0-2.50196,0.18735-3.06409,2.43588" style="fill:#889B4C;"/><path d="M30.11204,23.99172c0,0,0.41222,1.57401-1.51781,1.53649c0,0-1.29285,0.22487-1.21789-1.53649" style="fill:#FFFFFF;"/><path d="    M23.91245,13.52772c0,0-3.57257-0.26657-4.63901,1.38639c0,0-3.51927,1.86622-4.31905,4.6923" style="fill:none;stroke:#303030;stroke-width:0.75;stroke-linecap:round;stroke-linejoin:round;stroke-miterlimit:10;"/><path d="    M4.34156,20.42976c0,0,3.31244,2.93203,3.69565,3.53422c0.38321,0.6022,4.46942,3.62958,6.80587,3.18346" style="fill:none;stroke:#303030;stroke-width:0.75;stroke-linecap:round;stroke-linejoin:round;stroke-miterlimit:10;"/><path d="    M16.31404,23.99172c0,0,0.72981-2.62323,3.11938-2.43588c0,0,2.50187,0.18735,3.064,2.43588" style="fill:none;stroke:#303030;stroke-width:0.75;stroke-linecap:round;stroke-linejoin:round;stroke-miterlimit:10;"/><line style="fill:none;stroke:#303030;stroke-width:0.75;stroke-linecap:round;stroke-linejoin:round;stroke-miterlimit:10;" x1="16.31404" x2="22.49741" y1="23.99172" y2="23.99172"/><path d="    M17.88797,23.99172c0,0-0.41223,1.57401,1.51781,1.53649c0,0,1.29286,0.22487,1.21789-1.53649" style="fill:none;stroke:#303030;stroke-width:0.75;stroke-linecap:round;stroke-linejoin:round;stroke-miterlimit:10;"/><path d="    M17.06352,25.2659c0,0,1.9487,1.23666,4.45954,0" style="fill:none;stroke:#303030;stroke-width:0.75;stroke-linecap:round;stroke-linejoin:round;stroke-miterlimit:10;"/><path d="    M24.08756,13.52772c0,0,3.57256-0.26657,4.639,1.38639c0,0,3.51918,1.86622,4.31905,4.6923" style="fill:none;stroke:#303030;stroke-width:0.75;stroke-linecap:round;stroke-linejoin:round;stroke-miterlimit:10;"/><path d="    M31.34672,20.42976c0,0,1.46406-0.59902,3.394-0.39935s2.12962,0.55071,4.52544-0.0407    c2.39573-0.5915,4.39229,0.44005,4.39229,0.44005s-3.7504,1.28977-4.62632,2.11085    c-0.87592,0.82118-3.88689,1.53286-5.31017,1.04016c0,0-0.21897,3.99639-1.31387,5.09129l-3.8415,4.54374    c0,0-1.63293,1.42337-4.09645,1.25914h-0.94027c-2.46352,0.16423-4.09645-1.25914-4.09645-1.25914l-3.84149-4.54374    c-1.0949-1.0949-1.31388-5.09129-1.31388-5.09129c-1.42337,0.49271-4.43425-0.21898-5.31017-1.04016    c-0.87592-0.82108-4.62631-2.11085-4.62631-2.11085s1.99648-1.03155,4.39229-0.44005    c2.39582,0.59141,2.59549,0.24037,4.52544,0.0407s3.39401,0.39935,3.39401,0.39935" style="fill:none;stroke:#303030;stroke-width:0.75;stroke-linecap:round;stroke-linejoin:round;stroke-miterlimit:10;"/><path d="    M24.08756,13.52772c0,0,3.57256-0.26657,4.639,1.38639c0,0,3.51918,1.86622,4.31905,4.6923" style="fill:none;stroke:#303030;stroke-width:0.75;stroke-linecap:round;stroke-linejoin:round;stroke-miterlimit:10;"/><path d="    M31.34672,20.42976c0,0,1.46406-0.59902,3.394-0.39935s2.12962,0.55071,4.52544-0.0407    c2.39573-0.5915,4.39229,0.44005,4.39229,0.44005s-3.7504,1.28977-4.62632,2.11085    c-0.87592,0.82118-3.88689,1.53286-5.31017,1.04016c0,0-0.21897,3.99639-1.31387,5.09129l-3.8415,4.54374    c0,0-1.63293,1.42337-4.09645,1.25914h-0.94027c-2.46352,0.16423-4.09645-1.25914-4.09645-1.25914l-3.84149-4.54374    c-1.0949-1.0949-1.31388-5.09129-1.31388-5.09129c-1.42337,0.49271-4.43425-0.21898-5.31017-1.04016    c-0.87592-0.82108-4.62631-2.11085-4.62631-2.11085s1.99648-1.03155,4.39229-0.44005    c2.39582,0.59141,2.59549,0.24037,4.52544,0.0407s3.39401,0.39935,3.39401,0.39935" style="fill:none;stroke:#303030;stroke-width:0.75;stroke-linecap:round;stroke-linejoin:round;stroke-miterlimit:10;"/><path d="    M43.65844,20.42976c0,0-3.31244,2.93203-3.69565,3.53422c-0.38321,0.6022-4.46941,3.62958-6.80587,3.18346" style="fill:none;stroke:#303030;stroke-width:0.75;stroke-linecap:round;stroke-linejoin:round;stroke-miterlimit:10;"/><path d="    M31.68596,23.99172c0,0-0.72989-2.62323-3.11938-2.43588c0,0-2.50196,0.18735-3.06409,2.43588" style="fill:none;stroke:#303030;stroke-width:0.75;stroke-linecap:round;stroke-linejoin:round;stroke-miterlimit:10;"/><line style="fill:none;stroke:#303030;stroke-width:0.75;stroke-linecap:round;stroke-linejoin:round;stroke-miterlimit:10;" x1="31.68596" x2="25.5025" y1="23.99172" y2="23.99172"/><path d="    M30.11204,23.99172c0,0,0.41222,1.57401-1.51781,1.53649c0,0-1.29285,0.22487-1.21789-1.53649" style="fill:none;stroke:#303030;stroke-width:0.75;stroke-linecap:round;stroke-linejoin:round;stroke-miterlimit:10;"/><path d="    M30.93648,25.2659c0,0-1.9487,1.23666-4.45963,0" style="fill:none;stroke:#303030;stroke-width:0.75;stroke-linecap:round;stroke-linejoin:round;stroke-miterlimit:10;"/><path d="    M19.83458,31.34079c0.04107-3.98261,2.66284-4.80378,2.66284-4.80378l1.41503,0.61044l1.50612-0.61044    c0,0,2.66873,1.06753,2.58661,4.80378" style="fill:none;stroke:#303030;stroke-width:0.75;stroke-linecap:round;stroke-linejoin:round;stroke-miterlimit:10;"/><line style="fill:none;stroke:#303030;stroke-width:0.75;stroke-linecap:round;stroke-linejoin:round;stroke-miterlimit:10;" x1="19.96038" x2="27.87294" y1="29.99355" y2="29.99355"/><line style="fill:none;stroke:#303030;stroke-width:0.75;stroke-linecap:round;stroke-linejoin:round;stroke-miterlimit:10;" x1="22.49741" x2="23.52986" y1="26.537" y2="22.76902"/><line style="fill:none;stroke:#303030;stroke-width:0.75;stroke-linecap:round;stroke-linejoin:round;stroke-miterlimit:10;" x1="25.49126" x2="24.45881" y1="26.537" y2="22.76902"/><path d="    M19.96038,19.80672c0,0-0.97245-2.89577-2.10931-3.95406" style="fill:none;stroke:#303030;stroke-width:0.75;stroke-linecap:round;stroke-linejoin:round;stroke-miterlimit:10;"/><path d="    M22.49741,19.60641c0,0-0.60473-3.45718-2.53703-5.1405" style="fill:none;stroke:#303030;stroke-width:0.75;stroke-linecap:round;stroke-linejoin:round;stroke-miterlimit:10;"/><path d="    M28.02829,19.80672c0,0,0.97245-2.89577,2.10932-3.95406" style="fill:none;stroke:#303030;stroke-width:0.75;stroke-linecap:round;stroke-linejoin:round;stroke-miterlimit:10;"/><path d="    M25.49126,19.50626c0,0,0.60473-3.45718,2.53703-5.1405" style="fill:none;stroke:#303030;stroke-width:0.75;stroke-linecap:round;stroke-linejoin:round;stroke-miterlimit:10;"/><path d="    M16.75517,27.37005c0,0,0.61153,1.02855,0.91734,1.27871" style="fill:none;stroke:#303030;stroke-width:0.75;stroke-linecap:round;stroke-linejoin:round;stroke-miterlimit:10;"/><line style="fill:none;stroke:#303030;stroke-width:0.75;stroke-linecap:round;stroke-linejoin:round;stroke-miterlimit:10;" x1="14.49531" x2="12.5679" y1="25.53754" y2="25.18886"/><line style="fill:none;stroke:#303030;stroke-width:0.75;stroke-linecap:round;stroke-linejoin:round;stroke-miterlimit:10;" x1="33.50433" x2="35.05749" y1="25.53754" y2="25.2659"/></g></g></svg>