<?xml version="1.0" ?><svg style="enable-background:new 0 0 48 48;" version="1.1" viewBox="0 0 48 48" xml:space="preserve" xmlns="http://www.w3.org/2000/svg" xmlns:xlink="http://www.w3.org/1999/xlink"><g id="Icons"><g><g><path d="M22.23004,39.88006L22.23004,39.88006c-0.48229,0-0.87322-0.39267-0.87322-0.87687v-3.2917     c0-0.4843,0.39093-0.87687,0.87322-0.87687l0,0c0.48219,0,0.87322,0.39256,0.87322,0.87687v3.2917     C23.10326,39.48739,22.71222,39.88006,22.23004,39.88006z" style="fill:#FFFFFF;"/><path d="M25.77151,39.88006L25.77151,39.88006c-0.48219,0-0.87322-0.39267-0.87322-0.87687v-3.2917     c0-0.4843,0.39103-0.87687,0.87322-0.87687l0,0c0.48229,0,0.87322,0.39256,0.87322,0.87687v3.2917     C26.64473,39.48739,26.2538,39.88006,25.77151,39.88006z" style="fill:#FFFFFF;"/><path d="M23.97648,40.67147L23.97648,40.67147c-0.48229,0-0.87322-0.39257-0.87322-0.87687v-4.87451     c0-0.4843,0.39093-0.87687,0.87322-0.87687l0,0c0.48219,0,0.87322,0.39257,0.87322,0.87687v4.87451     C24.84969,40.2789,24.45866,40.67147,23.97648,40.67147z" style="fill:#FFFFFF;"/></g><polygon points="36.513,14.88134 11.36221,14.88134 11.42292,16.90441 36.513,16.90441   " style="fill:#464747;"/><path d="M11.40789,14.88134c0,0-0.81534-6.35769,4.58994-7.46886    c0.32458-0.06673,0.65864-0.08394,0.98988-0.08394h13.41831c0.98536,0,1.96555,0.23086,2.81507,0.73217    c1.48951,0.8791,3.29191,2.77793,3.29191,6.82063H11.40789z" style="fill:#F4F4F4;"/><path d="M21.3546,39.02618h-1.26263c-9.07835,3.16584-8.69881-5.1882-8.72977-5.14932    c-0.05425,0-2.21531-2.44237-2.21531-2.44237c-1.17743-1.18235-1.17743-2.86247-1.17743-2.86247    c0-2.62908,2.05267-3.20472,2.05267-3.20472v-7.20277h1.40078v-1.26012h25.09069v1.56348l1.08436,0.03888v6.89941    c2.50975,0.31116,2.4323,3.08807,2.4323,3.08807c-0.1937,3.04909-3.51667,5.60821-3.51667,5.60821    c-1.31689,9.38856-8.93899,4.92372-8.93899,4.92372h-0.92947" style="fill:#F4F4F4;"/><path d="M15.72205,28.94787c0,0,2.78946-0.28878,3.87816-1.48055c1.12318-1.22954,5.44884-3.15419,8.686,0    c0,0,1.60255,1.96333,4.07055,1.83464c0,0-2.05731,1.50444-4.29489,0.00597c0,0-3.81413-2.90267-7.72446-0.23137    C20.33739,29.07657,18.37911,30.54709,15.72205,28.94787z" style="fill:#464747;"/><ellipse cx="16.46065" cy="36.09596" rx="1.63784" ry="1.64468" style="fill:#464747;"/><ellipse cx="31.53374" cy="36.09596" rx="1.63784" ry="1.64468" style="fill:#464747;"/><path d="M22.44341,19.37108h-8.95715c0,0,0.26086,7.11711,4.47852,3.73317L22.44341,19.37108z" style="fill:#464747;"/><path d="M25.11166,19.37108h8.95714c0,0-0.26086,7.11711-4.47852,3.73317L25.11166,19.37108z" style="fill:#464747;"/><path d="    M11.40789,14.88134c0,0-0.81534-6.35769,4.58994-7.46886c0.32458-0.06673,0.65864-0.08394,0.98988-0.08394h13.41831    c0.98536,0,1.96555,0.23086,2.81507,0.73217c1.48951,0.8791,3.29191,2.77793,3.29191,6.82063H11.40789z" style="fill:none;stroke:#303030;stroke-width:0.75;stroke-linecap:round;stroke-linejoin:round;stroke-miterlimit:10;"/><path d="    M21.3546,39.02618h-1.26263c-9.07835,3.16584-8.69881-5.1882-8.72977-5.14932c-0.05425,0-2.21531-2.44237-2.21531-2.44237    c-1.17743-1.18235-1.17743-2.86247-1.17743-2.86247c0-2.62908,2.05267-3.20472,2.05267-3.20472v-7.20277h1.40078v-1.26012    h25.09069v1.56348l1.08436,0.03888v6.89941c2.50975,0.31116,2.4323,3.08807,2.4323,3.08807    c-0.1937,3.04909-3.51667,5.60821-3.51667,5.60821c-1.31689,9.38856-8.93899,4.92372-8.93899,4.92372h-0.92947" style="fill:none;stroke:#303030;stroke-width:0.75;stroke-linecap:round;stroke-linejoin:round;stroke-miterlimit:10;"/><line style="fill:none;stroke:#303030;stroke-width:0.75;stroke-linecap:round;stroke-linejoin:round;stroke-miterlimit:10;" x1="24.89457" x2="24.84808" y1="39.02618" y2="39.02618"/><path d="    M22.44341,19.37108h-8.95715c0,0,0.26086,7.11711,4.47852,3.73317L22.44341,19.37108z" style="fill:none;stroke:#303030;stroke-width:0.75;stroke-linecap:round;stroke-linejoin:round;stroke-miterlimit:10;"/><path d="    M25.11166,19.37108h8.95714c0,0-0.26086,7.11711-4.47852,3.73317L25.11166,19.37108z" style="fill:none;stroke:#303030;stroke-width:0.75;stroke-linecap:round;stroke-linejoin:round;stroke-miterlimit:10;"/><path d="    M15.72205,28.94787c0,0,2.78946-0.28878,3.87816-1.48055c1.12318-1.22954,5.44884-3.15419,8.686,0    c0,0,1.60255,1.96333,4.07055,1.83464c0,0-2.05731,1.50444-4.29489,0.00597c0,0-3.81413-2.90267-7.72446-0.23137    C20.33739,29.07657,18.37911,30.54709,15.72205,28.94787z" style="fill:none;stroke:#303030;stroke-width:0.75;stroke-linecap:round;stroke-linejoin:round;stroke-miterlimit:10;"/><line style="fill:none;stroke:#303030;stroke-width:0.75;stroke-linecap:round;stroke-linejoin:round;stroke-miterlimit:10;" x1="18.83689" x2="18.83689" y1="28.04721" y2="29.65149"/><line style="fill:none;stroke:#303030;stroke-width:0.75;stroke-linecap:round;stroke-linejoin:round;stroke-miterlimit:10;" x1="29.10739" x2="29.10739" y1="28.27837" y2="29.65149"/><line style="fill:none;stroke:#303030;stroke-width:0.75;stroke-linecap:round;stroke-linejoin:round;stroke-miterlimit:10;" x1="22.15341" x2="22.15341" y1="26.08677" y2="28.12842"/><line style="fill:none;stroke:#303030;stroke-width:0.75;stroke-linecap:round;stroke-linejoin:round;stroke-miterlimit:10;" x1="25.69025" x2="25.69025" y1="26.02849" y2="28.12842"/><ellipse cx="16.46065" cy="36.09596" rx="1.63784" ry="1.64468" style="fill:none;stroke:#303030;stroke-width:0.75;stroke-linecap:round;stroke-linejoin:round;stroke-miterlimit:10;"/><ellipse cx="31.53374" cy="36.09596" rx="1.63784" ry="1.64468" style="fill:none;stroke:#303030;stroke-width:0.75;stroke-linecap:round;stroke-linejoin:round;stroke-miterlimit:10;"/><g><path d="     M22.23004,39.88006L22.23004,39.88006c-0.48229,0-0.87322-0.39267-0.87322-0.87687v-3.2917     c0-0.4843,0.39093-0.87687,0.87322-0.87687l0,0c0.48219,0,0.87322,0.39256,0.87322,0.87687v3.2917     C23.10326,39.48739,22.71222,39.88006,22.23004,39.88006z" style="fill:none;stroke:#303030;stroke-width:0.75;stroke-linecap:round;stroke-linejoin:round;stroke-miterlimit:10;"/><path d="     M25.77151,39.88006L25.77151,39.88006c-0.48219,0-0.87322-0.39267-0.87322-0.87687v-3.2917     c0-0.4843,0.39103-0.87687,0.87322-0.87687l0,0c0.48229,0,0.87322,0.39256,0.87322,0.87687v3.2917     C26.64473,39.48739,26.2538,39.88006,25.77151,39.88006z" style="fill:none;stroke:#303030;stroke-width:0.75;stroke-linecap:round;stroke-linejoin:round;stroke-miterlimit:10;"/><path d="     M23.97648,40.67147L23.97648,40.67147c-0.48229,0-0.87322-0.39257-0.87322-0.87687v-4.87451     c0-0.4843,0.39093-0.87687,0.87322-0.87687l0,0c0.48219,0,0.87322,0.39257,0.87322,0.87687v4.87451     C24.84969,40.2789,24.45866,40.67147,23.97648,40.67147z" style="fill:none;stroke:#303030;stroke-width:0.75;stroke-linecap:round;stroke-linejoin:round;stroke-miterlimit:10;"/></g><line style="fill:none;stroke:#303030;stroke-width:0.75;stroke-linecap:round;stroke-linejoin:round;stroke-miterlimit:10;" x1="11.40789" x2="11.42292" y1="14.88134" y2="16.90441"/><line style="fill:none;stroke:#303030;stroke-width:0.75;stroke-linecap:round;stroke-linejoin:round;stroke-miterlimit:10;" x1="36.513" x2="36.513" y1="14.88134" y2="17.07189"/><path d="    M10.02213,25.3673c0,0,1.20083-0.40107,2.3595,1.32178" style="fill:none;stroke:#303030;stroke-width:0.75;stroke-linecap:round;stroke-linejoin:round;stroke-miterlimit:10;"/><line style="fill:none;stroke:#303030;stroke-width:0.75;stroke-linecap:round;stroke-linejoin:round;stroke-miterlimit:10;" x1="11.00455" x2="12.69351" y1="33.50758" y2="35.32571"/><path d="    M37.59797,25.40618c0,0-1.64836-0.09837-2.40538,1.2829" style="fill:none;stroke:#303030;stroke-width:0.75;stroke-linecap:round;stroke-linejoin:round;stroke-miterlimit:10;"/><line style="fill:none;stroke:#303030;stroke-width:0.75;stroke-linecap:round;stroke-linejoin:round;stroke-miterlimit:10;" x1="36.84555" x2="35.15659" y1="33.76609" y2="35.58422"/><path d="    M13.64367,14.88134c0,0-0.28355-5.23063,3.56869-5.30181" style="fill:none;stroke:#303030;stroke-width:0.75;stroke-linecap:round;stroke-linejoin:round;stroke-miterlimit:10;"/><line style="fill:none;stroke:#303030;stroke-width:0.75;stroke-linecap:round;stroke-linejoin:round;stroke-miterlimit:10;" x1="18.86674" x2="20.16659" y1="9.43707" y2="9.43707"/><path d="    M22.06437,30.443c0,0,1.72566-1.05882,3.70714,0" style="fill:none;stroke:#303030;stroke-width:0.75;stroke-linecap:round;stroke-linejoin:round;stroke-miterlimit:10;"/></g></g></svg>