<?xml version="1.0" ?><svg style="enable-background:new 0 0 48 48;" version="1.1" viewBox="0 0 48 48" xml:space="preserve" xmlns="http://www.w3.org/2000/svg" xmlns:xlink="http://www.w3.org/1999/xlink"><g id="Icons"><g><path d="M24.32201,6.7089l-8.8075,1.7138c-1.2014,0.2338-2.1648,1.1313-2.483,2.3131l-1.3071,4.8552    l0.7883,2.0497l-0.7883,0.9985l1.1562,4.9929l0.2628-4.4673l2.9957-1.6818l-0.4204-4.8494l5.5118,0.7505    c0,0-2.1023,1.3212-1.2614,2.4249s3.7315,2.7329,1.9446,4.0468c0,0,3.3703-1.3568,1.8987-3.3539c0,0-1.788-2.8283,0.8868-2.4802    l1.0351,0.2631l7.1179-1.4268l-0.5782,4.3097l2.4702,2.2073v4.4673l1.7344-4.8877l-0.7884-1.3665l0.3679-2.3125l-0.2628-3.4687    l-0.0863-0.518c-0.2149-1.2896-1.1916-2.3195-2.468-2.6025L24.32201,6.7089z" style="fill:#464747;"/><path d="M12.83536,23.6321l0.8935,12.754l5.7287,4.905h8.9346l5.6761-5.4811l0.6307-11.9677    l0.18694-4.41808l-2.60083-2.33896l0.83072-4.35204l-7.14765,1.50471c0,0-2.1985-1.04448-2.55252,0.51321    s0.68153,1.39394,0.6859,2.29817c0.00436,0.90423-0.47109,2.44746-1.94147,2.6944c0,0,0.75995-1.3156-1.01016-2.65845    s-1.67964-2.87327,0.08063-3.70116l-5.5118-0.7505l0.40838,4.71073l-2.99679,2.04339L12.83536,23.6321z" style="fill:#F9D9C0;"/><path d="M12.27872,21.0329c0,0-1.7272-0.3903-1.8226,1.4222c-0.0953,1.8124-0.3338,2.4325,0,2.7187    c0.3339,0.2862,1.0017,1.0016,1.0494,2.0986s0.2572,3.191,1.7503,1.7147v-4.05112L12.27872,21.0329z" style="fill:#F9D9C0;"/><path d="M35.72131,21.0329c0,0,1.7271-0.3903,1.8225,1.4222c0.0954,1.8124,0.3339,2.4325,0,2.7187    c-0.33389,0.2862-1.0016,1.0016-1.0493,2.0986s-0.2573,3.191-1.7503,1.7147l-0.39967-3.74012L35.72131,21.0329z" style="fill:#F9D9C0;"/><polyline points="    19.67892,34.9283 20.35151,34.3301 27.23322,34.4869 27.94601,35.1166   " style="fill:none;stroke:#303030;stroke-width:0.75;stroke-linecap:round;stroke-linejoin:round;stroke-miterlimit:10;"/><line style="fill:none;stroke:#303030;stroke-width:0.75;stroke-linecap:round;stroke-linejoin:round;stroke-miterlimit:10;" x1="22.27811" x2="25.25621" y1="36.3644" y2="36.4986"/><path d="    M24.32201,6.7089l-8.8075,1.7138c-1.2014,0.2338-2.1648,1.1313-2.483,2.3131l-1.3071,4.8552l0.7883,2.0497l-0.7883,0.9985    l1.1562,4.9929l0.2628-4.4673l2.9957-1.6818l-0.4204-4.8494l5.5118,0.7505c0,0-2.1023,1.3212-1.2614,2.4249    s3.7315,2.7329,1.9446,4.0468c0,0,3.3703-1.3568,1.8987-3.3539c0,0-1.788-2.8283,0.8868-2.4802l1.0351,0.2631l7.1179-1.4268    l-0.5782,4.3097l2.4702,2.2073v4.4673l1.7344-4.8877l-0.7884-1.3665l0.3679-2.3125l-0.2628-3.4687l-0.0863-0.518    c-0.2149-1.2896-1.1916-2.3195-2.468-2.6025L24.32201,6.7089z" style="fill:none;stroke:#303030;stroke-width:0.75;stroke-linecap:round;stroke-linejoin:round;stroke-miterlimit:10;"/><polyline points="    12.88062,23.6321 13.77411,36.3861 19.50282,41.2911 28.43741,41.2911 34.11351,35.81 34.74421,23.8423   " style="fill:none;stroke:#303030;stroke-width:0.75;stroke-linecap:round;stroke-linejoin:round;stroke-miterlimit:10;"/><path d="    M12.27872,21.0329c0,0-1.7272-0.3903-1.8226,1.4222c-0.0953,1.8124-0.3338,2.4325,0,2.7187    c0.3339,0.2862,1.0017,1.0016,1.0494,2.0986s0.2572,3.191,1.7503,1.7147" style="fill:none;stroke:#303030;stroke-width:0.75;stroke-linecap:round;stroke-linejoin:round;stroke-miterlimit:10;"/><path d="    M35.72131,21.0329c0,0,1.7271-0.3903,1.8225,1.4222c0.0954,1.8124,0.3339,2.4325,0,2.7187    c-0.33389,0.2862-1.0016,1.0016-1.0493,2.0986s-0.3144,3.10205-2.01045,1.50636" style="fill:none;stroke:#303030;stroke-width:0.75;stroke-linecap:round;stroke-linejoin:round;stroke-miterlimit:10;"/><polyline points="    21.99851,29.5447 23.82361,30.3723 25.75261,29.6194   " style="fill:none;stroke:#303030;stroke-width:0.75;stroke-linecap:round;stroke-linejoin:round;stroke-miterlimit:10;"/><line style="fill:none;stroke:#303030;stroke-width:0.75;stroke-linecap:round;stroke-linejoin:round;stroke-miterlimit:10;" x1="23.76711" x2="23.76711" y1="41.2911" y2="39.212"/><line style="fill:none;stroke:#303030;stroke-width:0.75;stroke-linecap:round;stroke-linejoin:round;stroke-miterlimit:10;" x1="14.46861" x2="15.07372" y1="18.6247" y2="28.1626"/><line style="fill:none;stroke:#303030;stroke-width:0.75;stroke-linecap:round;stroke-linejoin:round;stroke-miterlimit:10;" x1="15.23261" x2="15.32841" y1="29.8399" y2="31.3498"/></g></g></svg>