<?xml version="1.0" ?><svg style="enable-background:new 0 0 48 48;" version="1.1" viewBox="0 0 48 48" xml:space="preserve" xmlns="http://www.w3.org/2000/svg" xmlns:xlink="http://www.w3.org/1999/xlink"><g id="Icons"><g><path d="M6.61919,38.24601c0,0,0.85256-1.51826,2.43567-2.86665    c1.58312-1.34839,5.1374-2.13223,5.1374-2.13223s1.23756,1.68619,3.62728,3.22348s4.34327,2.32469,6.94799,2.18855    s7.08523-2.90609,8.84439-5.53997l0.9088,0.3353c0,0,5.77651,1.42641,6.85929,4.80733    C41.37747,43.85618,6.61665,43.84037,6.61919,38.24601z" style="fill:#F4F4F4;"/><path d="M10.76742,34.44501c0,0-0.75353-2.4977,0.75856-4.11033s1.32731-4.59297,1.39447-6.39933    s0.28841-3.34593,1.36532-7.00647s0.86231-3.94134,0.86231-3.94134s-0.81159-0.27221-0.35278-1.30023    s0.84341-0.33585,1.09013-1.53908s1.89011-3.5046,4.5179-4.13092s8.66887-0.44768,10.00228,2.07753    c0,0,1.30133,1.16543,1.45821,2.84752c0,0,0.77416-0.11819,0.80869,0.82279c0.03454,0.94098-0.26509,1.47429-0.26509,1.47429    s0.12762,2.46305,0.95756,4.3108c0.82993,1.84775,1.49611,4.17243,1.16302,6.14599    c-0.33308,1.97356-0.24461,3.94994,0.21561,4.75878c0.46022,0.80884,2.1434,2.06997,1.95699,4.45635l0.01435,1.30971    L10.76742,34.44501z" style="fill:#FFF2DC;"/><path d="M19.7241,27.75392c0,0,0.68981,2.18351-1.6934,3.37386    c-2.38321,1.19035-3.83844,2.03679-3.83844,2.03679s3.21863,3.89215,6.1914,4.73492s5.67223,1.25743,8.10171-0.34563    c2.42948-1.60306,5.29746-4.30672,5.29746-4.30672s-2.67945-1.09154-3.81488-2.02214    c-1.13543-0.9306-2.05829-2.09898-1.69912-3.55438C28.628,26.21521,19.7241,27.75392,19.7241,27.75392" style="fill:#F9D9C0;"/><path d="M18.27122,13.4936c0,0-0.23462,1.06862-0.75106,2.01695    c-0.51645,0.94833-0.14633,0.7004-0.35302,2.10048c-0.20669,1.40008-0.12389,1.94514-0.68438,2.50533    c-0.5605,0.56018-1.2501,1.81466-1.2501,1.81466s-0.0102,2.61985,1.86455,1.93717c0,0,1.0215,2.65757,2.6269,3.88573    c1.60541,1.22816,2.47419,2.02844,4.26758,1.83377c1.7934-0.19466,3.96648-1.28486,4.89273-2.60867    c0.92625-1.32381,1.7254-3.25521,1.7254-3.25521s1.09436,0.3262,1.55163-0.60314c0.45727-0.92934-0.16884-2.77421-0.83934-3.23641    c-0.6705-0.4622-0.6705-1.73066-0.56236-2.70779c0.10814-0.97713-0.77864-2.44791-0.93005-3.42121    c-0.08176-0.52562-4.79128,1.05429-5.52168,0.61441c-0.6221-0.37465,2.76923-2.77368,2.21222-3.15642    c-1.21099-0.83212-2.70007-1.36743-2.74499-1.44584c-0.04492-0.07841-3.59599,1.73753-3.59599,1.73753    s3.40837,2.42253,3.02439,2.71898c-0.38398,0.29645-4.85921-1.38088-4.95339-0.91847" style="fill:#F9D9C0;"/><path d="    M6.7816,37.89949c0.95113-1.76637,2.59298-2.86477,3.98582-3.52147c1.40399-0.64543,2.57034-0.86053,2.57034-0.86053    l1.85696-0.82662l1.16635-0.52092c0,0,1.18888-0.50954,2.46847-1.52861c0.87191-0.67946,0.92848-2.0608,0.89456-2.88742" style="fill:none;stroke:#30302F;stroke-width:0.8;stroke-linecap:round;stroke-linejoin:round;stroke-miterlimit:10;"/><path d="    M28.2759,27.75392c-0.03392,0.82662,0.02265,2.20796,0.89456,2.88742c1.27959,1.01908,2.46847,1.52861,2.46847,1.52861    l1.16635,0.52092l1.85696,0.82662c0,0,1.16635,0.2151,2.57045,0.86053c1.39272,0.6567,3.03458,1.7551,3.98571,3.52147" style="fill:none;stroke:#30302F;stroke-width:0.8;stroke-linecap:round;stroke-linejoin:round;stroke-miterlimit:10;"/><path d="    M14.44006,33.42522c9.29351,10.24084,16.77301,2.81479,19.10325-0.17809" style="fill:none;stroke:#30302F;stroke-width:0.8;stroke-linecap:round;stroke-linejoin:round;stroke-miterlimit:10;"/><g><path d="     M9.41989,39.9604c1.82304-2.8988,1.99285-3.13655,1.50596-4.73311c-0.07921-0.26052-0.13578-0.54357-0.15843-0.84927     c-0.19257-1.52861,0.15843-3.4196,0.75856-4.11033c0.29443-0.33975,0.64543-0.84927,0.93986-1.55139     c0.41894-1.00767,0.70211-2.40051,0.49827-4.2915c-0.36238-3.21577,1.14359-6.87312,1.61921-8.49244     c0.31708-1.12096,0.21511-1.47194,0.5661-3.01193" style="fill:none;stroke:#30302F;stroke-width:0.8;stroke-linecap:round;stroke-linejoin:round;stroke-miterlimit:10;"/><path d="     M38.02606,39.95783c-1.82427-2.89279-1.9856-3.13465-1.51188-4.72709c0.47373-1.5825,0.12094-4.13244-0.59467-4.95893     c-0.7156-0.83655-1.78399-2.6307-1.44125-5.8459c0.35267-3.21521-1.13901-6.87391-1.61274-8.49668     c-0.33258-1.11882-0.17126-1.48164-0.514-3.02375v-0.01004" style="fill:none;stroke:#30302F;stroke-width:0.8;stroke-linecap:round;stroke-linejoin:round;stroke-miterlimit:10;"/><path d="     M15.55294,10.98198c0.06047-0.20161,0.33943-0.90869,0.42009-1.14053c1.34051-4.03156,6.55136-3.89054,6.55136-3.89054h2.38881     c0,0,5.21085-0.14102,6.56151,3.89054c0.07051,0.23184,0.40031,1.04987,0.47093,1.25147" style="fill:none;stroke:#30302F;stroke-width:0.8;stroke-linecap:round;stroke-linejoin:round;stroke-miterlimit:10;"/><g><path d="      M23.71528,15.01704c-0.72565-0.79627-2.4996-1.30023-3.68893-1.30023c-0.39362,0-0.78701-0.05904-1.16378-0.17327      c-0.2835-0.08591-0.58864-0.19792-0.83186-0.3711c-2.7214,0.73582-2.86243-0.2519-2.88262-0.2519      c-0.66518-0.21165-0.55439-0.7358-0.35278-1.30023c0.07051-0.21165,0.32255-0.4031,0.72565-0.54435      c0.71572-0.23184,1.91509-0.3123,3.56799-0.07062c0.45364,0.07062,0.89713,0.23206,1.31038,0.47395      C22.26387,12.51722,23.61453,14.84556,23.71528,15.01704z" style="fill:none;stroke:#30302F;stroke-width:0.8;stroke-linecap:round;stroke-linejoin:round;stroke-miterlimit:10;"/><path d="      M32.35309,12.90035c-0.04039,0.01004-0.21165,0.98772-2.86254,0.29231c-0.02008-0.01004-0.05031-0.01004-0.07051-0.02022      c0,0-0.80631,0.54437-1.99564,0.54437c-1.19937,0-2.97333,0.50396-3.68893,1.30023      c0.09071-0.17148,1.44137-2.49982,3.30591-3.53776c0.41325-0.24188,0.85674-0.40332,1.31027-0.47395      c1.68325-0.25204,2.89266-0.16122,3.59822,0.0908c0.39317,0.13112,0.6249,0.32257,0.69552,0.52417      C32.84701,12.16455,32.94775,12.67866,32.35309,12.90035z" style="fill:none;stroke:#30302F;stroke-width:0.8;stroke-linecap:round;stroke-linejoin:round;stroke-miterlimit:10;"/></g><path d="     M31.14926,19.88426c-0.06795,1.01908-0.2151,2.26464-0.36237,3.06861c-0.0453,0.2604-0.10187,0.52078-0.18119,0.76994     c-0.54346,1.94756-1.73245,3.69139-3.47617,4.74449c-0.89456,0.55483-1.94767,0.95113-3.13655,0.95113l-0.50954-0.01138     c-1.0531-0.06795-1.99296-0.44159-2.79693-0.93975c-0.33962-0.20384-0.66808-0.4417-0.9624-0.71338     c-1.42675-1.20026-2.35523-2.94409-2.70634-4.80105c-0.18108-0.96251-0.351-2.06093-0.38491-3.01204" style="fill:none;stroke:#30302F;stroke-width:0.8;stroke-linecap:round;stroke-linejoin:round;stroke-miterlimit:10;"/><path d="     M18.0307,13.17244c0.30235,0.16124,1.14905,0.54437,1.99564,0.54437c1.18933,0,2.96329,0.50396,3.68893,1.30023l0.01015,0.01004     l0.01004-0.01004c0.71561-0.79627,2.48956-1.30023,3.68893-1.30023c1.18933,0,1.99564-0.54437,1.99564-0.54437     c0.0202,0.01017,0.05043,0.01017,0.07051,0.02022c0.12094,0.57458,0.42341,1.784,0.92737,2.47941     c0.41325,0.57458,0.19123,2.04641,0.23162,2.82224c0.03024,0.52417,0.22169,1.02813,0.54424,1.45165     c0,0,1.84056,1.79348,1.6085,3.74302c-0.23206,1.94958,2.20752,5.09897,2.20752,5.09897" style="fill:none;stroke:#30302F;stroke-width:0.8;stroke-linecap:round;stroke-linejoin:round;stroke-miterlimit:10;"/><path d="     M18.32,13.30546c-0.01138,0.01127-0.01138,0.01127-0.01138,0.02265v0.01127c-0.14716,0.62278-0.43021,1.68715-0.89445,2.33258     c-0.41905,0.57748-0.19257,2.04953-0.23787,2.81947c-0.03392,0.52092-0.21511,1.03043-0.54346,1.4494     c0,0-0.97378,1.0531-1.4041,2.43456c-0.13589,0.40756-0.21511,0.86053-0.20384,1.31351     c0.05657,2.75152-2.55907,5.02741-2.55907,5.02741" style="fill:none;stroke:#30302F;stroke-width:0.8;stroke-linecap:round;stroke-linejoin:round;stroke-miterlimit:10;"/><path d="     M20.40334,11.47806c0,0,2.66651-1.38828,3.31841-1.60783" style="fill:none;stroke:#30302F;stroke-width:0.8;stroke-linecap:round;stroke-linejoin:round;stroke-miterlimit:10;"/><path d="     M27.0338,11.47806c0,0-2.66651-1.38828-3.31852-1.60783" style="fill:none;stroke:#30302F;stroke-width:0.8;stroke-linecap:round;stroke-linejoin:round;stroke-miterlimit:10;"/><path d="     M29.57267,10.87536c0,0,1.20685-0.87415,1.32868-2.2159" style="fill:none;stroke:#30302F;stroke-width:0.8;stroke-linecap:round;stroke-linejoin:round;stroke-miterlimit:10;"/><path d="     M18.02256,10.87536c0,0-1.20674-0.87415-1.32857-2.2159" style="fill:none;stroke:#30302F;stroke-width:0.8;stroke-linecap:round;stroke-linejoin:round;stroke-miterlimit:10;"/><path d="     M31.50293,24.08617c-0.06616,0.5659-0.09495,1.13937-0.08669,1.70882c0.00636,0.43322,0.02265,0.88754,0.13511,1.30826     c0.11815,0.44157,0.36182,0.8351,0.57191,1.23664c0.67667,1.29387,1.08044,2.7773,0.52036,4.17437" style="fill:none;stroke:#30302F;stroke-width:0.8;stroke-linecap:round;stroke-linejoin:round;stroke-miterlimit:10;"/><path d="     M16.27047,24.08617c0.06616,0.5659,0.09506,1.13937,0.0868,1.70882c-0.00636,0.43322-0.02265,0.88754-0.13511,1.30826     c-0.11815,0.44157-0.36193,0.8351-0.57191,1.23664c-0.67667,1.29387-1.01037,2.9528-0.45018,4.34998" style="fill:none;stroke:#30302F;stroke-width:0.8;stroke-linecap:round;stroke-linejoin:round;stroke-miterlimit:10;"/><path d="     M22.8678,23.18526c0,0,0.31708-0.1167,0.58529,0.14158s0.53642,0.2083,0.53642,0.2083" style="fill:none;stroke:#30302F;stroke-width:0.8;stroke-linecap:round;stroke-linejoin:round;stroke-miterlimit:10;"/><path d="     M25.11123,23.18526c0,0-0.31697-0.1167-0.58518,0.14158c-0.26832,0.25828-0.53654,0.2083-0.53654,0.2083" style="fill:none;stroke:#30302F;stroke-width:0.8;stroke-linecap:round;stroke-linejoin:round;stroke-miterlimit:10;"/><path d="M24.86143,25.42145c-0.55629-0.21577-0.87192,0.12462-0.87192,0.12462     s-0.31552-0.3404-0.8718-0.12462c-0.5564,0.216-0.77228,0.24913-0.98817,0.22425c0,0,0.67254,0.63115,1.85997,0.7474     c1.18743-0.11626,1.86009-0.7474,1.86009-0.7474C25.63371,25.67058,25.41783,25.63745,24.86143,25.42145z" style="fill:#30302F;"/><g><path d="      M22.40813,18.0456c-0.18007-0.28015-2.35211-0.86913-2.35211-0.86913l-1.62824,0.54769" style="fill:none;stroke:#30302F;stroke-width:0.8;stroke-linecap:round;stroke-linejoin:round;stroke-miterlimit:10;"/></g><path d="     M21.99276,19.48372c0,0-1.10275-0.68169-2.89601-0.22503" style="fill:none;stroke:#30302F;stroke-width:0.8;stroke-linecap:round;stroke-linejoin:round;stroke-miterlimit:10;"/><g><path d="      M29.37831,17.72416l-1.62835-0.54769c0,0-2.17192,0.58897-2.352,0.86913c0,0-0.62892,1.35019,0.41537,1.43813      c0,0,1.10275-0.68169,2.89601-0.22503" style="fill:none;stroke:#30302F;stroke-width:0.8;stroke-linecap:round;stroke-linejoin:round;stroke-miterlimit:10;"/></g><path d="     M33.54331,33.24713c0,0,2.18933,3.63261-0.38837,7.41024" style="fill:none;stroke:#30302F;stroke-width:0.8;stroke-linecap:round;stroke-linejoin:round;stroke-miterlimit:10;"/><path d="     M14.19227,33.16457c0,0-2.15385,3.71517,0.42385,7.4928" style="fill:none;stroke:#30302F;stroke-width:0.8;stroke-linecap:round;stroke-linejoin:round;stroke-miterlimit:10;"/><path d="     M30.60982,23.72381c0,0,1.36349,0.87781,1.95034-1.69296" style="fill:none;stroke:#30302F;stroke-width:0.8;stroke-linecap:round;stroke-linejoin:round;stroke-miterlimit:10;"/><path d="     M15.23265,22.37315c0.63494,2.14682,1.86455,1.35066,1.86455,1.35066" style="fill:none;stroke:#30302F;stroke-width:0.8;stroke-linecap:round;stroke-linejoin:round;stroke-miterlimit:10;"/></g></g></g></svg>