<?xml version="1.0" ?><svg style="enable-background:new 0 0 48 48;" version="1.1" viewBox="0 0 48 48" xml:space="preserve" xmlns="http://www.w3.org/2000/svg" xmlns:xlink="http://www.w3.org/1999/xlink"><g id="Icons"><g><polygon points="12.88803,18.41186 15.88575,40.20154 17.46707,41.96682 29.85056,41.96682     31.31349,40.0596 35.4765,17.54156   " style="fill:#F9D9C0;"/><path d="M23.91725,6.04465c0,0-14.56754-0.93453-14.56754,14.07277l1.20937,20.44955l9.96624-0.68375    l-0.54968-12.9184l-5.84337-1.1303l-0.10992-5.88193l8.08083,2.8035l-0.65969,6.4317l2.47375,1.75914l2.80675-1.85419    l-0.88268-6.28164l7.97379-2.5543l-0.32984,6.04685l-5.45053,1.29169l-0.82452,12.47864l10.01028,0.27317l1.4292-21.05424    C38.6497,19.2929,38.97955,6.59442,23.91725,6.04465z" style="fill:#D62B69;"/><line style="fill:none;stroke:#303030;stroke-width:0.75;stroke-linecap:round;stroke-linejoin:round;stroke-miterlimit:10;" x1="12.61917" x2="12.19762" y1="40.40865" y2="32.00559"/><line style="fill:none;stroke:#303030;stroke-width:0.75;stroke-linecap:round;stroke-linejoin:round;stroke-miterlimit:10;" x1="11.85506" x2="11.9868" y1="28.58003" y2="29.95024"/><polyline points="    15.88575,40.20154 17.46707,41.96682 29.85056,41.96682 31.31349,40.18593   " style="fill:none;stroke:#303030;stroke-width:0.75;stroke-linecap:round;stroke-linejoin:round;stroke-miterlimit:10;"/><path d="    M23.91725,6.04465c0,0-14.56754-0.93453-14.56754,14.07277l1.20937,20.44955l9.96624-0.68375l-0.54968-12.9184l-5.84337-1.1303    l-0.10992-5.88193l8.08083,2.8035l-0.65969,6.4317l2.47375,1.75914l2.80675-1.85419l-0.88268-6.28164l7.97379-2.5543    l-0.32984,6.04685l-5.45053,1.29169l-0.82452,12.47864l10.01028,0.27317l1.4292-21.05424    C38.6497,19.2929,38.97955,6.59442,23.91725,6.04465z" style="fill:none;stroke:#303030;stroke-width:0.75;stroke-linecap:round;stroke-linejoin:round;stroke-miterlimit:10;"/><line style="fill:none;stroke:#303030;stroke-width:0.75;stroke-linecap:round;stroke-linejoin:round;stroke-miterlimit:10;" x1="23.59967" x2="23.59967" y1="41.96682" y2="38.85038"/><line style="fill:none;stroke:#303030;stroke-width:0.75;stroke-linecap:round;stroke-linejoin:round;stroke-miterlimit:10;" x1="20.26554" x2="27.61597" y1="33.77811" y2="33.77811"/><line style="fill:none;stroke:#303030;stroke-width:0.75;stroke-linecap:round;stroke-linejoin:round;stroke-miterlimit:10;" x1="22.14185" x2="25.0574" y1="35.66138" y2="35.66138"/><path d="    M25.0574,8.17257c0,0,7.88088,0.64371,10.11017,6.53827" style="fill:none;stroke:#303030;stroke-width:0.75;stroke-linecap:round;stroke-linejoin:round;stroke-miterlimit:10;"/><line style="fill:none;stroke:#303030;stroke-width:0.75;stroke-linecap:round;stroke-linejoin:round;stroke-miterlimit:10;" x1="34.83066" x2="35.18494" y1="40.28191" y2="34.7787"/></g></g></svg>