<?xml version="1.0" encoding="utf-8"?>
<!-- Generator: Adobe Illustrator 16.0.0, SVG Export Plug-In . SVG Version: 6.00 Build 0)  -->
<!DOCTYPE svg PUBLIC "-//W3C//DTD SVG 1.1//EN" "http://www.w3.org/Graphics/SVG/1.1/DTD/svg11.dtd">
<svg version="1.1" id="Layer_1" xmlns="http://www.w3.org/2000/svg" xmlns:xlink="http://www.w3.org/1999/xlink" x="0px" y="0px"
	 width="612px" height="612px" viewBox="0 0 612 612" enable-background="new 0 0 612 612" xml:space="preserve">
<g>
	<path fill="#A24323" d="M309.407,477.716c-147.024,2.987-163.399-170.451-158.14-256.155
		C161.188,61.748,306.18-2.321,365.348,52.543c62.873,0,92.397,78.173,99.45,167.344
		C474.36,338.701,430.492,475.206,309.407,477.716"/>
	<path fill="#288085" d="M297.932,589V476.162l8.01-8.248l0,0l8.009,8.248V589c83.192-2.511,156.466-44.466,201.769-107.816
		c-5.021-2.988-10.639-5.26-17.093-6.694c-51.877-11.594-120.01-32.632-148.219-76.978c-0.479,0.717-19.245,1.313-40.043,2.032
		h-8.727c-20.917-0.719-39.685-1.315-40.042-2.032c-28.209,44.346-96.342,65.384-148.219,76.978
		c-6.455,1.436-12.073,3.706-17.093,6.694C141.465,544.534,214.738,586.489,297.932,589z"/>
	<path fill="#EDD9B4" d="M354.829,280.608c0-32.272-24.385-48.41-48.889-48.41v235.596l48.889-67.653V280.608z"/>
	<path fill="#DCC5A1" d="M257.052,280.608V400.26l48.889,67.534V232.08C281.556,232.08,257.052,248.215,257.052,280.608z"/>
	<path fill="#BC9F82" d="M354.829,280.608v80.086c-18.527,14.463-36.338,22.591-48.889,22.591c-12.551,0-30.361-8.128-48.889-22.591
		v-80.086C257.172,215.942,354.829,215.942,354.829,280.608"/>
	<path fill="#703D22" d="M281.795,208.891c-14.104-8.248-35.62-11.355-58.092-9.801c-22.472,1.554-38.131,10.519-38.848,10.997
		c-0.717,0.478-0.598,5.618-0.598,8.845c0,3.229,0.358,5.977,1.434,7.053c1.076,1.076,6.813,2.988,8.845,11.833
		c2.032,8.845,6.933,27.851,20.679,38.968c13.746,11.115,29.166,13.506,47.932,7.051s25.46-22.353,26.895-25.102
		c1.434-2.75,5.498-16.137,7.291-19.604s3.944-5.26,6.694-5.26V216.3C298.41,216.42,295.9,217.138,281.795,208.891 M288.848,239.131
		c-1.793,15.778-15.659,42.435-39.445,43.51c-23.787,1.076-39.445-13.985-44.705-27.253c-5.259-13.269-7.65-33.947,8.965-42.075
		c16.615-8.128,41-8.128,58.57-1.435C289.804,218.572,290.043,228.612,288.848,239.131"/>
	<path fill="#562C19" d="M310.722,239.131c1.793,3.467,5.857,16.854,7.291,19.604c1.436,2.749,8.129,18.646,26.896,25.102
		s34.187,4.064,47.933-7.052s18.646-30.122,20.679-38.967c2.033-8.845,7.771-10.758,8.847-11.833
		c1.075-1.076,1.434-3.825,1.434-7.053c0-3.227,0.12-8.367-0.598-8.845c-0.717-0.478-16.375-9.443-38.849-10.997
		c-22.472-1.554-43.986,1.554-58.092,9.801c-14.104,8.246-16.615,7.531-22.231,7.531v17.571
		C306.896,233.991,308.929,235.666,310.722,239.131 M335.823,211.878c17.57-6.694,41.955-6.694,58.569,1.435
		c16.615,8.128,14.226,28.926,8.966,42.075c-5.261,13.268-20.918,28.449-44.705,27.253c-23.786-1.076-37.652-27.731-39.445-43.509
		C318.013,228.612,318.252,218.572,335.823,211.878"/>
	<path fill="#DCC5A1" d="M180.791,200.165c-5.02-2.988-10.16-3.945-14.583-2.032c-10.28,4.423-12.312,22.233-4.781,39.923
		c7.53,17.571,21.874,28.329,32.154,24.146c26.177,60.482,83.672,101.123,112.359,101.123V65.812
		C223.105,65.812,181.628,135.258,180.791,200.165z"/>
	<path fill="#EDD9B4" d="M448.422,198.132c-5.14-2.271-11.476-0.478-17.332,3.945c0-65.384-41.478-136.266-125.148-136.266v297.513
		c28.927,0,86.898-41.238,112.838-102.438c0.717,0.478,1.434,0.957,2.15,1.195c10.279,4.422,24.623-6.336,32.273-24.026
		C460.853,220.365,458.701,202.556,448.422,198.132z"/>
	<polygon fill="#FFFFFF" points="354.829,400.141 305.94,467.794 307.733,469.588 341.321,504.371 389.612,434.445 	"/>
	<polygon fill="#FFFFFF" points="257.052,400.141 222.269,434.445 270.559,504.371 304.147,469.588 305.94,467.794 	"/>
	<g>
		<g>
			<path fill="#D43329" d="M318.97,311.088c0,0,0.479,8.248-13.627,8.248c-4.063,0-13.388-1.793-13.388-8.008
				C300.322,313.241,310.124,313.719,318.97,311.088"/>
			<path fill="#CA3029" d="M310.841,307.623c3.108,0.479,8.606,3.348,8.248,3.348c-8.846,2.63-18.767,2.15-27.014,0.238
				c-0.12,0-0.12,0-0.239-0.119c2.869-1.195,6.454-3.586,9.204-3.346c1.554,0.118,3.227,1.194,4.542,1.194
				C307.494,309.058,308.81,307.383,310.841,307.623"/>
			<path fill="#A82623" d="M287.293,310.014c10.638,4.423,25.34,4.781,35.74-0.12c0.239-0.119,0.12-0.478-0.239-0.478
				C310.482,313.36,300.083,312.644,287.293,310.014C287.293,309.894,287.293,310.014,287.293,310.014"/>
		</g>
		<path fill="#342214" d="M256.335,224.907c6.694,0,12.192,6.216,12.192,13.866s-5.499,13.866-12.192,13.866
			c-6.813,0-12.192-6.216-12.192-13.866C244.023,231.123,249.521,224.907,256.335,224.907"/>
		<path fill="#342214" d="M355.546,224.907c6.693,0,12.192,6.216,12.192,13.866s-5.499,13.866-12.192,13.866
			c-6.813,0-12.192-6.216-12.192-13.866S348.853,224.907,355.546,224.907"/>
	</g>
	<path fill="#A24323" d="M435.273,240.446c38.488-164.714-77.456-192.684-145.23-192.684c-76.261,0-133.636,90.485-120.846,195.792
		c40.641-24.504,76.5-72.914,165.312-151.924c-12.91,23.189-38.131,65.384-123.835,141.764
		c46.139,7.65,131.963-50.442,177.743-111.284C399.533,165.262,415.192,212.596,435.273,240.446"/>
	<path fill="#FFFFFF" d="M313.949,476.044l-8.009-8.248l0,0l-8.01,8.248v112.837c2.63,0.119,5.379,0.119,8.01,0.119v-0.119l0,0V589
		c2.749,0,5.379,0,8.009-0.119V476.044z"/>
</g>
</svg>
