<?xml version="1.0" ?><svg style="enable-background:new 0 0 48 48;" version="1.1" viewBox="0 0 48 48" xml:space="preserve" xmlns="http://www.w3.org/2000/svg" xmlns:xlink="http://www.w3.org/1999/xlink"><g id="Icons"><g><path d="M11.26001,20.12442c0,0,1.67531-10.71652,12.49535-9.89706    c10.82004,0.81946,13.00751,9.44826,13.00751,9.44826l-1.24084,12.90611l-5.88276,4.40039l0.4463,4.20052H17.91442l0.4463-4.20052    l-5.90555-4.55278l-1.19516-11.78448" style="fill:#F43735;"/><path d="M13.93848,22.31738c0,0,6.45073,0.32462,8.47923,3.77309c0,0-0.89252,5.43644-6.57242,3.36732    C15.84529,29.45779,11.058,27.5916,13.93848,22.31738z" style="fill:#FFFFFF;"/><path d="M34.06151,22.31738c0,0-6.45073,0.32462-8.47923,3.77309c0,0,0.89252,5.43644,6.57242,3.36732    C32.1547,29.45779,36.94199,27.5916,34.06151,22.31738z" style="fill:#FFFFFF;"/><path d="M18.36072,36.98213l-5.88274-4.40039c0,0-1.66344-10.79172-1.33882-21.0967    c0,0,2.19081-3.489-0.36514-4.66561c0,0-2.27198-0.24337-1.05484,4.54392l0.28401,12.86084c0,0-3.16449,3.73247,1.05481,8.4387    l0.31574,2.19081l6.54068,6.32895L18.36072,36.98213z" style="fill:#707070;"/><path d="M29.63928,36.98213l5.88276-4.40039c0,0,1.66343-10.79172,1.33881-21.0967    c0,0-2.19081-3.489,0.36515-4.66561c0,0,2.27196-0.24337,1.05482,4.54392l-0.284,12.86084c0,0,3.16448,3.73247-1.05482,8.4387    l-0.31573,2.19081l-6.54068,6.32895L29.63928,36.98213z" style="fill:#707070;"/><line style="fill:none;stroke:#303030;stroke-width:0.75;stroke-linecap:round;stroke-linejoin:round;stroke-miterlimit:10;" x1="29.92327" x2="17.91442" y1="41.18265" y2="41.18265"/><path d="    M11.27612,20.54342c1.71361-11.0065,12.61996-10.31189,12.61996-10.31189s10.23197,0.00546,12.85603,9.65639" style="fill:none;stroke:#303030;stroke-width:0.75;stroke-linecap:round;stroke-linejoin:round;stroke-miterlimit:10;"/><path d="    M18.36072,36.98213l-5.88274-4.40039c0,0-1.66344-10.79172-1.33882-21.0967c0,0,2.19081-3.489-0.36514-4.66561    c0,0-2.27198-0.24337-1.05484,4.54392l0.28401,12.86084c0,0-3.16449,3.73247,1.05481,8.4387l0.31574,2.19081l6.54068,6.32895    L18.36072,36.98213z" style="fill:none;stroke:#303030;stroke-width:0.75;stroke-linecap:round;stroke-linejoin:round;stroke-miterlimit:10;"/><path d="    M13.93848,22.31738c0,0,6.45073,0.32462,8.47923,3.77309c0,0-0.89252,5.43644-6.57242,3.36732    C15.84529,29.45779,11.058,27.5916,13.93848,22.31738z" style="fill:none;stroke:#303030;stroke-width:0.75;stroke-linecap:round;stroke-linejoin:round;stroke-miterlimit:10;"/><path d="    M29.63928,36.98213l5.88276-4.40039c0,0,1.66343-10.79172,1.33881-21.0967c0,0-2.19081-3.489,0.36515-4.66561    c0,0,2.27196-0.24337,1.05482,4.54392l-0.284,12.86084c0,0,3.16448,3.73247-1.05482,8.4387l-0.31573,2.19081l-6.54068,6.32895    L29.63928,36.98213z" style="fill:none;stroke:#303030;stroke-width:0.75;stroke-linecap:round;stroke-linejoin:round;stroke-miterlimit:10;"/><path d="    M34.06151,22.31738c0,0-6.45073,0.32462-8.47923,3.77309c0,0,0.89252,5.43644,6.57242,3.36732    C32.1547,29.45779,36.94199,27.5916,34.06151,22.31738z" style="fill:none;stroke:#303030;stroke-width:0.75;stroke-linecap:round;stroke-linejoin:round;stroke-miterlimit:10;"/><polyline points="    22.41771,33.08522 23.91886,33.77832 25.58228,33.08522   " style="fill:none;stroke:#303030;stroke-width:0.75;stroke-linecap:round;stroke-linejoin:round;stroke-miterlimit:10;"/><path d="    M22.41771,26.09047c0,0-0.34026-2.91084-3.32568-4.03978" style="fill:none;stroke:#303030;stroke-width:0.75;stroke-linecap:round;stroke-linejoin:round;stroke-miterlimit:10;"/><path d="    M25.58228,26.01986c0,0,0.34026-2.91083,3.32568-4.03969" style="fill:none;stroke:#303030;stroke-width:0.75;stroke-linecap:round;stroke-linejoin:round;stroke-miterlimit:10;"/><line style="fill:none;stroke:#303030;stroke-width:0.75;stroke-linecap:round;stroke-linejoin:round;stroke-miterlimit:10;" x1="9.99818" x2="10.26635" y1="24.00006" y2="27.3821"/><line style="fill:none;stroke:#303030;stroke-width:0.75;stroke-linecap:round;stroke-linejoin:round;stroke-miterlimit:10;" x1="37.99497" x2="37.72689" y1="24.00006" y2="27.3821"/><path d="    M14.73199,16.47831c0.07664,0,3.11423-4.44158,8.42371-4.31397" style="fill:none;stroke:#303030;stroke-width:0.75;stroke-linecap:round;stroke-linejoin:round;stroke-miterlimit:10;"/><path d="    M24.8915,12.34303c0,0,1.30181,0.10216,1.99102,0.53607" style="fill:none;stroke:#303030;stroke-width:0.75;stroke-linecap:round;stroke-linejoin:round;stroke-miterlimit:10;"/><line style="fill:none;stroke:#303030;stroke-width:0.75;stroke-linecap:round;stroke-linejoin:round;stroke-miterlimit:10;" x1="18.07071" x2="24" y1="39.71113" y2="39.71113"/></g></g></svg>