<?xml version="1.0" ?><svg style="enable-background:new 0 0 48 48;" version="1.1" viewBox="0 0 48 48" xml:space="preserve" xmlns="http://www.w3.org/2000/svg" xmlns:xlink="http://www.w3.org/1999/xlink"><g id="Icons"><g><path d="M14.50918,19.08549c0,0-1.77807,7.48335,0.04097,9.87913l2.0151,2.65384v5.7114l3.03041,3.5632    h8.80869l3.03513-3.35115v-5.92344l2.29633-3.07615c0,0,1.03193-3.97629-0.24498-9.45681c0,0-6.24495,1.68201-8.77232,3.44328    h-1.437C23.2815,22.52877,16.14356,19.17932,14.50918,19.08549z" style="fill:#B0A9DF;"/><path d="M13.81233,11.05098c4.06412-6.00607,17.95657-5.07752,20.37537,0.28784    c0,0,0.57281,3.57087-2.2483,5.53909s-16.59865,0-16.59865,0S13.81233,16.77094,13.81233,11.05098z" style="fill:#1D97FF;"/><path d="M16.2237,22.19548l4.23189,1.56203C20.45559,23.75751,17.62114,26.94033,16.2237,22.19548z" style="fill:#FFFFFF;"/><path d="M31.27778,22.28152l-4.2318,1.56193C27.04598,23.84346,29.88033,27.02628,31.27778,22.28152z" style="fill:#FFFFFF;"/><path d="M20.07609,7.49793l1.6443,5.81274c0,0-3.53596,1.21254-4.02802,2.19919    c0,0-4.96939-2.34604-4.16703-7.86122c0,0-2.74316,4.31082-2.38461,11.3081L9.3032,19.20845c0,0-1.6639,4.64039,1.26046,8.4993    l1.70726,0.28661l-0.22128,3.01983l4.51561,6.31565v-5.7114c0,0-2.07776-0.82597-2.64378-4.19536s0.58772-8.3376,0.58772-8.3376    l8.77232,3.44328h1.437c0,0,5.41096-2.66442,8.77232-3.44328c0,0,1.0032,5.01823,0.24498,9.45681l-2.29633,3.07615v5.92344    l4.51089-6.52769l-0.22138-3.01983l1.69209-0.28661c0,0,2.39877-2.03087,1.27572-8.4993l-1.83212-0.25171    c0,0,0.78624-7.25132-2.39011-11.3081c0,0,1.22673,5.49905-4.51033,8.01315c0,0-2.97028-1.8957-4.13059-2.09861l1.73542-5.91454    C27.56906,7.64864,23.75332,6.26389,20.07609,7.49793z" style="fill:#FFD24A;"/><path d="    M23.97835,6.95179c0,0-7.21461-0.20498-10.16602,4.09917" style="fill:none;stroke:#303030;stroke-width:0.75;stroke-linecap:round;stroke-linejoin:round;stroke-miterlimit:10;"/><path d="    M13.52534,7.64864c0,0-1.3937,7.21461,7.00972,8.73127l2.74644,3.85333v2.29552c0,0-6.27182-3.27936-8.77232-3.44328    c0,0-1.51674,6.55872,0.04097,9.87913c0,0-3.60732-4.91908-3.40234-10.65798    C11.14781,18.30663,10.81988,12.85462,13.52534,7.64864z" style="fill:none;stroke:#303030;stroke-width:0.75;stroke-linecap:round;stroke-linejoin:round;stroke-miterlimit:10;"/><path d="    M11.13534,19.00348L9.3032,19.20845c0,0-1.55772,5.3699,1.35274,8.6083l1.61498,0.17761" style="fill:none;stroke:#303030;stroke-width:0.75;stroke-linecap:round;stroke-linejoin:round;stroke-miterlimit:10;"/><path d="    M12.48227,25.11119l-0.43264,5.90301c0,0,4.55337,7.385,7.54602,9.87885l4.10761,0.15671" style="fill:none;stroke:#303030;stroke-width:0.75;stroke-linecap:round;stroke-linejoin:round;stroke-miterlimit:10;"/><polyline points="    14.55015,28.96602 16.56525,31.61845 16.56525,37.56064   " style="fill:none;stroke:#303030;stroke-width:0.75;stroke-linecap:round;stroke-linejoin:round;stroke-miterlimit:10;"/><path d="    M24.02156,6.95179c0,0,7.2147-0.20498,10.16611,4.09917" style="fill:none;stroke:#303030;stroke-width:0.75;stroke-linecap:round;stroke-linejoin:round;stroke-miterlimit:10;"/><path d="    M34.47456,7.64864c0,0,1.39379,7.21461-7.00963,8.73127l-2.74644,3.85333v2.29552c0,0,6.27173-3.27936,8.77232-3.44328    c0,0,1.51667,6.55872-0.04105,9.87913c0,0,3.6073-4.91908,3.40242-10.65798C36.85219,18.30663,37.18015,12.85462,34.47456,7.64864    z" style="fill:none;stroke:#303030;stroke-width:0.75;stroke-linecap:round;stroke-linejoin:round;stroke-miterlimit:10;"/><path d="    M36.86465,19.00348l1.83215,0.20498c0,0,1.55772,5.3699-1.35274,8.6083l-1.61508,0.17761" style="fill:none;stroke:#303030;stroke-width:0.75;stroke-linecap:round;stroke-linejoin:round;stroke-miterlimit:10;"/><path d="    M35.51773,25.11119l0.43264,5.90301c0,0-4.55337,7.385-7.54602,9.87885l-5.01197,0.15671" style="fill:none;stroke:#303030;stroke-width:0.75;stroke-linecap:round;stroke-linejoin:round;stroke-miterlimit:10;"/><polyline points="    31.43947,37.54189 31.43947,31.61845 33.44519,28.96602   " style="fill:none;stroke:#303030;stroke-width:0.75;stroke-linecap:round;stroke-linejoin:round;stroke-miterlimit:10;"/><line style="fill:none;stroke:#303030;stroke-width:0.75;stroke-linecap:round;stroke-linejoin:round;stroke-miterlimit:10;" x1="23.2815" x2="24.7185" y1="22.52877" y2="22.52877"/><path d="    M17.69237,15.50986c0,0,5.69307-5.04796,12.27186,0.15193" style="fill:none;stroke:#303030;stroke-width:0.75;stroke-linecap:round;stroke-linejoin:round;stroke-miterlimit:10;"/><line style="fill:none;stroke:#303030;stroke-width:0.75;stroke-linecap:round;stroke-linejoin:round;stroke-miterlimit:10;" x1="20.07609" x2="21.78294" y1="7.49793" y2="13.53179"/><line style="fill:none;stroke:#303030;stroke-width:0.75;stroke-linecap:round;stroke-linejoin:round;stroke-miterlimit:10;" x1="27.56906" x2="25.83364" y1="7.29736" y2="13.56319"/><polyline points="    18.96404,34.04912 20.08397,33.14524 28.23864,33.14524 28.95601,34.04912   " style="fill:none;stroke:#303030;stroke-width:0.75;stroke-linecap:round;stroke-linejoin:round;stroke-miterlimit:10;"/><line style="fill:none;stroke:#303030;stroke-width:0.75;stroke-linecap:round;stroke-linejoin:round;stroke-miterlimit:10;" x1="22.65138" x2="25.26098" y1="35.25724" y2="35.25724"/><line style="fill:none;stroke:#303030;stroke-width:0.75;stroke-linecap:round;stroke-linejoin:round;stroke-miterlimit:10;" x1="23.70327" x2="23.70327" y1="41.04976" y2="38.48412"/><path d="    M16.2237,22.19548l4.23189,1.56203C20.45559,23.75751,17.62114,26.94033,16.2237,22.19548z" style="fill:none;stroke:#303030;stroke-width:0.75;stroke-linecap:round;stroke-linejoin:round;stroke-miterlimit:10;"/><path d="    M31.27778,22.28152l-4.2318,1.56193C27.04598,23.84346,29.88033,27.02628,31.27778,22.28152z" style="fill:none;stroke:#303030;stroke-width:0.75;stroke-linecap:round;stroke-linejoin:round;stroke-miterlimit:10;"/><path d="    M18.48735,29.91771c0.26451-0.66892,2.50753-2.20995,2.50753-2.20995s-0.89161,1.12395,0,1.24692    c0.89161,0.12297,1.56803,0.39974,1.62951,0.49196c0.06149,0.09223,1.13755,0.86087,2.45964,0.21519    s2.30593-0.58419,2.30593-0.58419s0.50377-0.92591-0.17855-1.36989c0,0,2.38203,1.46062,2.983,2.75871" style="fill:none;stroke:#303030;stroke-width:0.75;stroke-linecap:round;stroke-linejoin:round;stroke-miterlimit:10;"/><line style="fill:none;stroke:#303030;stroke-width:0.75;stroke-linecap:round;stroke-linejoin:round;stroke-miterlimit:10;" x1="22.94596" x2="22.94596" y1="24.37235" y2="27.03237"/></g></g></svg>