<?xml version="1.0" ?><svg style="enable-background:new 0 0 48 48;" version="1.1" viewBox="0 0 48 48" xml:space="preserve" xmlns="http://www.w3.org/2000/svg" xmlns:xlink="http://www.w3.org/1999/xlink"><g id="Icons"><g><path d="M23.90673,8.98955c0,0-4.6314-0.0877-7.8611,0.9848l-1.7538-3.9977l-1.4339,21.6082l-0.2948,6.8235    c-0.0325,0.7526,0.2687,1.4812,0.8232,1.9912l5.8997,5.426l9.1476,0.1978l6.2697-6.3573c0.5099-0.517,0.7757-1.2267,0.7311-1.9515    l-1.71-27.7379l-2.0273,3.9557C31.69713,9.93235,25.81883,8.91935,23.90673,8.98955z" style="fill:#464747;"/><polygon points="15.95733,21.68755 21.85813,23.89305 16.84733,23.89305   " style="fill:#FFFFFF;"/><polygon points="31.88843,21.68755 25.98773,23.89305 30.99863,23.89305   " style="fill:#FFFFFF;"/><polygon points="32.00043,28.15585 32.61043,35.26585 27.46043,40.20585 24.31043,40.15585     23.56043,40.14585 20.18043,40.08585 14.98043,35.12585 15.55043,28.12585 14.79043,26.40585 23.84043,29.07585     32.90042,26.40585   " style="fill:#F9D9C0;"/><g><path d="M24.27043,27.00585l-0.03,1.95l-0.4,0.12l-0.35-0.1l0.03-1.98c0-0.21,0.17-0.37,0.37-0.37     c0,0,0,0,0.01,0C24.10043,26.62585,24.27043,26.79585,24.27043,27.00585z" style="fill:#333333;"/></g><g><g><path d="M27.69423,32.96235c-0.0884,0-0.1772-0.0312-0.2485-0.0937l-0.5537-0.4903l-6.0567-0.1386      l-0.5097,0.4541c-0.1558,0.1367-0.3916,0.125-0.5298-0.0313c-0.1377-0.1543-0.1235-0.3916,0.0308-0.5293l0.6201-0.5517      c0.0713-0.0625,0.1733-0.0938,0.2578-0.0948l6.3418,0.1446c0.0884,0.0019,0.1733,0.0351,0.2397,0.0937l0.6568,0.5811      c0.1552,0.1377,0.1694,0.375,0.0322,0.5293C27.90083,32.91945,27.79773,32.96235,27.69423,32.96235z" style="fill:#D6B6A1;"/></g><g><path d="M25.21623,34.23585c-0.0059,0-0.0117,0-0.0176,0l-2.7441-0.1241      c-0.2066-0.0097-0.3667-0.1845-0.3574-0.3916c0.0092-0.207,0.1967-0.3593,0.3916-0.3584l2.7441,0.1241      c0.2065,0.0097,0.3667,0.1845,0.3574,0.3916C25.58143,34.07855,25.41543,34.23585,25.21623,34.23585z" style="fill:#D6B6A1;"/></g><g><path d="M24.38043,37.47585l-0.07,2.68l-0.75-0.01l0.07-2.71c0.02-0.21,0.19-0.38,0.4-0.35      C24.24043,37.09585,24.39043,37.27585,24.38043,37.47585z" style="fill:#D6B6A1;"/></g></g></g></g></svg>