<?xml version="1.0" ?><svg style="enable-background:new 0 0 48 48;" version="1.1" viewBox="0 0 48 48" xml:space="preserve" xmlns="http://www.w3.org/2000/svg" xmlns:xlink="http://www.w3.org/1999/xlink"><g id="Icons"><g><path d="M25.47948,39.90533c-0.1981,0-0.35883,0.13456-0.35935,0.30228    c-0.00091,0.29242,0.00193,0.72976,0.00407,1.0038c0.00115,0.14683,0.12595,0.27124,0.29672,0.29682h0    c0.05749,0.00861,0.11075,0.02809,0.15662,0.05868c0.21108,0.14075,0.94325,0.55868,2.03703,0.4323    c1.30884-0.15123,1.19377-0.23265,1.19377-0.23265s0.07191-0.98877-0.51778-1.22142    c-0.4016-0.15844-0.55638-0.26294-0.60518-0.40533c-0.04642-0.13546-0.18243-0.23447-0.34902-0.23447" style="fill:#464747;"/><path d="M22.39931,39.90533c0.1981,0,0.35883,0.13456,0.35935,0.30228    c0.00091,0.29242-0.00193,0.72976-0.00407,1.0038c-0.00115,0.14683-0.12595,0.27124-0.29672,0.29682l0,0    c-0.0575,0.00861-0.11075,0.02809-0.15662,0.05868c-0.21108,0.14075-0.94325,0.55868-2.03703,0.4323    c-1.30883-0.15123-1.19377-0.23265-1.19377-0.23265s-0.07191-0.98877,0.51778-1.22142    c0.4016-0.15844,0.55638-0.26294,0.60518-0.40533c0.04642-0.13546,0.18243-0.23447,0.34902-0.23447" style="fill:#464747;"/><path d="M29.56871,36.871c0,0-1.04503,1.97919-1.14278,3.01921h-3.05432    c0,0-0.61304-0.08382-0.61251-0.8582c0.00053-0.77438,0-1.05299,0-1.05299S28.28978,38.08846,29.56871,36.871z" style="fill:#50ABFE;"/><path d="M18.62786,36.871c0,0,1.04503,1.97919,1.14278,3.01921h3.05432c0,0,0.61304-0.08382,0.61251-0.8582    c-0.00053-0.77438,0-1.05299,0-1.05299S19.90679,38.08846,18.62786,36.871z" style="fill:#50ABFE;"/><path d="M14.59807,36.35196l0.29107,0.96666c0,0-0.60701,1.72628-0.21981,2.58444    s1.13137,0.75441,1.13137,0.75441s0.3573,0.71975,0.90803,0.7497s1.0551-1.11488,1.0551-1.11488s0.58055-0.20174,0.1883-1.24324    s-0.83218-1.62893-0.8621-2.57877L14.59807,36.35196z" style="fill:#464747;"/><path d="M33.31335,36.35196l-0.29107,0.96666c0,0,0.60701,1.72628,0.21981,2.58444    c-0.3872,0.85817-1.13137,0.75441-1.13137,0.75441s-0.3573,0.71975-0.90803,0.7497s-1.0551-1.11488-1.0551-1.11488    s-0.58055-0.20174-0.1883-1.24324c0.39226-1.0415,0.83218-1.62893,0.8621-2.57877L33.31335,36.35196z" style="fill:#464747;"/><path d="M15.83358,24.69158c0,0-3.91058,4.63138-1.23551,11.66038l2.49196,0.11833L17.3983,35.948    c0,0-1.56882-1.61012-1.34077-4.273c0,0,2.32991,0.62114,2.55046-1.34183v-2.79054L15.83358,24.69158z" style="fill:#FFD24A;"/><path d="M32.16988,24.69158c0,0,3.91058,4.63138,1.23551,11.66038l-2.49195,0.11833L30.60516,35.948    c0,0,1.56882-1.61012,1.34077-4.273c0,0-2.32991,0.62114-2.55046-1.34183v-2.79054L32.16988,24.69158z" style="fill:#FFD24A;"/><path d="M15.95986,22.46388l3.83631,3.69514l8.69308,0.09497l3.64006-3.52871v-7.69212    c0-4.46179-3.617-8.07879-8.07879-8.07879H24.0505c-4.45677,0-8.07169,3.60916-8.07878,8.06593L15.95986,22.46388z" style="fill:#FFD24A;"/><path d="M16.01464,22.72528l3.64006,3.52871h8.72068l3.75393-3.52871l0.18106,1.8059l-2.74166,2.90788    v3.06355c0,0.74187,0.60141,1.34328,1.34328,1.34328h1.21732c0,0,0.74298,6.25557-8.05046,6.12635    c-9.22699-0.13559-8.09429-6.12635-8.09429-6.12635h1.11071c0.83545,0,1.51271-0.67727,1.51271-1.51271v-2.79054l-2.64812-3.01145    L16.01464,22.72528z" style="fill:#50ABFE;"/><path d="M24.04634,9.41578c-2.91003,0-5.26001,2.44995-5.26001,5.47998    c0,3.02002,2.34998,5.46997,5.26001,5.46997c2.89996,0,5.25995-2.44995,5.25995-5.46997    C29.30629,11.86573,26.9463,9.41578,24.04634,9.41578z M24.04634,19.07575c-2.22003,0-4.03003-1.87-4.03003-4.17999    c0-2.32001,1.81-4.19,4.03003-4.19c2.21997,0,4.01996,1.87,4.01996,4.19C28.0663,17.20576,26.26631,19.07575,24.04634,19.07575z" style="fill:#D5D5D5;"/><path d="M28.0663,14.89576c0,2.31-1.79999,4.17999-4.01996,4.17999    c-2.22003,0-4.03003-1.87-4.03003-4.17999c0-0.25,0.02002-0.48999,0.06-0.72003h7.94    C28.04634,14.41578,28.0663,14.64576,28.0663,14.89576z" style="fill:#FFFFFF;"/><path d="M29.20349,13.81513c0.11187-0.12535,0.27537-0.19699,0.44748-0.19699h2.32344h0.33561    c0.34422,0,0.61958,0.28653,0.61958,0.64468v0.82376c0,0.35816-0.27537,0.64468-0.61958,0.64468h-0.18071h-2.47834    c-0.14629,0-0.28398-0.05372-0.38724-0.14326" style="fill:#464747;"/><path d="M18.89429,13.77931c-0.11187-0.09849-0.25816-0.16117-0.41306-0.16117h-2.36647h-0.28398    c-0.34421,0-0.62819,0.28653-0.62819,0.64468v0.82376c0,0.35816,0.28398,0.64468,0.62819,0.64468h0.12908h2.52137    c0.12908,0,0.24956-0.03582,0.35282-0.10745" style="fill:#464747;"/><path d="    M33.37269,36.35196c2.48532-6.70963-1.06232-11.82078-1.06232-11.82078l-3.82112,3.8614l-0.86348-1.30152l4.50354-4.36578    v-6.99401" style="fill:none;stroke:#30302F;stroke-width:0.7;stroke-linecap:round;stroke-linejoin:round;stroke-miterlimit:10;"/><polyline points="    16.01464,22.72528 20.51818,27.09106 19.6547,28.39258 15.83358,24.53118   " style="fill:none;stroke:#30302F;stroke-width:0.7;stroke-linecap:round;stroke-linejoin:round;stroke-miterlimit:10;"/><path d="    M31.97441,13.61814c-0.57656-3.16074-2.81395-5.81111-5.89466-6.52742c-0.35282-0.08059-0.70564-0.14326-1.06706-0.17908h-0.00861    " style="fill:none;stroke:#30302F;stroke-width:0.7;stroke-linecap:round;stroke-linejoin:round;stroke-miterlimit:10;"/><path d="    M16.11476,13.61814c0.58516-3.15179,2.82255-5.81111,5.89466-6.52742c0.42166-0.09849,0.83472-0.16117,1.26499-0.19699    c0,0.00895,0.0086,0,0.0086,0" style="fill:none;stroke:#30302F;stroke-width:0.7;stroke-linecap:round;stroke-linejoin:round;stroke-miterlimit:10;"/><path d="    M23.894,6.86687c0.18932-0.00895,0.37003-0.00895,0.55074,0.00895" style="fill:none;stroke:#30302F;stroke-width:0.7;stroke-linecap:round;stroke-linejoin:round;stroke-miterlimit:10;"/><ellipse cx="24.04453" cy="14.89187" rx="5.26036" ry="5.47345" style="fill:none;stroke:#30302F;stroke-width:0.7;stroke-linecap:round;stroke-linejoin:round;stroke-miterlimit:10;"/><path d="    M28.06953,14.89187c0,2.313-1.80206,4.18805-4.025,4.18805s-4.025-1.87506-4.025-4.18805s1.80205-4.18805,4.025-4.18805    c1.98958,0,3.642,1.50203,3.96702,3.47573C28.04967,14.41106,28.06953,14.64905,28.06953,14.89187z" style="fill:none;stroke:#30302F;stroke-width:0.7;stroke-linecap:round;stroke-linejoin:round;stroke-miterlimit:10;"/><path d="    M29.20349,13.81513c0.11187-0.12535,0.27537-0.19699,0.44748-0.19699h2.32344h0.33561c0.34422,0,0.61958,0.28653,0.61958,0.64468    v0.82376c0,0.35816-0.27537,0.64468-0.61958,0.64468h-0.18071h-2.47834c-0.14629,0-0.28398-0.05372-0.38724-0.14326" style="fill:none;stroke:#30302F;stroke-width:0.7;stroke-linecap:round;stroke-linejoin:round;stroke-miterlimit:10;"/><path d="    M18.89429,13.77931c-0.11187-0.09849-0.25816-0.16117-0.41306-0.16117h-2.36647h-0.28398    c-0.34421,0-0.62819,0.28653-0.62819,0.64468v0.82376c0,0.35816,0.28398,0.64468,0.62819,0.64468h0.12908h2.52137    c0.12908,0,0.24956-0.03582,0.35282-0.10745" style="fill:none;stroke:#30302F;stroke-width:0.7;stroke-linecap:round;stroke-linejoin:round;stroke-miterlimit:10;"/><line style="fill:none;stroke:#30302F;stroke-width:0.7;stroke-linecap:round;stroke-linejoin:round;stroke-miterlimit:10;" x1="27.9345" x2="20.31417" y1="14.15538" y2="14.15538"/><path d="    M24.16936,7.18478c0,0,0.95124-1.54827,3.71419-1.13843" style="fill:none;stroke:#30302F;stroke-width:0.7;stroke-linecap:round;stroke-linejoin:round;stroke-miterlimit:10;"/><path d="    M20.46,6.04635c2.76294-0.40983,3.71419,1.13843,3.71419,1.13843s1.82692-0.75872,2.90104-0.32911" style="fill:none;stroke:#30302F;stroke-width:0.7;stroke-linecap:round;stroke-linejoin:round;stroke-miterlimit:10;"/><path d="    M24.16936,7.18478c0,0-1.82692-0.75872-2.90104-0.32911" style="fill:none;stroke:#30302F;stroke-width:0.7;stroke-linecap:round;stroke-linejoin:round;stroke-miterlimit:10;"/><path d="M25.6753,14.88958c0,0.94015-0.73143,1.69231-1.63504,1.69231    c-0.89494,0-1.62637-0.75215-1.62637-1.69231c0-0.25964,0.06024-0.51038,0.17212-0.73423h2.91717    C25.61505,14.3792,25.6753,14.62993,25.6753,14.88958z" style="fill:#30302F;"/><path d="    M24.69949,37.98769c0.0795,0.27917,0.12918,0.63072,0.05962,1.04431c-0.17887,1.04432,0.99372,0.8582,0.99372,0.8582h2.67311    c0-0.548,0.95397-2.6263,1.14278-3.01921" style="fill:none;stroke:#30302F;stroke-width:0.7;stroke-linecap:round;stroke-linejoin:round;stroke-miterlimit:10;"/><path d="    M18.60798,36.89168v0.01034c0.22856,0.48597,1.1229,2.45052,1.1229,2.98819h2.67311c0,0,1.17259,0.18612,0.99372-0.8582    c-0.06956-0.41359-0.01987-0.76514,0.05962-1.04431" style="fill:none;stroke:#30302F;stroke-width:0.7;stroke-linecap:round;stroke-linejoin:round;stroke-miterlimit:10;"/><path d="    M25.47948,39.90533c-0.1981,0-0.35883,0.13456-0.35935,0.30228c-0.00091,0.29242,0.00193,0.72976,0.00407,1.0038    c0.00115,0.14683,0.12595,0.27124,0.29672,0.29682h0c0.05749,0.00861,0.11075,0.02809,0.15662,0.05868    c0.21108,0.14075,0.94325,0.55868,2.03703,0.4323c1.30884-0.15123,1.19377-0.23265,1.19377-0.23265    s0.07191-0.98877-0.51778-1.22142c-0.4016-0.15844-0.55638-0.26294-0.60518-0.40533    c-0.04642-0.13546-0.18243-0.23447-0.34902-0.23447" style="fill:none;stroke:#30302F;stroke-width:0.7;stroke-linecap:round;stroke-linejoin:round;stroke-miterlimit:10;"/><path d="    M22.39931,39.90533c0.1981,0,0.35883,0.13456,0.35935,0.30228c0.00091,0.29242-0.00193,0.72976-0.00407,1.0038    c-0.00115,0.14683-0.12595,0.27124-0.29672,0.29682l0,0c-0.0575,0.00861-0.11075,0.02809-0.15662,0.05868    c-0.21108,0.14075-0.94325,0.55868-2.03703,0.4323c-1.30883-0.15123-1.19377-0.23265-1.19377-0.23265    s-0.07191-0.98877,0.51778-1.22142c0.4016-0.15844,0.55638-0.26294,0.60518-0.40533    c0.04642-0.13546,0.18243-0.23447,0.34902-0.23447" style="fill:none;stroke:#30302F;stroke-width:0.7;stroke-linecap:round;stroke-linejoin:round;stroke-miterlimit:10;"/><path d="    M18.60798,27.33775v2.68834c0,1.00295-0.78504,1.8198-1.74895,1.8198l-0.82074,0.00117" style="fill:none;stroke:#30302F;stroke-width:0.7;stroke-linecap:round;stroke-linejoin:round;stroke-miterlimit:10;"/><path d="    M29.56871,27.29639v3.06057c0,0.82718,0.63598,1.48892,1.43096,1.48892h1.14278c0,0,0.87447,6.36929-8.09882,6.13147" style="fill:none;stroke:#30302F;stroke-width:0.7;stroke-linecap:round;stroke-linejoin:round;stroke-miterlimit:10;"/><line style="fill:none;stroke:#30302F;stroke-width:0.7;stroke-linecap:round;stroke-linejoin:round;stroke-miterlimit:10;" x1="28.58493" x2="19.61135" y1="26.15902" y2="26.13262"/><path d="    M24.07885,37.97223c-8.97639,0.24297-8.04056-6.12518-8.04056-6.12518" style="fill:none;stroke:#30302F;stroke-width:0.7;stroke-linecap:round;stroke-linejoin:round;stroke-miterlimit:10;"/><path d="    M33.37269,36.35196l-0.29107,0.96666c0,0,1.14529,3.45121-0.91156,3.33885c0,0-1.00776,1.90883-1.96313-0.36518    c0,0-1.16648,0.14225,0.42581-2.34874c0,0,0.36395-1.21289,0.22747-1.59159H33.37269z" style="fill:none;stroke:#30302F;stroke-width:0.7;stroke-linecap:round;stroke-linejoin:round;stroke-miterlimit:10;"/><path d="    M15.95986,15.73127v6.99401l-0.11842,1.81562c0,0-3.72871,5.10143-1.24338,11.81106" style="fill:none;stroke:#30302F;stroke-width:0.7;stroke-linecap:round;stroke-linejoin:round;stroke-miterlimit:10;"/><path d="    M14.59807,36.35196l0.29107,0.96666c0,0-1.14529,3.45121,0.91156,3.33885c0,0,1.00776,1.90883,1.96313-0.36518    c0,0,1.16648,0.14225-0.42581-2.34874c0,0-0.36395-1.21289-0.22747-1.59159H14.59807z" style="fill:none;stroke:#30302F;stroke-width:0.7;stroke-linecap:round;stroke-linejoin:round;stroke-miterlimit:10;"/><path d="    M32.13942,31.84705c0,0-0.22174-2.12011-0.5422-2.96932" style="fill:none;stroke:#30302F;stroke-width:0.7;stroke-linecap:round;stroke-linejoin:round;stroke-miterlimit:10;"/><path d="    M16.03829,31.84705c0,0,0.22175-2.12011,0.5422-2.96932" style="fill:none;stroke:#30302F;stroke-width:0.7;stroke-linecap:round;stroke-linejoin:round;stroke-miterlimit:10;"/><circle cx="28.66708" cy="27.14911" r="0.29082" style="fill:#30302F;"/><circle cx="19.50447" cy="27.14911" r="0.29082" style="fill:#30302F;"/><line style="fill:none;stroke:#30302F;stroke-width:0.7;stroke-linecap:round;stroke-linejoin:round;stroke-miterlimit:10;" x1="32.31037" x2="32.12931" y1="24.53118" y2="22.72528"/></g></g></svg>