<?xml version="1.0" ?><svg style="enable-background:new 0 0 48 48;" version="1.1" viewBox="0 0 48 48" xml:space="preserve" xmlns="http://www.w3.org/2000/svg" xmlns:xlink="http://www.w3.org/1999/xlink"><g id="Icons"><g><polygon points="16.62317,19.24142 16.62317,24.48825 20.0329,26.51987 20.04946,30.99619     20.9223,32.84989 27.24277,32.84989 27.9671,31.29447 27.9671,26.51987 31.37683,24.61831 31.37683,18.99607 25.77043,20.06107     25.475,21.86309 24,22.65114 22.55745,22.061 22.22957,20.06107   " style="fill:#F9D9C0;"/><path d="M15.11555,28.06044c0,0-1.18074,2.26265-0.78734,3.47569    c0.3934,1.21305,0.70931,2.81958,0.45298,3.18022c0,0,1.05518-0.72128,0.95681-1.67205c0,0,0.16389,2.03269,0.91802,2.4917    c0.75404,0.45901,3.70475,2.85234,3.37687,4.22937c0,0,2.98356-1.90156,1.57377-5.31128c0,0-1.57377-2.7213-1.57377-3.63923" style="fill:#FFDD4D;"/><path d="M32.88446,28.06044c0,0,1.18072,2.26265,0.78732,3.47569    c-0.3934,1.21305-0.7093,2.81958-0.45298,3.18022c0,0-1.05518-0.72128-0.95681-1.67205c0,0-0.16389,2.03269-0.91802,2.4917    c-0.75404,0.45901-3.70475,2.85234-3.37687,4.22937c0,0-2.98356-1.90156-1.57377-5.31128c0,0,1.57377-2.7213,1.57377-3.63923" style="fill:#FFDD4D;"/><path d="M15.01808,16.397l-1.64063-2.40125l-7.21286-2.19668l0.42616,1.77043l1.11478,0.32788    l0.45901,1.54092l0.88515,0.29512l0.3934,1.54092l1.14824,0.29502l0.42553,1.77043l3.76433,1.57377l0.23689,3.04908    l-0.62434,0.49177l0.22951,3.1146c0,0,5.40965,5.40965,5.40965,5.27852c0-0.13113,0-6.32768,0-6.32768l-3.40972-1.90156v-5.37689" style="fill:#F4F4F4;"/><path d="M32.98192,16.397l1.64064-2.40125l7.21284-2.19668l-0.42616,1.77043l-1.11476,0.32788    l-0.45901,1.54092l-0.88517,0.29512l-0.39349,1.54092l-1.14816,0.29502l-0.42551,1.77043l-3.76434,1.57377l-0.23689,3.04908    l0.62425,0.49177l-0.2294,3.1146c0,0-5.40967,5.40965-5.40967,5.27852c0-0.13113,0-6.32768,0-6.32768l3.40972-1.90156v-5.37689" style="fill:#F4F4F4;"/><path d="M24,22.65114L22.55745,22.061l-0.32788-1.99993l-7.44802-1.41483    c-0.06057-7.80866,8.11133-8.89831,8.11133-8.89831l1.10702-1.51329l1.1072,1.51329c0,0,8.17191,1.08965,8.11133,8.89831    l-7.44802,1.41483L25.44255,22.061L24,22.65114" style="fill:#C9C9C9;"/><polygon points="33.10621,17.04609 23.99991,18.4062 14.89379,17.04609 14.78119,18.4062     22.22957,20.06107 22.55745,22.061 24,22.65114 25.45585,21.97988 25.77043,20.06107 33.21844,18.64624   " style="fill:#9E9E9E;"/><path d="M20.0329,39.32238c0,0,1.12466-2.6277,0.21105-4.1184" style="fill:#FFDD4D;"/><path d="M27.9671,39.76537c0,0-1.03925-2.55128-0.22175-4.0131" style="fill:#FFDD4D;"/><path d="    M14.97311,16.33118l-1.59566-2.33543l-7.21286-2.19668l0.42616,1.77043l1.11478,0.32788l0.45901,1.54092l0.88515,0.29512    l0.3934,1.54092l1.14824,0.29502l0.42553,1.77043l3.76433,1.57377l0.23689,3.04908l-0.62434,0.49177l0.22951,3.1146    c0,0,5.40965,5.40965,5.40965,5.27852c0-0.13113,0-6.32768,0-6.32768l-3.40972-1.90156v-5.37689" style="fill:none;stroke:#303030;stroke-width:0.75;stroke-linecap:round;stroke-linejoin:round;stroke-miterlimit:10;"/><path d="    M15.11555,28.06044c0,0-1.18074,2.26265-0.78734,3.47569c0.3934,1.21305,0.70931,2.81958,0.45298,3.18022    c0,0,1.05518-0.72128,0.95681-1.67205c0,0,0.16389,2.03269,0.91802,2.4917c0.75404,0.45901,3.70475,2.85234,3.37687,4.22937    c0,0,2.98356-1.90156,1.57377-5.31128c0,0-1.57377-2.7213-1.57377-3.63923" style="fill:none;stroke:#303030;stroke-width:0.75;stroke-linecap:round;stroke-linejoin:round;stroke-miterlimit:10;"/><line style="fill:none;stroke:#303030;stroke-width:0.75;stroke-linecap:round;stroke-linejoin:round;stroke-miterlimit:10;" x1="7.70553" x2="14.33329" y1="13.89738" y2="15.39472"/><polyline points="    9.04969,15.73341 14.89379,17.04609 23.99991,18.4062 33.10621,17.04609   " style="fill:none;stroke:#303030;stroke-width:0.75;stroke-linecap:round;stroke-linejoin:round;stroke-miterlimit:10;"/><line style="fill:none;stroke:#303030;stroke-width:0.75;stroke-linecap:round;stroke-linejoin:round;stroke-miterlimit:10;" x1="10.59134" x2="14.78155" y1="17.56936" y2="18.64624"/><path d="    M24,22.65114L22.55745,22.061l-0.32788-1.99993l-7.44802-1.41483c-0.06057-7.80866,8.11133-8.89831,8.11133-8.89831    l1.10702-1.51329l1.1072,1.51329c0,0,8.17191,1.08965,8.11133,8.89831l-7.44802,1.41483L25.44255,22.061L24,22.65114" style="fill:none;stroke:#303030;stroke-width:0.75;stroke-linecap:round;stroke-linejoin:round;stroke-miterlimit:10;"/><path d="    M32.98192,16.397l1.64064-2.40125l7.21284-2.19668l-0.42616,1.77043l-1.11476,0.32788l-0.45901,1.54092l-0.88517,0.29512    l-0.39349,1.54092l-1.14816,0.29502l-0.42551,1.77043l-3.76434,1.57377l-0.23689,3.04908l0.62425,0.49177l-0.2294,3.1146    c0,0-5.40967,5.40965-5.40967,5.27852c0-0.13113,0-6.32768,0-6.32768l3.40972-1.90156v-5.37689" style="fill:none;stroke:#303030;stroke-width:0.75;stroke-linecap:round;stroke-linejoin:round;stroke-miterlimit:10;"/><path d="    M32.88446,28.06044c0,0,1.18072,2.26265,0.78732,3.47569c-0.3934,1.21305-0.7093,2.81958-0.45298,3.18022    c0,0-1.05518-0.72128-0.95681-1.67205c0,0-0.16389,2.03269-0.91802,2.4917c-0.75404,0.45901-3.70475,2.85234-3.37687,4.22937    c0,0-2.98356-1.90156-1.57377-5.31128c0,0,1.57377-2.7213,1.57377-3.63923" style="fill:none;stroke:#303030;stroke-width:0.75;stroke-linecap:round;stroke-linejoin:round;stroke-miterlimit:10;"/><line style="fill:none;stroke:#303030;stroke-width:0.75;stroke-linecap:round;stroke-linejoin:round;stroke-miterlimit:10;" x1="40.29449" x2="33.93405" y1="13.89738" y2="15.37278"/><line style="fill:none;stroke:#303030;stroke-width:0.75;stroke-linecap:round;stroke-linejoin:round;stroke-miterlimit:10;" x1="38.95031" x2="33.10621" y1="15.73341" y2="17.04609"/><line style="fill:none;stroke:#303030;stroke-width:0.75;stroke-linecap:round;stroke-linejoin:round;stroke-miterlimit:10;" x1="37.40866" x2="33.21844" y1="17.56936" y2="18.64624"/><line style="fill:none;stroke:#303030;stroke-width:0.75;stroke-linecap:round;stroke-linejoin:round;stroke-miterlimit:10;" x1="20.75705" x2="27.24277" y1="32.84989" y2="32.84989"/><polyline points="    21.28878,29.48148 21.98504,28.75507 25.51086,28.75507 26.12612,29.37032   " style="fill:none;stroke:#303030;stroke-width:0.75;stroke-linecap:round;stroke-linejoin:round;stroke-miterlimit:10;"/><line style="fill:none;stroke:#303030;stroke-width:0.75;stroke-linecap:round;stroke-linejoin:round;stroke-miterlimit:10;" x1="22.92313" x2="24.37594" y1="29.9809" y2="29.9809"/><line style="fill:none;stroke:#303030;stroke-width:0.75;stroke-linecap:round;stroke-linejoin:round;stroke-miterlimit:10;" x1="14.78119" x2="16.62317" y1="20.91356" y2="21.40858"/><line style="fill:none;stroke:#303030;stroke-width:0.75;stroke-linecap:round;stroke-linejoin:round;stroke-miterlimit:10;" x1="33.21881" x2="31.37683" y1="20.91356" y2="21.40858"/><path d="    M20.0329,39.32238c0,0,1.12466-2.6277,0.21105-4.1184" style="fill:none;stroke:#303030;stroke-width:0.75;stroke-linecap:round;stroke-linejoin:round;stroke-miterlimit:10;"/><path d="    M27.9671,39.76537c0,0-1.03925-2.55128-0.22175-4.0131" style="fill:none;stroke:#303030;stroke-width:0.75;stroke-linecap:round;stroke-linejoin:round;stroke-miterlimit:10;"/><path d="    M17.06157,15.96967c0,0,1.27524-2.74083,3.69548-3.4621" style="fill:none;stroke:#303030;stroke-width:0.75;stroke-linecap:round;stroke-linejoin:round;stroke-miterlimit:10;"/><line style="fill:none;stroke:#303030;stroke-width:0.75;stroke-linecap:round;stroke-linejoin:round;stroke-miterlimit:10;" x1="21.9953" x2="23.13931" y1="12.02885" y2="11.76424"/><polyline points="    22.56735,26.1433 23.7074,26.67612 25.10711,26.1433   " style="fill:none;stroke:#303030;stroke-width:0.75;stroke-linecap:round;stroke-linejoin:round;stroke-miterlimit:10;"/><line style="fill:none;stroke:#303030;stroke-width:0.75;stroke-linecap:round;stroke-linejoin:round;stroke-miterlimit:10;" x1="18.60052" x2="18.60052" y1="25.81633" y2="31.50814"/><line style="fill:none;stroke:#303030;stroke-width:0.75;stroke-linecap:round;stroke-linejoin:round;stroke-miterlimit:10;" x1="29.42315" x2="29.42315" y1="25.81633" y2="31.48501"/></g></g></svg>