<?xml version="1.0" ?><svg style="enable-background:new 0 0 48 48;" version="1.1" viewBox="0 0 48 48" xml:space="preserve" xmlns="http://www.w3.org/2000/svg" xmlns:xlink="http://www.w3.org/1999/xlink"><g id="Icons"><g><path d="M19.37373,35.77175l0.91646-2.5652l3.28063-1.23042l3.63734,1.22972l1.37662,2.5659    c0,0,0.63197-2.99889,2.08684-0.88403c1.45486,2.11486,1.43267,3.1342,0,4.31784c-1.43267,1.18364-7.97294,2.2882-11.45822,0.9873    c-3.48527-1.3009-3.00852-4.11714-3.00852-4.11714s-0.11992-1.01247,1.00284-0.96967    C17.20771,35.10606,18.99104,32.79413,19.37373,35.77175z" style="fill:#707070;"/><path d="M17.05877,35.2623c0,0,0.99778-1.80452,1.93189-0.59441    c0.9341,1.21002,0.08569,6.03441-1.74039,2.61379" style="fill:#C9C9C9;"/><path d="M30.94123,35.2623c0,0-0.99778-1.80452-1.93187-0.59441    c-0.93411,1.21002-0.08579,6.03441,1.74038,2.61379" style="fill:#C9C9C9;"/><circle cx="17.05877" cy="36.28128" r="1.01898" style="fill:#F4F4F4;"/><circle cx="30.94121" cy="36.28128" r="1.019" style="fill:#F4F4F4;"/><circle cx="23.98848" cy="38.48674" r="3.21972" style="fill:#545454;"/><path d="M12.57163,23.37424l0.17458-8.28151c0,0,1.40007-8.75098,11.51163-8.79877    c0,0,8.56829-0.10727,11.17053,9.11058v7.96971H12.57163z" style="fill:#C9C9C9;"/><polygon points="33.95578,14.88225 34.77737,13.83604 35.42837,15.56186 35.57421,23.37424     33.95578,22.18514   " style="fill:#F43735;"/><polygon points="14.02699,14.88225 13.2054,13.83604 12.5544,15.56186 12.40856,23.37424     14.02699,22.18514   " style="fill:#F43735;"/><path d="M35.42837,23.37424l-1.47259-1.1891v-7.30288l-3.09951-2.08044    c0,0-2.52296-1.06146-6.84476-0.84913h-0.023c-4.3218-0.21233-6.84476,0.84913-6.84476,0.84913l-3.09951,2.08044v7.30288    l-1.47259,1.1891l-0.05592,2.42698l5.3498,8.22978c0,0,1.18202,0.07673,1.50821,1.236l0.91647-2.06044l3.26689-1.00444    l3.65108,1.00374l1.41811,2.30816c0,0,0.08884-1.42747,1.59137-1.26377l5.26656-8.28179L35.42837,23.37424z" style="fill:#F4F4F4;"/><path d="M11.66657,9.53254l-0.95847,15.39628c0,0-0.21111,7.87537,5.47305,10.84293    c0,0,0.11794-0.47261,0.96153-0.50476c0,0,0.22242-0.75269,0.93506-0.98004l-5.56204-8.3185l0.34835-16.43591H11.66657z" style="fill:#707070;"/><path d="M28.81009,23.9654c0,0-0.2109-8.13729,0.93776-11.5092l1.10841,0.34562l1.29988,0.74099    c0,0-1.05276,7.95038-0.84129,10.76229L28.81009,23.9654z" style="fill:#F43735;"/><path d="M19.19818,23.9654c0,0,0.2109-8.13729-0.93776-11.5092l-1.10841,0.34562l-1.29988,0.74099    c0,0,1.05277,7.95038,0.84129,10.76229L19.19818,23.9654z" style="fill:#F43735;"/><path d="M36.33258,9.53254l0.95847,15.39628c0,0,0.21111,7.87537-5.47305,10.84293    c0,0-0.11794-0.47261-0.96153-0.50476c0,0-0.22242-0.75269-0.93506-0.98004l5.56204-8.3185L35.13509,9.53254H36.33258z" style="fill:#707070;"/><path d="    M23.9885,6.29665c0,0-9.16874-0.44576-11.24901,9.2869l-0.22378,10.3849l5.3498,8.06254" style="fill:none;stroke:#303030;stroke-width:0.75;stroke-linecap:round;stroke-linejoin:round;stroke-miterlimit:10;"/><path d="    M12.73949,15.58355l0.12457-6.05101h-1.19748L10.77496,23.6341c0,0-1.06146,7.67956,5.26483,12.13765" style="fill:none;stroke:#303030;stroke-width:0.75;stroke-linecap:round;stroke-linejoin:round;stroke-miterlimit:10;"/><path d="    M16.03979,13.5428c0,0,0.77689,6.93235,0.64538,10.76229" style="fill:none;stroke:#303030;stroke-width:0.75;stroke-linecap:round;stroke-linejoin:round;stroke-miterlimit:10;"/><path d="    M18.51838,12.39103c0,0,0.84137,7.79556,0.67152,11.57436" style="fill:none;stroke:#303030;stroke-width:0.75;stroke-linecap:round;stroke-linejoin:round;stroke-miterlimit:10;"/><path d="M15.56119,24.47042v1.99557l1.1274,1.35867c0,0,3.20344,2.03805,6.04812-0.80674l0.50945-1.99548    l-5.0056-1.31916L15.56119,24.47042z" style="fill:#303030;"/><circle cx="17.05877" cy="36.28128" r="1.01898" style="fill:none;stroke:#303030;stroke-width:0.75;stroke-linecap:round;stroke-linejoin:round;stroke-miterlimit:10;"/><path d="    M17.05877,35.2623c0,0,0.99778-1.80452,1.93189-0.59441c0.9341,1.21002,0.08569,6.03441-1.74039,2.61379" style="fill:none;stroke:#303030;stroke-width:0.75;stroke-linecap:round;stroke-linejoin:round;stroke-miterlimit:10;"/><path d="    M16.20494,36.83601c0,0-0.08028,3.58496,5.16336,3.62745" style="fill:none;stroke:#303030;stroke-width:0.75;stroke-linecap:round;stroke-linejoin:round;stroke-miterlimit:10;"/><path d="    M24.0115,6.29665c0,0,9.16874-0.44576,11.249,9.2869l0.22369,10.3849l-5.34971,8.06254" style="fill:none;stroke:#303030;stroke-width:0.75;stroke-linecap:round;stroke-linejoin:round;stroke-miterlimit:10;"/><path d="    M35.26051,15.58355l-0.12457-6.05101h1.19748l0.89162,14.10155c0,0,1.06146,7.67956-5.26483,12.13765" style="fill:none;stroke:#303030;stroke-width:0.75;stroke-linecap:round;stroke-linejoin:round;stroke-miterlimit:10;"/><path d="    M35.42837,23.37424l-1.47259-1.1891v-7.30288l-3.09951-2.08044c0,0-2.52296-1.06146-6.84476-0.84913h-0.023    c-4.3218-0.21233-6.84476,0.84913-6.84476,0.84913l-3.09951,2.08044v7.30288l-1.47259,1.1891" style="fill:none;stroke:#303030;stroke-width:0.75;stroke-linecap:round;stroke-linejoin:round;stroke-miterlimit:10;"/><path d="    M31.96021,13.5428c0,0-0.77689,6.93235-0.64536,10.76229" style="fill:none;stroke:#303030;stroke-width:0.75;stroke-linecap:round;stroke-linejoin:round;stroke-miterlimit:10;"/><path d="    M29.47873,12.44076c0,0-0.83849,7.74583-0.66864,11.52464" style="fill:none;stroke:#303030;stroke-width:0.75;stroke-linecap:round;stroke-linejoin:round;stroke-miterlimit:10;"/><path d="M32.41571,24.47042v1.99557l-1.1274,1.35867c0,0-3.20333,2.03805-6.04803-0.80674l-0.50953-1.99548    l5.00562-1.31916L32.41571,24.47042z" style="fill:#303030;"/><circle cx="30.94121" cy="36.28128" r="1.019" style="fill:none;stroke:#303030;stroke-width:0.75;stroke-linecap:round;stroke-linejoin:round;stroke-miterlimit:10;"/><path d="    M30.94123,35.2623c0,0-0.99778-1.80452-1.93187-0.59441c-0.93411,1.21002-0.08579,6.03441,1.74038,2.61379" style="fill:none;stroke:#303030;stroke-width:0.75;stroke-linecap:round;stroke-linejoin:round;stroke-miterlimit:10;"/><path d="    M31.79506,36.83601c0,0,0.08019,3.58496-5.16335,3.62745" style="fill:none;stroke:#303030;stroke-width:0.75;stroke-linecap:round;stroke-linejoin:round;stroke-miterlimit:10;"/><circle cx="23.9885" cy="38.48674" r="1.55873" style="fill:#C9C9C9;"/><circle cx="23.9885" cy="38.48674" r="1.55873" style="fill:none;stroke:#303030;stroke-width:0.75;stroke-linecap:round;stroke-linejoin:round;stroke-miterlimit:10;"/><circle cx="23.98848" cy="38.48674" r="3.21972" style="fill:none;stroke:#303030;stroke-width:0.75;stroke-linecap:round;stroke-linejoin:round;stroke-miterlimit:10;"/><polyline points="    19.37373,35.77175 20.37133,33.20585 23.55708,32.20211 27.20816,33.20585 28.58478,35.77175   " style="fill:none;stroke:#303030;stroke-width:0.75;stroke-linecap:round;stroke-linejoin:round;stroke-miterlimit:10;"/><path d="    M16.20485,11.33075c0,0,2.60685-3.09004,7.05285-3.02853" style="fill:none;stroke:#303030;stroke-width:0.75;stroke-linecap:round;stroke-linejoin:round;stroke-miterlimit:10;"/><line style="fill:none;stroke:#303030;stroke-width:0.75;stroke-linecap:round;stroke-linejoin:round;stroke-miterlimit:10;" x1="24.99675" x2="26.63171" y1="8.30132" y2="8.6099"/><line style="fill:none;stroke:#303030;stroke-width:0.75;stroke-linecap:round;stroke-linejoin:round;stroke-miterlimit:10;" x1="21.57197" x2="22.57373" y1="32.73736" y2="29.06129"/><line style="fill:none;stroke:#303030;stroke-width:0.75;stroke-linecap:round;stroke-linejoin:round;stroke-miterlimit:10;" x1="25.7325" x2="24.73075" y1="32.73736" y2="29.06129"/></g><line style="fill:none;stroke:#303030;stroke-width:0.75;stroke-linecap:round;stroke-linejoin:round;stroke-miterlimit:10;" x1="33.95578" x2="34.77737" y1="14.88225" y2="13.83604"/><line style="fill:none;stroke:#303030;stroke-width:0.75;stroke-linecap:round;stroke-linejoin:round;stroke-miterlimit:10;" x1="14.04422" x2="13.2054" y1="14.88225" y2="13.83604"/></g></svg>