<?xml version="1.0" ?><svg style="enable-background:new 0 0 48 48;" version="1.1" viewBox="0 0 48 48" xml:space="preserve" xmlns="http://www.w3.org/2000/svg" xmlns:xlink="http://www.w3.org/1999/xlink"><g id="Icons"><g><path d="M19.71861,26.91331c0,0,0.92695,3.29087-2.00728,3.92418    c-2.93424,0.63331-5.34823,0.66139-5.34823,0.66139s5.10191,5.95639,11.73418,5.3433c0,0,6.00027-0.83209,6.8043-2.03417    s0.16234-2.19233-0.8931-2.68124s-3.47571-1.11333-2.29237-4.77363L19.71861,26.91331z" style="fill:#FFE7D7;"/><path d="M39.90347,33.28266c-10.72849,10.03192-21.3988,10.14435-32.00888,0    c0,0,1.43263-1.90826,4.46851-1.61053c0,0,4.74044,4.67304,9.05386,4.9605c4.31342,0.28745,9.44407-0.71167,12.14442-3.79007    c0,0,0.95826-1.29497,2.34269-1.01315C37.28849,32.11122,39.19766,32.69663,39.90347,33.28266z" style="fill:#FFE291;"/><path d="M13.32636,31.36749c0,0-0.45011-1.48768,1.03061-3.12401s2.56276-3.22137,2.51262-3.90775    c-0.05015-0.68637-0.40379-1.65814-1.45264-2.52049c-1.04885-0.86235-2.42162-1.8674-2.09068-4.68643    c0.33094-2.81904,1.3126-2.96612,2.43965-5.1478s3.11795-2.26247,3.11795-2.26247s0.28991-2.18819,1.72341-2.56127    c1.4335-0.37309,0.75249-0.62925,2.40446-0.99144c1.65197-0.36218,1.7762,0.12981,3.05721,0.44537    c1.28101,0.31556,3.26704,0.9155,3.62737,3.24071c0,0,1.34086,1.14821,2.39493,3.23202    c1.05407,2.08381,2.16408,2.03479,2.1974,4.41258c0.03331,2.3778-2.03366,4.51046-2.44646,4.80462    c-0.4128,0.29416-1.45337,1.86623-1.19048,3.82569c0.2629,1.95946,0.79714,1.84523,1.902,2.56434    c1.10487,0.71911,3.53544,2.23489,2.05127,5.26418s-2.55098,3.06448-2.31173,4.86087    c0.23924,1.79639-1.13356,3.05375-1.13356,3.05375s0.99594-1.31449-0.12709-2.58514    c-1.12303-1.27065-1.01681-2.63959-0.55514-3.7691c0.46167-1.12952,1.56175-1.44791,0.143-2.67386    s-3.37426-1.85465-3.16551-3.50553c0.20875-1.65089,0.31638-2.37163,0.31638-2.37163l-8.05272-0.05141    c0,0,0.76304,2.70173-1.1416,3.592C16.67236,31.39558,13.32636,31.36749,13.32636,31.36749z" style="fill:#A67358;"/><ellipse cx="30.97874" cy="23.2509" rx="0.86585" ry="1.1762" style="fill:#FFE291;"/><ellipse cx="16.86962" cy="23.2509" rx="0.86585" ry="1.1762" style="fill:#FFE291;"/><path d="M24.09728,14.17859c0,0-1.58547-1.59451-3.05379-1.65379    c-1.46832-0.05928-3.39692,1.3729-3.65548,2.68584s0.0322,1.86188,0.08283,2.96105    c0.05063,1.09917-0.07406,2.91828,0.1586,4.51969s1.90942,5.4768,4.75533,6.03831c2.8459,0.56152,5.09904-1.06735,5.89059-2.24076    s1.83008-2.4075,1.83749-4.68363s-0.02169-3.30937,0.21633-4.38667c0.23802-1.07731,0.30548-2.13778-0.88291-3.35771    c-1.18839-1.21993-2.22093-1.86725-3.60547-1.13292C24.45627,13.66232,24.09728,14.17859,24.09728,14.17859z" style="fill:#FFE7D7;"/><path d="    M19.75939,26.96471c1.03572,0.99107,2.25894,1.87884,3.69915,2.00273c1.50927,0.12388,2.86065-0.61942,3.99515-1.60019    l0.31763-0.28351" style="fill:none;stroke:#30302F;stroke-width:0.8;stroke-linecap:round;stroke-linejoin:round;stroke-miterlimit:10;"/><path d="M24.65529,24.47571c-0.80416-0.15676-0.88998,0.11637-0.88998,0.11637    s-0.08571-0.27312-0.88997-0.11637c-0.80426,0.15685-1.1367,0.13936-1.45838,0.06547c0,0,0.96516,1.39511,2.34835,1.37866    c1.38331,0.01645,2.34835-1.37866,2.34835-1.37866C25.79197,24.61507,25.45953,24.63256,24.65529,24.47571z" style="fill:#F43735;"/><path d="    M19.64777,27.08374c0,0,0.64151,3.25324-1.93645,3.75375s-7.83855,0.42902-9.61479,2.21648" style="fill:none;stroke:#30302F;stroke-width:0.8;stroke-linecap:round;stroke-linejoin:round;stroke-miterlimit:10;"/><ellipse cx="30.97874" cy="23.2509" rx="0.86585" ry="1.1762" style="fill:none;stroke:#30302F;stroke-width:0.8;stroke-linecap:round;stroke-linejoin:round;stroke-miterlimit:10;"/><path d="    M24.09728,14.32016c0.62682-0.55927,1.46705-1.54594,2.32244-1.63306c1.70801-0.17395,3.87833,1.66811,4.0892,3.36963    c0.08166,0.65909-0.19467,1.28418-0.30965,1.92095c-0.12354,0.68373-0.05923,1.42749-0.08641,2.12221    c-0.07183,1.8424,0.1949,4.19526-2.34152,6.98386c-0.13904,0.92849-0.56355,2.32869-0.12226,3.25301    c0.24973,0.52306,0.75556,0.85305,1.25422,1.11678c0.69726,0.36867,1.31772,0.75466,1.87051,1.34204    c0.18773,0.19942,0.36008,0.42174,0.45969,0.68165c0.09958,0.2598,0.11959,0.56239,0.00762,0.81664    c-0.18704,0.42405-0.56459,0.68234-0.73277,1.13392c-0.2687,0.72132-0.2967,1.51054-0.1476,2.28587    c0.12215,0.63517,0.41479,1.22741,0.79686,1.74931c0.85851,1.17244-0.26014,2.56766-0.26014,2.56766    c0.60889-0.27437,1.70674-1.6003,1.53194-2.6062c-0.17478-1.00585-0.74272-1.646,1.18412-3.65772    c0.94838-0.99014,1.32085-2.53099,1.13577-3.93894c-0.19109-1.45259-0.97557-2.76384-2.3332-3.1828    c-2.67373-0.82508-1.51864-4.22129-1.51864-4.22129" style="fill:none;stroke:#30302F;stroke-width:0.8;stroke-linecap:round;stroke-linejoin:round;stroke-miterlimit:10;"/><path d="    M24.09728,14.32016c-0.62682-0.55927-2.02054-1.54594-2.87592-1.63306c-1.70811-0.17395-3.87833,1.66811-4.0892,3.36963    c-0.08166,0.65909,0.19456,1.28418,0.30965,1.92095c0.12354,0.68373,0.05923,1.42749,0.08629,2.12221    c0.07195,1.8424-0.19478,4.19526,2.34164,6.98386" style="fill:none;stroke:#30302F;stroke-width:0.8;stroke-linecap:round;stroke-linejoin:round;stroke-miterlimit:10;"/><path d="    M24.15824,12.13997V12.1297c1.41432-3.27256,4.88304-2.28149,4.88304-2.28149c1.12525,0.21677,1.90984,1.03236,2.44668,1.97172    c0.37164,0.66071,0.56782,0.7538,0.87747,1.43511c0.25818,0.55744,0.66071,1.01168,0.97048,1.53821    c0.50583,0.87748,0.85689,1.84796,0.93948,2.84932c0.16518,1.98214-1.23883,3.40674-2.69444,4.75904" style="fill:none;stroke:#30302F;stroke-width:0.8;stroke-linecap:round;stroke-linejoin:round;stroke-miterlimit:10;"/><path d="    M16.03398,22.40162c-1.4556-1.35231-2.85961-2.77691-2.69444-4.75904c0.08259-1.00136,0.43365-1.97184,0.93948-2.84932    c0.30977-0.52653,0.7123-0.98077,0.97048-1.53821c0.30965-0.6813,0.50583-0.77439,0.87748-1.43511    c0.53683-0.93936,1.32142-1.75496,2.44667-1.97172c0,0,4.17028-0.98077,5.58459,2.29176" style="fill:none;stroke:#30302F;stroke-width:0.8;stroke-linecap:round;stroke-linejoin:round;stroke-miterlimit:10;"/><ellipse cx="16.86962" cy="23.2509" rx="0.86585" ry="1.1762" style="fill:none;stroke:#30302F;stroke-width:0.8;stroke-linecap:round;stroke-linejoin:round;stroke-miterlimit:10;"/><path d="    M29.69633,9.85191c0,0-0.32989-2.61532-2.66691-2.99587c-2.33701-0.38067-2.28832-1.78896-5.50165,0" style="fill:none;stroke:#30302F;stroke-width:0.8;stroke-linecap:round;stroke-linejoin:round;stroke-miterlimit:10;"/><path d="    M18.88388,9.71854c0,0,0.30687-2.48056,2.64389-2.86126" style="fill:none;stroke:#30302F;stroke-width:0.8;stroke-linecap:round;stroke-linejoin:round;stroke-miterlimit:10;"/><path d="    M34.79521,31.67215c0.93763,0.11361,1.87526,0.26849,2.79125,0.51626c0.81907,0.21677,1.69193,0.52642,2.317,1.09425" style="fill:none;stroke:#30302F;stroke-width:0.8;stroke-linecap:round;stroke-linejoin:round;stroke-miterlimit:10;"/><path d="    M26.41972,12.68709c0,0,1.88671-1.0954,6.06323,0.79711" style="fill:none;stroke:#30302F;stroke-width:0.8;stroke-linecap:round;stroke-linejoin:round;stroke-miterlimit:10;"/><path d="    M21.52777,12.68709c0,0-3.31987-1.4594-6.63962,1.19409" style="fill:none;stroke:#30302F;stroke-width:0.8;stroke-linecap:round;stroke-linejoin:round;stroke-miterlimit:10;"/><path d="    M30.50891,16.05672c0,0,0.09566,1.181,1.33565,1.9435c1.23999,0.7625,1.64219,2.44144,1.08545,3.0383" style="fill:none;stroke:#30302F;stroke-width:0.8;stroke-linecap:round;stroke-linejoin:round;stroke-miterlimit:10;"/><path d="    M17.0992,16.05672c0,0-0.09566,1.181-1.33565,1.9435c-1.23999,0.7625-1.64218,2.44144-1.08534,3.0383" style="fill:none;stroke:#30302F;stroke-width:0.8;stroke-linecap:round;stroke-linejoin:round;stroke-miterlimit:10;"/><path d="    M16.86959,24.42713c0,0,0.31752,0.85492-1.37278,2.53759c-1.69029,1.68255-2.19555,2.76719-2.17045,4.40278" style="fill:none;stroke:#30302F;stroke-width:0.8;stroke-linecap:round;stroke-linejoin:round;stroke-miterlimit:10;"/><g><path d="M25.22229,17.38555c-0.017,0.00949,0.22972-0.07079,0.59478-0.08907     c0.36494-0.02429,0.78992,0.04927,1.20089,0.05517c0.22359-0.00197,0.46187,0.03794,0.65689,0.08907     c0.2,0.05217,0.37871,0.11359,0.53047,0.16772c0.30132,0.11058,0.50213,0.18426,0.50213,0.18426s-0.2119-0.02707-0.52977-0.06778     c-0.15835-0.01897-0.34296-0.03829-0.53718-0.04419c-0.19895-0.00451-0.38796,0.00555-0.58726,0.05252     c-0.43365,0.10133-0.86395,0.1388-1.12837,0.23099c-0.26604,0.0827-0.4119,0.18068-0.42982,0.18366     c-0.21052,0.07533-0.44234-0.03433-0.51764-0.24485C24.90212,17.69254,25.01177,17.46074,25.22229,17.38555z" style="fill:#30302F;"/></g><g><path d="M22.25904,18.14791c-0.01793-0.00299-0.16379-0.10096-0.42983-0.18366     c-0.26442-0.09219-0.69472-0.12967-1.12837-0.23099c-0.19929-0.04696-0.38831-0.05703-0.58726-0.05252     c-0.19421,0.0059-0.37882,0.02522-0.53718,0.04419c-0.31786,0.04072-0.52989,0.06778-0.52989,0.06778     s0.20092-0.07368,0.50224-0.18426c0.15164-0.05413,0.33036-0.11555,0.53047-0.16772     c0.19491-0.05113,0.4333-0.09103,0.65689-0.08907c0.41098-0.0059,0.83595-0.07947,1.20091-0.05517     c0.36505,0.01828,0.61177,0.09855,0.59477,0.08907c0.21052,0.07519,0.32019,0.30699,0.24476,0.51751     C22.70125,18.11358,22.46956,18.22324,22.25904,18.14791z" style="fill:#30302F;"/></g><path d="    M23.14697,22.62007c0,0,0.63426,0.6659,1.23677,0" style="fill:none;stroke:#30302F;stroke-width:0.58336;stroke-linecap:round;stroke-linejoin:round;stroke-miterlimit:10;"/><path d="    M12.36309,31.67213c6.17949,5.6371,12.35899,6.66442,18.53848,3.08208" style="fill:none;stroke:#30302F;stroke-width:0.8;stroke-linecap:round;stroke-linejoin:round;stroke-miterlimit:10;"/><g><g><path d="M28.95889,19.36113l-0.02168-0.04337c-2.71668-1.80345-3.62436,0.67606-3.62436,0.67606      s0.50021,0.36667,1.25556,0.40458C28.30656,20.36796,28.71693,19.76012,28.95889,19.36113z" style="fill:#FFFFFF;"/></g><g><g><path d="M28.78589,19.1696c0,0,0.33571-0.31836,0.38599-0.55922c0,0-0.4692,0.42055-0.77437,0.41972" style="fill:#30302F;"/><path d="M28.21966,19.01325c0,0,0.37841-0.27353,0.45432-0.50756c0,0-0.35312,0.28746-0.65597,0.25236" style="fill:#30302F;"/><g><g><path d="M28.45325,19.65717c-0.24741-0.19427-0.50198-0.3735-0.77371-0.51431         c-0.27368-0.11664-0.55954-0.21857-0.84369-0.20294c-0.57156,0.01065-1.06863,0.51324-1.30026,1.08463l-0.04263-0.14194         c0.27997,0.26331,0.67184,0.46152,1.08261,0.54825c-0.42569-0.00311-0.85425-0.10303-1.25146-0.34265         c-0.04379-0.0264-0.06235-0.0787-0.04791-0.12546l0.00519-0.01678c0.10712-0.34695,0.27438-0.65796,0.52249-0.93204         c0.24774-0.26956,0.6011-0.47134,0.98553-0.52563c0.38742-0.05649,0.75702,0.03708,1.10471,0.15036         c0.3374,0.13525,0.64603,0.31174,0.94312,0.50406c0.14908,0.09653,0.19168,0.29559,0.09518,0.44467         s-0.29559,0.19168-0.44464,0.09518c-0.00815-0.00525-0.01593-0.01083-0.02341-0.01666L28.45325,19.65717z" style="fill:#30302F;"/></g><g><path d="M28.97763,19.50952c-0.07394,0.16901-0.14993,0.22995-0.237,0.31702         c-0.08588,0.07733-0.17792,0.13843-0.27103,0.18912c-0.18805,0.09918-0.3808,0.15527-0.57068,0.18442         c0.14517-0.12576,0.26782-0.26978,0.35248-0.41983c0.04141-0.07553,0.07379-0.15216,0.09277-0.2269         c0.01636-0.06519,0.03107-0.16833,0.00568-0.17786c0.03699-0.17337,0.20755-0.28391,0.38089-0.24689         C28.90411,19.16562,29.01465,19.33615,28.97763,19.50952z" style="fill:#30302F;"/></g></g></g><path d="M27.71524,19.29116c0.00103,0.40911-0.32427,0.74406-0.72659,0.74813      c-0.40232,0.00407-0.7293-0.32429-0.73033-0.7334c-0.00103-0.40911,0.32428-0.74406,0.72659-0.74813      C27.38723,18.5537,27.7142,18.88205,27.71524,19.29116z" style="fill:#30302F;"/><ellipse cx="27.34501" cy="19.20585" rx="0.16832" ry="0.17116" style="fill:#FFFFFF;" transform="matrix(0.99995 -0.01011 0.01011 0.99995 -0.1928 0.27748)"/></g></g><g><path d="M18.9648,19.36113l0.02168-0.04337c2.71668-1.80345,3.62436,0.67606,3.62436,0.67606     s-0.50021,0.36667-1.25556,0.40458C19.61714,20.36796,19.20676,19.76012,18.9648,19.36113z" style="fill:#FFFFFF;"/></g><g><path d="M19.1378,19.1696c0,0-0.33571-0.31836-0.38599-0.55922c0,0,0.46919,0.42055,0.77436,0.41972" style="fill:#30302F;"/><path d="M19.70403,19.01325c0,0-0.37841-0.27353-0.45432-0.50756c0,0,0.35311,0.28746,0.65596,0.25236" style="fill:#30302F;"/><g><g><path d="M19.08646,19.1427c0.29709-0.19232,0.60571-0.3688,0.94315-0.50406       c0.34766-0.11328,0.71729-0.20685,1.10471-0.15036c0.38443,0.05429,0.73779,0.25607,0.9855,0.52563       c0.24811,0.27408,0.41541,0.58508,0.52249,0.93204l0.00516,0.01669c0.01508,0.04886-0.00598,0.10028-0.04785,0.12555       c-0.39722,0.23962-0.82581,0.33954-1.25146,0.34265c0.41077-0.08673,0.80264-0.28494,1.08261-0.54825l-0.04263,0.14194       c-0.23166-0.57138-0.72873-1.07397-1.30029-1.08463c-0.28415-0.01562-0.56998,0.0863-0.84369,0.20294       c-0.2717,0.14081-0.52628,0.32004-0.77371,0.51431l-0.01065,0.00836c-0.13968,0.10968-0.3418,0.08536-0.45148-0.05432       c-0.10965-0.13968-0.08533-0.3418,0.05432-0.45148C19.07025,19.15375,19.07852,19.14789,19.08646,19.1427z" style="fill:#30302F;"/></g><g><path d="M19.57385,19.37549c-0.02539,0.00952-0.01071,0.11267,0.00565,0.17786       c0.01898,0.07474,0.05139,0.15137,0.09277,0.2269c0.08469,0.15005,0.20734,0.29407,0.35248,0.41983       c-0.18985-0.02914-0.3826-0.08524-0.57065-0.18442c-0.09314-0.05069-0.18515-0.11179-0.27106-0.18912       c-0.08707-0.08707-0.16306-0.14801-0.237-0.31702c-0.03699-0.17337,0.07355-0.3439,0.24689-0.38092       C19.3663,19.09158,19.53683,19.20212,19.57385,19.37549z" style="fill:#30302F;"/></g></g></g><path d="M20.20845,19.29116c-0.00103,0.40911,0.32428,0.74406,0.72659,0.74813    s0.7293-0.32429,0.73033-0.7334c0.00103-0.40911-0.32428-0.74406-0.72659-0.74813S20.20949,18.88205,20.20845,19.29116z" style="fill:#30302F;"/><ellipse cx="20.68754" cy="19.21132" rx="0.17116" ry="0.16832" style="fill:#FFFFFF;" transform="matrix(0.01011 -0.99995 0.99995 0.01011 1.26802 39.70356)"/></g></g></svg>