<?xml version="1.0" ?><svg style="enable-background:new 0 0 48 48;" version="1.1" viewBox="0 0 48 48" xml:space="preserve" xmlns="http://www.w3.org/2000/svg" xmlns:xlink="http://www.w3.org/1999/xlink"><g id="Icons"><g><path d="M19.18872,31.58808c0,0-2.46281,0.83008-5.78284,1.35144    c-3.32003,0.52137-6.47941,1.56329-7.48772,4.4874c12.04478,3.37155,24.05327,3.46222,36.01134,0    c0,0-0.3171-2.46156-4.75367-3.78517s-7.31912-1.3349-8.36455-2.05367c0,0-2.02777,3.60097-4.71325,3.5911    S19.18872,31.58808,19.18872,31.58808z" style="fill:#D5D5D5;"/><path d="M19.18872,30.02673v1.56136c0,0,2.02226,3.60093,5.04005,3.59108s4.58251-3.59108,4.58251-3.59108    v-1.56136c0,0-2.80004,2.78733-4.71325,2.39848C22.18483,32.03635,20.02494,31.22309,19.18872,30.02673z" style="fill:#D6B6A1;"/><path d="M29.8378,28.85273c0.13078,0.41835,1.19568,0.6042,1.19568,0.6042    c-0.44208-0.27883-0.78596-1.11542-0.04916-1.62664c0.73691-0.51122,1.62107-2.3237,1.62107-2.83492    c0-0.51122,0.4422-2.09142,0.68776-1.8125c0.24568,0.27885,0.93332,0.32528,0.93332,0.32528s-0.7368-0.79004-0.78596-1.11544    c-0.04916-0.32524,0.83511-1.44068,0.98248-2.41666c0.14736-0.97589-0.78596-2.46311-0.88416-4.92623    c-0.09832-2.46323-1.67023-3.43923-2.94743-5.15873c-1.03243-1.38993-3.30254-1.50652-4.92963-1.49653    c-0.40098,0.00236-0.79016,0.04496-1.17286,0.16394c-0.18937,0.05892-0.37476,0.1336-0.57139,0.16439    c-0.3189,0.04982-0.56889-0.09309-0.85283-0.20481c-0.69162-0.27224-1.70066-0.12761-2.42951-0.04169    c-0.9063,0.10685-1.86209,0.31801-2.61433,0.8323c-0.23682,0.16189-0.45014,0.35569-0.6185,0.5824    c-1.27719,1.7195-2.84911,2.69551-2.94731,5.15873c-0.09832,2.46311-1.03163,3.95034-0.88427,4.92623    c0.14736,0.97598,1.03163,2.09142,0.98248,2.41666c-0.04916,0.32539-0.78596,1.11544-0.78596,1.11544    s0.68776-0.04643,0.93332-0.32528c0.24568-0.27892,0.68776,1.30128,0.68776,1.8125c0,0.51122,0.88416,2.3237,1.62107,2.83492    c0.7368,0.51122,0.39292,1.34781-0.04916,1.62664c0,0,1.06501-0.18585,1.19568-0.6042" style="fill:#564A3A;"/><path d="M23.90764,32.58032c0.64393,0,1.83973-0.21754,4.32339-2.0451    c2.48355-1.82747,2.34561-5.61319,2.39159-6.26588c0.04598-0.65265,0.18392-3.21477,0.18392-3.21477    c-0.38418-0.20537-0.78618-2.06906-0.96874-2.78724c-0.18244-0.71829-3.58171-2.18474-3.70818-4.15993    c-0.12658-1.97515-1.55375-2.39407-1.55375-2.39407s0.00023,0.46024-1.22032,1.43455    c-1.22054,0.97428-1.97869,2.39863-1.94531,3.82512c0,0-0.58138-0.97578-0.26736-2.41918c0,0-1.7975,1.23848-1.80022,2.53759    c-0.00284,1.29911-0.6378,1.70463-0.6378,1.70463s0.1636-0.84863-0.54891-1.13733c-0.7125-0.2887-0.40269,3.11102-0.93899,3.39586    c0,0,0.13794,2.56211,0.18392,3.21477c0.04598,0.6527-0.09196,4.43842,2.39159,6.26588    c2.48366,1.82756,3.67946,2.0451,4.32339,2.0451" style="fill:#F9D9C0;"/><ellipse cx="27.29667" cy="21.39005" rx="1.96149" ry="1.85574" style="fill:#FFFFFF;"/><ellipse cx="20.66638" cy="21.39005" rx="1.96149" ry="1.85574" style="fill:#FFFFFF;"/><path d="    M29.8378,28.85273c0.13078,0.41835,1.19568,0.6042,1.19568,0.6042c-0.44208-0.27883-0.78596-1.11542-0.04916-1.62664    c0.73691-0.51122,1.62107-2.3237,1.62107-2.83492c0-0.51122,0.4422-2.09142,0.68776-1.8125    c0.24568,0.27885,0.93332,0.32528,0.93332,0.32528s-0.7368-0.79004-0.78596-1.11544    c-0.04916-0.32524,0.83511-1.44068,0.98248-2.41666c0.14736-0.97589-0.78596-2.46311-0.88416-4.92623    c-0.09832-2.46323-1.67023-3.43923-2.94743-5.15873c-1.03243-1.38993-3.30254-1.50652-4.92963-1.49653    c-0.40098,0.00236-0.79016,0.04496-1.17286,0.16394c-0.18937,0.05892-0.37476,0.1336-0.57139,0.16439    c-0.3189,0.04982-0.56889-0.09309-0.85283-0.20481c-0.69162-0.27224-1.70066-0.12761-2.42951-0.04169    c-0.9063,0.10685-1.86209,0.31801-2.61433,0.8323c-0.23682,0.16189-0.45014,0.35569-0.6185,0.5824    c-1.27719,1.7195-2.84911,2.69551-2.94731,5.15873c-0.09832,2.46311-1.03163,3.95034-0.88427,4.92623    c0.14736,0.97598,1.03163,2.09142,0.98248,2.41666c-0.04916,0.32539-0.78596,1.11544-0.78596,1.11544    s0.68776-0.04643,0.93332-0.32528c0.24568-0.27892,0.68776,1.30128,0.68776,1.8125c0,0.51122,0.88416,2.3237,1.62107,2.83492    c0.7368,0.51122,0.39292,1.34781-0.04916,1.62664c0,0,1.06501-0.18585,1.19568-0.6042" style="fill:none;stroke:#30302F;stroke-width:0.7;stroke-linecap:round;stroke-linejoin:round;stroke-miterlimit:10;"/><ellipse cx="27.29667" cy="21.39005" rx="1.96149" ry="1.85574" style="fill:none;stroke:#30302F;stroke-width:0.7;stroke-linecap:round;stroke-linejoin:round;stroke-miterlimit:10;"/><ellipse cx="20.66638" cy="21.39005" rx="1.96149" ry="1.85574" style="fill:none;stroke:#30302F;stroke-width:0.7;stroke-linecap:round;stroke-linejoin:round;stroke-miterlimit:10;"/><path d="    M23.90764,32.58032c0.64393,0,1.83973-0.21754,4.32339-2.0451c2.48355-1.82747,2.34561-5.61319,2.39159-6.26588    c0.04598-0.65265,0.18392-3.21477,0.18392-3.21477c-0.38418-0.20537-0.78618-2.06906-0.96874-2.78724    c-0.18244-0.71829-3.58171-2.18474-3.70818-4.15993c-0.12658-1.97515-1.55375-2.39407-1.55375-2.39407    s0.00023,0.46024-1.22032,1.43455c-1.22054,0.97428-1.97869,2.39863-1.94531,3.82512c0,0-0.58138-0.97578-0.26736-2.41918    c0,0-1.7975,1.23848-1.80022,2.53759c-0.00284,1.29911-0.6378,1.70463-0.6378,1.70463s0.1636-0.84863-0.54891-1.13733    c-0.7125-0.2887-0.40269,3.11102-0.93899,3.39586c0,0,0.13794,2.56211,0.18392,3.21477    c0.04598,0.6527-0.09196,4.43842,2.39159,6.26588c2.48366,1.82756,3.67946,2.0451,4.32339,2.0451" style="fill:none;stroke:#30302F;stroke-width:0.7;stroke-linecap:round;stroke-linejoin:round;stroke-miterlimit:10;"/><line style="fill:none;stroke:#30302F;stroke-width:0.7;stroke-linecap:round;stroke-linejoin:round;stroke-miterlimit:10;" x1="29.25813" x2="30.54316" y1="21.28639" y2="20.68458"/><line style="fill:none;stroke:#30302F;stroke-width:0.7;stroke-linecap:round;stroke-linejoin:round;stroke-miterlimit:10;" x1="18.70486" x2="17.4229" y1="21.39005" y2="20.68458"/><path d="    M25.4824,20.68458c0,0-1.29695-0.91617-3.00169,0" style="fill:none;stroke:#30302F;stroke-width:0.7;stroke-linecap:round;stroke-linejoin:round;stroke-miterlimit:10;"/><path d="    M24.09803,25.98874c0,0,0.193,0.04303,0.71534-0.34377c0.52234-0.38668,0.45411,0.17188,0.82887-0.2256    c0.37476-0.39744-0.15894-1.03127-0.15894-1.03127l-0.26112-0.2081v-3.49543" style="fill:none;stroke:#30302F;stroke-width:0.7;stroke-linecap:round;stroke-linejoin:round;stroke-miterlimit:10;"/><path d="    M22.71276,24.38811c0,0-0.5337,0.63383-0.15905,1.03127c0.37476,0.39748,0.30664-0.16108,0.82899,0.2256    c0.52223,0.38679,0.71534,0.34377,0.71534,0.34377" style="fill:none;stroke:#30302F;stroke-width:0.7;stroke-linecap:round;stroke-linejoin:round;stroke-miterlimit:10;"/><g><path d="     M26.22584,28.00126c-0.12272,0-0.64291,0.21832-1.31012,0.12613C24.56866,28.07948,24.12057,28.06438,24,28.13839" style="fill:none;stroke:#30302F;stroke-width:0.7;stroke-linecap:round;stroke-linejoin:round;stroke-miterlimit:10;"/><path d="     M21.95454,28.00126c0.12261,0,0.46253,0.21832,1.12974,0.12613c0.34706-0.04791,0.79504-0.06301,0.91572,0.01099" style="fill:none;stroke:#30302F;stroke-width:0.7;stroke-linecap:round;stroke-linejoin:round;stroke-miterlimit:10;"/></g><path d="    M29.25813,19.53431c-1.28503-1.15016-3.3139-0.32923-3.3139-0.32923l-0.46183,0.21695" style="fill:none;stroke:#30302F;stroke-width:0.7;stroke-linecap:round;stroke-linejoin:round;stroke-miterlimit:10;"/><path d="    M18.70486,19.53431c1.28514-1.15016,3.31401-0.32923,3.31401-0.32923l0.46183,0.21695" style="fill:none;stroke:#30302F;stroke-width:0.7;stroke-linecap:round;stroke-linejoin:round;stroke-miterlimit:10;"/><path d="    M30.66089,23.65937c-0.00431,0.07152-0.46456,0.63587-1.09793,0.90721" style="fill:none;stroke:#30302F;stroke-width:0.7;stroke-linecap:round;stroke-linejoin:round;stroke-miterlimit:10;"/><path d="    M24.57587,11.71333c0,0,0.51485,1.5508-0.56412,2.81937c-1.07897,1.26855-0.79856,2.49751-0.79856,2.49751" style="fill:none;stroke:#30302F;stroke-width:0.7;stroke-linecap:round;stroke-linejoin:round;stroke-miterlimit:10;"/><path d="    M28.81128,30.02673v1.56136c0,0,2.19269,0.99542,4.72699,1.22577c2.53441,0.23046,7.22325,1.17239,8.39123,4.44294" style="fill:none;stroke:#30302F;stroke-width:0.7;stroke-linecap:round;stroke-linejoin:round;stroke-miterlimit:10;"/><path d="    M19.18872,30.02673v1.56136c0,0-2.19258,0.99542-4.72699,1.22577c-2.5343,0.23046-7.22314,1.17239-8.39123,4.44294" style="fill:none;stroke:#30302F;stroke-width:0.7;stroke-linecap:round;stroke-linejoin:round;stroke-miterlimit:10;"/><path d="    M19.18872,31.58808c5.42155,8.07994,9.62256,0,9.62256,0" style="fill:none;stroke:#30302F;stroke-width:0.7;stroke-linecap:round;stroke-linejoin:round;stroke-miterlimit:10;"/></g></g></svg>