<?xml version="1.0" ?><svg id="Layer_1" style="enable-background:new 0 0 48 48;" version="1.1" viewBox="0 0 48 48" xml:space="preserve" xmlns="http://www.w3.org/2000/svg" xmlns:xlink="http://www.w3.org/1999/xlink"><style type="text/css">
	.st0{fill:#464747;}
	.st1{fill:#22D0FF;}
	.st2{fill:#828282;}
	.st3{fill:none;stroke:#303030;stroke-width:0.75;stroke-linecap:round;stroke-linejoin:round;stroke-miterlimit:10;}
</style><g><path class="st0" d="M24.34974,4.13533c0,0-8.89694,2.47119-11.48693,10.41716c0,0-0.23413,8.99758-4.19686,11.66502   l13.55427,14.37162l2.12951,3.27555l2.12951-3.27555l13.40728-14.21181c0,0-2.53718-2.10641-3.26534-8.33945   c-0.00001,0-0.58181-2.27573-2.1415-5.11408C32.83607,9.93271,30.59055,6.9505,24.34974,4.13533z"/><path class="st1" d="M33.48758,20.85871c0,0-2.51875-0.03958-3.42171,0.79021l-2.95824,4.11204l4.8475-1.52558L33.48758,20.85871z"/><path class="st1" d="M15.2683,20.85871c0,0,2.51875-0.03958,3.42171,0.79021l2.91873,4.42492l-4.80799-1.83846L15.2683,20.85871z"/><path class="st2" d="M37.56696,23.10331c0,0-4.85853,4.61852-6.62692,6.48263c-1.76839,1.86411-3.993,7.24101-4.38939,10.56411   c-0.02743,0.22998,13.35598-13.77274,13.35598-13.77274C38.85461,25.38228,38.04168,24.3027,37.56696,23.10331z"/><path class="st2" d="M11.22399,23.10331c0,0,4.85853,4.61852,6.62692,6.48263s3.993,7.24101,4.38939,10.56411   c0.02743,0.22998-13.35598-13.77274-13.35598-13.77274C9.93633,25.38228,10.74927,24.3027,11.22399,23.10331z"/><path class="st2" d="M38.36176,8.60217c0,0-2.11444,5.10004-5.61395,7.76324s-8.37793,5.46716-8.37793,5.46716   s-5.64954-3.32343-8.31433-5.22864c-3.82959-2.73798-6.36981-8.15979-6.36981-8.15979   c-0.95685-0.02338-4.7066-0.91132-4.7066-0.91132L8.06628,9.6142l3.81537,7.89349c0.62146,1.51984,3.37048,3.35101,3.37048,3.35101   c3.52258-0.24768,3.99738,1.57574,3.99738,1.57574l5.12036,6.86163c0.35895,0,0.62933-0.43762,0.81567-1.09302l4.30463-5.76862   c0,0,0.47479-1.82343,3.99738-1.57574c0,0,2.53229-1.30103,3.15375-2.82086l3.35712-8.2099l3.04803-2.2951   C43.04645,7.53284,39.3186,8.5788,38.36176,8.60217z"/><path class="st3" d="M24.36984,21.83258c0,0-12.4172-5.53934-14.55626-13.3638l-5.17877-1.1821l3.52638,2.52117l3.93721,8.23002   c0,0,1.63534,1.97649,3.32407,2.82085c0,0,2.5331-0.11258,3.54634,0.78807l1.91389,3.20859l3.48714,4.44069v14.5686   l-2.12951-3.27555c0,0-4.63161-4.69972-7.15175-7.4242S8.68606,26.2175,8.68606,26.2175   c3.84959-2.8763,3.41233-8.17965,3.41233-8.17965"/><path class="st3" d="M11.15835,23.10103l6.64131,6.48491c0,0,3.69796,3.92844,4.44068,11.00318"/><path class="st3" d="M18.49653,7.08314c1.76753-1.47229,5.87333-2.9478,5.87333-2.9478s4.1797,2.23668,5.66571,3.24723"/><path class="st3" d="M13.16446,13.90208c0,0,1.04225-2.98562,3.43075-5.31983"/><path class="st3" d="M31.83816,8.96224c2.12793,2.25821,3.05076,4.93984,3.05076,4.93984"/><path class="st3" d="M36.64129,18.03786c0,0,0.86919,6.30573,3.41233,8.17965c0,0-3.88238,4.22294-6.40252,6.94742   s-7.15175,7.4242-7.15175,7.4242l-2.12951,3.27555v-14.5686l2.81455-3.71521l2.88304-3.93407   c1.01324-0.90066,3.54634-0.78807,3.54634-0.78807C35.3025,20.01435,36.64129,18.03786,36.64129,18.03786l3.35711-8.20992   l3.36679-2.36787l-5.17878,1.18211c-2.13906,7.82445-13.81657,13.1904-13.81657,13.1904v-8.34581"/><path class="st3" d="M37.93032,22.99379l-6.99028,6.59215c0,0-3.69796,3.92844-4.44068,11.00318"/><path class="st2" d="M24.36986,13.48678c0,0,6.25534-4.46892,7.27288-8.72592l4.21404-0.62552l-2.28085,2.24045   C31.75902,9.89562,28.39537,12.54635,24.36986,13.48678z"/><path class="st2" d="M24.36984,13.48678c0,0-6.25534-4.46892-7.27287-8.72592l-4.21404-0.62552l2.28085,2.24045   C16.98068,9.89562,20.34433,12.54635,24.36984,13.48678z"/><path class="st3" d="M24.36986,13.48678c0,0,6.25534-4.46892,7.27288-8.72592l4.21404-0.62552l-2.28085,2.24045   C31.75902,9.89562,28.39537,12.54635,24.36986,13.48678z"/><path class="st3" d="M24.36984,13.48678c0,0-6.25534-4.46892-7.27287-8.72592l-4.21404-0.62552l2.28085,2.24045   C16.98068,9.89562,20.34433,12.54635,24.36984,13.48678z"/><polyline class="st3" points="26.9348,25.91032 31.95514,24.23538 33.61377,20.85871  "/><polyline class="st3" points="22.05538,26.34871 17.02438,24.23538 15.36575,20.85871  "/><path class="st3" d="M28.4585,15.2673c0,0,2.52301-1.14365,3.21475-2.06548"/><path class="st3" d="M20.26406,15.2673c0,0-2.52301-1.14365-3.21475-2.06548"/><line class="st3" x1="31.12096" x2="28.84733" y1="29.41532" y2="29.03556"/><line class="st3" x1="17.81636" x2="20.08998" y1="29.41532" y2="29.03556"/><path class="st3" d="M27.52372,5.8843c-0.95706,2.54839-3.15386,3.07794-3.15386,3.07794s-2.40763-0.79774-3.36469-3.34612"/></g></svg>