<?xml version="1.0" ?><svg viewBox="0 0 64 64" xmlns="http://www.w3.org/2000/svg"><title/><g data-name="Day 9" id="bab7e8e6-abdc-4490-93a6-7ade6afccda2"><path d="M57,44a6.19,6.19,0,0,1-.13,1.08C56.43,47.4,54.37,52.65,45,52l2.83-4L50,45Z" data-name="&lt;Path&gt;" fill="#d6a62d" id="c9a5c15e-5957-44a8-86cf-e08d3c5e3980"/><path d="M57,44a6.19,6.19,0,0,1-.13,1.08c-1.56,1.69-4.29,3.12-9,3L50,45Z" data-name="&lt;Path&gt;" fill="#ffd466" id="70a78d9f-91cf-49a5-abc3-b713be6041de"/><path d="M50,45l7-1s0,8.83-12,8Z" data-name="&lt;Path&gt;" fill="none" id="caab3b9a-29d8-4baa-8a2f-87eb52751659" stroke="#001c63" stroke-linecap="round" stroke-linejoin="round" stroke-width="2"/><path d="M16,53s-4,2.83-4,4,3,1,3,1a1.79,1.79,0,0,0,1,2,2.7,2.7,0,0,0,.76.23,4.77,4.77,0,0,0,4.53-1.94L23,56Z" data-name="&lt;Path&gt;" fill="#fff0c9" id="52cbfe14-caff-4e85-b737-2b905da70639" stroke="#001c63" stroke-linecap="round" stroke-linejoin="round" stroke-width="2"/><path d="M40,53s4,2.83,4,4-3,1-3,1a1.79,1.79,0,0,1-1,2,2.7,2.7,0,0,1-.76.23,4.77,4.77,0,0,1-4.53-1.94L33,56Z" data-name="&lt;Path&gt;" fill="#fff0c9" id="798fc051-e975-4f45-a9fd-c729e41d59d6" stroke="#001c63" stroke-linecap="round" stroke-linejoin="round" stroke-width="2"/><g data-name="&lt;Group&gt;" id="14ee5cbd-b29b-411d-a84c-66953bd61ab7"><path d="M39,55q-1.3.52-2.55.93C20.63,61,11,51.27,11,43.75A20.89,20.89,0,0,1,11.66,39a19.46,19.46,0,0,1,2.69-5.9L14,33c-.25-.57-.47-1.12-.65-1.65C9.51,20.54,17,16,17,16l.47.08C18,12.78,20,8.79,26,6c8.73-4,16.8.29,20.29,7.29.12-.15.25-.29.38-.29h0A.7.7,0,0,1,47,13s3.67,2.16,3,11a25.69,25.69,0,0,1-1.23,6.45l.73.12A6.71,6.71,0,0,1,51,32.46a9.57,9.57,0,0,1,.59,1.2C53.88,39.17,52.92,49.31,39,55Z" data-name="&lt;Path&gt;" fill="#ffd466" id="eaeb54a6-f12a-45e4-b916-f2541b98739b"/></g><ellipse cx="36" cy="18.5" data-name="&lt;Path&gt;" fill="#001c63" id="a94ce72e-4ac9-45f8-bc93-1351368169af" rx="1" ry="1.5"/><path d="M38,48.5a18.29,18.29,0,0,1-1.55,7.43C20.63,61,11,51.27,11,43.75A20.89,20.89,0,0,1,11.66,39,14.05,14.05,0,0,1,23.5,32C31.51,32,38,39.39,38,48.5Z" data-name="&lt;Path&gt;" fill="#f0c763" id="1c7d44e7-459c-4a71-814a-5dc1a8108f75"/><path d="M39,55c-17.33,7.08-28-3.33-28-11.25a19.5,19.5,0,0,1,3.35-10.68L14,33c-.25-.57-.47-1.12-.65-1.65L14,32l4-2c-.2.45-8.48,12.56-3,18,10.5,10.38,24.12,5.5,30,0,5.12-4.78,5.43-6.87,6.61-14.34C53.88,39.17,52.92,49.31,39,55Z" data-name="&lt;Path&gt;" fill="#f0c763" id="f0044952-acc2-4c20-aef4-b21e43dcf927"/><ellipse cx="21" cy="17.5" data-name="&lt;Path&gt;" fill="#001c63" id="0b5913b6-02c1-4709-a4fb-fb0e276bf356" rx="1" ry="1.5"/><line data-name="&lt;Path&gt;" fill="none" id="bc3ffd40-cce9-40ac-92a3-ec3dcf3f5049" stroke="#001c63" stroke-linecap="round" stroke-linejoin="round" stroke-width="2" x1="34" x2="33" y1="6" y2="2"/><line data-name="&lt;Path&gt;" fill="none" id="8bd34b54-b4bb-4f27-a80d-d541c9b94bbc" stroke="#001c63" stroke-linecap="round" stroke-linejoin="round" stroke-width="2" x1="34" x2="26" y1="6" y2="2"/><path d="M51,32.46c-2.7,2.07-4.85,3-4,.54,1.88-5.62-1-18-1-18l.67-2h0A.7.7,0,0,1,47,13s3.67,2.16,3,11a25.76,25.76,0,0,1-1.23,6.46l.73.12A6.71,6.71,0,0,1,51,32.46Z" data-name="&lt;Path&gt;" fill="#f0c763" id="ed48c155-f32b-4570-bdaf-bd229e9032cb"/><g data-name="&lt;Group&gt;" id="e1cacd22-f7d7-487c-88ef-c471c04c21da"><path d="M18,22a12.71,12.71,0,0,1-.53-5.92C18,12.78,20,8.79,26,6a15.72,15.72,0,0,1,21,7" data-name="&lt;Path&gt;" fill="none" id="bdaaeba4-f384-4068-8140-4e6f2d5b3dde" stroke="#001c63" stroke-linecap="round" stroke-linejoin="round" stroke-width="2"/><path d="M38,28s3.67-4.67,4-9,3-1,3-1,.43-3.59,1.29-4.71h0c.22-.27.45-.39.71-.28,0,0,3.67,2.17,3,11a25.78,25.78,0,0,1-1.23,6.46C47.57,34,46,35,46,35" data-name="&lt;Path&gt;" fill="none" id="aff8d462-5b72-4bf1-bc50-daae90ceb95e" stroke="#001c63" stroke-linecap="round" stroke-linejoin="round" stroke-width="2"/><path d="M17,30a15.2,15.2,0,0,0-2.65,3.07A19.5,19.5,0,0,0,11,43.75C11,51.67,21.67,62.08,39,55S53.58,33.92,49.5,30.58" data-name="&lt;Path&gt;" fill="none" id="e46249c2-3dd4-46ba-a4c6-b0a2448a0c4d" stroke="#001c63" stroke-linecap="round" stroke-linejoin="round" stroke-width="2"/><path d="M17,16s-8.25,5-3,17" data-name="&lt;Path&gt;" fill="none" id="ecef5e93-671a-4aa9-8302-e49fe27496a7" stroke="#001c63" stroke-linecap="round" stroke-linejoin="round" stroke-width="2"/></g><path d="M30,28c-3.26,1.24-15.42,3-19,0a5.17,5.17,0,0,1-1.35-1.56C8.55,24.37,11,23.14,13,23c2.5-.17,8.83-1.25,10-3s4-1,4-1c2,.24,2.85,2.16,6.52,3.79L34,23C38.08,24.67,33.5,26.67,30,28Z" data-name="&lt;Path&gt;" fill="#ffdb7d" id="b5e28079-1bb2-4651-a980-454b72be535c"/><path d="M33.52,22.79C33.07,24,30.3,25.12,28,26c-3.08,1.17-14.14,2.81-18.35.44C8.55,24.37,11,23.14,13,23c2.5-.17,8.83-1.25,10-3s4-1,4-1C29,19.24,29.85,21.16,33.52,22.79Z" data-name="&lt;Path&gt;" fill="#fff0c9" id="7fd61f71-ea1b-429a-9c82-df66f31a723a"/><path d="M27,19s-2.83-.75-4,1-7.5,2.83-10,3-5.58,2-2,5,15.74,1.24,19,0c3.5-1.33,8.08-3.33,4-5S29.08,19.25,27,19Z" data-name="&lt;Path&gt;" fill="none" id="46906dd2-9f77-4c5e-bae1-6e6546de82f5" stroke="#001c63" stroke-linecap="round" stroke-linejoin="round" stroke-width="2"/><circle cx="27.5" cy="22.5" data-name="&lt;Path&gt;" fill="#001c63" id="65ef35bb-4471-4ea4-bb31-f934deb39888" r="0.5"/><circle cx="22.5" cy="22.5" data-name="&lt;Path&gt;" fill="#001c63" id="3dd32ec7-56cc-4a7a-b428-c962a7febfad" r="0.5"/><path d="M37,8a6.83,6.83,0,0,1,5,4" data-name="&lt;Path&gt;" fill="none" id="666c6737-521f-441f-85cf-74a4f3c81fcb" stroke="#fff" stroke-linecap="round" stroke-linejoin="round" stroke-width="2"/><circle cx="43" cy="14" data-name="&lt;Path&gt;" fill="#fff" id="aefe60db-7355-4044-9349-56f8f1bb15fc" r="1"/></g></svg>