<?xml version="1.0" encoding="utf-8"?>
<!-- Generator: Adobe Illustrator 16.0.0, SVG Export Plug-In . SVG Version: 6.00 Build 0)  -->
<!DOCTYPE svg PUBLIC "-//W3C//DTD SVG 1.1//EN" "http://www.w3.org/Graphics/SVG/1.1/DTD/svg11.dtd">
<svg version="1.1" id="Layer_1" xmlns="http://www.w3.org/2000/svg" xmlns:xlink="http://www.w3.org/1999/xlink" x="0px" y="0px"
	 width="612px" height="612px" viewBox="0 0 612 612" enable-background="new 0 0 612 612" xml:space="preserve">
<g>
	<path fill="#7491A0" d="M306,584c87.616,0,165.072-43.748,211.689-110.566c-5.26-3.347-11.355-5.856-18.407-7.411
		c-51.52-11.475-118.935-21.635-146.904-65.622c-0.956,1.555-94.908,2.988-95.983,4.423
		c-29.524,42.074-93.234,49.845-143.916,61.199c-6.933,1.555-12.91,4.064-18.169,7.411C140.927,540.252,218.384,584,306,584z"/>
	<path fill="#FBB040" d="M273.607,44.077c3.945,0,7.65,0.837,11.117,2.271c4.781-10.758,15.181-18.049,27.014-18.049
		c15.3,0,27.971,12.192,29.764,27.97c5.021-3.944,11.235-6.335,17.93-6.335c16.257,0,29.524,13.746,29.884,30.839
		c4.063-2.271,8.726-3.466,13.626-3.466c16.496,0,29.883,14.224,29.883,31.795c0,4.9-1.075,9.443-2.868,13.507
		c1.793-0.358,3.705-0.598,5.618-0.598c16.495,0,30.002,14.224,30.002,31.795c0,6.933-2.151,13.387-5.618,18.527
		c4.304,5.499,7.053,12.67,7.053,20.44c0,9.443-3.943,17.93-10.041,23.787c5.379,5.737,8.727,13.626,8.727,22.353
		c0,13.268-7.649,24.623-18.527,29.285c4.781,5.617,7.65,13.028,7.65,21.156c0,14.463-9.084,26.655-21.517,30.48
		c0.718,2.749,1.076,5.617,1.076,8.486c0,17.57-13.866,36.815-30.003,31.796c1.195,13.626-20.081,38.25-41.118,24.024
		c-11.235,36.577-88.214,30.361-103.156,0.12c-15.898,17.451-43.39,3.347-44.227-16.854c-17.571,0.479-30.6-14.702-30.6-31.796
		c0-2.63,0.358-5.14,0.836-7.529c-14.344-2.391-25.34-15.539-25.34-31.438c0-3.466,0.478-6.693,1.434-9.802
		c-12.67-3.706-21.874-16.017-21.874-30.601c0-3.943,0.717-7.649,1.913-11.115c-6.933-5.857-11.475-14.822-11.475-24.982
		c0-9.443,3.944-18.049,10.16-23.787c-4.662-5.618-7.411-12.91-7.411-20.918c0-12.432,6.813-23.309,16.615-28.449
		c-1.076-3.227-1.674-6.813-1.674-10.519c0-17.571,13.388-31.795,29.883-31.795c0.957,0,1.913,0,2.869,0.12
		c3.347-10.877,12.192-19.245,23.069-21.277c0-0.598,0-1.313,0-1.912c0-17.571,13.388-31.795,29.883-31.795
		c6.216,0,11.953,2.032,16.734,5.379C256.275,48.381,264.522,44.077,273.607,44.077"/>
	<g>
		<path fill="#BC9F82" d="M257.709,298.918l-1.793,85.584c19.364,15.301,37.652,23.429,50.8,23.429
			c12.91,0,30.72-7.89,49.727-22.711l-0.837-86.421C355.486,233.176,257.709,233.176,257.709,298.918z"/>
		<g>
			<path fill="#DCC5A1" d="M304.326,460.764v-55.94c-12.55-0.238-30.122-8.486-48.41-23.188l-0.717,24.862
				C266.315,432.314,284.006,459.807,304.326,460.764z"/>
			<path fill="#EDD9B4" d="M356.682,402.552l-0.358-20.32c-19.483,14.464-38.13,22.592-51.278,22.592c-0.239,0-0.479,0-0.718,0
				v55.94c0.598,0,1.076,0.119,1.674,0.119c20.679,0,39.445-28.329,50.92-54.146c0.12-0.358-0.119,0.357,0,0L356.682,402.552z"/>
		</g>
	</g>
	<g>
		<path fill="#DCC5A1" d="M180.253,234.013c-4.9-2.868-9.921-3.706-14.224-1.913c-10.16,4.303-12.312,22.113-4.662,39.565
			c7.53,17.571,21.874,28.209,32.034,23.905c1.793-0.836,3.467-2.031,4.662-3.586c27.851,53.312,79.129,88.453,105.546,88.453
			V85.674C215.037,85.674,174.157,165.999,180.253,234.013z"/>
		<path fill="#EDD9B4" d="M445.732,232.22c-5.618-2.391-12.672-0.12-19.007,5.379c7.771-68.85-32.87-151.924-122.998-151.924l0,0
			v294.883l0,0c27.135,0,80.325-36.935,107.698-92.517c1.554,3.586,3.944,6.335,7.172,7.65c10.16,4.303,24.504-6.336,32.034-23.906
			C458.044,254.214,455.893,236.523,445.732,232.22z"/>
	</g>
	<path fill="#FFFFFF" d="M188.022,298.798c5.14,0,9.204-4.185,9.204-9.204c0-5.141-4.184-9.204-9.204-9.204
		s-9.204,4.185-9.204,9.204C178.819,294.734,183.002,298.798,188.022,298.798"/>
	<path fill="#FFFFFF" d="M421.706,298.798c5.14,0,9.204-4.185,9.204-9.204c0-5.141-4.185-9.204-9.204-9.204
		c-5.14,0-9.204,4.185-9.204,9.204C412.383,294.734,416.566,298.798,421.706,298.798"/>
	<g>
		<g>
			<path fill="#D43329" d="M320.941,330.355c0,0,0.598,9.442-15.658,9.442c-4.662,0-15.42-2.032-15.42-9.204
				C299.426,332.865,310.781,333.343,320.941,330.355"/>
			<path fill="#CA3029" d="M311.498,326.41c3.586,0.479,9.802,3.824,9.443,3.943c-10.16,3.108-21.517,2.512-31.079,0.239
				c-0.12,0-0.239,0-0.239-0.119c3.228-1.315,7.531-4.063,10.519-3.825c1.675,0.119,3.706,1.436,5.261,1.436
				C307.674,328.084,309.228,326.052,311.498,326.41"/>
			<path fill="#A82623" d="M284.604,329.04c12.192,5.14,29.166,5.618,41.119-0.239c0.239-0.119,0.119-0.598-0.238-0.479
				C311.14,332.865,299.188,332.147,284.604,329.04C284.604,328.92,284.484,329.04,284.604,329.04"/>
		</g>
		<path fill="#342214" d="M248.864,231.263c7.77,0,13.985,7.173,13.985,15.897c0,8.846-6.335,15.897-13.985,15.897
			c-7.771,0-14.105-7.172-14.105-15.897C234.879,238.436,241.095,231.263,248.864,231.263"/>
		<path fill="#342214" d="M363.017,231.263c7.771,0,13.985,7.173,13.985,15.897c0,8.846-6.336,15.897-13.985,15.897
			c-7.77,0-13.984-7.172-13.984-15.897C348.912,238.436,355.247,231.263,363.017,231.263"/>
	</g>
	<path fill="#FBB040" d="M415.61,259.234c92.756-120.847-85.823-190.652-132.68-190.652c-40.402,0-165.073,112.838-90.366,198.9
		c-0.717-15.062,0.598-38.849,22.95-47.097c16.854,0.12,38.011-1.075,38.37-17.571c3.586,1.673,7.531,2.51,11.595,2.51
		c14.104,0,25.819-10.519,28.688-24.385c0.478,0,1.076,0,1.554,0c10.639,0,19.961-5.977,25.103-14.941
		c4.78-0.358,9.203-2.032,13.027-4.542c4.305,8.128,11.953,14.104,21.038,15.539c2.868,13.985,17.212,37.294,43.271,25.341
		C411.068,221.701,416.686,240.109,415.61,259.234"/>
	<polygon fill="#EDEDED" points="331.221,584 331.221,584 330.862,584 	"/>
</g>
</svg>
