<?xml version="1.0" ?><svg style="enable-background:new 0 0 48 48;" version="1.1" viewBox="0 0 48 48" xml:space="preserve" xmlns="http://www.w3.org/2000/svg" xmlns:xlink="http://www.w3.org/1999/xlink"><g id="Icons"><g><g><path d="M20.0584,25.08808l-0.06753,0.77715l-5.8449,1.55408     c-3.16451,0.83337-5.65338,3.47253-6.73453,6.04023l-1.55408,3.75014c0,0,17.38813,6.50936,36.28529,0.03376l-1.55408-3.75014     c-1.08115-2.57899-3.57002-5.20684-6.73453-6.04023L28.00913,25.899l-0.06753-0.9348v-0.01118" style="fill:#464747;"/></g><circle cx="29.37385" cy="28.96195" r="0.62337" style="fill:#FFFFFF;"/><circle cx="33.78363" cy="30.30575" r="0.62331" style="fill:#FFFFFF;"/><circle cx="18.94487" cy="28.96195" r="0.62334" style="fill:#FFFFFF;"/><circle cx="14.53509" cy="30.30575" r="0.62334" style="fill:#FFFFFF;"/><path d="M17.20966,11.80204c-0.00885-0.00701,1.92055-3.49099,5.54692-3.82378    c3.62638-0.33279,6.25967,1.5434,7.83965,3.82378c0,0-1.48722,0.15349-1.21598,2.16315s1.21598,2.8383,1.21598,2.8383    s0.14091-1.30067,1.19692-0.5333c1.05601,0.76737,0.21767,4.13231-1.35276,3.95667    c-1.57043-0.17564-6.52803-2.22663-6.52803-2.22663l-6.19003,2.23326c0,0-1.85884-0.11622-1.90959-1.99255    s0.15406-2.50957,0.79776-2.2661c0.6437,0.24347,0.69997,1.1738,0.69997,1.1738S20.09101,14.08604,17.20966,11.80204z" style="fill:#F9D9C0;"/><polyline points="25.57707,17.15555 29.65148,15.97484 27.61422,17.93672 25.57707,17.15555   " style="fill:#FFFFFF;"/><polyline points="22.26379,17.15555 18.18938,15.97484 20.22653,17.93672 22.26379,17.15555   " style="fill:#FFFFFF;"/><path d="M28.61735,24.05199c0.36034,0.02259,1.48655,0.16894,3.52485,0.90103    c0,0-1.68925-3.10827,1.89207-3.06321c0,0-1.45279-4.1106,2.51134-3.87402c0,0-4.23447-4.41471-2.21853-5.93502    c0,0-2.74793-1.44149-4.35836,0.25905c-1.62172,1.70054,0.6081,4.81999,0.6081,4.81999s-0.02247-1.37385,1.21632-0.88963    c0.31529,0.56305,0.43917,1.32888,0.28152,1.98207c-0.28152,1.11491-0.75457,2.12842-1.68925,1.97075" style="fill:#A67358;"/><path d="M17.48655,20.21646c0.84918,3.11265,3.39129,6.9952,6.40092,6.9952    c3.06517,0,5.65004-3.77146,6.4507-6.97307l-6.42581-2.23835L17.48655,20.21646z" style="fill:#B5B5B5;"/><g><path d="M17.50199,20.21174H17.4907c-0.92351,0.14647-1.39643-0.85586-1.67796-1.97079     c-0.15764-0.65314-0.03376-1.419,0.28152-1.98207c1.23879-0.47291,1.21621,0.88976,1.21621,0.88976     s2.21865-3.10827,0.60822-4.82011c-1.62172-1.70054-4.35836-0.24776-4.35836-0.24776     c2.01583,1.50914-2.22982,5.92373-2.22982,5.92373c3.97543-0.23647,2.52264,3.88531,2.52264,3.88531     c3.57002-0.04506,1.89195,3.06321,1.89195,3.06321c2.03842-0.7321,3.16462-0.87845,3.51367-0.90103" style="fill:#A67358;"/></g><g><path d="     M20.0584,25.08808l-0.06753,0.77715l-5.8449,1.55408c-3.16451,0.83337-5.65338,3.47253-6.73453,6.04023l-1.55408,3.75014     c0,0,17.38813,6.50936,36.28529,0.03376l-1.55408-3.75014c-1.08115-2.57899-3.57002-5.20684-6.73453-6.04023L28.00913,25.899     l-0.06753-0.9348v-0.01118" style="fill:none;stroke:#30302F;stroke-width:0.8;stroke-linecap:round;stroke-linejoin:round;stroke-miterlimit:10;"/></g><g><path d="     M28.61735,24.05199c0.36034,0.02259,1.48655,0.16894,3.52485,0.90103c0,0-1.68925-3.10827,1.89207-3.06321     c0,0-1.45279-4.1106,2.51134-3.87402c0,0-4.23447-4.41471-2.21853-5.93502c0,0-2.74793-1.44149-4.35836,0.25905     c-1.62172,1.70054,0.6081,4.81999,0.6081,4.81999s-0.02247-1.37385,1.21632-0.88963     c0.31529,0.56305,0.43917,1.32888,0.28152,1.98207c-0.28152,1.11491-0.75457,2.12842-1.68925,1.97075" style="fill:none;stroke:#30302F;stroke-width:0.8;stroke-linecap:round;stroke-linejoin:round;stroke-miterlimit:10;"/><path d="     M17.48655,20.21646c0.84918,3.11265,3.39129,6.9952,6.40092,6.9952c3.06517,0,5.65004-3.77146,6.4507-6.97307l-6.42581-2.23835     L17.48655,20.21646z" style="fill:none;stroke:#30302F;stroke-width:0.8;stroke-linecap:round;stroke-linejoin:round;stroke-miterlimit:10;"/></g><g><path d="     M17.50199,20.21174H17.4907c-0.92351,0.14647-1.39643-0.85586-1.67796-1.97079c-0.15764-0.65314-0.03376-1.419,0.28152-1.98207     c1.23879-0.47291,1.21621,0.88976,1.21621,0.88976s2.21865-3.10827,0.60822-4.82011     c-1.62172-1.70054-4.35836-0.24776-4.35836-0.24776c2.01583,1.50914-2.22982,5.92373-2.22982,5.92373     c3.97543-0.23647,2.52264,3.88531,2.52264,3.88531c3.57002-0.04506,1.89195,3.06321,1.89195,3.06321     c2.03842-0.7321,3.16462-0.87845,3.51367-0.90103" style="fill:none;stroke:#30302F;stroke-width:0.8;stroke-linecap:round;stroke-linejoin:round;stroke-miterlimit:10;"/></g><circle cx="25.63973" cy="20.8455" r="0.47344" style="fill:#30302F;"/><circle cx="25.63973" cy="22.40675" r="0.47342" style="fill:#30302F;"/><circle cx="22.44151" cy="20.8455" r="0.47344" style="fill:#30302F;"/><circle cx="22.44151" cy="22.40675" r="0.47342" style="fill:#30302F;"/><line style="fill:none;stroke:#30302F;stroke-width:0.8;stroke-linecap:round;stroke-linejoin:round;stroke-miterlimit:10;" x1="23.91236" x2="23.91236" y1="18.00024" y2="27.21166"/><path d="    M30.44039,11.53928l-1.17253-1.35221c-2.90188-3.06644-7.81003-3.06644-10.71203,0l-1.11076,1.35221" style="fill:none;stroke:#30302F;stroke-width:0.8;stroke-linecap:round;stroke-linejoin:round;stroke-miterlimit:10;"/><path d="    M25.2521,15.58013c0.31955-0.09136,3.72306-1.08113,3.72306-1.08113" style="fill:none;stroke:#30302F;stroke-width:0.8;stroke-linecap:round;stroke-linejoin:round;stroke-miterlimit:10;"/><path d="    M22.46568,15.48877c-0.31955-0.09127-3.95085-1.11783-3.95085-1.11783" style="fill:none;stroke:#30302F;stroke-width:0.8;stroke-linecap:round;stroke-linejoin:round;stroke-miterlimit:10;"/><polyline points="    25.57707,17.15555 29.65148,15.97484 27.61422,17.93672 25.57707,17.15555   " style="fill:none;stroke:#30302F;stroke-width:0.8;stroke-linecap:round;stroke-linejoin:round;stroke-miterlimit:10;"/><polyline points="    22.26379,17.15555 18.18938,15.97484 20.22653,17.93672 22.26379,17.15555   " style="fill:none;stroke:#30302F;stroke-width:0.8;stroke-linecap:round;stroke-linejoin:round;stroke-miterlimit:10;"/><circle cx="29.37385" cy="28.96195" r="0.62337" style="fill:none;stroke:#30302F;stroke-width:0.8;stroke-linecap:round;stroke-linejoin:round;stroke-miterlimit:10;"/><circle cx="33.78363" cy="30.30575" r="0.62331" style="fill:none;stroke:#30302F;stroke-width:0.8;stroke-linecap:round;stroke-linejoin:round;stroke-miterlimit:10;"/><circle cx="18.94487" cy="28.96195" r="0.62334" style="fill:none;stroke:#30302F;stroke-width:0.8;stroke-linecap:round;stroke-linejoin:round;stroke-miterlimit:10;"/><circle cx="14.53509" cy="30.30575" r="0.62334" style="fill:none;stroke:#30302F;stroke-width:0.8;stroke-linecap:round;stroke-linejoin:round;stroke-miterlimit:10;"/></g></g></svg>