<?xml version="1.0" ?><svg style="enable-background:new 0 0 48 48;" version="1.1" viewBox="0 0 48 48" xml:space="preserve" xmlns="http://www.w3.org/2000/svg" xmlns:xlink="http://www.w3.org/1999/xlink"><g id="Icons"><g><path d="M13.83378,30.45002c-3.04133,0.88027-5.43405,2.8528-6.48689,5.34498l-1.56312,3.75427    c0,0,17.46116,6.52215,36.43246,0.0424l-1.56312-3.75415c-0.17016-0.40301-0.37229-0.80602-0.61679-1.17717    c-1.06342-1.67563-2.75431-3.01197-4.83862-3.82852c0,0,0,0-0.01057,0" style="fill:#A67358;"/><path d="M9.62565,32.70403c0,0,1.89872-1.65467,4.0742-2.254c0,0,0.21068-0.75378,1.7332-1.01413    s1.16244-0.78657,2.63277-0.7035c1.47033,0.08307,1.7854,0.36813,2.80562,1.20832    c1.02023,0.84019,2.02829,2.51476,2.49609,2.56623s0.80379-0.06358,2.22995-1.20092    c1.42616-1.13734,1.76515-2.03819,3.05056-2.42191c1.2854-0.38372,1.37951-0.33112,2.96701,0.08119    s2.64313,0.83603,3.33279,1.44266c0.68966,0.60663,0.81503,0.9761,2.37131,1.52221    c1.55628,0.54611,2.53121,2.65476,2.53121,2.65476s-2.34234-1.40312-6.4597-0.9082    c-4.11736,0.49493-6.64662,0.77656-6.64662,0.77656s-0.83149,0.57355-2.46685-0.07159s-2.7156-1.23027-4.9811-1.32029    S11.37274,32.22663,9.62565,32.70403z" style="fill:#577484;"/><path d="M12.83936,15.55881c0,0,0.99725-0.43567,0.92973-1.66792    c-0.06752-1.23225,0.27154-3.28684,0.95446-4.03195c0.68292-0.74512,1.09298-0.22961,2.42184-1.74104    s1.54585-2.07202,3.28793-2.36954s2.36883-0.19995,2.36883-0.19995l1.09932,0.42409c0,0,0.4645-0.59495,1.83917-0.41772    c1.37467,0.17723,2.62354,0.52777,3.46221,1.09812s0.5715,1.78784,1.72633,2.12439s1.67102,0.82427,1.67102,0.82427    s-0.85861,0.78279-0.67052,1.50638s0.58271,0.87424,1.22097,1.08588c0.63825,0.21164,1.50341,1.41993,1.35779,2.53756    c0,0-0.99445,0.2529-0.82634,1.01652s0.5917,1.95567,0.24614,3.28121c-0.34555,1.32555-1.048,2.49752-1.24824,3.03026    s-0.255,1.41664,0.36787,1.92445c0,0-0.27516,0.65164-1.23564,0.28432c0,0,0.05852,0.83397-0.2576,1.55498    c-0.31613,0.72101-1.31056,1.91088-1.31056,1.91088s0.15709-2.26947-0.28438-2.58712    c-0.44147-0.31765-11.91994-0.19949-11.91994-0.19949s-0.91469,0.83149-0.76119,1.9012l0.15659,0.79432    c0,0-1.7438-1.37876-1.53176-3.26095c0,0-0.79005,0.05593-1.16677-0.28856c-0.37672-0.3445,0.95681-0.7665,0.16344-1.91435    s-1.82305-3.78115-1.04657-6.29628L12.83936,15.55881z" style="fill:#AA8B7D;"/><path d="M20.04411,28.04275c-0.01275,0.13255,0.09529,0.69618-0.32965,1.1237    c0,0,3.37701,2.56569,3.65308,3.53758c0,0,1.33126-0.27425,2.57252-1.51722c1.24126-1.24297,2.40314-2.10609,2.40314-2.10609    s-0.46798-0.863-0.3873-1.17593C28.03658,27.59185,20.04411,28.04275,20.04411,28.04275z" style="fill:#DDBEA8;"/><path d="M22.64518,17.24442c0,0,0.44847-1.71673,0-2.90707    c-0.44847-1.19034-0.42465-1.24712-1.4754-0.74259c-1.05075,0.50453-1.71838,0.35944-1.66344,1.50008    s0.46119,2.40232,0.46119,2.40232s-1.27495-1.59416-1.75206-1.771s-0.4634,0.30553-0.58857,1.05679    c-0.12517,0.75126-0.73261,1.83962-0.36469,4.15537c0.36792,2.31575,0.21669,4.07556,1.25188,5.35998    c1.03519,1.28442,3.16673,3.36165,5.45907,3.13456c2.29235-0.22709,4.40731-1.30832,5.38423-3.00771    c0.97691-1.69939,1.08513-3.2367,1.38812-4.09123s0.06692-3.59237-1.1294-4.89784    c-1.19633-1.30547-2.24395-2.05086-2.24395-2.05086s-0.26527-0.22545-0.16654-1.26429s0.11507-0.75905-0.6804-0.82679    c-0.79547-0.06774-0.66203-0.21205-1.17507,0.99993C24.8371,15.50604,23.56979,16.79689,22.64518,17.24442z" style="fill:#F9D9C0;"/><path d="    M15.81194,24.04152c0.12454,0.41379,0.18674,0.76539,0.18674,1.01369c0,0.66192,0.45635,2.0996,1.46236,2.67876    c0,0-0.59121-1.91346,0.16585-2.65816" style="fill:none;stroke:#30302F;stroke-width:0.8;stroke-linecap:round;stroke-linejoin:round;stroke-miterlimit:10;"/><path d="    M29.99974,25.07581c0.74673,0.7447,0.16597,2.65816,0.16597,2.65816c0.99569-0.57916,1.55567-2.07886,1.55567-2.7408    c0-0.23797,0.04155-0.55858,0.14519-0.95165" style="fill:none;stroke:#30302F;stroke-width:0.8;stroke-linecap:round;stroke-linejoin:round;stroke-miterlimit:10;"/><path d="    M32.53032,22.34529c0-0.01032,0-0.01032,0-0.01032c0.13486-0.25855,0.29039-0.52742,0.46668-0.79644    c0.92315-1.38589,1.30684-3.68203,0.80906-5.17145c-0.51856-1.56173,0.72596-1.42733,0.72596-1.42733    s-0.19707-2.53398-1.54535-2.79256c-1.34827-0.2689-1.03712-1.51012-1.03712-1.51012    c0.21785-0.80676,0.86082-0.86877,0.86082-0.86877c-0.62232-0.63092-1.81495-0.24827-2.97648-2.35817    c-1.16165-2.11002-5.0094-1.86174-5.0094-1.86174l-0.92303,0.42409L22.80214,5.5484c0,0-3.84775-0.24827-5.01961,1.86174    c-1.16165,2.1099-2.35428,1.72725-2.9766,2.35817c-0.69485,0.69296-1.18231,2.82358-0.93336,3.74409    c0,0,0.04143,1.95492-1.38971,2.14104c0,0,1.01634,0.33103,1.45191-0.0103c0.42525-0.34133-0.12442,0.72395-0.12442,0.72395    c-0.18674,1.55146-0.10376,3.78555,0.80894,5.17145c0.18662,0.27932,0.36292,0.56888,0.50811,0.8482c0,0,0,0.0103,0,0.0206" style="fill:none;stroke:#30302F;stroke-width:0.8;stroke-linecap:round;stroke-linejoin:round;stroke-miterlimit:10;"/><path d="    M23.97316,29.43286c0.53261,0.05305,3.62138-0.58194,5.11244-2.6001c0.94981-1.28543,1.29459-3.02349,1.50235-4.40411    c0,0,0.85758-1.91971-0.69629-4.55873c-1.55399-2.63902-3.32043-2.18176-2.73245-3.45234    c0.58809-1.27071-1.84233-1.72785-1.8021-0.65272c0.04035,1.07513-1.8218,3.41988-2.89986,3.51761    c0,0,1.32642-4.9838-1.44387-3.61534c-2.7704,1.36831-0.90826,3.71307-0.90826,3.71307s-1.10881-0.87069-1.84149-1.61012    c-0.73267-0.73943-0.5212,1.07824-0.5212,1.07824s-1.01178,2.60237-0.69221,3.71762    c0.31944,1.11525,0.31944,4.24878,1.81063,6.26681C20.35191,28.85092,23.44068,29.48591,23.97316,29.43286" style="fill:none;stroke:#30302F;stroke-width:0.8;stroke-linecap:round;stroke-linejoin:round;stroke-miterlimit:10;"/><path d="    M23.99766,23.61037c0.09223,0.02851,0.26132-0.12863,0.58401-0.22851c0.32281-0.1,0.73772-0.04288,0.76847-0.48565" style="fill:none;stroke:#30302F;stroke-width:0.8;stroke-linecap:round;stroke-linejoin:round;stroke-miterlimit:10;"/><path d="    M23.99766,23.61037c-0.09222,0.02851-0.26132-0.12863-0.58401-0.22851c-0.32281-0.1-0.73773-0.04288-0.76847-0.48565" style="fill:none;stroke:#30302F;stroke-width:0.8;stroke-linecap:round;stroke-linejoin:round;stroke-miterlimit:10;"/><path d="M23.99766,25.2945c0,0-0.78348-0.4151-1.68945,0.14671c0,0,0.51411,0.73248,1.68945,0.76901    c1.17534-0.03653,1.68946-0.76901,1.68946-0.76901C24.78126,24.8794,23.99766,25.2945,23.99766,25.2945z" style="fill:#30302F;"/><path d="    M32.52972,22.33392c0,0-0.38116,1.37514,0.58558,1.57215c0,0-0.75202,0.97369-1.24608,0.13545" style="fill:none;stroke:#30302F;stroke-width:0.8;stroke-linecap:round;stroke-linejoin:round;stroke-miterlimit:10;"/><path d="    M15.12754,22.38542c0,0,0.40039,1.32364-0.56635,1.52065c0,0,0.75202,0.97369,1.24608,0.13545" style="fill:none;stroke:#30302F;stroke-width:0.8;stroke-linecap:round;stroke-linejoin:round;stroke-miterlimit:10;"/><path d="    M29.07671,17.87088c0,0-0.96158-0.27762-2.11554,0c-1.15384,0.27749-1.51448,0.54122-1.51448,0.54122" style="fill:none;stroke:#30302F;stroke-width:0.8;stroke-linecap:round;stroke-linejoin:round;stroke-miterlimit:10;"/><path d="    M18.8289,17.87088c0,0,0.96158-0.27762,2.11554,0c1.15396,0.27749,1.51448,0.54122,1.51448,0.54122" style="fill:none;stroke:#30302F;stroke-width:0.8;stroke-linecap:round;stroke-linejoin:round;stroke-miterlimit:10;"/><polyline points="    27.95589,27.98516 28.01966,28.84865 28.49823,28.97593   " style="fill:none;stroke:#30302F;stroke-width:0.8;stroke-linecap:round;stroke-linejoin:round;stroke-miterlimit:10;"/><path d="    M20.04411,28.04275l-0.07446,0.77416l-0.57428,0.14839c0,0,0,0-0.01057,0" style="fill:none;stroke:#30302F;stroke-width:0.8;stroke-linecap:round;stroke-linejoin:round;stroke-miterlimit:10;"/><path d="    M13.83378,30.45002c-3.04133,0.88027-5.43405,2.8528-6.48689,5.34498l-1.56312,3.75427c0,0,17.46116,6.52215,36.43246,0.0424    l-1.56312-3.75415c-0.17016-0.40301-0.37229-0.80602-0.61679-1.17717c-1.06342-1.67563-2.75431-3.01197-4.83862-3.82852    c0,0,0,0-0.01057,0" style="fill:none;stroke:#30302F;stroke-width:0.8;stroke-linecap:round;stroke-linejoin:round;stroke-miterlimit:10;"/><path d="    M26.06805,19.52208c0,0,1.05393-0.59619,2.27514,0" style="fill:none;stroke:#30302F;stroke-width:0.8;stroke-linecap:round;stroke-linejoin:round;stroke-miterlimit:10;"/><path d="    M21.78148,19.52208c0,0-1.05393-0.59619-2.27514,0" style="fill:none;stroke:#30302F;stroke-width:0.8;stroke-linecap:round;stroke-linejoin:round;stroke-miterlimit:10;"/><path d="    M27.66623,29.68089c-0.94596,0.98387-2.37326,2.16128-4.2987,2.93544c0,0,1.65115,1.15825,3.83803,0.24947    c2.18699-0.90878,7.9932-2.03061,7.9932-2.03061s-0.38141-1.1215-2.08347-1.4772    c-0.54522-0.11387-1.71336-0.44897-2.29124-0.62563C29.49739,28.32671,28.62661,28.68205,27.66623,29.68089z" style="fill:none;stroke:#30302F;stroke-width:0.8;stroke-linecap:round;stroke-linejoin:round;stroke-miterlimit:10;"/><path d="    M23.36753,32.61633c0,0-3.20802-3.66924-4.53864-3.85847c-1.3305-0.18935-2.9437,0.74099-3.46561,0.67797    c-0.52193-0.06285-2.37243,0.74149-1.09128,1.59326c1.10461,0.7344,6.95333,1.96137,9.47899,3.01352    c0.19275,0.08024,0.36616,0.15953,0.51652,0.2375c0.39426,0.2042,0.82023,0.33402,1.26313,0.36744    c0.90369,0.06838,1.99461-0.05823,0.40351-1.43371" style="fill:none;stroke:#30302F;stroke-width:0.8;stroke-linecap:round;stroke-linejoin:round;stroke-miterlimit:10;"/><path d="    M26.74404,34.45328c0,0,8.37066-1.89336,13.29323,0.20875" style="fill:none;stroke:#30302F;stroke-width:0.8;stroke-linecap:round;stroke-linejoin:round;stroke-miterlimit:10;"/><path d="    M21.78148,33.35899c0,0-10.7193-1.81635-12.69686-0.14516" style="fill:none;stroke:#30302F;stroke-width:0.8;stroke-linecap:round;stroke-linejoin:round;stroke-miterlimit:10;"/></g></g></svg>