<?xml version="1.0" ?><svg style="enable-background:new 0 0 48 48;" version="1.1" viewBox="0 0 48 48" xml:space="preserve" xmlns="http://www.w3.org/2000/svg" xmlns:xlink="http://www.w3.org/1999/xlink"><g id="Icons"><g><path d="M10.72974,24.83458c0,0-2.20859-1.13919-1.52168,1.63832s1.30171,4.45974,2.23375,3.58873" style="fill:#F9D9C0;"/><path d="M37.27026,24.83458c0,0,2.20859-1.13919,1.52168,1.63832s-1.30179,4.45974-2.23375,3.58873" style="fill:#F9D9C0;"/><path d="M23.69996,6.99089c0,0-12.91908-0.47852-13.58894,13.30185l2.10533,15.45501l5.07195,5.26337    h13.34968l4.83269-5.21554l2.48818-16.55547C37.95885,19.24012,37.28892,7.03872,23.69996,6.99089z" style="fill:#464747;"/><path d="M13.2231,18.52359c0,0,6.46012,0.21052,9.24166,3.79711c0,0-2.30685,6.9365-7.95415,3.8229    C14.51061,26.1436,10.45434,23.52164,13.2231,18.52359z" style="fill:#FFFFFF;"/><path d="M34.50533,18.52359c0,0-6.46012,0.21052-9.24165,3.79711c0,0,2.30675,6.9365,7.95405,3.8229    C33.21773,26.1436,37.27401,23.52164,34.50533,18.52359z" style="fill:#FFFFFF;"/><g><path d="M13.73051,35.06507l4.48214,4.48213l3.09383-3.17313h4.72018l3.6888,3.17313l4.28386-4.79946     c0,0,0.47599-4.6408-0.63466-5.27546c0,0-0.9123-0.47591-2.14193-0.47591c-1.22954,0-5.57068-0.476-7.30711-2.06264     c0,0-4.15601,2.14193-7.72584,2.10225c0,0-2.10233-0.27764-2.45926,1.86429     C13.73051,30.90027,13.41318,33.71646,13.73051,35.06507z" style="fill:#F9D9C0;"/><path d="M33.81424,30.13445c0,0-1.7906,0.52153-2.02285,3.5435     c-0.23225,3.02197,0.00002,3.5435,0.00002,3.5435l2.3093-2.71671C34.10071,34.50474,34.4355,32.24316,33.81424,30.13445z" style="fill:#D6B6A1;"/><path d="M13.83379,30.13445c0,0,1.7906,0.52153,2.02285,3.5435     c0.23225,3.02197-0.00002,3.5435-0.00002,3.5435l-2.3093-2.71671C13.54731,34.50474,13.21253,32.24316,13.83379,30.13445z" style="fill:#D6B6A1;"/></g><path d="    M23.69996,6.99089c0,0-12.91908-0.47852-13.58894,13.30185l2.10533,15.45501l5.07195,5.26337h13.34968l4.83269-5.21554    l2.48818-16.55547C37.95885,19.24012,37.28892,7.03872,23.69996,6.99089z" style="fill:none;stroke:#303030;stroke-width:0.75;stroke-linecap:round;stroke-linejoin:round;stroke-miterlimit:10;"/><path d="    M10.72974,24.83458c0,0-2.20859-1.13919-1.52168,1.63832s1.30171,4.45974,2.23375,3.58873" style="fill:none;stroke:#303030;stroke-width:0.75;stroke-linecap:round;stroke-linejoin:round;stroke-miterlimit:10;"/><path d="    M13.36866,35.12368l4.62609,4.62609l3.1932-3.27513h4.87169l3.80737,3.27513l4.42137-4.95361c0,0,0.49128-4.78985-0.65504-5.44489    c0,0-0.9416-0.49128-2.21064-0.49128c-1.26912,0-5.74965-0.49119-7.54184-2.1288c0,0-4.28955,2.21073-7.97404,2.16977    c0,0-2.16976-0.28656-2.53816,1.92417C13.36866,30.82511,13.04114,33.73175,13.36866,35.12368z" style="fill:none;stroke:#303030;stroke-width:0.75;stroke-linecap:round;stroke-linejoin:round;stroke-miterlimit:10;"/><path d="    M13.77785,30.03468c0,0,1.94468,1.24244,1.89069,3.86235l0.00107,3.5276" style="fill:none;stroke:#303030;stroke-width:0.75;stroke-linecap:round;stroke-linejoin:round;stroke-miterlimit:10;"/><path d="    M33.90133,30.03468c0,0-1.94468,1.24244-1.8907,3.86235l-0.06836,3.5276" style="fill:none;stroke:#303030;stroke-width:0.75;stroke-linecap:round;stroke-linejoin:round;stroke-miterlimit:10;"/><polyline points="    21.99971,31.78902 23.8159,32.277 25.64832,31.91325   " style="fill:none;stroke:#303030;stroke-width:0.75;stroke-linecap:round;stroke-linejoin:round;stroke-miterlimit:10;"/><polyline points="    19.63887,35.51768 20.74629,34.54529 26.73851,34.54529 27.79577,35.51768   " style="fill:none;stroke:#303030;stroke-width:0.75;stroke-linecap:round;stroke-linejoin:round;stroke-miterlimit:10;"/><line style="fill:none;stroke:#303030;stroke-width:0.75;stroke-linecap:round;stroke-linejoin:round;stroke-miterlimit:10;" x1="23.88086" x2="23.71737" y1="26.73118" y2="30.17604"/><path d="    M16.58722,11.01459c0,0-2.40654,1.60932-3.60016,4.63439" style="fill:none;stroke:#303030;stroke-width:0.75;stroke-linecap:round;stroke-linejoin:round;stroke-miterlimit:10;"/><path d="    M37.27026,24.83458c0,0,2.20859-1.13919,1.52168,1.63832s-1.30179,4.45974-2.23375,3.58873" style="fill:none;stroke:#303030;stroke-width:0.75;stroke-linecap:round;stroke-linejoin:round;stroke-miterlimit:10;"/><path d="    M13.2231,18.52359c0,0,6.46012,0.21052,9.24166,3.79711c0,0-2.30685,6.9365-7.95415,3.8229    C14.51061,26.1436,10.45434,23.52164,13.2231,18.52359z" style="fill:none;stroke:#303030;stroke-width:0.75;stroke-linecap:round;stroke-linejoin:round;stroke-miterlimit:10;"/><path d="    M34.50533,18.52359c0,0-6.46012,0.21052-9.24165,3.79711c0,0,2.30675,6.9365,7.95405,3.8229    C33.21773,26.1436,37.27401,23.52164,34.50533,18.52359z" style="fill:none;stroke:#303030;stroke-width:0.75;stroke-linecap:round;stroke-linejoin:round;stroke-miterlimit:10;"/><path d="    M17.74924,10.20355c0,0,1.09662-0.56785,1.62529-0.66575" style="fill:none;stroke:#303030;stroke-width:0.75;stroke-linecap:round;stroke-linejoin:round;stroke-miterlimit:10;"/><path d="    M22.46476,22.3207c0,0-0.56287-2.53424-3.32476-3.96632" style="fill:none;stroke:#303030;stroke-width:0.75;stroke-linecap:round;stroke-linejoin:round;stroke-miterlimit:10;"/><path d="    M25.26368,22.3207c0,0,0.56277-2.53424,3.32466-3.96632" style="fill:none;stroke:#303030;stroke-width:0.75;stroke-linecap:round;stroke-linejoin:round;stroke-miterlimit:10;"/></g></g></svg>