<?xml version="1.0" ?><svg style="enable-background:new 0 0 48 48;" version="1.1" viewBox="0 0 48 48" xml:space="preserve" xmlns="http://www.w3.org/2000/svg" xmlns:xlink="http://www.w3.org/1999/xlink"><g id="Icons"><g><path d="M39.85481,28.46758c0,0,0.66738-1.75617,0.14287-3.13473l-1.91058-1.88823l-0.0397-1.42069    l-1.34068-1.04467c0,0-0.98787-3.04483-2.63474-6.11985s-3.93794-4.87958-6.28625-6.08714s-6.57648-0.90983-9.7585,0.99    c0,0-2.63178,1.75984-4.18066,5.27786s-2.48215,5.89924-2.48215,5.89924l-1.39177,1.08455l-0.0398,1.42069    c0,0-2.14152,1.46364-2.10163,2.71523c0.03989,1.25159,0.44813,3.01653,1.68236,4.63365l0.66712,0.76915    c0,0-1.63031-1.77038-2.3795-2.65772c-0.74918-0.88734-2.67535,0.17005-2.38349,1.06644s-1.60147,0.60528-0.97517,2.04043    c0.6263,1.43515,6.90004,5.06557,9.20189,5.90983c2.30185,0.84426,8.10261,3.23096,14.86493,1.96278    s9.16851-3.47828,10.40374-3.90126c1.23524-0.42297,4.46104-2.73127,4.7205-3.83664    c0.25946-1.10538-0.64264-2.49714-0.99109-2.17514c-0.34844,0.322-0.7585-1.93321-1.75638-0.8056    S39.85481,28.46758,39.85481,28.46758z" style="fill:#E9C996;"/><path d="M32.58446,11.92216c0,0,3.43653,6.06033,3.95901,8.7403l1.50393,1.36147l0.0397,1.42069    c0,0,1.99623,1.19412,2.05128,2.40129c0.05505,1.20717-0.30083,3.79718-1.99229,5.38445c0,0,3.64407-1.14459,3.59982-4.64361    s-2.79951-7.46424-3.97581-9.15061C36.58339,15.73482,32.70317,11.80641,32.58446,11.92216z" style="fill:#767C60;"/><path d="M15.52246,11.92216c0,0-3.43653,6.06033-3.95901,8.7403l-1.50393,1.36147l-0.0397,1.42069    c0,0-1.99623,1.19412-2.05128,2.40129c-0.05505,1.20717,0.30084,3.79718,1.99229,5.38445c0,0-3.64406-1.14459-3.59981-4.64361    s2.34804-7.64939,3.52434-9.33576C11.07205,15.54967,15.40375,11.80641,15.52246,11.92216z" style="fill:#767C60;"/><path d="M14.72507,16.07806c0,0,3.19793-3.57653,7.57404,0    C22.29911,16.07806,18.51204,19.78095,14.72507,16.07806z" style="fill:#C78D12;"/><path d="M32.83869,16.07806c0,0-3.19793-3.57653-7.57394,0    C25.26475,16.07806,29.05172,19.78095,32.83869,16.07806z" style="fill:#C78D12;"/><ellipse cx="29.25756" cy="16.05521" rx="1.98058" ry="1.66095" style="fill:#F4AA27;"/><ellipse cx="18.51209" cy="16.05521" rx="1.98058" ry="1.66095" style="fill:#F4AA27;"/><path d="    M20.13945,34.30481c-5.68073-0.39952-9.95874-2.74216-9.95874-2.74216c-9.00465-3.91323,0-14.68511,0-14.68511    c7.15316-8.8363,13.71804-8.96247,13.71804-8.96247s3.28134-0.21044,7.23666,2.81914    c3.95523,3.02958,10.309,9.76204,10.60352,15.65294c0.29452,5.8908-11.52694,7.91765-11.52694,7.91765" style="fill:none;stroke:#303030;stroke-width:0.75;stroke-linecap:round;stroke-linejoin:round;stroke-miterlimit:10;"/><path d="    M14.72507,16.07806c0,0,3.19793-3.57653,7.57404,0C22.29911,16.07806,18.51204,19.78095,14.72507,16.07806z" style="fill:none;stroke:#303030;stroke-width:0.75;stroke-linecap:round;stroke-linejoin:round;stroke-miterlimit:10;"/><path d="    M16.76658,14.85942c0,0-0.84968,1.43834-0.19002,2.39157" style="fill:none;stroke:#303030;stroke-width:0.75;stroke-linecap:round;stroke-linejoin:round;stroke-miterlimit:10;"/><path d="    M19.91899,14.85942c0,0,0.84968,1.43834,0.19002,2.39157" style="fill:none;stroke:#303030;stroke-width:0.75;stroke-linecap:round;stroke-linejoin:round;stroke-miterlimit:10;"/><path d="M18.14222,14.64793c0,0-0.91792,1.74336,0,3.06823    C18.14222,17.71616,19.4208,16.35273,18.14222,14.64793z" style="fill:#303030;"/><path d="    M32.83869,16.07806c0,0-3.19793-3.57653-7.57394,0C25.26475,16.07806,29.05172,19.78095,32.83869,16.07806z" style="fill:none;stroke:#303030;stroke-width:0.75;stroke-linecap:round;stroke-linejoin:round;stroke-miterlimit:10;"/><path d="    M30.79718,14.85942c0,0,0.84978,1.43834,0.19002,2.39157" style="fill:none;stroke:#303030;stroke-width:0.75;stroke-linecap:round;stroke-linejoin:round;stroke-miterlimit:10;"/><path d="    M27.64487,14.85942c0,0-0.84978,1.43834-0.19002,2.39157" style="fill:none;stroke:#303030;stroke-width:0.75;stroke-linecap:round;stroke-linejoin:round;stroke-miterlimit:10;"/><path d="M29.42154,14.64793c0,0,0.91792,1.74336,0,3.06823    C29.42154,17.71616,28.14296,16.35273,29.42154,14.64793z" style="fill:#303030;"/><path d="M19.15854,21.07356l3.14057-2.1965c0,0,0.59677-0.06557,0.7279,0.39339    c0,0,0.22953,0.72122-0.295,0.88519l-3.27838,1.11462C19.45363,21.27026,18.60167,21.46305,19.15854,21.07356z" style="fill:#303030;"/><path d="M29.0687,21.07356l-3.14048-2.1965c0,0-0.59687-0.06557-0.72799,0.39339    c0,0-0.22954,0.72122,0.29499,0.88519l3.27838,1.11462C28.77361,21.27026,29.62558,21.46305,29.0687,21.07356z" style="fill:#303030;"/><path d="M35.32475,25.46656c0,0-2.75376-0.22943-5.68609-1.86867    c-2.75185-1.53827-5.39338-1.5752-5.70813-1.57396c-0.31466-0.00124-2.95627,0.03569-5.70813,1.57396    c-2.93233,1.63924-5.68609,1.86867-5.68609,1.86867s-0.45906,0.22953,0.32783,0.26226c0.78679,0.03283,3.98244,0,6.10554-1.04905    c1.99436-0.98539,4.64639-1.07406,4.96086-1.08121c0.31456,0.00716,2.96649,0.09582,4.96086,1.08121    c2.12301,1.04905,5.31875,1.08188,6.10555,1.04905C35.7838,25.69609,35.32475,25.46656,35.32475,25.46656z" style="fill:#303030;"/><path d="    M17.126,28.18769c0,0,0.57569-0.0984,1.38604,0.32783c0.81046,0.42613,3.30787,1.80311,5.3867,0.52452    c0,0,2.11166,1.11462,3.88193,0.39339c1.77037-0.72122,4.72083-1.49484,5.73715-1.25558" style="fill:none;stroke:#303030;stroke-width:0.75;stroke-linecap:round;stroke-linejoin:round;stroke-miterlimit:10;"/><path d="M18.35791,9.76228    c-4.53854,3.25786-6.15746,9.11154-6.15746,9.11154l-0.83603,2.06556l-1.39177,1.08455l-0.0398,1.42069l-1.82954,1.67016    c-1.31265,3.10173,2.07739,6.44787,2.07739,6.44787" style="fill:none;stroke:#303030;stroke-width:0.75;stroke-miterlimit:10;"/><path d="    M37.4939,31.88917c0,0,4.00476-2.98424,2.42284-6.77439l-1.82965-1.67016l-0.0397-1.42069l-1.39186-1.08455l-0.83593-2.06556    c0,0-1.61902-5.85368-6.15756-9.11154" style="fill:none;stroke:#303030;stroke-width:0.75;stroke-linecap:round;stroke-linejoin:round;stroke-miterlimit:10;"/><path d="    M22.29911,16.07806c0,0,0.17265-3.37382-3.32944-3.437" style="fill:none;stroke:#303030;stroke-width:0.75;stroke-linecap:round;stroke-linejoin:round;stroke-miterlimit:10;"/><path d="    M25.26475,16.07806c0,0-0.0042-3.02433,2.95962-3.437" style="fill:none;stroke:#303030;stroke-width:0.75;stroke-linecap:round;stroke-linejoin:round;stroke-miterlimit:10;"/><path d="    M29.82953,12.64106c0,0,0.9834,0.26264,1.5836,0.71282" style="fill:none;stroke:#303030;stroke-width:0.75;stroke-linecap:round;stroke-linejoin:round;stroke-miterlimit:10;"/><path d="    M21.0234,25.94853c0,0,3.91696,0.47547,6.01716,0" style="fill:none;stroke:#303030;stroke-width:0.75;stroke-linecap:round;stroke-linejoin:round;stroke-miterlimit:10;"/><path d="    M6.81262,28.70725c0,0-1.3202,0.29374-1.39489,1.26412s1.49386,2.50717,4.25751,3.79284    c2.76365,1.28567,4.22981,2.34721,9.03524,3.20522" style="fill:none;stroke:#303030;stroke-width:0.75;stroke-linecap:round;stroke-linejoin:round;stroke-miterlimit:10;"/><path d="    M41.24764,28.70725c0,0,1.3202,0.29374,1.39489,1.26412c0.0747,0.97038-1.49386,2.50717-4.25751,3.79284    c-2.76365,1.28567-5.80056,3.20522-11.93549,3.65243" style="fill:none;stroke:#303030;stroke-width:0.75;stroke-linecap:round;stroke-linejoin:round;stroke-miterlimit:10;"/><path d="    M42.64508,30.36028c0,0,0.93002-0.12269,0.98703,0.87009c0.05813,1.01218-1.57662,2.98413-4.35735,4.54978    c-2.81575,1.58536-5.2627,2.86932-6.39802,3.16141c-4.96706,1.75074-10.65088,1.35225-17.12839-0.22336    c-1.70124-0.41381-4.18729-1.8737-7.02469-3.33413s-4.41386-2.80923-4.35573-3.82141    c0.05702-0.99278,1.04724-1.20238,1.04724-1.20238" style="fill:none;stroke:#303030;stroke-width:0.75;stroke-linecap:round;stroke-linejoin:round;stroke-miterlimit:10;"/><path d="    M23.62548,34.6666c0,0,2.32445-0.0164,4.01939-0.18117" style="fill:none;stroke:#303030;stroke-width:0.75;stroke-linecap:round;stroke-linejoin:round;stroke-miterlimit:10;"/><path d="    M20.78231,37.25593c0,0,1.20115,0.30474,2.60253,0.16071" style="fill:none;stroke:#303030;stroke-width:0.75;stroke-linecap:round;stroke-linejoin:round;stroke-miterlimit:10;"/></g></g></svg>