<?xml version="1.0" ?><!DOCTYPE svg  PUBLIC '-//W3C//DTD SVG 1.1//EN'  'http://www.w3.org/Graphics/SVG/1.1/DTD/svg11.dtd'><svg height="135px" id="Layer_1" style="enable-background:new 0 0 135 135;" version="1.1" viewBox="0 0 135 135" width="135px" xml:space="preserve" xmlns="http://www.w3.org/2000/svg" xmlns:xlink="http://www.w3.org/1999/xlink"><style type="text/css">
<![CDATA[
	.st0{fill:#465652;}
	.st1{fill:#AAB9BA;}
	.st2{fill:#47C67B;}
	.st3{fill:#AAC8D1;}
	.st4{fill:none;stroke:#E83834;stroke-width:6;stroke-linecap:round;stroke-linejoin:round;stroke-miterlimit:10;}
	.st5{fill:#7BC67B;}
	.st6{fill:#7BC7FF;}
	.st7{fill:#7C34C1;}
	.st8{fill:#7C8D96;}
	.st9{fill:#AD2707;}
	.st10{fill:#ADB8BC;}
	.st11{fill:#107510;}
	.st12{fill:#7FE5D8;}
	.st13{fill:#AF4AD1;}
	.st14{fill:#E02B7E;}
	.st15{fill:#E04038;}
	.st16{fill:#AFD7DD;}
	.st17{fill:#E0A010;}
	.st18{fill:#E0D5A4;}
	.st19{fill:#12B2B2;}
	.st20{fill:#12D66B;}
	.st21{fill:#E1A9FF;}
	.st22{fill:#1362A8;}
	.st23{fill:#E2378D;}
	.st24{fill:#E29C37;}
	.st25{fill:#E2B90E;}
	.st26{fill:#E2BF91;}
	.st27{fill:#E2CBAA;}
	.st28{fill:#14A594;}
	.st29{fill:#E4E9ED;}
	.st30{fill:#4A5D60;}
	.st31{fill:#E5B076;}
	.st32{fill:#E5B1C4;}
	.st33{fill:#E5E4C3;}
	.st34{fill:#4B6466;}
	.st35{fill:#E6FF2E;}
	.st36{fill:#18AA67;}
	.st37{fill:#E86207;}
	.st38{fill:#E8A113;}
	.st39{fill:#E8B5A6;}
	.st40{fill:#E8E8ED;}
	.st41{fill:#4E5154;}
	.st42{fill:#E9F1F4;}
	.st43{fill:#4F4B48;}
	.st44{fill:#4F74E8;}
	.st45{fill:#808E93;}
	.st46{fill:#80949B;}
	.st47{fill:#80EDAC;}
	.st48{fill:#B122E0;}
	.st49{fill:#B2C4CC;}
	.st50{fill:#83D839;}
	.st51{fill:#B3C6C6;}
	.st52{fill:none;stroke:#33363A;stroke-width:3;stroke-linecap:round;stroke-linejoin:round;stroke-miterlimit:10;}
	.st53{fill:#1A8E1C;}
	.st54{fill:#1A93D6;}
	.st55{fill:#B50B0B;}
	.st56{fill:#1AD88F;}
	.st57{fill:#B5DAF4;}
	.st58{fill:#EA7B1F;}
	.st59{fill:#EA81BD;}
	.st60{fill:#87B8D6;}
	.st61{fill:#87C3F4;}
	.st62{fill:#EAC79D;}
	.st63{fill:#EADF11;}
	.st64{fill:#EAE4C5;}
	.st65{fill:#B78094;}
	.st66{fill:#8844D8;}
	.st67{fill:#EBF4F7;}
	.st68{fill:#893015;}
	.st69{fill:#89410B;}
	.st70{fill:#899BA3;}
	.st71{fill:#EDE3B9;}
	.st72{enable-background:new    ;}
	.st73{fill:#50FF9F;}
	.st74{fill:#EEDCF4;}
	.st75{fill:#EFA37D;}
	.st76{fill:#EFA3CC;}
	.st77{fill:#EFC99A;}
	.st78{fill:#54AF79;}
	.st79{fill:#BA503A;}
	.st80{fill:#BA8663;}
	.st81{fill:#8B4FE0;}
	.st82{fill:#58ED9B;}
	.st83{fill:#BC7DFF;}
	.st84{fill:#8D9AA3;}
	.st85{fill:#BCCAD3;}
	.st86{fill:#8DE4FF;}
	.st87{fill:#20B518;}
	.st88{fill:#BF44F2;}
	.st89{fill:#21CEA1;}
	.st90{fill:#BFDAE0;}
	.st91{fill:#F0FBFC;}
	.st92{fill:#F2D9A7;}
	.st93{fill:#F2EAC9;}
	.st94{fill:#24D1AF;}
	.st95{fill:#25931C;}
	.st96{fill:#F4C4B3;}
	.st97{fill:#F4D3A2;}
	.st98{fill:#F4D647;}
	.st99{fill:#F4D7B8;}
	.st100{fill:#F4EC8E;}
	.st101{fill:#5B524D;}
	.st102{fill:#F77819;}
	.st103{fill:#F79AE1;}
	.st104{fill:#5E707A;}
	.st105{fill:#F93585;}
	.st106{fill:#F95D5D;}
	.st107{fill:#F9C19B;}
	.st108{fill:#F9CB58;}
	.st109{fill:#F9D2B2;}
	.st110{fill:#F9F07D;}
	.st111{fill:#F9F1D2;}
	.st112{fill:#F9F4B7;}
	.st113{fill:#F9F9E4;}
	.st114{fill:#5F1DAA;}
	.st115{fill:#5F9AD6;}
	.st116{fill:#C0C0C4;}
	.st117{fill:#91EA57;}
	.st118{fill:#C12727;}
	.st119{fill:#C191A0;}
	.st120{fill:#923BB7;}
	.st121{fill:#93A0A3;}
	.st122{fill:#93F9EA;}
	.st123{fill:#93FF5A;}
	.st124{fill:#C4833D;}
	.st125{fill:#95A2A5;}
	.st126{fill:#965514;}
	.st127{fill:#96562C;}
	.st128{fill:#2AF42F;}
	.st129{fill:#C5D7DD;}
	.st130{fill:#C68510;}
	.st131{fill:#C6A86D;}
	.st132{fill:#C6BB8D;}
	.st133{fill:#2C9DCE;}
	.st134{fill:#FBFCF2;}
	.st135{fill:#FC70B0;}
	.st136{fill:#FCE6C8;}
	.st137{fill:#FCF7E3;}
	.st138{fill:#C90D6B;}
	.st139{fill:#FDFEFF;}
	.st140{fill:#FDFFDC;}
	.st141{fill:#FF1A1A;}
	.st142{fill:#FF5252;}
	.st143{fill:#FF5B00;}
	.st144{fill:#FF6155;}
	.st145{fill:#FF630D;}
	.st146{fill:#FF6666;}
	.st147{fill:#FF7676;}
	.st148{fill:#FF7900;}
	.st149{fill:#FF860D;}
	.st150{fill:#FF8B00;}
	.st151{fill:#FF8F8F;}
	.st152{fill:#FF900B;}
	.st153{fill:#FF908A;}
	.st154{fill:#FF960B;}
	.st155{fill:#FF9C0D;}
	.st156{fill:#FFA9D4;}
	.st157{fill:#FFAA00;}
	.st158{fill:#FFAD40;}
	.st159{fill:#FFAF10;}
	.st160{fill:#FFB000;}
	.st161{fill:#FFBE08;}
	.st162{fill:#FFBF31;}
	.st163{fill:#FFC200;}
	.st164{fill:#FFCAE8;}
	.st165{fill:#FFCCF5;}
	.st166{fill:#FFD00B;}
	.st167{fill:#FFD039;}
	.st168{fill:#FFD400;}
	.st169{fill:#FFD833;}
	.st170{fill:#FFDB80;}
	.st171{fill:#FFDDD2;}
	.st172{fill:#FFE6D4;}
	.st173{fill:#FFE6EB;}
	.st174{fill:#FFE98D;}
	.st175{fill:#FFECD2;}
	.st176{fill:#FFF1D9;}
	.st177{fill:#FFF24D;}
	.st178{fill:#FFF3C2;}
	.st179{fill:#FFF4C7;}
	.st180{fill:#FFF800;}
	.st181{fill:#FFF80D;}
	.st182{fill:#FFF9DE;}
	.st183{fill:#FFFBD7;}
	.st184{fill:#FFFBEB;}
	.st185{fill:#FFFCC0;}
	.st186{fill:#FFFCDC;}
	.st187{fill:#FFFFFA;}
	.st188{fill:#FFFFFF;}
	.st189{fill:#63797F;}
	.st190{fill:#65E529;}
	.st191{fill:#66310E;}
	.st192{fill:#663C17;}
	.st193{fill:#9A5AE5;}
	.st194{fill:#CA30EF;}
	.st195{fill:#6892FC;}
	.st196{fill:#9CFFC4;}
	.st197{fill:#CC4306;}
	.st198{fill:#CC549E;}
	.st199{fill:#9E3256;}
	.st200{fill:#CDFFBB;}
	.st201{fill:#CE86AF;}
	.st202{fill:#CED9DD;}
	
		.st203{fill:none;stroke:#33363A;stroke-width:3;stroke-linecap:round;stroke-linejoin:round;stroke-miterlimit:10;stroke-dasharray:6;}
	.st204{fill:#CFE1E2;}
	.st205{fill:#33363A;}
	.st206{fill:#34C166;}
	.st207{fill:#364B5B;}
	.st208{fill:#3662CE;}
	.st209{fill:#36C6FF;}
	.st210{fill:#6ADB9A;}
	.st211{fill:#6D5C4D;}
	.st212{fill:#6EBDF9;}
	.st213{fill:#0031FF;}
	.st214{fill:#0062FF;}
	.st215{fill:#0068FF;}
	.st216{fill:#0086FF;}
	.st217{fill:#009BE8;}
	.st218{fill:#00AAFF;}
	.st219{fill:#D271FF;}
	.st220{fill:#D363A9;}
	.st221{fill:#D3964C;}
	.st222{fill:#D3DFE2;}
	.st223{fill:#D3E0E2;}
	.st224{fill:#D3EFF4;}
	.st225{fill:#063B66;}
	.st226{fill:#D60909;}
	.st227{fill:#D61D1D;}
	.st228{fill:#D7F0FF;}
	.st229{fill:#09B285;}
	.st230{fill:#D8D593;}
	.st231{fill:#D8E2EA;}
	.st232{fill:#D8E5EA;}
	.st233{fill:#3E5054;}
	.st234{fill:#D988FF;}
	.st235{fill:#D9E7E8;}
	.st236{fill:#702252;}
	.st237{fill:#70D3E0;}
	.st238{fill:#A02FF2;}
	.st239{fill:#A2F255;}
	.st240{fill:#A35616;}
	.st241{fill:#A3CCCC;}
	.st242{fill:#0A6ADD;}
	.st243{fill:#A5145D;}
	.st244{fill:#A57555;}
	.st245{fill:#77D6FC;}
	.st246{fill:#7815CE;}
	.st247{fill:#A7BBC1;}
	.st248{fill:#DBD279;}
	.st249{fill:#0D5C9E;}
	.st250{fill:#A83C11;}
	.st251{fill:#A8633D;}
	.st252{fill:#A8A3E5;}
	.st253{fill:#DCE6EA;}
	.st254{fill:#DCE7EA;}
	.st255{fill:#A962E8;}
	.st256{fill:#DD2466;}
	.st257{fill:#DDC38A;}
	.st258{fill:#DDD2B1;}
	.st259{fill:#DFE7E8;}
	.st260{fill:#42B1E8;}
	.st261{fill:#436377;}
	.st262{fill:#43B530;}
]]>
</style><g><g><g><g><path class="st249" d="M15.302,18.996c-7.047,9.68-8.523,22.881-2.655,34.246c5.867,11.371,17.48,17.811,29.458,17.678      c7.047-9.684,8.522-22.881,2.654-34.25C38.891,25.303,27.279,18.861,15.302,18.996z"/></g><g><path class="st217" d="M42.104,70.92c7.047-9.684,8.522-22.881,2.654-34.25c-5.868-11.367-17.479-17.809-29.457-17.674"/></g><g><path class="st205" d="M41.741,72.422c-12.883,0-24.542-7.086-30.428-18.492c-5.963-11.549-4.9-25.273,2.775-35.816      c0.279-0.383,0.722-0.611,1.196-0.617l0.386-0.002c12.877,0,24.534,7.084,30.421,18.487c5.962,11.551,4.899,25.276-2.774,35.821      c-0.279,0.383-0.722,0.612-1.196,0.617L41.741,72.422z M16.076,20.497c-6.604,9.533-7.42,21.746-2.096,32.057      c5.306,10.283,15.758,16.717,27.351,16.865c6.601-9.534,7.418-21.749,2.095-32.061C38.118,27.076,27.665,20.644,16.076,20.497z"/></g></g><g><g><path class="st249" d="M119.698,18.996c7.047,9.68,8.523,22.881,2.655,34.246c-5.867,11.371-17.48,17.811-29.458,17.678      c-7.047-9.684-8.522-22.881-2.654-34.25C96.109,25.303,107.721,18.861,119.698,18.996z"/></g><g><path class="st217" d="M92.896,70.92c-7.047-9.684-8.522-22.881-2.654-34.25c5.868-11.367,17.479-17.809,29.457-17.674"/></g><g><path class="st205" d="M93.259,72.422l-0.38-0.002c-0.474-0.005-0.917-0.234-1.196-0.617      c-7.673-10.545-8.736-24.271-2.774-35.821c5.887-11.403,17.544-18.487,30.421-18.487l0.386,0.002      c0.474,0.006,0.917,0.234,1.196,0.617c7.675,10.543,8.739,24.268,2.775,35.817C117.801,65.336,106.142,72.422,93.259,72.422z       M118.924,20.497c-11.589,0.146-22.042,6.579-27.35,16.861c-5.323,10.312-4.505,22.526,2.095,32.061      c11.592-0.148,22.045-6.582,27.351-16.864C126.345,42.243,125.528,30.03,118.924,20.497z"/></g></g></g><g><g><g><g><g><g><path class="st217" d="M129.771,72.572c0,26.166-27.88,47.381-62.271,47.381S5.229,98.738,5.229,72.572         c0-26.168,27.88-57.525,62.271-57.525S129.771,46.404,129.771,72.572z"/></g><g><path class="st249" d="M129.771,72.572c0,26.166-27.88,47.381-62.271,47.381S5.229,98.738,5.229,72.572         c0-26.168,27.88-44.199,62.271-44.199S129.771,46.404,129.771,72.572z"/></g><g><path class="st225" d="M129.771,72.572c0,26.166-27.88,47.381-62.271,47.381S5.229,98.738,5.229,72.572         c0-26.17,7.923,23.209,62.271,23.209S129.771,46.402,129.771,72.572z"/></g><g><path class="st99" d="M85.608,42.27L67.5,60.379L49.392,42.27C26.424,45.82,9.845,56.67,9.845,76.084         c0,24.227,25.812,43.869,57.655,43.869s57.655-19.643,57.655-43.869C125.155,56.672,108.576,45.82,85.608,42.27z"/></g><g><path class="st136" d="M107.915,49.254c-6.225-3.365-13.828-5.674-22.307-6.984L67.5,60.379L49.392,42.27         c-8.479,1.311-16.082,3.619-22.307,6.984C37.489,57.037,51.754,61.846,67.5,61.846         C83.245,61.846,97.511,57.037,107.915,49.254z"/></g><g><path class="st62" d="M125.155,76.084c0-2.656-0.321-5.148-0.916-7.488c-7.173,8.18-23.018,27.186-56.739,27.186         S17.934,76.775,10.761,68.596c-0.596,2.34-0.916,4.832-0.916,7.488c0,23.469,24.225,42.637,54.688,43.811         c0.984,0.035,1.973,0.059,2.968,0.059s1.983-0.023,2.968-0.059C100.931,118.721,125.155,99.553,125.155,76.084z"/></g><g><path class="st205" d="M67.5,121.453c-32.618,0-59.155-20.353-59.155-45.369c0-18.692,14.496-31.228,40.818-35.297         c0.473-0.07,0.952,0.084,1.29,0.422L67.5,58.258l17.048-17.049c0.337-0.339,0.819-0.496,1.29-0.422         c26.322,4.069,40.818,16.604,40.818,35.297C126.655,101.101,100.118,121.453,67.5,121.453z M48.872,43.871         c-14.367,2.342-37.527,9.627-37.527,32.213c0,23.362,25.191,42.369,56.155,42.369s56.155-19.007,56.155-42.369         c0-22.586-23.16-29.871-37.527-32.213L68.561,61.439c-0.562,0.562-1.559,0.562-2.121,0L48.872,43.871z"/></g><g><path class="st205" d="M67.5,121.453c-35.164,0-63.771-21.928-63.771-48.881c0-26.735,28.446-59.025,63.771-59.025         c16.397,0,32.409,6.883,45.086,19.382c11.7,11.535,18.686,26.355,18.686,39.644C131.271,99.525,102.664,121.453,67.5,121.453         z M67.5,16.547c-33.664,0-60.771,30.649-60.771,56.025c0,25.299,27.262,45.881,60.771,45.881s60.771-20.582,60.771-45.881         C128.271,47.196,101.164,16.547,67.5,16.547z"/></g></g></g></g></g><g><path class="st136" d="M79.916,85.75c0,2.613-5.559,1.146-12.416,1.146s-12.416,1.467-12.416-1.146s5.559-4.734,12.416-4.734     S79.916,83.137,79.916,85.75z"/></g></g><g><g><g><path class="st205" d="M57.337,77.037c-0.616,0-1.194-0.383-1.413-0.996c-1.032-2.896-3.071-4.771-6.059-5.57      c-2.781-0.745-6.21-0.476-9.658,0.755c-0.783,0.278-1.639-0.129-1.917-0.909c-0.279-0.78,0.128-1.638,0.908-1.917      c4.016-1.433,8.079-1.728,11.442-0.827c3.942,1.055,6.746,3.635,8.11,7.461c0.278,0.78-0.129,1.639-0.91,1.917      C57.674,77.01,57.504,77.037,57.337,77.037z"/></g><g><path class="st205" d="M77.662,77.037c-0.167,0-0.337-0.027-0.504-0.087c-0.78-0.278-1.187-1.137-0.909-1.917      c1.364-3.826,4.169-6.406,8.111-7.461c3.362-0.9,7.426-0.605,11.442,0.827c0.78,0.279,1.187,1.137,0.908,1.917      c-0.278,0.781-1.135,1.188-1.917,0.909c-3.448-1.231-6.878-1.501-9.658-0.755c-2.989,0.8-5.028,2.674-6.06,5.57      C78.856,76.654,78.278,77.037,77.662,77.037z"/></g></g><g><path class="st205" d="M67.5,93.523c-10.659,0-22.132-2.245-22.132-7.174c0-0.828,0.671-1.5,1.5-1.5s1.5,0.672,1.5,1.5     c0,1.211,6.704,4.174,19.132,4.174s19.132-2.963,19.132-4.174c0-0.828,0.671-1.5,1.5-1.5s1.5,0.672,1.5,1.5     C89.632,91.278,78.159,93.523,67.5,93.523z"/></g><g><g><path class="st205" d="M51.405,90.631c-0.717,0-1.352-0.517-1.477-1.248l-0.347-2.036l-2.035,0.349      c-0.815,0.136-1.592-0.409-1.731-1.226s0.409-1.592,1.226-1.731l3.514-0.602c0.39-0.069,0.795,0.023,1.12,0.254      s0.545,0.58,0.612,0.973l0.6,3.516c0.14,0.816-0.41,1.592-1.227,1.73C51.574,90.624,51.489,90.631,51.405,90.631z"/></g><g><path class="st205" d="M83.595,90.631c-0.084,0-0.169-0.007-0.254-0.021c-0.817-0.139-1.366-0.914-1.227-1.73l0.6-3.516      c0.067-0.393,0.287-0.742,0.612-0.973s0.729-0.324,1.12-0.254l3.514,0.602c0.817,0.14,1.365,0.915,1.226,1.731      c-0.14,0.817-0.92,1.364-1.731,1.226l-2.035-0.349l-0.347,2.036C84.947,90.114,84.312,90.631,83.595,90.631z"/></g></g></g></g></svg>