<?xml version="1.0" ?><svg style="enable-background:new 0 0 48 48;" version="1.1" viewBox="0 0 48 48" xml:space="preserve" xmlns="http://www.w3.org/2000/svg" xmlns:xlink="http://www.w3.org/1999/xlink"><g id="Icons"><g><path d="M37.20324,22.92576c-0.3241-1.38861-0.67963-2.42596-1.03345-3.21478    c-1.09351-5.94306-6.29144-10.44928-12.55078-10.44928c-7.05377,0-12.77197,5.7182-12.77197,12.77191    c0,0.30017,0.02448,0.59418,0.04486,0.88922l-0.01202,0.00293c0,0-2.02179,5.55817,3.08832,7.47382    c0.00684,0.00256,0.01483,0.00464,0.02167,0.0072c2.34155,2.69037,5.78247,4.3988,9.62915,4.3988    c3.78265,0,7.17072-1.65405,9.50934-4.26703c0.7594-0.0827,1.20978-0.13898,1.20978-0.13898S38.57354,28.79612,37.20324,22.92576z    " style="fill:#301F7A;"/><path d="M23.99773,24.45573c0-0.11431-3.38909-3.5034-3.38909-3.5034S11.4314,17.33472,7.0903,10.09949    c0,0-1.29475,10.28167,5.36922,17.21216l1.06622,6.81638l4.56962,4.72194l11.69053,0.15232l4.60773-4.83624l1.21853-6.77818    c0,0,6.28321-5.75006,5.2931-17.28837c0,0-6.1308,8.52997-13.48024,10.73862L23.99773,24.45573z" style="fill:#6352C1;"/><path d="M26.92791,21.36771l0.12201-5.77174H21.3251l-0.15954,5.9219L18.397,19.92243l-0.04692-0.02815    l0.31909-9.8448c0.00939-0.00939,0.01877-0.01877,0.03754-0.01877c0.81649-0.35663,1.72683-0.63818,2.74979-0.81649    l-0.04692,3.6132h5.70604l0.05631-3.36919c0,0,0,0,0.00938,0.00938c0.84464,0.22524,1.78314,0.57248,2.74979,1.08865    l-0.08446,5.03971l-0.00939,0.58187l-0.06569,3.7352L26.92791,21.36771z" style="fill:#6352C1;"/><path d="M18.09536,38.84997l-1.10433-8.74348c0,0,3.76993,1.24163,5.82627,1.27973l1.18268,0.49505    l1.06407-0.45695c0,0,3.50329,0.11422,5.82617-1.10432l-1.10433,8.68229" style="fill:#F9D9C0;"/><path d="    M23.99773,24.45573c0-0.11431-3.38909-3.5034-3.38909-3.5034S11.4314,17.33472,7.0903,10.09949    c0,0-1.29475,10.28167,5.36922,17.21216l1.06622,6.81638l4.56962,4.72194l11.69053,0.15232l4.60773-4.83624l1.21853-6.77818    c0,0,6.28321-5.75006,5.2931-17.28837c0,0-6.1308,8.52997-13.48024,10.73862L23.99773,24.45573z" style="fill:none;stroke:#303030;stroke-width:0.75;stroke-linecap:round;stroke-linejoin:round;stroke-miterlimit:10;"/><path d="    M12.60649,16.19661c0,0,1.48282-4.15753,6.06267-6.14713c0.00939-0.00939,0.01877-0.01877,0.03754-0.01877    c0.81649-0.35663,1.72683-0.63818,2.74979-0.81649c0.02815-0.00939,0.04692-0.00939,0.07508-0.00939    c0.76018-0.13139,1.58606-0.20647,2.46824-0.20647c0,0,1.34205-0.03754,3.17211,0.45986c0,0,0,0,0.00938,0.00938    c0.84464,0.22524,1.78314,0.57248,2.74979,1.08865c0.00939,0,0.01877,0.00938,0.02816,0.01877    c1.91453,1.03234,3.90413,2.75917,5.28372,5.61219v0.00938" style="fill:none;stroke:#303030;stroke-width:0.75;stroke-linecap:round;stroke-linejoin:round;stroke-miterlimit:10;"/><path d="    M10.61528,25.03647c0,0-0.40393,3.40955,2.28148,5.07002" style="fill:none;stroke:#303030;stroke-width:0.75;stroke-linecap:round;stroke-linejoin:round;stroke-miterlimit:10;"/><path d="    M37.52087,25.03647c0,0,0.40393,3.40955-2.28148,5.07002" style="fill:none;stroke:#303030;stroke-width:0.75;stroke-linecap:round;stroke-linejoin:round;stroke-miterlimit:10;"/><path d="    M18.09536,38.84997l-1.10433-8.74348c0,0,3.76993,1.24163,5.82627,1.27973l1.18268,0.49505l1.06407-0.45695    c0,0,3.50329,0.11422,5.82617-1.10432l-1.10433,8.68229" style="fill:none;stroke:#303030;stroke-width:0.75;stroke-linecap:round;stroke-linejoin:round;stroke-miterlimit:10;"/><path d="M27.66302,26.1377c0,0-1.11426-1.03938,0.07499-1.44735l3.1279-0.88509l1.17397,0.53156    l-0.56489,1.1504L27.66302,26.1377z" style="fill:#FFFFFF;"/><path d="M20.29735,26.10945c0,0,1.09926-1.05524-0.09573-1.44613l-3.1402-0.84023l-1.16627,0.54836    l0.5813,1.14215L20.29735,26.10945z" style="fill:#FFFFFF;"/><path d="    M27.66302,26.1377c0,0-1.11426-1.03938,0.07499-1.44735l3.1279-0.88509l1.17397,0.53156l-0.56489,1.1504L27.66302,26.1377z" style="fill:none;stroke:#303030;stroke-width:0.75;stroke-linecap:round;stroke-linejoin:round;stroke-miterlimit:10;"/><path d="    M20.29735,26.10945c0,0,1.09926-1.05524-0.09573-1.44613l-3.1402-0.84023l-1.16627,0.54836l0.5813,1.14215L20.29735,26.10945z" style="fill:none;stroke:#303030;stroke-width:0.75;stroke-linecap:round;stroke-linejoin:round;stroke-miterlimit:10;"/><polyline points="    20.24066,34.36087 21.27967,33.7837 26.58976,33.7837 27.54205,34.36087   " style="fill:none;stroke:#303030;stroke-width:0.75;stroke-linecap:round;stroke-linejoin:round;stroke-miterlimit:10;"/><line style="fill:none;stroke:#303030;stroke-width:0.75;stroke-linecap:round;stroke-linejoin:round;stroke-miterlimit:10;" x1="22.98228" x2="25.08902" y1="35.55079" y2="35.55079"/><line style="fill:none;stroke:#303030;stroke-width:0.75;stroke-linecap:round;stroke-linejoin:round;stroke-miterlimit:10;" x1="22.81731" x2="23.09931" y1="31.38622" y2="27.72581"/><path d="    M7.03278,10.77005c0,0,2.2429,9.89266,4.9803,11.85712" style="fill:none;stroke:#303030;stroke-width:0.75;stroke-linecap:round;stroke-linejoin:round;stroke-miterlimit:10;"/><path d="    M40.95481,10.77005c0,0-2.08965,7.48618-3.41227,9.05083" style="fill:none;stroke:#303030;stroke-width:0.75;stroke-linecap:round;stroke-linejoin:round;stroke-miterlimit:10;"/><line style="fill:none;stroke:#303030;stroke-width:0.75;stroke-linecap:round;stroke-linejoin:round;stroke-miterlimit:10;" x1="36.73572" x2="35.98972" y1="21.26081" y2="22.3947"/><polyline points="18.7067,10.0307 18.62224,12.82741 18.52839,15.59597 18.397,19.92243   " style="fill:none;"/><line style="fill:none;" x1="21.3251" x2="21.1374" y1="15.59597" y2="21.48971"/><line style="fill:none;" x1="21.53157" x2="21.40956" y1="9.20483" y2="12.82741"/><g><polyline points="29.95924,10.57503 29.91232,12.82741 29.84662,15.59597 29.75278,19.92243    " style="fill:none;"/><line style="fill:none;" x1="27.04991" x2="26.92791" y1="15.59597" y2="21.36771"/><line style="fill:none;" x1="27.1813" x2="27.11561" y1="9.46761" y2="12.82741"/></g></g></g></svg>