<?xml version="1.0" ?><!DOCTYPE svg  PUBLIC '-//W3C//DTD SVG 1.1//EN'  'http://www.w3.org/Graphics/SVG/1.1/DTD/svg11.dtd'><svg height="135px" id="Layer_1" style="enable-background:new 0 0 135 135;" version="1.1" viewBox="0 0 135 135" width="135px" xml:space="preserve" xmlns="http://www.w3.org/2000/svg" xmlns:xlink="http://www.w3.org/1999/xlink"><style type="text/css">
<![CDATA[
	.st0{fill:#465652;}
	.st1{fill:#AAB9BA;}
	.st2{fill:#47C67B;}
	.st3{fill:#AAC8D1;}
	.st4{fill:none;stroke:#E83834;stroke-width:6;stroke-linecap:round;stroke-linejoin:round;stroke-miterlimit:10;}
	.st5{fill:#7BC67B;}
	.st6{fill:#7BC7FF;}
	.st7{fill:#7C34C1;}
	.st8{fill:#7C8D96;}
	.st9{fill:#AD2707;}
	.st10{fill:#ADB8BC;}
	.st11{fill:#107510;}
	.st12{fill:#7FE5D8;}
	.st13{fill:#AF4AD1;}
	.st14{fill:#E02B7E;}
	.st15{fill:#E04038;}
	.st16{fill:#AFD7DD;}
	.st17{fill:#E0A010;}
	.st18{fill:#E0D5A4;}
	.st19{fill:#12B2B2;}
	.st20{fill:#12D66B;}
	.st21{fill:#E1A9FF;}
	.st22{fill:#1362A8;}
	.st23{fill:#E2378D;}
	.st24{fill:#E29C37;}
	.st25{fill:#E2B90E;}
	.st26{fill:#E2BF91;}
	.st27{fill:#E2CBAA;}
	.st28{fill:#14A594;}
	.st29{fill:#E4E9ED;}
	.st30{fill:#4A5D60;}
	.st31{fill:#E5B076;}
	.st32{fill:#E5B1C4;}
	.st33{fill:#E5E4C3;}
	.st34{fill:#4B6466;}
	.st35{fill:#E6FF2E;}
	.st36{fill:#18AA67;}
	.st37{fill:#E86207;}
	.st38{fill:#E8A113;}
	.st39{fill:#E8B5A6;}
	.st40{fill:#E8E8ED;}
	.st41{fill:#4E5154;}
	.st42{fill:#E9F1F4;}
	.st43{fill:#4F4B48;}
	.st44{fill:#4F74E8;}
	.st45{fill:#808E93;}
	.st46{fill:#80949B;}
	.st47{fill:#80EDAC;}
	.st48{fill:#B122E0;}
	.st49{fill:#B2C4CC;}
	.st50{fill:#83D839;}
	.st51{fill:#B3C6C6;}
	.st52{fill:none;stroke:#33363A;stroke-width:3;stroke-linecap:round;stroke-linejoin:round;stroke-miterlimit:10;}
	.st53{fill:#1A8E1C;}
	.st54{fill:#1A93D6;}
	.st55{fill:#B50B0B;}
	.st56{fill:#1AD88F;}
	.st57{fill:#B5DAF4;}
	.st58{fill:#EA7B1F;}
	.st59{fill:#EA81BD;}
	.st60{fill:#87B8D6;}
	.st61{fill:#87C3F4;}
	.st62{fill:#EAC79D;}
	.st63{fill:#EADF11;}
	.st64{fill:#EAE4C5;}
	.st65{fill:#B78094;}
	.st66{fill:#8844D8;}
	.st67{fill:#EBF4F7;}
	.st68{fill:#893015;}
	.st69{fill:#89410B;}
	.st70{fill:#899BA3;}
	.st71{fill:#EDE3B9;}
	.st72{enable-background:new    ;}
	.st73{fill:#50FF9F;}
	.st74{fill:#EEDCF4;}
	.st75{fill:#EFA37D;}
	.st76{fill:#EFA3CC;}
	.st77{fill:#EFC99A;}
	.st78{fill:#54AF79;}
	.st79{fill:#BA503A;}
	.st80{fill:#BA8663;}
	.st81{fill:#8B4FE0;}
	.st82{fill:#58ED9B;}
	.st83{fill:#BC7DFF;}
	.st84{fill:#8D9AA3;}
	.st85{fill:#BCCAD3;}
	.st86{fill:#8DE4FF;}
	.st87{fill:#20B518;}
	.st88{fill:#BF44F2;}
	.st89{fill:#21CEA1;}
	.st90{fill:#BFDAE0;}
	.st91{fill:#F0FBFC;}
	.st92{fill:#F2D9A7;}
	.st93{fill:#F2EAC9;}
	.st94{fill:#24D1AF;}
	.st95{fill:#25931C;}
	.st96{fill:#F4C4B3;}
	.st97{fill:#F4D3A2;}
	.st98{fill:#F4D647;}
	.st99{fill:#F4D7B8;}
	.st100{fill:#F4EC8E;}
	.st101{fill:#5B524D;}
	.st102{fill:#F77819;}
	.st103{fill:#F79AE1;}
	.st104{fill:#5E707A;}
	.st105{fill:#F93585;}
	.st106{fill:#F95D5D;}
	.st107{fill:#F9C19B;}
	.st108{fill:#F9CB58;}
	.st109{fill:#F9D2B2;}
	.st110{fill:#F9F07D;}
	.st111{fill:#F9F1D2;}
	.st112{fill:#F9F4B7;}
	.st113{fill:#F9F9E4;}
	.st114{fill:#5F1DAA;}
	.st115{fill:#5F9AD6;}
	.st116{fill:#C0C0C4;}
	.st117{fill:#91EA57;}
	.st118{fill:#C12727;}
	.st119{fill:#C191A0;}
	.st120{fill:#923BB7;}
	.st121{fill:#93A0A3;}
	.st122{fill:#93F9EA;}
	.st123{fill:#93FF5A;}
	.st124{fill:#C4833D;}
	.st125{fill:#95A2A5;}
	.st126{fill:#965514;}
	.st127{fill:#96562C;}
	.st128{fill:#2AF42F;}
	.st129{fill:#C5D7DD;}
	.st130{fill:#C68510;}
	.st131{fill:#C6A86D;}
	.st132{fill:#C6BB8D;}
	.st133{fill:#2C9DCE;}
	.st134{fill:#FBFCF2;}
	.st135{fill:#FC70B0;}
	.st136{fill:#FCE6C8;}
	.st137{fill:#FCF7E3;}
	.st138{fill:#C90D6B;}
	.st139{fill:#FDFEFF;}
	.st140{fill:#FDFFDC;}
	.st141{fill:#FF1A1A;}
	.st142{fill:#FF5252;}
	.st143{fill:#FF5B00;}
	.st144{fill:#FF6155;}
	.st145{fill:#FF630D;}
	.st146{fill:#FF6666;}
	.st147{fill:#FF7676;}
	.st148{fill:#FF7900;}
	.st149{fill:#FF860D;}
	.st150{fill:#FF8B00;}
	.st151{fill:#FF8F8F;}
	.st152{fill:#FF900B;}
	.st153{fill:#FF908A;}
	.st154{fill:#FF960B;}
	.st155{fill:#FF9C0D;}
	.st156{fill:#FFA9D4;}
	.st157{fill:#FFAA00;}
	.st158{fill:#FFAD40;}
	.st159{fill:#FFAF10;}
	.st160{fill:#FFB000;}
	.st161{fill:#FFBE08;}
	.st162{fill:#FFBF31;}
	.st163{fill:#FFC200;}
	.st164{fill:#FFCAE8;}
	.st165{fill:#FFCCF5;}
	.st166{fill:#FFD00B;}
	.st167{fill:#FFD039;}
	.st168{fill:#FFD400;}
	.st169{fill:#FFD833;}
	.st170{fill:#FFDB80;}
	.st171{fill:#FFDDD2;}
	.st172{fill:#FFE6D4;}
	.st173{fill:#FFE6EB;}
	.st174{fill:#FFE98D;}
	.st175{fill:#FFECD2;}
	.st176{fill:#FFF1D9;}
	.st177{fill:#FFF24D;}
	.st178{fill:#FFF3C2;}
	.st179{fill:#FFF4C7;}
	.st180{fill:#FFF800;}
	.st181{fill:#FFF80D;}
	.st182{fill:#FFF9DE;}
	.st183{fill:#FFFBD7;}
	.st184{fill:#FFFBEB;}
	.st185{fill:#FFFCC0;}
	.st186{fill:#FFFCDC;}
	.st187{fill:#FFFFFA;}
	.st188{fill:#FFFFFF;}
	.st189{fill:#63797F;}
	.st190{fill:#65E529;}
	.st191{fill:#66310E;}
	.st192{fill:#663C17;}
	.st193{fill:#9A5AE5;}
	.st194{fill:#CA30EF;}
	.st195{fill:#6892FC;}
	.st196{fill:#9CFFC4;}
	.st197{fill:#CC4306;}
	.st198{fill:#CC549E;}
	.st199{fill:#9E3256;}
	.st200{fill:#CDFFBB;}
	.st201{fill:#CE86AF;}
	.st202{fill:#CED9DD;}
	
		.st203{fill:none;stroke:#33363A;stroke-width:3;stroke-linecap:round;stroke-linejoin:round;stroke-miterlimit:10;stroke-dasharray:6;}
	.st204{fill:#CFE1E2;}
	.st205{fill:#33363A;}
	.st206{fill:#34C166;}
	.st207{fill:#364B5B;}
	.st208{fill:#3662CE;}
	.st209{fill:#36C6FF;}
	.st210{fill:#6ADB9A;}
	.st211{fill:#6D5C4D;}
	.st212{fill:#6EBDF9;}
	.st213{fill:#0031FF;}
	.st214{fill:#0062FF;}
	.st215{fill:#0068FF;}
	.st216{fill:#0086FF;}
	.st217{fill:#009BE8;}
	.st218{fill:#00AAFF;}
	.st219{fill:#D271FF;}
	.st220{fill:#D363A9;}
	.st221{fill:#D3964C;}
	.st222{fill:#D3DFE2;}
	.st223{fill:#D3E0E2;}
	.st224{fill:#D3EFF4;}
	.st225{fill:#063B66;}
	.st226{fill:#D60909;}
	.st227{fill:#D61D1D;}
	.st228{fill:#D7F0FF;}
	.st229{fill:#09B285;}
	.st230{fill:#D8D593;}
	.st231{fill:#D8E2EA;}
	.st232{fill:#D8E5EA;}
	.st233{fill:#3E5054;}
	.st234{fill:#D988FF;}
	.st235{fill:#D9E7E8;}
	.st236{fill:#702252;}
	.st237{fill:#70D3E0;}
	.st238{fill:#A02FF2;}
	.st239{fill:#A2F255;}
	.st240{fill:#A35616;}
	.st241{fill:#A3CCCC;}
	.st242{fill:#0A6ADD;}
	.st243{fill:#A5145D;}
	.st244{fill:#A57555;}
	.st245{fill:#77D6FC;}
	.st246{fill:#7815CE;}
	.st247{fill:#A7BBC1;}
	.st248{fill:#DBD279;}
	.st249{fill:#0D5C9E;}
	.st250{fill:#A83C11;}
	.st251{fill:#A8633D;}
	.st252{fill:#A8A3E5;}
	.st253{fill:#DCE6EA;}
	.st254{fill:#DCE7EA;}
	.st255{fill:#A962E8;}
	.st256{fill:#DD2466;}
	.st257{fill:#DDC38A;}
	.st258{fill:#DDD2B1;}
	.st259{fill:#DFE7E8;}
	.st260{fill:#42B1E8;}
	.st261{fill:#436377;}
	.st262{fill:#43B530;}
]]>
</style><g><g><g><polygon class="st168" points="94.294,9.536 68.299,9.536 53.975,34.675 65.614,34.675 50.344,65.7 90.474,29.792 77.437,29.792         "/></g><g><polygon class="st160" points="63.333,18.251 53.975,34.675 65.614,34.675 50.344,65.7 80.733,38.507 70.604,38.507      77.856,29.792 77.437,29.792 87.04,18.251    "/></g><g><path class="st205" d="M50.344,67.2c-0.318,0-0.638-0.101-0.906-0.305c-0.572-0.435-0.757-1.213-0.439-1.857l14.206-28.863     h-9.229c-0.534,0-1.028-0.284-1.297-0.746s-0.271-1.032-0.007-1.496L66.995,8.794c0.268-0.469,0.765-0.758,1.304-0.758h25.995     c0.582,0,1.111,0.337,1.358,0.863c0.247,0.527,0.167,1.149-0.205,1.597L80.637,28.292h9.837c0.622,0,1.18,0.384,1.401,0.965     s0.062,1.238-0.401,1.653l-40.13,35.908C51.061,67.072,50.702,67.2,50.344,67.2z M56.556,33.175h9.059     c0.519,0,1,0.268,1.273,0.707c0.273,0.44,0.301,0.99,0.072,1.455L55.102,59.43l31.446-28.138h-9.111     c-0.582,0-1.111-0.337-1.358-0.863c-0.247-0.527-0.167-1.149,0.205-1.597l14.811-17.796H69.171L56.556,33.175z"/></g></g><g><g><g><path class="st180" d="M116.709,88.022c0,20.676-22.032,37.441-49.209,37.441c-27.178,0-49.209-16.766-49.209-37.441      c0-20.68,22.031-45.459,49.209-45.459C94.677,42.563,116.709,67.343,116.709,88.022z"/></g><g><path class="st168" d="M116.709,88.022c0,20.676-22.032,37.441-49.209,37.441c-27.178,0-49.209-16.766-49.209-37.441      c0-20.68,22.031-34.928,49.209-34.928C94.677,53.095,116.709,67.343,116.709,88.022z"/></g><g><path class="st180" d="M77.979,78.224c0,1.393-4.691,1.643-10.479,1.643s-10.479-0.25-10.479-1.643      c0-1.395,4.691-5.037,10.479-5.037S77.979,76.829,77.979,78.224z"/></g><g><path class="st160" d="M116.709,88.022c0,20.676-22.032,37.441-49.209,37.441c-27.178,0-49.209-16.766-49.209-37.441      c0-20.682,6.261,18.34,49.209,18.34S116.709,67.341,116.709,88.022z"/></g><g><path class="st205" d="M67.5,126.964c-27.961,0-50.709-17.469-50.709-38.941c0-21.27,22.619-46.959,50.709-46.959      c13.041,0,25.772,5.472,35.849,15.406c9.305,9.174,14.86,20.97,14.86,31.553C118.209,109.495,95.461,126.964,67.5,126.964z       M67.5,44.063c-26.428,0-47.709,24.048-47.709,43.959c0,19.818,21.402,35.941,47.709,35.941s47.709-16.123,47.709-35.941      C115.209,68.111,93.928,44.063,67.5,44.063z"/></g></g><g><g><g><g><path class="st168" d="M12.807,50.882c6.385,10.541,15.331,16.738,23.985,17.811c1.492-10.754-0.872-23.232-7.258-33.773        C23.148,24.376,14.202,18.179,5.549,17.11C4.057,27.86,6.421,40.341,12.807,50.882z"/></g><g><path class="st160" d="M5.549,17.11c-1.492,10.75,0.872,23.23,7.258,33.771c6.385,10.541,15.331,16.738,23.985,17.811        L5.549,17.11z"/></g><g><path class="st205" d="M28.453,67.597c-0.227,0-0.455-0.051-0.671-0.159c-6.298-3.156-11.92-8.612-16.259-15.778        c-6.352-10.485-9.071-23.153-7.46-34.755c0.112-0.812,0.853-1.383,1.669-1.282c9.525,1.176,18.668,7.926,25.085,18.52        c3.786,6.25,6.338,13.43,7.379,20.764c0.116,0.82-0.454,1.58-1.274,1.696c-0.817,0.11-1.579-0.454-1.696-1.274        c-0.984-6.937-3.396-13.725-6.975-19.631c-5.595-9.237-13.325-15.304-21.4-16.862C5.762,29.346,8.365,40.655,14.09,50.104        c4.046,6.683,9.245,11.748,15.036,14.651c0.741,0.371,1.04,1.272,0.669,2.013C29.532,67.294,29.003,67.597,28.453,67.597z"/></g><g><path class="st205" d="M21.672,25.169C16.668,20.55,11.05,17.79,5.549,17.11C4.516,24.56,5.337,32.839,8.061,40.726        C14.7,38.673,23.482,44.196,21.672,25.169z"/></g></g></g><g><g><g><path class="st168" d="M122.193,50.882c-6.385,10.541-15.331,16.738-23.985,17.811c-1.492-10.754,0.871-23.232,7.258-33.773        c6.386-10.543,15.332-16.74,23.986-17.809C130.943,27.86,128.58,40.341,122.193,50.882z"/></g><g><path class="st160" d="M129.452,17.11c1.491,10.75-0.872,23.23-7.259,33.771c-6.385,10.541-15.331,16.738-23.985,17.811        L129.452,17.11z"/></g><g><path class="st205" d="M106.547,67.597c-0.55,0-1.079-0.303-1.342-0.828c-0.371-0.74-0.072-1.642,0.669-2.013        c5.789-2.901,10.988-7.968,15.036-14.651c5.725-9.447,8.328-20.758,7.24-31.271c-8.076,1.559-15.807,7.625-21.401,16.862        c-3.579,5.909-5.991,12.697-6.974,19.631c-0.116,0.819-0.864,1.389-1.696,1.274c-0.82-0.116-1.391-0.876-1.274-1.696        c1.039-7.33,3.591-14.511,7.378-20.764c6.417-10.594,15.561-17.344,25.086-18.52c0.812-0.1,1.557,0.47,1.669,1.282        c1.61,11.604-1.109,24.271-7.461,34.755c-4.341,7.167-9.963,12.623-16.259,15.778        C107.002,67.546,106.772,67.597,106.547,67.597z"/></g><g><path class="st205" d="M113.328,25.169c5.005-4.619,10.622-7.379,16.124-8.059c1.033,7.449,0.212,15.729-2.512,23.615        C120.3,38.673,111.517,44.196,113.328,25.169z"/></g></g></g></g><g><g><circle class="st141" cx="36.499" cy="91.384" r="7.013"/></g><g><path class="st227" d="M43.512,91.384c0,3.871-3.14,7.012-7.013,7.012c-3.874,0-7.014-3.141-7.014-7.012"/></g><g><circle class="st141" cx="98.501" cy="91.384" r="7.014"/></g><g><path class="st227" d="M105.515,91.384c0,3.871-3.141,7.012-7.014,7.012s-7.014-3.141-7.014-7.012"/></g></g><g><g><polygon class="st205" points="63.582,80.823 67.5,82.784 71.419,80.823     "/><path class="st205" d="M67.5,84.284c-0.23,0-0.46-0.053-0.671-0.158l-3.918-1.961c-0.622-0.312-0.949-1.01-0.789-1.687      s0.765-1.155,1.46-1.155h7.837c0.695,0,1.3,0.479,1.46,1.155s-0.167,1.375-0.789,1.687l-3.919,1.961      C67.96,84.231,67.73,84.284,67.5,84.284z"/></g><g><g><path class="st205" d="M63.41,90.978h-1.457c-3.083,0-5.591-2.507-5.591-5.588c0-0.828,0.672-1.5,1.5-1.5s1.5,0.672,1.5,1.5       c0,1.427,1.162,2.588,2.591,2.588h1.457c1.428,0,2.589-1.161,2.589-2.588v-1.455c0-0.828,0.672-1.5,1.5-1.5s1.5,0.672,1.5,1.5       v1.455C68.999,88.471,66.492,90.978,63.41,90.978z"/></g><g><path class="st205" d="M73.047,90.978h-1.456c-3.082,0-5.59-2.507-5.59-5.588v-1.455c0-0.828,0.672-1.5,1.5-1.5       s1.5,0.672,1.5,1.5v1.455c0,1.427,1.162,2.588,2.59,2.588h1.456c1.429,0,2.591-1.161,2.591-2.588c0-0.828,0.672-1.5,1.5-1.5       s1.5,0.672,1.5,1.5C78.638,88.471,76.13,90.978,73.047,90.978z"/></g></g><g><g><g><g><path class="st211" d="M51.338,73.753c0,4.449-3.605,8.051-8.053,8.051c-4.446,0-8.051-3.602-8.051-8.051         c0-4.447,3.604-8.053,8.051-8.053C47.732,65.7,51.338,69.306,51.338,73.753z"/></g><g><path class="st205" d="M51.338,73.753c0,4.449-3.605,1.662-8.053,1.662c-4.446,0-8.051,2.787-8.051-1.662         c0-4.447,3.604-8.053,8.051-8.053C47.732,65.7,51.338,69.306,51.338,73.753z"/></g><g><path class="st205" d="M43.285,83.304c-5.267,0-9.551-4.284-9.551-9.551c0-5.268,4.284-9.553,9.551-9.553         c5.268,0,9.553,4.285,9.553,9.553C52.838,79.02,48.553,83.304,43.285,83.304z M43.285,67.2c-3.612,0-6.551,2.939-6.551,6.553         c0,3.612,2.938,6.551,6.551,6.551c3.613,0,6.553-2.938,6.553-6.551C49.838,70.14,46.898,67.2,43.285,67.2z"/></g></g><g><g><circle class="st188" cx="39.282" cy="71.136" r="3.281"/></g><g><path class="st205" d="M39.281,75.915c-2.636,0-4.78-2.144-4.78-4.779s2.145-4.779,4.78-4.779         c2.637,0,4.781,2.144,4.781,4.779S41.918,75.915,39.281,75.915z M39.281,69.356c-0.981,0-1.78,0.798-1.78,1.779         s0.799,1.779,1.78,1.779c0.982,0,1.781-0.798,1.781-1.779S40.264,69.356,39.281,69.356z"/></g></g></g><g><g><g><path class="st211" d="M99.765,73.753c0,4.449-3.604,8.051-8.051,8.051c-4.447,0-8.052-3.602-8.052-8.051         c0-4.447,3.604-8.053,8.052-8.053C96.16,65.7,99.765,69.306,99.765,73.753z"/></g><g><path class="st205" d="M99.765,73.753c0,4.449-3.604,1.662-8.051,1.662c-4.447,0-8.052,2.787-8.052-1.662         c0-4.447,3.604-8.053,8.052-8.053C96.16,65.7,99.765,69.306,99.765,73.753z"/></g><g><path class="st205" d="M91.714,83.304c-5.267,0-9.552-4.284-9.552-9.551c0-5.268,4.285-9.553,9.552-9.553         s9.551,4.285,9.551,9.553C101.265,79.02,96.98,83.304,91.714,83.304z M91.714,67.2c-3.612,0-6.552,2.939-6.552,6.553         c0,3.612,2.939,6.551,6.552,6.551s6.551-2.938,6.551-6.551C98.265,70.14,95.326,67.2,91.714,67.2z"/></g></g><g><g><circle class="st188" cx="87.709" cy="71.136" r="3.28"/></g><g><path class="st205" d="M87.71,75.915c-2.637,0-4.781-2.144-4.781-4.779s2.145-4.779,4.781-4.779         c2.636,0,4.779,2.144,4.779,4.779S90.346,75.915,87.71,75.915z M87.71,69.356c-0.982,0-1.781,0.798-1.781,1.779         s0.799,1.779,1.781,1.779c0.981,0,1.779-0.798,1.779-1.779S88.691,69.356,87.71,69.356z"/></g></g></g></g></g></g></g></svg>