<?xml version="1.0" ?><!DOCTYPE svg  PUBLIC '-//W3C//DTD SVG 1.1//EN'  'http://www.w3.org/Graphics/SVG/1.1/DTD/svg11.dtd'><svg height="135px" id="Layer_1" style="enable-background:new 0 0 135 135;" version="1.1" viewBox="0 0 135 135" width="135px" xml:space="preserve" xmlns="http://www.w3.org/2000/svg" xmlns:xlink="http://www.w3.org/1999/xlink"><style type="text/css">
<![CDATA[
	.st0{fill:#465652;}
	.st1{fill:#AAB9BA;}
	.st2{fill:#47C67B;}
	.st3{fill:#AAC8D1;}
	.st4{fill:none;stroke:#E83834;stroke-width:6;stroke-linecap:round;stroke-linejoin:round;stroke-miterlimit:10;}
	.st5{fill:#7BC67B;}
	.st6{fill:#7BC7FF;}
	.st7{fill:#7C34C1;}
	.st8{fill:#7C8D96;}
	.st9{fill:#AD2707;}
	.st10{fill:#ADB8BC;}
	.st11{fill:#107510;}
	.st12{fill:#7FE5D8;}
	.st13{fill:#AF4AD1;}
	.st14{fill:#E02B7E;}
	.st15{fill:#E04038;}
	.st16{fill:#AFD7DD;}
	.st17{fill:#E0A010;}
	.st18{fill:#E0D5A4;}
	.st19{fill:#12B2B2;}
	.st20{fill:#12D66B;}
	.st21{fill:#E1A9FF;}
	.st22{fill:#1362A8;}
	.st23{fill:#E2378D;}
	.st24{fill:#E29C37;}
	.st25{fill:#E2B90E;}
	.st26{fill:#E2BF91;}
	.st27{fill:#E2CBAA;}
	.st28{fill:#14A594;}
	.st29{fill:#E4E9ED;}
	.st30{fill:#4A5D60;}
	.st31{fill:#E5B076;}
	.st32{fill:#E5B1C4;}
	.st33{fill:#E5E4C3;}
	.st34{fill:#4B6466;}
	.st35{fill:#E6FF2E;}
	.st36{fill:#18AA67;}
	.st37{fill:#E86207;}
	.st38{fill:#E8A113;}
	.st39{fill:#E8B5A6;}
	.st40{fill:#E8E8ED;}
	.st41{fill:#4E5154;}
	.st42{fill:#E9F1F4;}
	.st43{fill:#4F4B48;}
	.st44{fill:#4F74E8;}
	.st45{fill:#808E93;}
	.st46{fill:#80949B;}
	.st47{fill:#80EDAC;}
	.st48{fill:#B122E0;}
	.st49{fill:#B2C4CC;}
	.st50{fill:#83D839;}
	.st51{fill:#B3C6C6;}
	.st52{fill:none;stroke:#33363A;stroke-width:3;stroke-linecap:round;stroke-linejoin:round;stroke-miterlimit:10;}
	.st53{fill:#1A8E1C;}
	.st54{fill:#1A93D6;}
	.st55{fill:#B50B0B;}
	.st56{fill:#1AD88F;}
	.st57{fill:#B5DAF4;}
	.st58{fill:#EA7B1F;}
	.st59{fill:#EA81BD;}
	.st60{fill:#87B8D6;}
	.st61{fill:#87C3F4;}
	.st62{fill:#EAC79D;}
	.st63{fill:#EADF11;}
	.st64{fill:#EAE4C5;}
	.st65{fill:#B78094;}
	.st66{fill:#8844D8;}
	.st67{fill:#EBF4F7;}
	.st68{fill:#893015;}
	.st69{fill:#89410B;}
	.st70{fill:#899BA3;}
	.st71{fill:#EDE3B9;}
	.st72{enable-background:new    ;}
	.st73{fill:#50FF9F;}
	.st74{fill:#EEDCF4;}
	.st75{fill:#EFA37D;}
	.st76{fill:#EFA3CC;}
	.st77{fill:#EFC99A;}
	.st78{fill:#54AF79;}
	.st79{fill:#BA503A;}
	.st80{fill:#BA8663;}
	.st81{fill:#8B4FE0;}
	.st82{fill:#58ED9B;}
	.st83{fill:#BC7DFF;}
	.st84{fill:#8D9AA3;}
	.st85{fill:#BCCAD3;}
	.st86{fill:#8DE4FF;}
	.st87{fill:#20B518;}
	.st88{fill:#BF44F2;}
	.st89{fill:#21CEA1;}
	.st90{fill:#BFDAE0;}
	.st91{fill:#F0FBFC;}
	.st92{fill:#F2D9A7;}
	.st93{fill:#F2EAC9;}
	.st94{fill:#24D1AF;}
	.st95{fill:#25931C;}
	.st96{fill:#F4C4B3;}
	.st97{fill:#F4D3A2;}
	.st98{fill:#F4D647;}
	.st99{fill:#F4D7B8;}
	.st100{fill:#F4EC8E;}
	.st101{fill:#5B524D;}
	.st102{fill:#F77819;}
	.st103{fill:#F79AE1;}
	.st104{fill:#5E707A;}
	.st105{fill:#F93585;}
	.st106{fill:#F95D5D;}
	.st107{fill:#F9C19B;}
	.st108{fill:#F9CB58;}
	.st109{fill:#F9D2B2;}
	.st110{fill:#F9F07D;}
	.st111{fill:#F9F1D2;}
	.st112{fill:#F9F4B7;}
	.st113{fill:#F9F9E4;}
	.st114{fill:#5F1DAA;}
	.st115{fill:#5F9AD6;}
	.st116{fill:#C0C0C4;}
	.st117{fill:#91EA57;}
	.st118{fill:#C12727;}
	.st119{fill:#C191A0;}
	.st120{fill:#923BB7;}
	.st121{fill:#93A0A3;}
	.st122{fill:#93F9EA;}
	.st123{fill:#93FF5A;}
	.st124{fill:#C4833D;}
	.st125{fill:#95A2A5;}
	.st126{fill:#965514;}
	.st127{fill:#96562C;}
	.st128{fill:#2AF42F;}
	.st129{fill:#C5D7DD;}
	.st130{fill:#C68510;}
	.st131{fill:#C6A86D;}
	.st132{fill:#C6BB8D;}
	.st133{fill:#2C9DCE;}
	.st134{fill:#FBFCF2;}
	.st135{fill:#FC70B0;}
	.st136{fill:#FCE6C8;}
	.st137{fill:#FCF7E3;}
	.st138{fill:#C90D6B;}
	.st139{fill:#FDFEFF;}
	.st140{fill:#FDFFDC;}
	.st141{fill:#FF1A1A;}
	.st142{fill:#FF5252;}
	.st143{fill:#FF5B00;}
	.st144{fill:#FF6155;}
	.st145{fill:#FF630D;}
	.st146{fill:#FF6666;}
	.st147{fill:#FF7676;}
	.st148{fill:#FF7900;}
	.st149{fill:#FF860D;}
	.st150{fill:#FF8B00;}
	.st151{fill:#FF8F8F;}
	.st152{fill:#FF900B;}
	.st153{fill:#FF908A;}
	.st154{fill:#FF960B;}
	.st155{fill:#FF9C0D;}
	.st156{fill:#FFA9D4;}
	.st157{fill:#FFAA00;}
	.st158{fill:#FFAD40;}
	.st159{fill:#FFAF10;}
	.st160{fill:#FFB000;}
	.st161{fill:#FFBE08;}
	.st162{fill:#FFBF31;}
	.st163{fill:#FFC200;}
	.st164{fill:#FFCAE8;}
	.st165{fill:#FFCCF5;}
	.st166{fill:#FFD00B;}
	.st167{fill:#FFD039;}
	.st168{fill:#FFD400;}
	.st169{fill:#FFD833;}
	.st170{fill:#FFDB80;}
	.st171{fill:#FFDDD2;}
	.st172{fill:#FFE6D4;}
	.st173{fill:#FFE6EB;}
	.st174{fill:#FFE98D;}
	.st175{fill:#FFECD2;}
	.st176{fill:#FFF1D9;}
	.st177{fill:#FFF24D;}
	.st178{fill:#FFF3C2;}
	.st179{fill:#FFF4C7;}
	.st180{fill:#FFF800;}
	.st181{fill:#FFF80D;}
	.st182{fill:#FFF9DE;}
	.st183{fill:#FFFBD7;}
	.st184{fill:#FFFBEB;}
	.st185{fill:#FFFCC0;}
	.st186{fill:#FFFCDC;}
	.st187{fill:#FFFFFA;}
	.st188{fill:#FFFFFF;}
	.st189{fill:#63797F;}
	.st190{fill:#65E529;}
	.st191{fill:#66310E;}
	.st192{fill:#663C17;}
	.st193{fill:#9A5AE5;}
	.st194{fill:#CA30EF;}
	.st195{fill:#6892FC;}
	.st196{fill:#9CFFC4;}
	.st197{fill:#CC4306;}
	.st198{fill:#CC549E;}
	.st199{fill:#9E3256;}
	.st200{fill:#CDFFBB;}
	.st201{fill:#CE86AF;}
	.st202{fill:#CED9DD;}
	
		.st203{fill:none;stroke:#33363A;stroke-width:3;stroke-linecap:round;stroke-linejoin:round;stroke-miterlimit:10;stroke-dasharray:6;}
	.st204{fill:#CFE1E2;}
	.st205{fill:#33363A;}
	.st206{fill:#34C166;}
	.st207{fill:#364B5B;}
	.st208{fill:#3662CE;}
	.st209{fill:#36C6FF;}
	.st210{fill:#6ADB9A;}
	.st211{fill:#6D5C4D;}
	.st212{fill:#6EBDF9;}
	.st213{fill:#0031FF;}
	.st214{fill:#0062FF;}
	.st215{fill:#0068FF;}
	.st216{fill:#0086FF;}
	.st217{fill:#009BE8;}
	.st218{fill:#00AAFF;}
	.st219{fill:#D271FF;}
	.st220{fill:#D363A9;}
	.st221{fill:#D3964C;}
	.st222{fill:#D3DFE2;}
	.st223{fill:#D3E0E2;}
	.st224{fill:#D3EFF4;}
	.st225{fill:#063B66;}
	.st226{fill:#D60909;}
	.st227{fill:#D61D1D;}
	.st228{fill:#D7F0FF;}
	.st229{fill:#09B285;}
	.st230{fill:#D8D593;}
	.st231{fill:#D8E2EA;}
	.st232{fill:#D8E5EA;}
	.st233{fill:#3E5054;}
	.st234{fill:#D988FF;}
	.st235{fill:#D9E7E8;}
	.st236{fill:#702252;}
	.st237{fill:#70D3E0;}
	.st238{fill:#A02FF2;}
	.st239{fill:#A2F255;}
	.st240{fill:#A35616;}
	.st241{fill:#A3CCCC;}
	.st242{fill:#0A6ADD;}
	.st243{fill:#A5145D;}
	.st244{fill:#A57555;}
	.st245{fill:#77D6FC;}
	.st246{fill:#7815CE;}
	.st247{fill:#A7BBC1;}
	.st248{fill:#DBD279;}
	.st249{fill:#0D5C9E;}
	.st250{fill:#A83C11;}
	.st251{fill:#A8633D;}
	.st252{fill:#A8A3E5;}
	.st253{fill:#DCE6EA;}
	.st254{fill:#DCE7EA;}
	.st255{fill:#A962E8;}
	.st256{fill:#DD2466;}
	.st257{fill:#DDC38A;}
	.st258{fill:#DDD2B1;}
	.st259{fill:#DFE7E8;}
	.st260{fill:#42B1E8;}
	.st261{fill:#436377;}
	.st262{fill:#43B530;}
]]>
</style><g><g><g><g><g><g><g><path class="st43" d="M117.667,30.565c6.312,8.672,7.635,20.496,2.378,30.678c-5.255,10.184-15.657,15.953-26.386,15.832         c-6.312-8.674-7.635-20.494-2.377-30.678C96.538,36.214,106.938,30.444,117.667,30.565z"/></g><g><path class="st205" d="M93.659,77.075c-6.312-8.674-7.635-20.494-2.377-30.678c5.256-10.184,15.656-15.953,26.385-15.832"/></g><g><path class="st205" d="M93.99,78.577l-0.348-0.002c-0.474-0.006-0.917-0.234-1.196-0.617         c-6.909-9.493-7.865-21.851-2.497-32.249c5.299-10.267,15.793-16.646,27.387-16.646l0.348,0.002         c0.474,0.006,0.917,0.234,1.196,0.617c6.909,9.493,7.866,21.851,2.498,32.249C116.08,72.198,105.585,78.577,93.99,78.577z          M116.893,32.067c-10.29,0.16-19.562,5.884-24.277,15.018c-4.729,9.16-4.018,20.006,1.818,28.488         c10.291-0.16,19.564-5.884,24.278-15.018C123.441,51.396,122.729,40.551,116.893,32.067z"/></g></g><g><g><path class="st76" d="M113.052,41.421c3.885,5.336,4.699,12.613,1.463,18.881c-3.234,6.268-9.637,9.82-16.24,9.744         c-3.885-5.338-4.698-12.613-1.463-18.881C100.046,44.896,106.448,41.345,113.052,41.421z"/></g><g><path class="st205" d="M98.482,71.547l-0.226-0.001c-0.474-0.006-0.917-0.234-1.195-0.617         c-4.381-6.02-4.987-13.856-1.583-20.452c3.359-6.512,10.014-10.557,17.365-10.557l0.226,0.001         c0.474,0.006,0.916,0.234,1.195,0.617c4.382,6.02,4.988,13.856,1.583,20.452C112.487,67.502,105.833,71.547,98.482,71.547z          M112.273,42.93c-5.996,0.202-11.373,3.582-14.129,8.923c-2.765,5.355-2.402,11.68,0.908,16.685         c5.995-0.202,11.372-3.582,14.129-8.923C115.947,54.258,115.586,47.935,112.273,42.93z"/></g></g></g><g><g><g><path class="st43" d="M17.333,30.565c-6.312,8.672-7.636,20.496-2.378,30.678C20.21,71.427,30.612,77.196,41.34,77.075         c6.312-8.674,7.635-20.494,2.379-30.678S28.062,30.444,17.333,30.565z"/></g><g><path class="st205" d="M41.34,77.075c6.312-8.674,7.635-20.494,2.379-30.678S28.062,30.444,17.333,30.565"/></g><g><path class="st205" d="M41.009,78.577c-11.595,0-22.089-6.379-27.387-16.646C8.253,51.534,9.21,39.177,16.12,29.683         c0.279-0.383,0.723-0.611,1.196-0.617l0.348-0.002c11.594,0,22.089,6.379,27.388,16.646         c5.367,10.398,4.409,22.755-2.499,32.248c-0.279,0.383-0.723,0.611-1.196,0.617L41.009,78.577z M18.107,32.067         c-5.837,8.483-6.549,19.329-1.819,28.487c4.714,9.135,13.986,14.858,24.277,15.019c5.836-8.482,6.548-19.328,1.82-28.488         C37.671,37.951,28.397,32.228,18.107,32.067z"/></g></g><g><g><path class="st76" d="M21.948,41.421c-3.885,5.336-4.699,12.613-1.464,18.881c3.234,6.268,9.637,9.82,16.24,9.744         c3.885-5.338,4.699-12.613,1.464-18.881C34.953,44.896,28.552,41.345,21.948,41.421z"/></g><g><path class="st205" d="M36.517,71.547c-7.351,0-14.005-4.046-17.365-10.558c-3.405-6.596-2.798-14.433,1.584-20.451         c0.279-0.383,0.722-0.611,1.195-0.617l0.226-0.001c7.351,0,14.005,4.045,17.365,10.558         c3.404,6.595,2.797,14.431-1.584,20.451c-0.278,0.383-0.722,0.611-1.195,0.617L36.517,71.547z M22.727,42.93         c-3.312,5.005-3.674,11.328-0.909,16.684c2.756,5.342,8.133,8.722,14.129,8.924c3.311-5.006,3.673-11.329,0.909-16.684         C34.1,46.512,28.722,43.132,22.727,42.93z"/></g></g></g></g><g><g><g><g><g><g><path class="st134" d="M116.709,80.892c0,20.676-22.032,37.441-49.209,37.441c-27.178,0-49.209-16.766-49.209-37.441           c0-20.68,22.031-45.459,49.209-45.459C94.677,35.433,116.709,60.212,116.709,80.892z"/></g><g><path class="st64" d="M116.709,80.892c0,20.676-22.032,37.441-49.209,37.441c-27.178,0-49.209-16.766-49.209-37.441           c0-20.68,22.031-34.928,49.209-34.928C94.677,45.964,116.709,60.212,116.709,80.892z"/></g><g><path class="st258" d="M116.709,80.892c0,20.676-22.032,37.441-49.209,37.441c-27.178,0-49.209-16.766-49.209-37.441           c0-20.682,6.262,18.34,49.209,18.34C110.448,99.231,116.709,60.21,116.709,80.892z"/></g><g><path class="st205" d="M67.5,119.833c-27.961,0-50.709-17.469-50.709-38.941c0-21.27,22.619-46.959,50.709-46.959           c13.041,0,25.772,5.472,35.849,15.406c9.305,9.174,14.86,20.97,14.86,31.553C118.209,102.364,95.461,119.833,67.5,119.833z            M67.5,36.933c-26.428,0-47.709,24.048-47.709,43.959c0,19.818,21.402,35.941,47.709,35.941s47.709-16.123,47.709-35.941           C115.209,60.98,93.928,36.933,67.5,36.933z"/></g></g><g><g><g><g><g><path class="st240" d="M51.338,78.733c0,4.449-3.605,8.051-8.053,8.051c-4.445,0-8.051-3.602-8.051-8.051              c0-4.447,3.605-8.051,8.051-8.051C47.732,70.683,51.338,74.286,51.338,78.733z"/></g><g><path class="st205" d="M51.338,78.733c0,4.449-3.605,1.664-8.053,1.664c-4.445,0-8.051,2.785-8.051-1.664              c0-4.447,3.605-8.051,8.051-8.051C47.732,70.683,51.338,74.286,51.338,78.733z"/></g><g><path class="st205" d="M43.285,88.284c-5.267,0-9.551-4.284-9.551-9.551s4.284-9.551,9.551-9.551              c5.268,0,9.553,4.284,9.553,9.551S48.553,88.284,43.285,88.284z M43.285,72.183c-3.612,0-6.551,2.938-6.551,6.551              s2.938,6.551,6.551,6.551c3.613,0,6.553-2.938,6.553-6.551S46.898,72.183,43.285,72.183z"/></g></g><g><g><circle class="st188" cx="39.282" cy="76.116" r="3.28"/></g><g><path class="st205" d="M39.281,80.897c-2.636,0-4.779-2.145-4.779-4.781c0-2.636,2.144-4.779,4.779-4.779              c2.637,0,4.781,2.144,4.781,4.779C44.062,78.753,41.918,80.897,39.281,80.897z M39.281,74.337              c-0.981,0-1.779,0.798-1.779,1.779c0,0.982,0.798,1.781,1.779,1.781c0.982,0,1.781-0.799,1.781-1.781              C41.062,75.135,40.264,74.337,39.281,74.337z"/></g></g></g><g><g><g><path class="st240" d="M99.765,78.733c0,4.449-3.604,8.051-8.051,8.051c-4.447,0-8.052-3.602-8.052-8.051              c0-4.447,3.604-8.051,8.052-8.051C96.16,70.683,99.765,74.286,99.765,78.733z"/></g><g><path class="st205" d="M99.765,78.733c0,4.449-3.604,1.664-8.051,1.664c-4.447,0-8.052,2.785-8.052-1.664              c0-4.447,3.604-8.051,8.052-8.051C96.16,70.683,99.765,74.286,99.765,78.733z"/></g><g><path class="st205" d="M91.714,88.284c-5.267,0-9.552-4.284-9.552-9.551s4.285-9.551,9.552-9.551              s9.551,4.284,9.551,9.551S96.98,88.284,91.714,88.284z M91.714,72.183c-3.612,0-6.552,2.938-6.552,6.551              s2.939,6.551,6.552,6.551s6.551-2.938,6.551-6.551S95.326,72.183,91.714,72.183z"/></g></g><g><g><circle class="st188" cx="87.709" cy="76.116" r="3.28"/></g><g><path class="st205" d="M87.71,80.897c-2.637,0-4.781-2.145-4.781-4.781c0-2.636,2.145-4.779,4.781-4.779              c2.636,0,4.779,2.144,4.779,4.779C92.489,78.753,90.346,80.897,87.71,80.897z M87.71,74.337              c-0.982,0-1.781,0.798-1.781,1.779c0,0.982,0.799,1.781,1.781,1.781c0.981,0,1.779-0.799,1.779-1.781              C89.489,75.135,88.691,74.337,87.71,74.337z"/></g></g></g></g></g><g><path class="st134" d="M83.729,88.479c0,1.391-7.266,1.641-16.229,1.641c-8.964,0-16.231-0.25-16.231-1.641          c0-1.393,7.268-5.031,16.231-5.031C76.464,83.448,83.729,87.087,83.729,88.479z"/></g></g></g></g></g><g><g><g><polyline class="st64" points="109.004,88.948 128.933,73.567 105.958,80.144       "/></g><g><path class="st205" d="M109.005,90.448c-0.449,0-0.893-0.2-1.188-0.584c-0.506-0.655-0.385-1.598,0.271-2.104l13.729-10.597        l-15.446,4.422c-0.803,0.225-1.628-0.233-1.855-1.029c-0.228-0.797,0.233-1.627,1.029-1.855l22.975-6.576        c0.698-0.197,1.427,0.124,1.752,0.766c0.324,0.643,0.147,1.425-0.423,1.864L109.92,90.136        C109.647,90.347,109.325,90.448,109.005,90.448z"/></g></g><g><g><polyline class="st64" points="25.996,88.948 6.067,73.567 29.042,80.144       "/></g><g><path class="st205" d="M25.995,90.448c-0.32,0-0.643-0.102-0.915-0.312L5.151,74.755c-0.57-0.439-0.747-1.222-0.423-1.864        c0.325-0.642,1.056-0.963,1.752-0.766l22.975,6.576c0.796,0.229,1.257,1.059,1.029,1.855        c-0.229,0.796-1.056,1.255-1.855,1.029l-15.446-4.422l13.729,10.597c0.656,0.506,0.777,1.448,0.271,2.104        C26.888,90.248,26.444,90.448,25.995,90.448z"/></g></g></g><g><g><g><polyline class="st258" points="109.563,89.005 129.761,104.593 106.477,97.927       "/></g><g><path class="st205" d="M129.761,106.093c-0.137,0-0.275-0.019-0.413-0.058l-23.284-6.666        c-0.796-0.229-1.257-1.059-1.029-1.855c0.228-0.796,1.055-1.254,1.855-1.029l15.755,4.511l-13.997-10.803        c-0.656-0.506-0.777-1.448-0.271-2.104c0.506-0.657,1.448-0.777,2.104-0.271l20.197,15.588        c0.57,0.439,0.747,1.222,0.423,1.864C130.839,105.784,130.315,106.093,129.761,106.093z"/></g></g><g><g><polyline class="st258" points="25.438,89.005 5.24,104.593 28.523,97.927       "/></g><g><path class="st205" d="M5.24,106.093c-0.555,0-1.078-0.309-1.339-0.823c-0.324-0.643-0.147-1.425,0.423-1.864l20.197-15.588        c0.655-0.506,1.597-0.385,2.104,0.271c0.506,0.655,0.385,1.598-0.271,2.104l-13.996,10.803l15.753-4.511        c0.792-0.226,1.627,0.233,1.855,1.029c0.228,0.797-0.233,1.627-1.029,1.855l-23.283,6.666        C5.516,106.074,5.377,106.093,5.24,106.093z"/></g></g></g><g><g><g><polyline class="st64" points="92.13,48.015 92.767,22.851 83.376,44.825       "/></g><g><path class="st205" d="M92.131,49.515c-0.013,0-0.026,0-0.039,0c-0.828-0.021-1.482-0.71-1.462-1.538l0.439-17.336        l-6.314,14.774c-0.325,0.761-1.204,1.119-1.969,0.789c-0.762-0.325-1.115-1.207-0.789-1.969l9.391-21.975        c0.282-0.661,1.004-1.029,1.698-0.876c0.703,0.153,1.198,0.784,1.181,1.504L93.63,48.053        C93.608,48.868,92.941,49.515,92.131,49.515z"/></g></g><g><g><polyline class="st64" points="42.869,48.015 42.232,22.851 51.623,44.825       "/></g><g><path class="st205" d="M42.868,49.515c-0.811,0-1.478-0.646-1.499-1.462l-0.637-25.164c-0.018-0.72,0.478-1.351,1.181-1.504        c0.696-0.154,1.416,0.215,1.698,0.876l9.391,21.975c0.326,0.762-0.027,1.644-0.789,1.969c-0.765,0.33-1.644-0.028-1.969-0.789        L43.93,30.641l0.439,17.336c0.021,0.828-0.634,1.517-1.462,1.538C42.895,49.515,42.881,49.515,42.868,49.515z"/></g></g></g><g><path class="st205" d="M88.376,100.163H46.623c-2.757,0-5-2.243-5-5s2.243-5,5-5c0.828,0,1.5,0.672,1.5,1.5s-0.672,1.5-1.5,1.5      c-1.103,0-2,0.897-2,2s0.897,2,2,2h41.753c1.103,0,2-0.897,2-2s-0.897-2-2-2c-0.828,0-1.5-0.672-1.5-1.5s0.672-1.5,1.5-1.5      c2.757,0,5,2.243,5,5S91.133,100.163,88.376,100.163z"/></g></g><g><g><path class="st167" d="M83.034,52.815c0,7.258-5.887,13.143-13.145,13.143h-4.778c-7.26,0-13.145-5.885-13.145-13.143V29.813      c0-7.26,5.885-13.146,13.145-13.146h4.778c7.258,0,13.145,5.887,13.145,13.146V52.815z"/></g><g><path class="st160" d="M69.89,24.276h-4.778c-7.26,0-13.145,5.887-13.145,13.146v15.393c0,7.258,5.885,13.143,13.145,13.143      h4.778c7.258,0,13.145-5.885,13.145-13.143V37.423C83.034,30.163,77.147,24.276,69.89,24.276z"/></g><g><path class="st58" d="M81.843,30.31c0,0.91-0.737,1.648-1.646,1.648h-26.53c-0.909,0-1.646-0.738-1.646-1.648l0,0      c0-0.908,0.737-1.646,1.646-1.646h26.53C81.105,28.663,81.843,29.401,81.843,30.31L81.843,30.31z"/></g><g><path class="st58" d="M81.843,39.009c0,0.91-0.737,1.648-1.646,1.648h-26.53c-0.909,0-1.646-0.738-1.646-1.648l0,0      c0-0.908,0.737-1.646,1.646-1.646h26.53C81.105,37.362,81.843,38.101,81.843,39.009L81.843,39.009z"/></g><g><path class="st58" d="M81.843,48.536c0,0.91-0.737,1.648-1.646,1.648h-26.53c-0.909,0-1.646-0.738-1.646-1.648l0,0      c0-0.908,0.737-1.646,1.646-1.646h26.53C81.105,46.89,81.843,47.628,81.843,48.536L81.843,48.536z"/></g><g><path class="st58" d="M81.843,58.063c0,0.91-0.737,1.648-1.646,1.648h-26.53c-0.909,0-1.646-0.738-1.646-1.648l0,0      c0-0.908,0.737-1.646,1.646-1.646h26.53C81.105,56.417,81.843,57.155,81.843,58.063L81.843,58.063z"/></g><g><path class="st205" d="M69.89,67.458h-4.778c-8.075,0-14.645-6.568-14.645-14.643V29.813c0-8.076,6.569-14.646,14.645-14.646      h4.778c8.075,0,14.645,6.57,14.645,14.646v23.002C84.534,60.89,77.965,67.458,69.89,67.458z M65.111,18.167      c-6.421,0-11.645,5.225-11.645,11.646v23.002c0,6.42,5.224,11.643,11.645,11.643h4.778c6.421,0,11.645-5.223,11.645-11.643      V29.813c0-6.422-5.224-11.646-11.645-11.646H65.111z"/></g></g><g><g><g><g><path class="st205" d="M58.688,29.335h-0.953c-0.828,0-1.5-0.672-1.5-1.5s0.672-1.5,1.5-1.5h0.953c0.828,0,1.5,0.672,1.5,1.5        S59.516,29.335,58.688,29.335z"/></g><g><path class="st205" d="M77.266,29.335h-0.952c-0.828,0-1.5-0.672-1.5-1.5s0.672-1.5,1.5-1.5h0.952c0.828,0,1.5,0.672,1.5,1.5        S78.094,29.335,77.266,29.335z"/></g></g><g><path class="st205" d="M71.669,29.335h-8.337c-0.828,0-1.5-0.672-1.5-1.5s0.672-1.5,1.5-1.5h8.337c0.828,0,1.5,0.672,1.5,1.5       S72.497,29.335,71.669,29.335z"/></g></g><g><g><g><path class="st205" d="M58.688,38.862h-0.953c-0.828,0-1.5-0.672-1.5-1.5s0.672-1.5,1.5-1.5h0.953c0.828,0,1.5,0.672,1.5,1.5        S59.516,38.862,58.688,38.862z"/></g><g><path class="st205" d="M77.266,38.862h-0.952c-0.828,0-1.5-0.672-1.5-1.5s0.672-1.5,1.5-1.5h0.952c0.828,0,1.5,0.672,1.5,1.5        S78.094,38.862,77.266,38.862z"/></g></g><g><path class="st205" d="M71.669,38.862h-8.337c-0.828,0-1.5-0.672-1.5-1.5s0.672-1.5,1.5-1.5h8.337c0.828,0,1.5,0.672,1.5,1.5       S72.497,38.862,71.669,38.862z"/></g></g><g><g><g><path class="st205" d="M58.688,48.39h-0.953c-0.828,0-1.5-0.672-1.5-1.5s0.672-1.5,1.5-1.5h0.953c0.828,0,1.5,0.672,1.5,1.5        S59.516,48.39,58.688,48.39z"/></g><g><path class="st205" d="M77.266,48.39h-0.952c-0.828,0-1.5-0.672-1.5-1.5s0.672-1.5,1.5-1.5h0.952c0.828,0,1.5,0.672,1.5,1.5        S78.094,48.39,77.266,48.39z"/></g></g><g><path class="st205" d="M71.669,48.39h-8.337c-0.828,0-1.5-0.672-1.5-1.5s0.672-1.5,1.5-1.5h8.337c0.828,0,1.5,0.672,1.5,1.5       S72.497,48.39,71.669,48.39z"/></g></g><g><g><g><path class="st205" d="M58.688,57.917h-0.953c-0.828,0-1.5-0.672-1.5-1.5s0.672-1.5,1.5-1.5h0.953c0.828,0,1.5,0.672,1.5,1.5        S59.516,57.917,58.688,57.917z"/></g><g><path class="st205" d="M77.266,57.917h-0.952c-0.828,0-1.5-0.672-1.5-1.5s0.672-1.5,1.5-1.5h0.952c0.828,0,1.5,0.672,1.5,1.5        S78.094,57.917,77.266,57.917z"/></g></g><g><path class="st205" d="M71.669,57.917h-8.337c-0.828,0-1.5-0.672-1.5-1.5s0.672-1.5,1.5-1.5h8.337c0.828,0,1.5,0.672,1.5,1.5       S72.497,57.917,71.669,57.917z"/></g></g></g></g><g><g><path class="st205" d="M49.25,103.333c-0.828,0-1.5-0.672-1.5-1.5v-2c0-0.828,0.672-1.5,1.5-1.5s1.5,0.672,1.5,1.5v2     C50.75,102.661,50.078,103.333,49.25,103.333z"/></g><g><path class="st205" d="M85.75,103.333c-0.828,0-1.5-0.672-1.5-1.5v-2c0-0.828,0.672-1.5,1.5-1.5s1.5,0.672,1.5,1.5v2     C87.25,102.661,86.578,103.333,85.75,103.333z"/></g></g></g></svg>