<?xml version="1.0" ?><svg style="enable-background:new 0 0 48 48;" version="1.1" viewBox="0 0 48 48" xml:space="preserve" xmlns="http://www.w3.org/2000/svg" xmlns:xlink="http://www.w3.org/1999/xlink"><g id="Icons"><g><path d="M18.28255,39.38099c-3.3936-1.6967-6.8105,1.6485-6.8105,1.6485    c-1.7352,0.9109-4.3813-1.952-4.3813-1.952c-1.1278-1.4749,1.258-6.5937,1.258-6.5937c0.9818-1.309,3.2189-10.8707,4.2586-15.4887    c0.3688-1.6379,1.146-3.1529,2.2619-4.4072l4.1872-4.7068c1.3342-2.2287,5.1264-1.4224,5.1264-1.4224s3.3394-0.0889,4.1202,0.5184    s6.1164,6.8972,6.6369,7.4178c0.5206,0.5205,0.8242,6.1164,1.2147,7.1575c0.3903,1.0411,2.7328,10.9314,3.8172,12.2762    c1.0846,1.3447,1.6051,4.2945,0.9544,4.815c-0.6507,0.5205-3.3401,2.9932-3.3401,2.9932s-1.4749,0.4337-2.733-1.3448    c-1.2579-1.7785-4.7282-1.1279-5.4657-0.8242C28.65005,39.7715,24.61585,42.54779,18.28255,39.38099z" style="fill:#96592F;"/><path d="M34.03135,37.21759c-1.44-1.27-3.02-1.67-3.94-1.51s-2.21,0.01-2.55,1    c-0.35,0.99-0.9,0.85-0.9,0.85s-0.46,0.38-0.51-0.13c-0.05-0.5-1.03-0.74-2.25,0.43c-1.23,1.17-1.41,0.18-1.41,0.18    s-1.46-1.04-1.72-0.61c-0.25,0.44-0.54,0.45-0.96-0.13c-0.42-0.57-1.5-0.5-1.5-0.5c-0.61-0.76-5.08,1.12-5.08,1.12l-1.18,0.52    c-1.01,0.45-0.91-0.16-0.8-0.48c0.02-0.05,0.04-0.09,0.05-0.12c0.01-0.01,0.01-0.03,0.02-0.05c1.3-3.02,4.65-10.87,5.55-13.74    c1.13-3.57,1.74-6.91,6.73-7.04c0,0,3.68-0.09,5.98,4.77c0,0,5.77,14.97,6.64,16.18    C36.20135,37.9576,37.48135,40.26759,34.03135,37.21759z" style="fill:#7C4723;"/><g><path d="M15.38625,27.84229c0,0,1.7707-5.2507,2.6692-7.3253c0.8985-2.0747,2.757-3.9361,5.9446-3.5113     c0,0,3.5357-0.45,6.2054,5.9606c2.6697,6.4107,2.3344,6.4026,2.3344,6.4026S21.10385,37.47079,15.38625,27.84229z" style="fill:#F9D9C0;"/><path d="M15.38625,27.84229l2.6433,1.5266l-0.0604,0.5597l1.2958,0.6546l2.458-1.3705v0.7426     l1.8842,1.4257l2.297-1.252l-0.2805-0.8149l2.0376,1.1867l2.2906-0.0913l-0.3607-0.5477l2.6434-1.7151l1.3601,3.8496     l-1.3585,2.3139l-1.0019-0.3564c0,0-1.1351,1.8629-2.244,2.7795c0,0-0.1639,1.5755-2.9274,2.6353     c0,0,0.4692-0.9707,0.2955-1.3447c0,0-2.0158,0.69-2.5441,1.8879c0,0-3.1867-1.1081-3.5875-1.7184l-0.2546,0.7388     c0,0-1.1459-1.1384-1.8293-1.6564s-1.8168-2.4713-1.8168-2.4713l-0.6278,0.0801l-0.2271-1.6965l-1.5432-1.6034L15.38625,27.84229     z" style="fill:#F4F4F4;"/></g><g><g><path d="M23.29135,26.53759l-0.02,0.34c-0.03,1.1-1.02,2.33-1.06,2.38c-0.08,0.09-0.18,0.14-0.29,0.14      c-0.09,0-0.17-0.03-0.24-0.09c-0.16-0.13-0.18-0.36-0.05-0.52c0.24-0.3,0.87-1.23,0.89-1.93l0.02-0.36      c0.03-0.76,0.09-2.32-0.31-2.73c-0.49-0.12-3.14-0.72-5.33-0.24c0.1-0.28,0.2-0.55,0.29-0.81c2.47-0.4,5.18,0.32,5.31,0.35      c0.05,0.01,0.09,0.03,0.13,0.06C23.34135,23.65759,23.35135,25.03759,23.29135,26.53759z" style="fill:#D6B6A1;"/></g><g><path d="M30.43135,23.9476c-2.62-0.47-5.25,0.4-5.28,0.41c-0.04,0.01-0.08,0.02-0.12,0.02      c-0.16,0-0.3-0.1-0.35-0.26c-0.07-0.2,0.04-0.41,0.23-0.47c0.11-0.04,2.55-0.84,5.19-0.5v0.01      C30.22135,23.4376,30.33135,23.6976,30.43135,23.9476z" style="fill:#D6B6A1;"/></g></g><path d="M32.33135,28.4476l-0.1-0.3c-0.31-0.9-0.9-2.46-2.03-5.18c-2.67-6.41-6.2-5.96-6.2-5.96    c-3.19-0.43-5.05,1.43-5.95,3.51c-0.89,2.07-2.67,7.32-2.67,7.32l-1.45,3.75l0.59,0.61l0.86-2.21c0,0,0.2-0.57,0.48-1.41    c0.05-0.12,0.09-0.25,0.14-0.38c0.6-1.72,1.5-4.25,2.05-5.54c0.9-2.07,2.76-3.93,5.95-3.51c0,0,3.53-0.45,6.2,5.96    c0.61,1.46,1.06,2.58,1.4,3.45c0.17,0.45,0.31,0.83,0.42,1.15c0.08,0.22,0.15,0.41,0.21,0.58l0.06,0.17l0.83,2.34l0.47-0.8    L32.33135,28.4476z" style="opacity:0.1;"/><g><g><path d="M26.17225,34.7631c-0.0869,0-0.1738-0.0303-0.2451-0.0908l-0.9023-0.7783h-3.3037l-1.0489,0.6299      c-0.1757,0.1044-0.4082,0.0498-0.5146-0.128c-0.1065-0.1777-0.0488-0.4082,0.1279-0.5146l1.1387-0.6836      c0.0586-0.0352,0.125-0.0537,0.1933-0.0537h3.5469c0.0899,0,0.1768,0.0322,0.2451,0.0908l1.0079,0.8691      c0.1562,0.1358,0.1738,0.3721,0.039,0.5293C26.38225,34.7192,26.27775,34.7631,26.17225,34.7631z" style="fill:#D8D6D6;"/></g><g><path d="M24.33835,35.68399h-2.1944c-0.207,0-0.375-0.168-0.375-0.375s0.168-0.375,0.375-0.375h2.1944      c0.207,0,0.375,0.168,0.375,0.375S24.54535,35.68399,24.33835,35.68399z" style="fill:#D8D6D6;"/></g></g><path d="M8.34875,32.4838c0,0,3.565-2.9742,4.6669-8.9427c0,0-1.9624,4.7738-3.4604,5.7231    C9.55525,29.26419,8.64025,32.30539,8.34875,32.4838z" style="fill:#7C4723;"/><path d="M39.80005,33.56279c0,0-2.3635-1.6725-3.7919-5.529c0,0,1.785,2.5883,2.8412,3.0795    C38.84935,31.11329,39.62825,33.29699,39.80005,33.56279z" style="fill:#7C4723;"/></g></g></svg>