<?xml version="1.0" encoding="utf-8"?>
<!-- Generator: Adobe Illustrator 16.0.0, SVG Export Plug-In . SVG Version: 6.00 Build 0)  -->
<!DOCTYPE svg PUBLIC "-//W3C//DTD SVG 1.1//EN" "http://www.w3.org/Graphics/SVG/1.1/DTD/svg11.dtd">
<svg version="1.1" id="Layer_1" xmlns="http://www.w3.org/2000/svg" xmlns:xlink="http://www.w3.org/1999/xlink" x="0px" y="0px"
	 width="612px" height="612px" viewBox="0 0 612 612" enable-background="new 0 0 612 612" xml:space="preserve">
<g>
	<path d="M248.104,45.718c20.44-19.005,130.05-33.588,173.918,38.011c43.867,71.6,20.439,54.028,45.303,99.45
		c24.862,45.302,24.862,51.159,1.435,83.313c-23.429,32.152-48.172,57.017-27.73,78.891c20.438,21.874,29.285,33.588,8.726,64.308
		c-20.438,30.721,49.726,65.742,21.874,103.753c-27.73,38.012-276.237,49.727-292.374,5.857
		c-16.137-43.869,10.28-74.588-5.856-96.462c-16.137-21.994-40.88-43.868,0-74.588c23.667-17.811-10.638-34.544-27.134-65.384
		c-18.766-35.022-6.933-78.891,2.271-92.397C170.648,158.317,166.226,36.992,248.104,45.718"/>
	<path fill="#E589E3" d="M365.006,424.393C364.887,424.513,364.768,424.632,365.006,424.393H256.113c0.119,0.239,0.119,0.12,0,0
		l25.341,159.934c9.563,1.075,19.244,1.674,29.046,1.674l0,0c9.802,0,19.483-0.599,29.046-1.674L365.006,424.393z"/>
	<path fill="#DCC5A1" d="M310.5,407.539c-13.985,0-33.827-8.966-54.387-24.862v13.865v27.851c0.358,0.358,0.717,0.718,0.956,1.195
		c14.822,18.169,34.187,27.73,53.431,27.851V407.539L310.5,407.539z"/>
	<path fill="#EDD9B4" d="M310.5,453.438c19.364,0.12,38.608-8.965,53.431-27.851c0.358-0.358,0.718-0.837,1.075-1.195v-27.851
		v-13.865c-20.559,15.896-40.4,24.862-54.506,24.862V453.438z"/>
	<path fill="#BC9F82" d="M310.5,407.539V236.968c-27.253,0-54.506,18.049-54.506,54.028v91.681
		C276.673,398.573,296.515,407.539,310.5,407.539L310.5,407.539z"/>
	<path fill="#BC9F82" d="M310.5,236.968v170.69c13.985,0,33.827-8.966,54.506-24.862v-91.681
		C365.006,255.017,337.753,236.968,310.5,236.968z"/>
	<path d="M391.303,209.715c23.787,27.014,35.621,50.441,26.536,79.249c-9.204,28.927-5.498,51.159,26.536,69.566
		c31.915,18.407,20.439,21.993,13.029,55.344c-4.543,20.799,12.789,39.685,36.098,39.685c4.423,0-24.025-10.398-20.32-31.557
		c5.978-34.066,37.056-52.952,7.292-85.227c-29.764-32.272-19.363-36.814-10.639-57.017c8.726-20.32-15.897-58.57-46.617-90.604
		C235.554-6.756,367.517,182.701,391.303,209.715"/>
	<path d="M232.446,215.93c-24.982,26.059-37.772,48.889-29.764,78.173c8.008,29.285,3.347,51.398-29.404,68.372
		c-32.632,16.975-21.276,21.037-15.3,54.745c3.705,20.918-14.464,39.087-37.772,38.131c-4.423-0.239,24.504-9.442,21.636-30.72
		c-4.543-34.306-34.784-54.506-3.706-85.465c31.078-30.959,20.918-35.979,13.029-56.538c-7.89-20.56,18.288-57.734,50.322-88.573
		C397.16,6.153,257.428,189.992,232.446,215.93"/>
	<g>
		<path fill="#DCC5A1" d="M308.946,60.779L308.946,60.779c-94.669,0-139.254,84.03-134.831,157.303
			c-5.499-3.467-11.236-4.424-16.018-2.391c-10.997,4.78-13.388,24.024-5.14,43.149c8.247,19.125,23.786,30.72,34.903,25.938
			c1.554-0.718,2.868-1.675,4.063-2.869c29.883,60.243,87.497,100.048,117.021,100.048l0,0c0.478,0,1.075-0.119,1.554-0.119V60.779
			C310.021,60.779,309.544,60.779,308.946,60.779z"/>
		<path fill="#EDD9B4" d="M462.902,215.691c-5.737-2.51-12.67-0.479-19.244,4.662C449.156,146.962,405.049,61.736,310.5,60.78
			v321.18c30.241-1.314,87.616-41.716,116.662-102.318c1.555,2.271,3.586,4.063,5.977,5.14c10.997,4.781,26.656-6.933,34.903-25.938
			C476.17,239.717,473.899,220.353,462.902,215.691z"/>
	</g>
	<path d="M253.125,95.563c8.367,40.879,51.757,62.515,92.637,68.611c40.88,5.977,76.979,5.977,54.147,33.708
		c-22.83,27.612-9.683,52.953,12.073,68.61c21.635,15.658,14.463,57.733-4.781,84.149c-19.245,26.417-24.026,49.367-1.195,74.588
		c22.83,25.222,10.877,26.178-8.367,57.494c-11.953,19.484-2.869,42.075,18.887,47.215c4.063,0.957-18.527-15.658-7.173-35.738
		c18.288-32.273,43.63-43.749,28.091-82.237c-15.659-38.489-5.978-39.686,9.563-57.734c15.658-18.049,21.635-63.71,2.391-101.003
		c-19.244-37.294,13.269-25.221,9.563-71.001C455.252,136.442,343.371-31.978,253.125,95.563"/>
	<path d="M367.158,87.554c26.895,24.026,41.356,47.693,35.738,77.456c-5.736,29.764,0.719,51.518,34.546,65.861
		c33.826,14.464,22.829,19.365,19.482,53.431c-2.15,21.157,17.451,37.892,40.521,35.022c4.422-0.479-25.103-7.41-23.906-28.926
		c1.912-34.546,30.479-57.018-2.869-85.466c-33.35-28.568-36.457-37.892-30.241-59.049c6.335-21.157-10.398-52.115-44.227-80.684
		C355.443,30.418,340.383,63.528,367.158,87.554"/>
	<path d="M248.583,87.554c-26.895,24.026-41.358,47.693-35.74,77.456c5.737,29.764-0.717,51.518-34.544,65.861
		c-33.947,14.464-22.831,19.365-19.484,53.431c2.032,21.157-17.451,37.892-40.521,35.022c-4.423-0.479,25.102-7.41,23.906-28.926
		c-1.913-34.546-30.48-57.018,2.868-85.466c33.35-28.568,36.457-37.892,30.242-59.049c-6.216-21.157,10.398-52.115,44.227-80.684
		C260.297,30.418,275.478,63.528,248.583,87.554"/>
	<path d="M325.322,61.018c-28.21,16.376-125.508,110.925-136.386,144.035c-10.997,33.109,0.479,60.125,7.053,84.391
		C172.202,283.466,113.273,17.987,325.322,61.018"/>
	<g>
		<g>
			<path fill="#D43329" d="M325.441,314.305c0,0,0.598,9.441-15.539,9.441c-4.662,0-15.3-2.03-15.3-9.202
				C304.045,316.935,315.281,317.412,325.441,314.305"/>
			<path fill="#CA3029" d="M315.998,310.479c3.586,0.479,9.802,3.705,9.443,3.825c-10.041,3.107-21.396,2.51-30.839,0.239
				c-0.12,0-0.239,0-0.239-0.12c3.228-1.314,7.412-4.063,10.519-3.825c1.674,0.12,3.706,1.435,5.26,1.435
				C312.293,312.154,313.728,310.121,315.998,310.479"/>
			<path fill="#A82623" d="M289.224,313.109c12.072,5.021,29.045,5.498,40.879-0.238c0.238-0.119,0.119-0.598-0.238-0.479
				C315.64,316.935,303.688,316.098,289.224,313.109C289.224,312.99,289.224,313.109,289.224,313.109"/>
		</g>
		<path fill="#342214" d="M253.723,215.811c7.65,0,13.985,7.053,13.985,15.898c0,8.726-6.216,15.896-13.985,15.896
			s-13.985-7.052-13.985-15.896C239.737,222.982,246.072,215.811,253.723,215.811"/>
		<path fill="#342214" d="M367.277,215.811c7.649,0,13.984,7.053,13.984,15.898c0,8.726-6.216,15.896-13.984,15.896
			c-7.77,0-13.985-7.052-13.985-15.896C353.292,222.982,359.508,215.811,367.277,215.811"/>
	</g>
	<path fill="#C93938" d="M255.994,424.393L255.994,424.393C255.874,424.153,255.994,424.273,255.994,424.393z"/>
	<path fill="#C93938" d="M255.994,424.393L255.994,424.393C256.113,424.513,256.232,424.632,255.994,424.393z"/>
	<path fill="#C93938" d="M365.006,424.393L365.006,424.393C365.006,424.273,365.126,424.153,365.006,424.393z"/>
	<path fill="#C93938" d="M365.006,424.393L365.006,424.393C364.768,424.632,364.887,424.513,365.006,424.393z"/>
	<path fill="#BE1E2D" d="M365.006,424.393C364.768,424.632,364.887,424.513,365.006,424.393
		C365.006,424.273,365.126,424.153,365.006,424.393z"/>
	<path fill="#BE1E2D" d="M255.994,424.393C256.113,424.513,256.232,424.632,255.994,424.393
		C255.874,424.153,255.994,424.273,255.994,424.393z"/>
	<path fill="#592A87" d="M281.454,584.325l-25.341-159.934c-0.119-0.119-0.119-0.239,0,0v-27.851
		c-32.393,45.183-101.362,53.67-156.347,65.98c-2.749,0.599-5.379,1.436-7.89,2.271C132.518,529.819,201.487,575.36,281.454,584.325
		z"/>
	<path fill="#592A87" d="M365.006,396.542v27.851c0.12-0.239,0.12-0.119,0,0l-25.34,159.934
		c79.966-8.966,148.936-54.507,189.576-119.531c-2.51-0.956-5.141-1.673-7.889-2.271
		C466.249,450.212,397.279,441.725,365.006,396.542z"/>
</g>
</svg>
