<?xml version="1.0" encoding="utf-8"?>
<!-- Generator: Adobe Illustrator 16.0.0, SVG Export Plug-In . SVG Version: 6.00 Build 0)  -->
<!DOCTYPE svg PUBLIC "-//W3C//DTD SVG 1.1//EN" "http://www.w3.org/Graphics/SVG/1.1/DTD/svg11.dtd">
<svg version="1.1" id="Layer_1" xmlns="http://www.w3.org/2000/svg" xmlns:xlink="http://www.w3.org/1999/xlink" x="0px" y="0px"
	 width="612px" height="612px" viewBox="0 0 612 612" enable-background="new 0 0 612 612" xml:space="preserve">
<g>
	<path d="M142.916,346.263C121.878,129.912,181.285,31.179,304.761,31.179c123.477,0,189.457,111.881,159.216,315.083
		C371.579,400.412,222.643,391.447,142.916,346.263"/>
	<path fill="#EDD9B4" d="M305,238.926v222.566c19.244-2.271,37.174-20.918,52.713-41.238V291.16
		C357.713,256.376,331.297,238.926,305,238.926z"/>
	<path fill="#DCC5A1" d="M252.287,291.279v129.094c18.049,32.871,35.859,43.271,52.713,41.238V238.926
		C278.703,238.926,252.287,256.376,252.287,291.279z"/>
	<path fill="#BC9F82" d="M357.713,286.02v86.422c-19.961,15.539-39.206,24.385-52.713,24.385s-32.752-8.727-52.713-24.385V286.02
		C252.287,216.333,357.713,216.333,357.713,286.02"/>
	<circle fill="#FFFFFF" cx="305" cy="456.592" r="0"/>
	<g>
		<g>
			<path fill="#DCC5A1" d="M304.642,54.368c-94.908,0-139.493,84.628-134.593,157.901c-5.977-4.064-12.072-5.379-17.212-3.229
				c-10.997,4.781-13.388,24.026-5.14,43.151c8.247,19.125,23.786,30.72,34.783,25.938c1.912-0.838,3.467-2.033,4.9-3.707
				c29.764,60.604,87.736,100.766,117.261,100.766l0,0L304.642,54.368L304.642,54.368z"/>
			<path fill="#EDD9B4" d="M457.163,209.042c-5.379-2.271-11.833-0.717-17.93,3.706c5.14-73.512-39.445-158.379-134.593-158.379
				v320.942c29.645,0,87.855-40.402,117.618-101.363c1.436,1.793,3.229,3.228,5.379,4.185c10.997,4.78,26.656-6.934,34.784-25.938
				C470.551,233.068,468.279,213.823,457.163,209.042z"/>
		</g>
		<path d="M377.316,111.385c55.463,35.381,58.688,82.835,60.961,119.531C463.26,199.838,465.411,89.869,377.316,111.385"/>
		<path d="M234.835,111.385c-55.462,35.381-58.689,82.835-60.961,119.531C148.893,199.838,146.74,89.869,234.835,111.385"/>
		<path d="M163.953,144.376c4.9-158.14,280.182-143.318,281.496,0c-28.329,6.813-62.635,10.877-98.374,12.551
			c-2.032-14.225-6.097-32.393-13.27-55.463c-3.823,10.877-6.335,34.784-7.529,56.061c-20.918,0.478-41.836,0.119-62.156-0.837
			c-1.195-20.918-3.705-43.629-7.411-54.267c-6.813,21.754-10.877,39.206-12.909,52.952
			C213.439,153.221,185.708,149.396,163.953,144.376"/>
	</g>
	<g>
		<g>
			<path fill="#D43329" d="M320.061,315.903c0,0,0.599,9.563-15.776,9.563c-4.781,0-15.539-2.032-15.539-9.323
				C298.426,318.413,309.9,319.012,320.061,315.903"/>
			<path fill="#CA3029" d="M310.618,311.959c3.586,0.479,9.921,3.824,9.441,3.944c-10.159,3.106-21.635,2.51-31.197,0.239
				c-0.119,0-0.239,0-0.239-0.12c3.228-1.314,7.53-4.063,10.639-3.825c1.673,0.12,3.705,1.436,5.26,1.436
				C306.793,313.633,308.228,311.6,310.618,311.959"/>
			<path fill="#A82623" d="M283.484,314.708c12.192,5.14,29.285,5.618,41.357-0.239c0.239-0.119,0.12-0.598-0.238-0.479
				C310.26,318.533,298.188,317.696,283.484,314.708C283.484,314.588,283.365,314.588,283.484,314.708"/>
		</g>
		<rect x="230.709" y="228.506" fill="#342214" width="36.291" height="10.5"/>
		<rect x="339.567" y="228.506" fill="#342214" width="36.291" height="10.5"/>
	</g>
	<polygon fill="#FFFFFF" points="305.479,457.069 305,456.592 294.721,465.915 305,456.592 	"/>
	<path fill="#679B16" d="M294.721,586.761V465.915l-32.991,30.002l-48.649-75.424l0.239-0.239
		c-34.903,22.354-80.325,34.783-118.934,43.391c-2.868,0.598-5.498,1.435-8.009,2.391
		C130.365,535.96,206.865,583.295,294.721,586.761z"/>
	<path fill="#679B16" d="M396.681,420.254l0.239,0.239l-48.648,75.424l-42.792-38.848l9.801,8.846v120.846
		c87.854-3.466,164.354-50.801,208.344-120.727c-2.511-0.956-5.26-1.673-8.009-2.391
		C477.006,455.037,431.464,442.606,396.681,420.254z"/>
	<path fill="#FFFFFF" d="M396.681,420.254l-38.968-35.739L305,456.592l0,0l0,0l0,0l0,0l-52.713-72.077l-38.968,35.739l-0.239,0.239
		l48.649,75.424l32.991-30.002v120.846c3.347,0.12,6.813,0.239,10.279,0.239l0,0c3.467,0,6.813-0.119,10.279-0.239V465.915
		l32.99,30.002l48.649-75.424L396.681,420.254z"/>
	<path fill="#FFFFFF" d="M294.721,465.915L294.721,465.915L294.721,465.915z"/>
</g>
</svg>
