<?xml version="1.0" ?><svg style="enable-background:new 0 0 48 48;" version="1.1" viewBox="0 0 48 48" xml:space="preserve" xmlns="http://www.w3.org/2000/svg" xmlns:xlink="http://www.w3.org/1999/xlink"><g id="Icons"><g><polyline points="12.84953,15.9634 9.39768,15.9634 9.39768,32.39691 11.43054,32.39691   " style="fill:#959363;"/><path d="M28.34857,41.07226l10.25375-6.04334l-1.20351-16.59433    c-1.60463-11.7486-12.9521-11.2901-12.9521-11.2901s-10.1082-0.61632-11.92058,11.2901l-1.26088,16.33346l9.91947,6.30422    H28.34857z" style="fill:#4F7F66;"/><path d="M11.4945,18.43459l-0.22925,6.53347c0,0,7.9136,2.98012,7.9136,14.55684l2.00587,1.54737h7.16385    l1.94851-1.31813c0,0-0.74976-10.11534,8.30524-14.48531l-0.45851-6.83424H11.4945z" style="fill:#F43735;"/><polyline points="21.34297,40.76932 21.44519,26.21744 14.3385,23.34089 14.3385,20.93812     35.28638,20.93812 35.28638,22.93479 28.65348,25.78034 28.34857,41.07226   " style="fill:#464747;"/><path d="    M14.51907,18.43459c0,0,2.32152-8.78863,8.73976-8.87969" style="fill:none;stroke:#303030;stroke-width:0.75;stroke-linecap:round;stroke-linejoin:round;stroke-miterlimit:10;"/><path d="    M25.21621,9.55489c0,0,1.41105,0.09106,2.09393,0.27318" style="fill:none;stroke:#303030;stroke-width:0.75;stroke-linecap:round;stroke-linejoin:round;stroke-miterlimit:10;"/><path d="    M11.4945,18.43459l-0.22925,6.53347c0,0,7.9136,2.98012,7.9136,14.55684l2.00587,1.54737h7.16385l1.94851-1.31813    c0,0-0.74976-10.11534,8.30524-14.48531l-0.45851-6.83424H11.4945z" style="fill:none;stroke:#303030;stroke-width:0.75;stroke-linecap:round;stroke-linejoin:round;stroke-miterlimit:10;"/><path d="    M12.52613,18.43459C14.3385,6.52816,24.44671,7.14448,24.44671,7.14448s11.34747-0.4585,12.9521,11.2901" style="fill:none;stroke:#303030;stroke-width:0.75;stroke-linecap:round;stroke-linejoin:round;stroke-miterlimit:10;"/><polyline points="    11.92132,25.35554 11.26526,34.76804 19.17886,39.52489   " style="fill:none;stroke:#303030;stroke-width:0.75;stroke-linecap:round;stroke-linejoin:round;stroke-miterlimit:10;"/><polyline points="    37.95777,25.78034 38.60232,35.02892 30.44602,39.52489   " style="fill:none;stroke:#303030;stroke-width:0.75;stroke-linecap:round;stroke-linejoin:round;stroke-miterlimit:10;"/><polyline points="    12.84953,15.9634 9.39768,15.9634 9.39768,32.39691 11.43054,32.39691   " style="fill:none;stroke:#303030;stroke-width:0.75;stroke-linecap:round;stroke-linejoin:round;stroke-miterlimit:10;"/><line style="fill:none;stroke:#303030;stroke-width:0.75;stroke-linecap:round;stroke-linejoin:round;stroke-miterlimit:10;" x1="11.12356" x2="11.12356" y1="15.7604" y2="6.92774"/><polyline points="    21.34297,40.76932 21.44519,26.21744 14.3385,23.34089 14.3385,20.93812 35.28638,20.93812 35.28638,22.93479 28.65348,25.78034     28.34857,41.07226   " style="fill:none;stroke:#303030;stroke-width:0.75;stroke-linecap:round;stroke-linejoin:round;stroke-miterlimit:10;"/><line style="fill:none;stroke:#303030;stroke-width:0.75;stroke-linecap:round;stroke-linejoin:round;stroke-miterlimit:10;" x1="14.0728" x2="13.82171" y1="26.83794" y2="31.00519"/><line style="fill:none;stroke:#303030;stroke-width:0.75;stroke-linecap:round;stroke-linejoin:round;stroke-miterlimit:10;" x1="17.50467" x2="31.86388" y1="22.62916" y2="22.62916"/></g></g></svg>