<?xml version="1.0" ?><svg data-name="Layer 1" id="Layer_1" viewBox="0 0 64 64" xmlns="http://www.w3.org/2000/svg"><title/><path d="M47.73,51H45.59a7.2,7.2,0,0,1-6.14-3.48l-1.38-2.29a3.17,3.17,0,0,0-2.71-1.53H29.52a3.18,3.18,0,0,0-2.71,1.53l-1.38,2.29A7.19,7.19,0,0,1,19.3,51H17.16A7.17,7.17,0,0,1,10,43.84V30.94A10.23,10.23,0,0,1,20.22,20.71H44.67A10.23,10.23,0,0,1,54.89,30.94v12.9A7.17,7.17,0,0,1,47.73,51ZM29.52,39.7h5.84a7.19,7.19,0,0,1,6.14,3.48l1.38,2.29A3.18,3.18,0,0,0,45.59,47h2.14a3.16,3.16,0,0,0,3.16-3.16V30.94a6.23,6.23,0,0,0-6.22-6.22H20.22A6.23,6.23,0,0,0,14,30.94v12.9A3.16,3.16,0,0,0,17.16,47H19.3A3.18,3.18,0,0,0,22,45.47l1.38-2.29A7.2,7.2,0,0,1,29.52,39.7Z"/><path d="M32,24a2,2,0,0,1-2-2V15a2,2,0,0,1,4,0v7A2,2,0,0,1,32,24Z"/><path d="M24,34.72H18a2,2,0,0,1,0-4h6a2,2,0,1,1,0,4Z"/><path d="M21,37.71a2,2,0,0,1-2-2v-6a2,2,0,0,1,4,0v6A2,2,0,0,1,21,37.71Z"/><circle cx="44" cy="29.38" r="1.67"/><circle cx="44" cy="36.05" r="1.67"/><circle cx="40.67" cy="32.71" r="1.67"/><circle cx="47.33" cy="32.71" r="1.67"/></svg>