<?xml version="1.0" encoding="utf-8"?>
<!-- Generator: Adobe Illustrator 16.0.0, SVG Export Plug-In . SVG Version: 6.00 Build 0)  -->
<!DOCTYPE svg PUBLIC "-//W3C//DTD SVG 1.1//EN" "http://www.w3.org/Graphics/SVG/1.1/DTD/svg11.dtd">
<svg version="1.1" id="Layer_1" xmlns="http://www.w3.org/2000/svg" xmlns:xlink="http://www.w3.org/1999/xlink" x="0px" y="0px"
	 width="612px" height="792px" viewBox="0 0 612 792" enable-background="new 0 0 612 792" xml:space="preserve">
<circle id="circle6" fill="#2DBF1D" cx="306" cy="396" r="306"/>
<g id="g4190">
	<path id="path3" fill="#FFF9F9" d="M435.452,230.188C387.73,216.053,372.745,242.835,306,242.835s-81.731-26.89-129.452-12.647
		c-47.721,14.136-71.528,64.194-94.06,158.148c-22.532,94.061-18.387,161.975,8.184,174.622
		c26.571,12.647,56.542-16.367,85.132-52.185c23.169-28.059,34.754-29.865,130.196-29.865c95.335,0,105.22,0.744,130.195,29.865
		c28.591,35.817,58.563,64.832,85.133,52.185s30.715-80.562,8.184-174.622C506.98,294.382,483.066,244.43,435.452,230.188z
		 M170.171,404.065c-23.063,0-41.769-18.812-41.769-42.087c0-23.169,18.706-42.088,41.769-42.088s41.769,18.918,41.769,42.088
		S193.234,404.065,170.171,404.065z M363.073,382.703c-11.266,0-20.513-9.247-20.513-20.619c0-11.372,9.247-20.619,20.513-20.619
		c11.373,0,20.619,9.247,20.619,20.619C383.586,373.457,374.446,382.703,363.073,382.703z M407.925,427.767
		c-11.266,0-20.513-9.246-20.513-20.618c0-11.479,9.247-20.62,20.513-20.62c11.372,0,20.619,9.247,20.619,20.62
		C428.544,418.627,419.297,427.767,407.925,427.767z M407.925,337.533c-11.266,0-20.513-9.246-20.513-20.619
		c0-11.372,9.247-20.618,20.513-20.618c11.372,0,20.619,9.246,20.619,20.618C428.544,328.287,419.297,337.533,407.925,337.533z
		 M452.882,382.703c-11.372,0-20.512-9.247-20.512-20.619c0-11.372,9.246-20.619,20.512-20.619c11.267,0,20.513,9.247,20.513,20.619
		C473.395,373.457,464.254,382.703,452.882,382.703L452.882,382.703z"/>
	<g id="g4175">
		
			<circle id="path4167" fill="#4C90C3" stroke="#0A7CDE" stroke-width="0.22" stroke-miterlimit="1.4142" cx="370.123" cy="365.488" r="26.115"/>
		
			<circle id="circle4169" fill="#D8953A" stroke="#B87616" stroke-width="0.22" stroke-miterlimit="1.4142" cx="449.669" cy="365.488" r="26.115"/>
		
			<circle id="circle4171" fill="#C2444E" stroke="#B82016" stroke-width="0.22" stroke-miterlimit="1.4142" cx="409.146" cy="321.362" r="26.115"/>
		
			<circle id="circle4173" fill="#52C557" stroke="#16B835" stroke-width="0.22" stroke-miterlimit="1.4142" cx="409.445" cy="407.813" r="26.115"/>
	</g>
	<g id="g4161">
		<circle id="path4157" fill="#6E7872" cx="172.423" cy="361.778" r="42.22"/>
		<circle id="circle4159" fill="#4A4B4B" cx="172.423" cy="361.778" r="36.964"/>
	</g>
</g>
</svg>
