<?xml version="1.0" encoding="utf-8"?>
<!-- Generator: Adobe Illustrator 16.0.0, SVG Export Plug-In . SVG Version: 6.00 Build 0)  -->
<!DOCTYPE svg PUBLIC "-//W3C//DTD SVG 1.1//EN" "http://www.w3.org/Graphics/SVG/1.1/DTD/svg11.dtd">
<svg version="1.1" id="Layer_1" xmlns="http://www.w3.org/2000/svg" xmlns:xlink="http://www.w3.org/1999/xlink" x="0px" y="0px"
	 width="24px" height="24px" viewBox="0 0 24 24" enable-background="new 0 0 24 24" xml:space="preserve">
<g>
	<defs>
		<rect id="SVGID_1_" x="0.222" y="1.941" width="23.558" height="20.117"/>
	</defs>
	<clipPath id="SVGID_2_">
		<use xlink:href="#SVGID_1_"  overflow="visible"/>
	</clipPath>
	<path clip-path="url(#SVGID_2_)" d="M19.449,21.495h-1.067c-1.253-0.005-2.413-0.661-3.06-1.734l-0.688-1.142
		c-0.287-0.473-0.799-0.762-1.352-0.762h-2.91c-0.552,0.001-1.064,0.29-1.35,0.762l-0.688,1.142
		c-0.646,1.071-1.804,1.729-3.055,1.734H4.213c-1.969-0.003-3.565-1.599-3.568-3.568v-6.429c0-2.814,2.28-5.096,5.094-5.099h12.185
		c2.813,0.003,5.094,2.285,5.094,5.099v6.429C23.014,19.896,21.418,21.492,19.449,21.495z M10.373,15.863h2.91
		c1.254,0.004,2.414,0.661,3.061,1.734l0.688,1.142c0.287,0.472,0.799,0.761,1.351,0.763h1.067c0.869,0,1.574-0.705,1.574-1.575
		v-6.429c-0.003-1.711-1.389-3.097-3.1-3.1H5.739c-1.711,0.003-3.098,1.389-3.1,3.1v6.429c0,0.87,0.705,1.575,1.575,1.575H5.28
		c0.551-0.004,1.06-0.292,1.346-0.763l0.688-1.142C7.96,16.525,9.121,15.867,10.373,15.863z"/>
	<path clip-path="url(#SVGID_2_)" d="M11.609,8.039c-0.55,0-0.997-0.446-0.997-0.997V3.554c0-0.55,0.446-0.997,0.997-0.997
		c0.551,0,0.997,0.446,0.997,0.997v3.489C12.605,7.593,12.16,8.039,11.609,8.039z"/>
	<path clip-path="url(#SVGID_2_)" d="M7.623,13.382H4.632c-0.55,0-0.997-0.446-0.997-0.997c0-0.55,0.446-0.997,0.997-0.997h2.991
		c0.55,0,0.997,0.446,0.997,0.997C8.619,12.936,8.173,13.382,7.623,13.382z"/>
	<path clip-path="url(#SVGID_2_)" d="M6.127,14.871c-0.551,0-0.997-0.445-0.997-0.996v-2.99c0-0.55,0.446-0.997,0.997-0.997
		c0.55,0,0.997,0.446,0.997,0.997v2.99C7.124,14.426,6.678,14.871,6.127,14.871z"/>
	<circle clip-path="url(#SVGID_2_)" cx="17.59" cy="10.72" r="0.832"/>
	<circle clip-path="url(#SVGID_2_)" cx="17.59" cy="14.045" r="0.832"/>
	<circle clip-path="url(#SVGID_2_)" cx="15.93" cy="12.38" r="0.833"/>
	<circle clip-path="url(#SVGID_2_)" cx="19.25" cy="12.38" r="0.833"/>
</g>
</svg>
