<?xml version="1.0" encoding="utf-8"?>
<!-- Generator: Adobe Illustrator 16.0.0, SVG Export Plug-In . SVG Version: 6.00 Build 0)  -->
<!DOCTYPE svg PUBLIC "-//W3C//DTD SVG 1.1//EN" "http://www.w3.org/Graphics/SVG/1.1/DTD/svg11.dtd">
<svg version="1.1" id="Layer_1" xmlns="http://www.w3.org/2000/svg" xmlns:xlink="http://www.w3.org/1999/xlink" x="0px" y="0px"
	 width="612px" height="562px" viewBox="0 0 612 562" enable-background="new 0 0 612 562" xml:space="preserve">
<g>
	
		<image overflow="visible" opacity="0.75" width="351" height="535" xlink:href="16E1545.png"  transform="matrix(1 0 0 1 137.5 14.5)">
	</image>
	<g>
		<g>
			<rect x="224.719" y="166.016" fill="#FEC632" width="162.563" height="114.75"/>
			<circle fill="#FFDE39" cx="306" cy="366.828" r="160.172"/>
			<circle fill="#FEC632" cx="306" cy="366.828" r="130.05"/>
			<path fill="#F9A74E" d="M180.253,375.435c0-71.72,58.332-130.05,130.05-130.05c49.247,0,91.801,27.252,113.794,67.416
				c-20.56-44.466-65.503-76.021-118.097-76.021c-71.719,0-130.05,58.331-130.05,130.05c0,22.472,5.737,43.987,16.256,62.635
				C184.556,412.729,180.253,394.56,180.253,375.435z"/>
			<circle fill="#FFDE39" cx="306" cy="366.828" r="108.056"/>
			<rect x="224.719" y="185.141" fill="#F9A74E" width="162.563" height="14.344"/>
			<path fill="#FFFFFF" d="M306,406.034l32.99,17.213c4.781,2.391,10.52-1.435,9.563-7.172l-6.215-36.815l26.774-25.818
				c3.824-3.825,1.913-10.52-3.825-11.476l-36.815-5.26l-16.256-33.469c-2.391-4.781-9.563-4.781-11.953,0l-16.256,33.469
				l-36.816,5.26c-5.259,0.956-7.65,7.649-3.825,11.476l26.775,25.818l-6.216,36.815c-0.956,5.259,4.781,9.563,9.563,7.172
				L306,406.034z"/>
			<path fill="#2D8FE8" d="M174.516,54.134l59.766,116.663H377.72L301.699,22.578C255.797,23.056,212.766,34.531,174.516,54.134z"/>
			<path fill="#186AA8" d="M295.959,23.056l-68.85,133.875l7.172,13.866h129.094l7.172-13.866l-68.85-134.353
				C299.784,22.578,297.872,22.578,295.959,23.056z"/>
			<path fill="#FFDE39" d="M382.979,194.703H229.022c-10.519,0-18.647-8.606-18.647-18.647v-0.478
				c0-10.519,8.606-18.647,18.647-18.647H382.5c10.519,0,18.646,8.606,18.646,18.647v0.478
				C401.625,186.097,393.019,194.703,382.979,194.703z"/>
			<path fill="#473080" d="M229.022,180.359c-2.391,0-4.303-1.913-4.303-4.303v-0.478c0-2.391,1.913-4.303,4.303-4.303H382.5
				c2.391,0,4.303,1.913,4.303,4.303v0.478c0,2.391-1.912,4.303-4.303,4.303H229.022z"/>
			<path fill="#2D8FE8" d="M234.281,170.797h143.438l59.767-116.663c-38.25-19.603-81.281-31.078-127.183-31.556L234.281,170.797z"
				/>
		</g>
	</g>
</g>
</svg>
