<?xml version="1.0" encoding="utf-8"?>
<!-- Generator: Adobe Illustrator 16.0.0, SVG Export Plug-In . SVG Version: 6.00 Build 0)  -->
<!DOCTYPE svg PUBLIC "-//W3C//DTD SVG 1.1//EN" "http://www.w3.org/Graphics/SVG/1.1/DTD/svg11.dtd">
<svg version="1.1" id="Layer_1" xmlns="http://www.w3.org/2000/svg" xmlns:xlink="http://www.w3.org/1999/xlink" x="0px" y="0px"
	 width="612px" height="562px" viewBox="0 0 612 562" enable-background="new 0 0 612 562" xml:space="preserve">
<g>
	<g>
		<g>
			<rect x="222.572" y="163.969" fill="#FEC632" width="173.843" height="122.713"/>
			<circle fill="#FFDE39" cx="309.493" cy="378.714" r="171.286"/>
			<circle fill="#FEC632" cx="309.493" cy="378.714" r="139.074"/>
			<path fill="#F9A74E" d="M175.021,387.919c0-76.696,62.379-139.075,139.074-139.075c52.664,0,98.17,29.146,121.689,72.094
				c-21.986-47.552-70.049-81.293-126.291-81.293c-76.695,0-139.074,62.377-139.074,139.074c0,24.031,6.135,47.038,17.384,66.98
				C179.623,427.8,175.021,408.371,175.021,387.919z"/>
			<circle fill="#FFDE39" cx="309.493" cy="378.714" r="115.553"/>
			<rect x="222.572" y="184.421" fill="#F9A74E" width="173.843" height="15.339"/>
			<path fill="#FFFFFF" d="M310.044,441.458l53.62,27.978c7.773,3.887,17.099-2.329,15.545-11.655l-10.104-59.841l43.521-41.963
				c6.212-6.219,3.107-17.101-6.22-18.652l-59.84-8.551l-26.424-54.402c-3.886-7.769-15.541-7.769-19.429,0l-26.421,54.402
				l-59.841,8.551c-8.547,1.554-12.434,12.433-6.218,18.652l43.521,41.963l-10.104,59.841c-1.555,8.549,7.771,15.542,15.543,11.656
				L310.044,441.458z"/>
			<path fill="#2D8FE8" d="M168.886,44.323l63.913,124.758H386.19L304.894,10.578C255.806,11.089,209.79,23.36,168.886,44.323z"/>
			<path fill="#186AA8" d="M298.755,11.089l-73.627,143.164l7.67,14.828H370.85l7.669-14.828L304.892,10.578
				C302.845,10.578,300.801,10.578,298.755,11.089z"/>
			<path fill="#FFDE39" d="M391.813,194.646H227.174c-11.249,0-19.941-9.203-19.941-19.94v-0.511
				c0-11.249,9.203-19.941,19.941-19.941h164.127c11.249,0,19.94,9.203,19.94,19.941v0.511
				C411.753,185.443,402.55,194.646,391.813,194.646z"/>
			<path fill="#473080" d="M227.174,179.307c-2.557,0-4.602-2.046-4.602-4.601v-0.511c0-2.557,2.045-4.602,4.602-4.602h164.127
				c2.559,0,4.604,2.045,4.604,4.602v0.511c0,2.557-2.045,4.601-4.604,4.601H227.174z"/>
			<path fill="#2D8FE8" d="M232.798,169.081h153.39l63.915-124.758C409.2,23.36,363.182,11.089,314.095,10.578L232.798,169.081z"/>
			<g enable-background="new    ">
				<path d="M289.8,348.258V406.5h-16.094v-38.164c-2.604,1.979-5.124,3.581-7.559,4.805c-2.436,1.226-5.488,2.396-9.16,3.517
					v-13.048c5.416-1.743,9.622-3.84,12.617-6.289c2.994-2.446,5.338-5.469,7.031-9.063H289.8z"/>
				<text transform="matrix(1 0 0 1 301.8232 408.5)" font-family="'Arial-Black'" font-size="85">5</text>
			</g>
		</g>
	</g>
</g>
</svg>
