<?xml version="1.0" encoding="utf-8"?>
<!-- Generator: Adobe Illustrator 16.0.0, SVG Export Plug-In . SVG Version: 6.00 Build 0)  -->
<!DOCTYPE svg PUBLIC "-//W3C//DTD SVG 1.1//EN" "http://www.w3.org/Graphics/SVG/1.1/DTD/svg11.dtd">
<svg version="1.1" id="Layer_1" xmlns="http://www.w3.org/2000/svg" xmlns:xlink="http://www.w3.org/1999/xlink" x="0px" y="0px"
	 width="612px" height="562px" viewBox="0 0 612 562" enable-background="new 0 0 612 562" xml:space="preserve">
<g>
	<g>
		<g>
			<rect x="222.572" y="163.969" fill="#FEC632" width="173.843" height="122.713"/>
			<circle fill="#FFDE39" cx="309.493" cy="378.714" r="171.286"/>
			<circle fill="#FEC632" cx="309.493" cy="378.714" r="139.074"/>
			<path fill="#F9A74E" d="M175.021,387.919c0-76.696,62.379-139.075,139.074-139.075c52.664,0,98.17,29.145,121.689,72.094
				c-21.986-47.552-70.049-81.294-126.291-81.294c-76.695,0-139.074,62.378-139.074,139.074c0,24.031,6.135,47.038,17.384,66.98
				C179.623,427.8,175.021,408.371,175.021,387.919z"/>
			<circle fill="#FFDE39" cx="309.493" cy="378.714" r="115.553"/>
			<rect x="222.572" y="184.421" fill="#F9A74E" width="173.843" height="15.339"/>
			<path fill="#FFFFFF" d="M310.044,441.458l53.62,27.978c7.773,3.886,17.099-2.33,15.545-11.656l-10.104-59.84l43.521-41.963
				c6.212-6.219,3.107-17.101-6.22-18.653l-59.84-8.55l-26.423-54.403c-3.886-7.769-15.541-7.769-19.429,0l-26.421,54.403
				l-59.841,8.55c-8.547,1.554-12.434,12.433-6.218,18.653l43.521,41.963l-10.104,59.84c-1.555,8.549,7.771,15.542,15.543,11.657
				L310.044,441.458z"/>
			<path fill="#2D8FE8" d="M168.886,44.323l63.913,124.758h153.391L304.894,10.578C255.806,11.089,209.79,23.36,168.886,44.323z"/>
			<path fill="#186AA8" d="M298.755,11.089l-73.627,143.164l7.67,14.828H370.85l7.669-14.828L304.892,10.578
				C302.845,10.578,300.801,10.578,298.755,11.089z"/>
			<path fill="#FFDE39" d="M391.813,194.646H227.174c-11.249,0-19.941-9.203-19.941-19.94v-0.511
				c0-11.249,9.203-19.941,19.941-19.941h164.127c11.249,0,19.94,9.203,19.94,19.941v0.511
				C411.753,185.443,402.55,194.646,391.813,194.646z"/>
			<path fill="#473080" d="M227.174,179.307c-2.557,0-4.602-2.046-4.602-4.601v-0.511c0-2.557,2.045-4.602,4.602-4.602h164.127
				c2.558,0,4.603,2.045,4.603,4.602v0.511c0,2.557-2.045,4.601-4.603,4.601H227.174z"/>
			<path fill="#2D8FE8" d="M232.798,169.081h153.39l63.915-124.758c-40.903-20.963-86.921-33.234-136.008-33.745L232.798,169.081z"
				/>
			<g enable-background="new    ">
				<path d="M332.401,406.5h-47.734c0.547-4.713,2.207-9.146,4.98-13.301c2.773-4.153,7.975-9.056,15.605-14.707
					c4.661-3.463,7.643-6.094,8.945-7.891c1.302-1.797,1.953-3.502,1.953-5.117c0-1.744-0.645-3.235-1.934-4.473
					c-1.289-1.236-2.91-1.855-4.863-1.855c-2.031,0-3.691,0.639-4.98,1.914c-1.289,1.276-2.155,3.529-2.598,6.758l-15.938-1.289
					c0.625-4.479,1.771-7.975,3.438-10.488c1.666-2.513,4.017-4.439,7.051-5.781c3.033-1.341,7.232-2.012,12.598-2.012
					c5.599,0,9.954,0.639,13.066,1.914c3.111,1.276,5.56,3.236,7.344,5.879c1.783,2.644,2.676,5.605,2.676,8.887
					c0,3.49-1.022,6.823-3.066,10c-2.045,3.178-5.762,6.667-11.152,10.469c-3.203,2.214-5.346,3.764-6.426,4.648
					c-1.081,0.886-2.351,2.045-3.809,3.477h24.844V406.5z"/>
			</g>
		</g>
	</g>
</g>
</svg>
