<?xml version="1.0" encoding="utf-8"?>
<!-- Generator: Adobe Illustrator 16.0.0, SVG Export Plug-In . SVG Version: 6.00 Build 0)  -->
<!DOCTYPE svg PUBLIC "-//W3C//DTD SVG 1.1//EN" "http://www.w3.org/Graphics/SVG/1.1/DTD/svg11.dtd">
<svg version="1.1" id="Layer_1" xmlns="http://www.w3.org/2000/svg" xmlns:xlink="http://www.w3.org/1999/xlink" x="0px" y="0px"
	 width="612px" height="562px" viewBox="0 0 612 562" enable-background="new 0 0 612 562" xml:space="preserve">
<g>
	<g>
		<g>
			<rect x="222.572" y="163.969" fill="#FEC632" width="173.843" height="122.713"/>
			<circle fill="#FFDE39" cx="309.493" cy="378.714" r="171.286"/>
			<circle fill="#FEC632" cx="309.493" cy="378.714" r="139.074"/>
			<path fill="#F9A74E" d="M175.021,387.919c0-76.696,62.379-139.075,139.074-139.075c52.664,0,98.17,29.145,121.689,72.094
				c-21.986-47.552-70.049-81.294-126.291-81.294c-76.695,0-139.074,62.378-139.074,139.074c0,24.031,6.135,47.038,17.384,66.98
				C179.623,427.8,175.021,408.371,175.021,387.919z"/>
			<circle fill="#FFDE39" cx="309.493" cy="378.714" r="115.553"/>
			<rect x="222.572" y="184.421" fill="#F9A74E" width="173.843" height="15.339"/>
			<path fill="#FFFFFF" d="M310.044,441.458l53.62,27.978c7.773,3.886,17.099-2.33,15.545-11.656l-10.104-59.84l43.521-41.963
				c6.212-6.219,3.107-17.101-6.22-18.653l-59.84-8.55l-26.423-54.403c-3.886-7.769-15.541-7.769-19.429,0l-26.421,54.403
				l-59.841,8.55c-8.547,1.554-12.434,12.433-6.218,18.653l43.521,41.963l-10.104,59.84c-1.555,8.549,7.771,15.542,15.543,11.657
				L310.044,441.458z"/>
			<path fill="#2D8FE8" d="M168.886,44.323l63.913,124.758h153.391L304.894,10.578C255.806,11.089,209.79,23.36,168.886,44.323z"/>
			<path fill="#186AA8" d="M298.755,11.089l-73.627,143.164l7.67,14.828H370.85l7.669-14.828L304.892,10.578
				C302.845,10.578,300.801,10.578,298.755,11.089z"/>
			<path fill="#FFDE39" d="M391.813,194.646H227.174c-11.249,0-19.941-9.203-19.941-19.94v-0.511
				c0-11.249,9.203-19.941,19.941-19.941h164.127c11.249,0,19.94,9.203,19.94,19.941v0.511
				C411.753,185.443,402.55,194.646,391.813,194.646z"/>
			<path fill="#473080" d="M227.174,179.307c-2.557,0-4.602-2.046-4.602-4.601v-0.511c0-2.557,2.045-4.602,4.602-4.602h164.127
				c2.558,0,4.603,2.045,4.603,4.602v0.511c0,2.557-2.045,4.601-4.603,4.601H227.174z"/>
			<path fill="#2D8FE8" d="M232.798,169.081h153.39l63.915-124.758c-40.903-20.963-86.921-33.234-136.008-33.745L232.798,169.081z"
				/>
			<g enable-background="new    ">
				<path d="M301.269,365.797l-15.039-2.695c1.25-4.791,3.652-8.463,7.207-11.016c3.555-2.552,8.587-3.828,15.098-3.828
					c7.474,0,12.877,1.394,16.211,4.18c3.333,2.787,5,6.289,5,10.508c0,2.475-0.678,4.714-2.031,6.719
					c-1.354,2.006-3.398,3.764-6.133,5.273c2.213,0.547,3.906,1.186,5.078,1.914c1.9,1.172,3.379,2.715,4.434,4.629
					s1.582,4.199,1.582,6.855c0,3.334-0.873,6.53-2.617,9.59c-1.745,3.061-4.258,5.417-7.539,7.07s-7.592,2.48-12.93,2.48
					c-5.209,0-9.316-0.612-12.324-1.836s-5.482-3.014-7.422-5.371c-1.94-2.356-3.432-5.318-4.473-8.887l15.898-2.109
					c0.625,3.203,1.595,5.424,2.91,6.66c1.314,1.237,2.988,1.855,5.02,1.855c2.135,0,3.912-0.781,5.332-2.344
					c1.419-1.563,2.129-3.646,2.129-6.25c0-2.656-0.684-4.713-2.051-6.172c-1.367-1.458-3.223-2.188-5.566-2.188
					c-1.25,0-2.969,0.313-5.156,0.938l0.82-11.367c0.885,0.131,1.575,0.195,2.07,0.195c2.083,0,3.821-0.664,5.215-1.992
					c1.393-1.328,2.09-2.903,2.09-4.727c0-1.744-0.521-3.138-1.563-4.18c-1.042-1.041-2.475-1.563-4.297-1.563
					c-1.875,0-3.398,0.566-4.57,1.699S301.685,362.959,301.269,365.797z"/>
			</g>
		</g>
	</g>
</g>
</svg>
