<?xml version="1.0" encoding="utf-8"?>
<!-- Generator: Adobe Illustrator 16.0.0, SVG Export Plug-In . SVG Version: 6.00 Build 0)  -->
<!DOCTYPE svg PUBLIC "-//W3C//DTD SVG 1.1//EN" "http://www.w3.org/Graphics/SVG/1.1/DTD/svg11.dtd">
<svg version="1.1" id="Layer_1" xmlns="http://www.w3.org/2000/svg" xmlns:xlink="http://www.w3.org/1999/xlink" x="0px" y="0px"
	 width="612px" height="562px" viewBox="0 0 612 562" enable-background="new 0 0 612 562" xml:space="preserve">
<g>
	<g>
		<g>
			<rect x="222.572" y="163.969" fill="#FEC632" width="173.843" height="122.713"/>
			<circle fill="#FFDE39" cx="309.493" cy="378.714" r="171.286"/>
			<circle fill="#FEC632" cx="309.493" cy="378.714" r="139.074"/>
			<path fill="#F9A74E" d="M175.021,387.919c0-76.696,62.379-139.075,139.074-139.075c52.664,0,98.17,29.145,121.689,72.094
				c-21.986-47.552-70.049-81.294-126.291-81.294c-76.695,0-139.074,62.378-139.074,139.074c0,24.031,6.135,47.038,17.384,66.98
				C179.623,427.8,175.021,408.371,175.021,387.919z"/>
			<circle fill="#FFDE39" cx="309.493" cy="378.714" r="115.553"/>
			<rect x="222.572" y="184.421" fill="#F9A74E" width="173.843" height="15.339"/>
			<path fill="#FFFFFF" d="M310.044,441.458l53.62,27.978c7.773,3.886,17.099-2.33,15.545-11.656l-10.104-59.84l43.521-41.963
				c6.212-6.219,3.107-17.101-6.22-18.653l-59.84-8.55l-26.423-54.403c-3.886-7.769-15.541-7.769-19.429,0l-26.421,54.403
				l-59.841,8.55c-8.547,1.554-12.434,12.433-6.218,18.653l43.521,41.963l-10.104,59.84c-1.555,8.549,7.771,15.542,15.543,11.657
				L310.044,441.458z"/>
			<path fill="#2D8FE8" d="M168.886,44.323l63.913,124.758h153.391L304.894,10.578C255.806,11.089,209.79,23.36,168.886,44.323z"/>
			<path fill="#186AA8" d="M298.755,11.089l-73.627,143.164l7.67,14.828H370.85l7.669-14.828L304.892,10.578
				C302.845,10.578,300.801,10.578,298.755,11.089z"/>
			<path fill="#FFDE39" d="M391.813,194.646H227.174c-11.249,0-19.941-9.203-19.941-19.94v-0.511
				c0-11.249,9.203-19.941,19.941-19.941h164.127c11.249,0,19.94,9.203,19.94,19.941v0.511
				C411.753,185.443,402.55,194.646,391.813,194.646z"/>
			<path fill="#473080" d="M227.174,179.307c-2.557,0-4.602-2.046-4.602-4.601v-0.511c0-2.557,2.045-4.602,4.602-4.602h164.127
				c2.558,0,4.603,2.045,4.603,4.602v0.511c0,2.557-2.045,4.601-4.603,4.601H227.174z"/>
			<path fill="#2D8FE8" d="M232.798,169.081h153.39l63.915-124.758c-40.903-20.963-86.921-33.234-136.008-33.745L232.798,169.081z"
				/>
			<g enable-background="new    ">
				<path d="M292.284,349.234h37.773v12.695h-25.586l-1.367,8.594c1.771-0.833,3.521-1.458,5.254-1.875
					c1.731-0.416,3.443-0.625,5.137-0.625c5.729,0,10.377,1.732,13.945,5.195c3.567,3.464,5.352,7.826,5.352,13.086
					c0,3.698-0.918,7.253-2.754,10.664c-1.836,3.412-4.44,6.016-7.813,7.813c-3.373,1.797-7.689,2.695-12.949,2.695
					c-3.776,0-7.012-0.358-9.707-1.074s-4.987-1.783-6.875-3.203c-1.889-1.419-3.418-3.027-4.59-4.824s-2.148-4.036-2.93-6.719
					l16.094-1.758c0.391,2.578,1.302,4.538,2.734,5.879c1.432,1.342,3.138,2.012,5.117,2.012c2.213,0,4.043-0.84,5.488-2.52
					s2.168-4.186,2.168-7.52c0-3.411-0.729-5.911-2.188-7.5c-1.459-1.588-3.398-2.383-5.82-2.383c-1.537,0-3.021,0.378-4.453,1.133
					c-1.068,0.547-2.24,1.537-3.516,2.969l-13.555-1.953L292.284,349.234z"/>
			</g>
		</g>
	</g>
</g>
</svg>
