<?xml version="1.0" encoding="utf-8"?>
<!-- Generator: Adobe Illustrator 16.0.0, SVG Export Plug-In . SVG Version: 6.00 Build 0)  -->
<!DOCTYPE svg PUBLIC "-//W3C//DTD SVG 1.1//EN" "http://www.w3.org/Graphics/SVG/1.1/DTD/svg11.dtd">
<svg version="1.1" id="Layer_1" xmlns="http://www.w3.org/2000/svg" xmlns:xlink="http://www.w3.org/1999/xlink" x="0px" y="0px"
	 width="612px" height="562px" viewBox="0 0 612 562" enable-background="new 0 0 612 562" xml:space="preserve">
<g>
	<g>
		<g>
			<rect x="222.572" y="163.969" fill="#FEC632" width="173.843" height="122.713"/>
			<circle fill="#FFDE39" cx="309.493" cy="378.714" r="171.286"/>
			<circle fill="#FEC632" cx="309.493" cy="378.714" r="139.074"/>
			<path fill="#F9A74E" d="M175.021,387.919c0-76.696,62.379-139.075,139.074-139.075c52.664,0,98.17,29.145,121.689,72.094
				c-21.986-47.552-70.049-81.294-126.291-81.294c-76.695,0-139.074,62.378-139.074,139.074c0,24.031,6.135,47.038,17.384,66.98
				C179.623,427.8,175.021,408.371,175.021,387.919z"/>
			<circle fill="#FFDE39" cx="309.493" cy="378.714" r="115.553"/>
			<rect x="222.572" y="184.421" fill="#F9A74E" width="173.843" height="15.339"/>
			<path fill="#FFFFFF" d="M310.044,441.458l53.62,27.978c7.773,3.886,17.099-2.33,15.545-11.656l-10.104-59.84l43.521-41.963
				c6.212-6.219,3.107-17.101-6.22-18.653l-59.84-8.55l-26.423-54.403c-3.886-7.769-15.541-7.769-19.429,0l-26.421,54.403
				l-59.841,8.55c-8.547,1.554-12.434,12.433-6.218,18.653l43.521,41.963l-10.104,59.84c-1.555,8.549,7.771,15.542,15.543,11.657
				L310.044,441.458z"/>
			<path fill="#2D8FE8" d="M168.886,44.323l63.913,124.758h153.391L304.894,10.578C255.806,11.089,209.79,23.36,168.886,44.323z"/>
			<path fill="#186AA8" d="M298.755,11.089l-73.627,143.164l7.67,14.828H370.85l7.669-14.828L304.892,10.578
				C302.845,10.578,300.801,10.578,298.755,11.089z"/>
			<path fill="#FFDE39" d="M391.813,194.646H227.174c-11.249,0-19.941-9.203-19.941-19.94v-0.511
				c0-11.249,9.203-19.941,19.941-19.941h164.127c11.249,0,19.94,9.203,19.94,19.941v0.511
				C411.753,185.443,402.55,194.646,391.813,194.646z"/>
			<path fill="#473080" d="M227.174,179.307c-2.557,0-4.602-2.046-4.602-4.601v-0.511c0-2.557,2.045-4.602,4.602-4.602h164.127
				c2.558,0,4.603,2.045,4.603,4.602v0.511c0,2.557-2.045,4.601-4.603,4.601H227.174z"/>
			<path fill="#2D8FE8" d="M232.798,169.081h153.39l63.915-124.758c-40.903-20.963-86.921-33.234-136.008-33.745L232.798,169.081z"
				/>
			<g enable-background="new    ">
				<path d="M331.894,362.125l-15.82,1.953c-0.417-2.213-1.113-3.775-2.09-4.688c-0.977-0.911-2.182-1.367-3.613-1.367
					c-2.578,0-4.584,1.303-6.016,3.906c-1.042,1.875-1.811,5.886-2.305,12.031c1.9-1.927,3.854-3.353,5.859-4.277
					c2.005-0.924,4.322-1.387,6.953-1.387c5.104,0,9.42,1.823,12.949,5.469c3.528,3.646,5.293,8.269,5.293,13.867
					c0,3.776-0.893,7.227-2.676,10.352c-1.784,3.125-4.258,5.488-7.422,7.09s-7.129,2.402-11.895,2.402
					c-5.729,0-10.326-0.977-13.789-2.93c-3.464-1.953-6.23-5.071-8.301-9.355c-2.07-4.283-3.105-9.954-3.105-17.012
					c0-10.338,2.174-17.91,6.523-22.715c4.349-4.805,10.377-7.207,18.086-7.207c4.557,0,8.157,0.527,10.801,1.582
					c2.643,1.055,4.837,2.598,6.582,4.629C329.653,356.5,330.981,359.053,331.894,362.125z M302.597,387.633
					c0,3.1,0.781,5.527,2.344,7.285s3.477,2.637,5.742,2.637c2.083,0,3.828-0.794,5.234-2.383c1.406-1.588,2.109-3.958,2.109-7.109
					c0-3.229-0.729-5.689-2.188-7.383c-1.459-1.692-3.269-2.539-5.43-2.539c-2.214,0-4.069,0.82-5.566,2.461
					C303.345,382.242,302.597,384.586,302.597,387.633z"/>
			</g>
		</g>
	</g>
</g>
</svg>
