<?xml version="1.0" encoding="utf-8"?>
<!-- Generator: Adobe Illustrator 16.0.0, SVG Export Plug-In . SVG Version: 6.00 Build 0)  -->
<!DOCTYPE svg PUBLIC "-//W3C//DTD SVG 1.1//EN" "http://www.w3.org/Graphics/SVG/1.1/DTD/svg11.dtd">
<svg version="1.1" id="Layer_1" xmlns="http://www.w3.org/2000/svg" xmlns:xlink="http://www.w3.org/1999/xlink" x="0px" y="0px"
	 width="612px" height="562px" viewBox="0 0 612 562" enable-background="new 0 0 612 562" xml:space="preserve">
<g>
	<g>
		<g>
			<rect x="222.572" y="163.969" fill="#FEC632" width="173.843" height="122.713"/>
			<circle fill="#FFDE39" cx="309.493" cy="378.714" r="171.286"/>
			<circle fill="#FEC632" cx="309.493" cy="378.714" r="139.074"/>
			<path fill="#F9A74E" d="M175.021,387.919c0-76.696,62.379-139.075,139.074-139.075c52.664,0,98.17,29.145,121.689,72.094
				c-21.986-47.552-70.049-81.294-126.291-81.294c-76.695,0-139.074,62.378-139.074,139.074c0,24.031,6.135,47.038,17.384,66.98
				C179.623,427.8,175.021,408.371,175.021,387.919z"/>
			<circle fill="#FFDE39" cx="309.493" cy="378.714" r="115.553"/>
			<rect x="222.572" y="184.421" fill="#F9A74E" width="173.843" height="15.339"/>
			<path fill="#FFFFFF" d="M310.044,441.458l53.62,27.978c7.773,3.886,17.099-2.33,15.545-11.656l-10.104-59.84l43.521-41.963
				c6.212-6.219,3.107-17.101-6.22-18.653l-59.84-8.55l-26.423-54.403c-3.886-7.769-15.541-7.769-19.429,0l-26.421,54.403
				l-59.841,8.55c-8.547,1.554-12.434,12.433-6.218,18.653l43.521,41.963l-10.104,59.84c-1.555,8.549,7.771,15.542,15.543,11.657
				L310.044,441.458z"/>
			<path fill="#2D8FE8" d="M168.886,44.323l63.913,124.758h153.391L304.894,10.578C255.806,11.089,209.79,23.36,168.886,44.323z"/>
			<path fill="#186AA8" d="M298.755,11.089l-73.627,143.164l7.67,14.828H370.85l7.669-14.828L304.892,10.578
				C302.845,10.578,300.801,10.578,298.755,11.089z"/>
			<path fill="#FFDE39" d="M391.813,194.646H227.174c-11.249,0-19.941-9.203-19.941-19.94v-0.511
				c0-11.249,9.203-19.941,19.941-19.941h164.127c11.249,0,19.94,9.203,19.94,19.941v0.511
				C411.753,185.443,402.55,194.646,391.813,194.646z"/>
			<path fill="#473080" d="M227.174,179.307c-2.557,0-4.602-2.046-4.602-4.601v-0.511c0-2.557,2.045-4.602,4.602-4.602h164.127
				c2.558,0,4.603,2.045,4.603,4.602v0.511c0,2.557-2.045,4.601-4.603,4.601H227.174z"/>
			<path fill="#2D8FE8" d="M232.798,169.081h153.39l63.915-124.758c-40.903-20.963-86.921-33.234-136.008-33.745L232.798,169.081z"
				/>
			<g enable-background="new    ">
				<path d="M295.409,375.719c-2.5-1.328-4.323-2.813-5.469-4.453c-1.563-2.239-2.344-4.817-2.344-7.734
					c0-4.791,2.252-8.711,6.758-11.758c3.516-2.344,8.164-3.516,13.945-3.516c7.656,0,13.313,1.459,16.973,4.375
					c3.658,2.917,5.488,6.589,5.488,11.016c0,2.578-0.729,4.987-2.188,7.227c-1.094,1.667-2.813,3.281-5.156,4.844
					c3.099,1.484,5.41,3.451,6.934,5.898c1.523,2.448,2.285,5.156,2.285,8.125c0,2.865-0.658,5.541-1.973,8.027
					c-1.315,2.487-2.93,4.408-4.844,5.762c-1.914,1.354-4.297,2.351-7.148,2.988s-5.893,0.957-9.121,0.957
					c-6.068,0-10.703-0.717-13.906-2.148s-5.639-3.541-7.305-6.328c-1.667-2.786-2.5-5.898-2.5-9.336
					c0-3.359,0.781-6.204,2.344-8.535C289.745,378.799,292.153,376.995,295.409,375.719z M301.698,389.117
					c0,2.526,0.768,4.59,2.305,6.191c1.536,1.602,3.294,2.402,5.273,2.402c1.9,0,3.606-0.813,5.117-2.441
					c1.51-1.627,2.266-3.691,2.266-6.191c0-2.525-0.762-4.596-2.285-6.211c-1.523-1.614-3.288-2.422-5.293-2.422
					c-1.979,0-3.705,0.781-5.176,2.344C302.434,384.352,301.698,386.461,301.698,389.117z M302.558,364.469
					c0,1.979,0.618,3.574,1.855,4.785c1.236,1.211,2.884,1.816,4.941,1.816c1.822,0,3.32-0.599,4.492-1.797
					c1.172-1.197,1.758-2.747,1.758-4.648c0-1.979-0.612-3.587-1.836-4.824c-1.225-1.236-2.787-1.855-4.688-1.855
					c-1.928,0-3.496,0.605-4.707,1.816S302.558,362.542,302.558,364.469z"/>
			</g>
		</g>
	</g>
</g>
</svg>
