<?xml version="1.0" encoding="utf-8"?>
<!-- Generator: Adobe Illustrator 16.0.0, SVG Export Plug-In . SVG Version: 6.00 Build 0)  -->
<!DOCTYPE svg PUBLIC "-//W3C//DTD SVG 1.1//EN" "http://www.w3.org/Graphics/SVG/1.1/DTD/svg11.dtd">
<svg version="1.1" id="Layer_1" xmlns="http://www.w3.org/2000/svg" xmlns:xlink="http://www.w3.org/1999/xlink" x="0px" y="0px"
	 width="612px" height="562px" viewBox="0 0 612 562" enable-background="new 0 0 612 562" xml:space="preserve">
<g>
	<g>
		<g>
			<rect x="222.572" y="163.969" fill="#FEC632" width="173.843" height="122.713"/>
			<circle fill="#FFDE39" cx="309.493" cy="378.714" r="171.286"/>
			<circle fill="#FEC632" cx="309.493" cy="378.714" r="139.074"/>
			<path fill="#F9A74E" d="M175.021,387.919c0-76.696,62.379-139.075,139.074-139.075c52.664,0,98.17,29.145,121.689,72.094
				c-21.986-47.552-70.049-81.294-126.291-81.294c-76.695,0-139.074,62.378-139.074,139.074c0,24.031,6.135,47.038,17.384,66.98
				C179.623,427.8,175.021,408.371,175.021,387.919z"/>
			<circle fill="#FFDE39" cx="309.493" cy="378.714" r="115.553"/>
			<rect x="222.572" y="184.421" fill="#F9A74E" width="173.843" height="15.339"/>
			<path fill="#FFFFFF" d="M310.044,441.458l53.62,27.978c7.773,3.886,17.099-2.33,15.545-11.656l-10.104-59.84l43.521-41.963
				c6.212-6.219,3.107-17.101-6.22-18.653l-59.84-8.55l-26.423-54.403c-3.886-7.769-15.541-7.769-19.429,0l-26.421,54.403
				l-59.841,8.55c-8.547,1.554-12.434,12.433-6.218,18.653l43.521,41.963l-10.104,59.84c-1.555,8.549,7.771,15.542,15.543,11.657
				L310.044,441.458z"/>
			<path fill="#2D8FE8" d="M168.886,44.323l63.913,124.758h153.391L304.894,10.578C255.806,11.089,209.79,23.36,168.886,44.323z"/>
			<path fill="#186AA8" d="M298.755,11.089l-73.627,143.164l7.67,14.828H370.85l7.669-14.828L304.892,10.578
				C302.845,10.578,300.801,10.578,298.755,11.089z"/>
			<path fill="#FFDE39" d="M391.813,194.646H227.174c-11.249,0-19.941-9.203-19.941-19.94v-0.511
				c0-11.249,9.203-19.941,19.941-19.941h164.127c11.249,0,19.94,9.203,19.94,19.941v0.511
				C411.753,185.443,402.55,194.646,391.813,194.646z"/>
			<path fill="#473080" d="M227.174,179.307c-2.557,0-4.602-2.046-4.602-4.601v-0.511c0-2.557,2.045-4.602,4.602-4.602h164.127
				c2.558,0,4.603,2.045,4.603,4.602v0.511c0,2.557-2.045,4.601-4.603,4.601H227.174z"/>
			<path fill="#2D8FE8" d="M232.798,169.081h153.39l63.915-124.758c-40.903-20.963-86.921-33.234-136.008-33.745L232.798,169.081z"
				/>
			<g enable-background="new    ">
				<path d="M286.542,393.648l15.82-1.992c0.416,2.214,1.119,3.776,2.109,4.688c0.989,0.912,2.2,1.367,3.633,1.367
					c2.552,0,4.544-1.289,5.977-3.867c1.041-1.9,1.822-5.924,2.344-12.07c-1.901,1.953-3.854,3.386-5.859,4.297
					c-2.006,0.912-4.323,1.367-6.953,1.367c-5.131,0-9.46-1.822-12.988-5.469c-3.529-3.646-5.293-8.255-5.293-13.828
					c0-3.802,0.898-7.266,2.695-10.391s4.271-5.488,7.422-7.09c3.15-1.602,7.109-2.402,11.875-2.402
					c5.729,0,10.325,0.983,13.789,2.949c3.463,1.967,6.23,5.092,8.301,9.375c2.07,4.284,3.105,9.941,3.105,16.973
					c0,10.339-2.175,17.91-6.523,22.715c-4.35,4.805-10.378,7.207-18.086,7.207c-4.558,0-8.151-0.527-10.781-1.582
					c-2.631-1.055-4.818-2.598-6.563-4.629C288.82,399.234,287.479,396.695,286.542,393.648z M315.839,368.102
					c0-3.099-0.781-5.527-2.344-7.285s-3.464-2.637-5.703-2.637c-2.109,0-3.861,0.795-5.254,2.383
					c-1.394,1.589-2.09,3.972-2.09,7.148c0,3.203,0.723,5.651,2.168,7.344c1.445,1.693,3.248,2.539,5.41,2.539
					c2.239,0,4.102-0.82,5.586-2.461S315.839,371.148,315.839,368.102z"/>
			</g>
		</g>
	</g>
</g>
</svg>
