<?xml version="1.0" encoding="utf-8"?>
<!-- Generator: Adobe Illustrator 16.0.0, SVG Export Plug-In . SVG Version: 6.00 Build 0)  -->
<!DOCTYPE svg PUBLIC "-//W3C//DTD SVG 1.1//EN" "http://www.w3.org/Graphics/SVG/1.1/DTD/svg11.dtd">
<svg version="1.1" id="Layer_1" xmlns="http://www.w3.org/2000/svg" xmlns:xlink="http://www.w3.org/1999/xlink" x="0px" y="0px"
	 width="73px" height="48px" viewBox="1.25 0 73 48" enable-background="new 1.25 0 73 48" xml:space="preserve">
<path d="M4,34h4v1H6v2h2v1H4v2h6v-8H4V34z M6,16h2V8H4v2h2V16z M4,22h3.6L4,26.2V28h6v-2H6.4l3.6-4.2V20H4V22z M14,10v4h28v-4H14z
	 M14,38h28v-4H14V38z M14,26h28v-4H14V26z"/>
<path fill="none" d="M0,0h48v48H0V0z"/>
<g id="background">
	<rect x="40.75" y="8" fill="none" width="32" height="32"/>
</g>
<g id="group_x5F_half">
	<g>
		<path d="M60.75,24c-0.75,0-8,0-8,0s-2,0-2,2c0,0.777,0,12,0,12h12V26C62.75,26,62.75,24,60.75,24z"/>
	</g>
	<g>
		<circle cx="56.75" cy="19" r="3"/>
	</g>
	<g>
		<circle cx="48.75" cy="13" r="3"/>
	</g>
	<g>
		<path d="M52.75,22h0.023c-0.633-0.838-1.023-1.869-1.023-3c0-0.343,0.035-0.677,0.102-1c-2.134,0-7.102,0-7.102,0s-2,0-2,2
			c0,0.778,0,12,0,12h6v-6C48.75,22,52.75,22,52.75,22z"/>
	</g>
	<g>
		<path d="M70.75,20c0,0,0-2-2-2c-0.587,0-5.143,0-7.102,0c0.066,0.323,0.102,0.657,0.102,1c0,1.131-0.391,2.162-1.021,3h0.021
			c4,0,4,4,4,4v6h6V20z"/>
	</g>
	<g>
		<circle cx="64.75" cy="13" r="3"/>
	</g>
</g>
</svg>
