<?xml version="1.0" encoding="utf-8"?>
<!-- Generator: Adobe Illustrator 16.0.0, SVG Export Plug-In . SVG Version: 6.00 Build 0)  -->
<!DOCTYPE svg PUBLIC "-//W3C//DTD SVG 1.1//EN" "http://www.w3.org/Graphics/SVG/1.1/DTD/svg11.dtd">
<svg version="1.1" id="Layer_1" xmlns="http://www.w3.org/2000/svg" xmlns:xlink="http://www.w3.org/1999/xlink" x="0px" y="0px"
	 width="538px" height="491px" viewBox="0 0 538 491" enable-background="new 0 0 538 491" xml:space="preserve">
<g>
	
		<image overflow="visible" opacity="0.75" width="451" height="65" xlink:href="AF1BCE96.png"  transform="matrix(1 0 0 1 51.5 330)">
	</image>
	<g>
		<polygon fill="#FFFFFF" points="480.375,372.156 59.625,372.156 93.094,338.688 446.906,338.688 		"/>
	</g>
</g>
<g opacity="0.2" enable-background="new    ">
	
		<image overflow="visible" opacity="0.75" width="451" height="65" xlink:href="AF1BCE9A.png"  transform="matrix(1 0 0 1 51.5 330)">
	</image>
	<g>
		<polygon fill="#382673" points="480.375,372.156 59.625,372.156 93.094,338.688 446.906,338.688 		"/>
	</g>
</g>
<g>
	
		<image overflow="visible" opacity="0.75" width="451" height="64" xlink:href="AF1BCE9B.png"  transform="matrix(1 0 0 1 51.5 364)">
	</image>
	<g>
		<rect x="59.625" y="372.156" fill="#FFFFFF" width="420.75" height="33.469"/>
	</g>
</g>
<g>
	
		<image overflow="visible" opacity="0.75" width="165" height="179" xlink:href="AF1BCE9C.png"  transform="matrix(1 0 0 1 84.5 177)">
	</image>
	<g>
		<polygon fill="#0A7556" points="226.969,333.906 93.094,209.594 126.563,185.688 226.969,185.688 		"/>
	</g>
</g>
<g>
	
		<image overflow="visible" opacity="0.75" width="165" height="179" xlink:href="AF1BCE9D.png"  transform="matrix(1 0 0 1 84.5 201)">
	</image>
	<g>
		<rect x="93.094" y="209.594" fill="#1FA078" width="133.875" height="148.22"/>
	</g>
</g>
<g>
	
		<image overflow="visible" opacity="0.75" width="165" height="131" xlink:href="AF1BCE98.png"  transform="matrix(1 0 0 1 309.5 225)">
	</image>
	<g>
		<polygon fill="#D34C4C" points="451.688,257.406 317.813,333.906 317.813,233.5 418.219,233.5 		"/>
	</g>
</g>
<g>
	
		<image overflow="visible" opacity="0.75" width="165" height="131" xlink:href="AF1BCE99.png"  transform="matrix(1 0 0 1 309.5 249)">
	</image>
	<g>
		<rect x="317.813" y="257.406" fill="#EF5B5B" width="133.875" height="100.405"/>
	</g>
</g>
<g>
	
		<image overflow="visible" opacity="0.75" width="165" height="231" xlink:href="AF1BCE88.png"  transform="matrix(1 0 0 1 194.5 149)">
	</image>
	<g>
		<rect x="203.063" y="157" fill="#FFC23B" width="133.875" height="200.813"/>
	</g>
</g>
<polygon fill="#FC9B32" points="336.938,157 203.063,157 222.188,128.313 317.813,128.313 "/>
<g>
	
		<image overflow="visible" opacity="0.75" width="127" height="123" xlink:href="AF1BCE89.png"  transform="matrix(1 0 0 1 213.5 12)">
	</image>
	<g>
		<path fill="#FFF208" d="M270,98.669l24.385,12.909c3.348,1.913,7.649-0.956,7.172-5.26l-4.78-27.252l19.603-19.125
			c2.869-2.869,1.436-7.65-2.868-8.128l-27.254-3.825l-11.953-24.862c-1.912-3.825-6.692-3.825-8.604,0L253.745,47.51l-27.253,4.303
			c-3.825,0.478-5.738,5.259-2.869,8.128l19.604,19.125l-4.781,27.252c-0.479,3.826,3.347,7.173,7.172,5.26L270,98.669z"/>
	</g>
</g>
<g>
	
		<image overflow="visible" opacity="0.75" width="77" height="109" xlink:href="4F04DB2E.png"  transform="matrix(1 0 0 1 231.5 213)">
	</image>
	<g>
		<g>
			<path fill="#FFFFFF" stroke="#FFFFFF" stroke-miterlimit="10" d="M285.778,299.003H264.74v-41.118c0-4.781,0-9.563,0.479-13.865
				c-1.435,1.435-2.869,3.347-4.781,4.78l-8.605,7.173l-11.475-12.91l26.773-21.516h18.647V299.003L285.778,299.003z"/>
		</g>
	</g>
</g>
<g>
	
		<image overflow="visible" opacity="0.75" width="451" height="109" xlink:href="4F04DB2A.png"  transform="matrix(1 0 0 1 51.5 385)">
	</image>
	<g>
		<path fill="#1290B2" d="M59.681,409.494C112.274,447.71,186.862,472,270.056,472c83.193,0,157.781-24.29,210.375-62.506v-15.869
			H59.681V409.494z"/>
	</g>
</g>
</svg>
