<?xml version="1.0" encoding="utf-8"?>
<!-- Generator: Adobe Illustrator 16.0.0, SVG Export Plug-In . SVG Version: 6.00 Build 0)  -->
<!DOCTYPE svg PUBLIC "-//W3C//DTD SVG 1.1//EN" "http://www.w3.org/Graphics/SVG/1.1/DTD/svg11.dtd">
<svg version="1.1" id="Layer_3" xmlns="http://www.w3.org/2000/svg" xmlns:xlink="http://www.w3.org/1999/xlink" x="0px" y="0px"
	 width="48px" height="48px" viewBox="0 0 48 48" enable-background="new 0 0 48 48" xml:space="preserve">
<circle fill="#BC1313" cx="23.813" cy="23.813" r="22.188"/>
<g>
	<path fill-rule="evenodd" clip-rule="evenodd" fill="#FFFFFF" d="M29.875,12.75c-1.196,0.536-7.659,4.549-8.667,4.832
		c-0.13-1.006-0.2-1.543-0.325-2.512c-3.877,0.869-6.967,4.581-6.628,9.062c0.362,4.775,4.252,8.722,8.95,9.08
		c4.828,0.369,9.175-2.641,10.276-7.129c0.129-0.527,0.258-1.073,0.257-1.61c-0.001-1.78,1.143-2.307,2.491-1.835
		c0.663,0.231,1.421,1.443,1.397,2.187c-0.164,5.228-4.189,10.174-9.4,11.823c-5.187,1.643-11.345,0.138-14.664-3.896
		c-6.709-8.153-3.129-18.769,6.834-22.344c-0.125-1.385-0.063-1.614-0.146-2.594"/>
</g>
</svg>
