<?xml version="1.0" encoding="utf-8"?>
<!-- Generator: Adobe Illustrator 16.0.0, SVG Export Plug-In . SVG Version: 6.00 Build 0)  -->
<!DOCTYPE svg PUBLIC "-//W3C//DTD SVG 1.1//EN" "http://www.w3.org/Graphics/SVG/1.1/DTD/svg11.dtd">
<svg version="1.1" id="Layer_1" xmlns="http://www.w3.org/2000/svg" xmlns:xlink="http://www.w3.org/1999/xlink" x="0px" y="0px"
	 width="530.667px" height="469.91px" viewBox="0 0 530.667 469.91" enable-background="new 0 0 530.667 469.91"
	 xml:space="preserve">
<g>
	
		<image overflow="visible" opacity="0.75" width="350" height="452" xlink:href="FA2764AE.png"  transform="matrix(1 0 0 1 95.8335 20.4551)">
	</image>
	<g>
		<g>
			<path fill="#0CAFE8" d="M359.625,435.567h-191.25v-86.063c0-5.26,4.303-9.563,9.563-9.563h172.124
				c5.262,0,9.564,4.304,9.564,9.563v86.063H359.625z"/>
			<polygon fill="#0B90D3" points="373.968,449.91 154.031,449.91 158.813,435.567 369.187,435.567 			"/>
			<path fill="#FFFFFF" d="M302.25,416.442h-76.5c-10.519,0-19.125-8.606-19.125-19.125v-14.345
				c0-10.519,8.606-19.125,19.125-19.125h76.5c10.52,0,19.125,8.606,19.125,19.125v14.345
				C321.375,407.835,312.769,416.442,302.25,416.442z"/>
			<rect x="239.138" y="237.145" fill="#F9A74E" width="50.203" height="78.892"/>
			<rect x="274.519" y="237.145" opacity="0.2" fill="#382673" enable-background="new    " width="14.344" height="78.892"/>
			<path fill="#FFDE39" d="M307.031,311.254h-86.063c-15.778,0-28.688,12.909-28.688,28.688l0,0h143.438l0,0
				C335.718,324.163,322.81,311.254,307.031,311.254z"/>
			<path fill="#FEC632" d="M307.031,311.254h-23.906c15.779,0,28.688,12.909,28.688,28.688h23.906
				C335.718,324.163,322.81,311.254,307.031,311.254z"/>
			<path fill="#FFDE39" d="M288.384,277.785h-48.768c-12.91,0-23.429-10.52-23.429-23.429v-5.26h95.624v5.26
				C311.812,267.267,301.294,277.785,288.384,277.785z"/>
			<path fill="#FEC632" d="M292.687,249.098v5.261c0,12.908-5.736,23.428-18.645,23.428h14.344c12.908,0,23.428-10.52,23.428-23.428
				v-5.261H292.687z"/>
			<path fill="#F9A74E" d="M345.281,339.942H182.719l0,0c0-5.261,4.303-9.563,9.563-9.563H335.72
				C340.978,330.379,345.281,334.682,345.281,339.942L345.281,339.942z"/>
			<path opacity="0.2" fill="#382673" enable-background="new    " d="M335.718,330.379h-23.906c5.262,0,9.564,4.303,9.564,9.563
				h23.906C345.281,334.682,340.978,330.379,335.718,330.379z"/>
			<path fill="#F9A74E" d="M321.375,239.535h-114.75v14.344c0,5.26,4.303,9.563,9.563,9.563h95.624c5.262,0,9.564-4.304,9.564-9.563
				v-14.344H321.375z"/>
			<path fill="#F9A74E" d="M321.375,239.535h-114.75v14.344c0,5.26,4.303,9.563,9.563,9.563h95.624c5.262,0,9.564-4.304,9.564-9.563
				v-14.344H321.375z"/>
			<path opacity="0.2" fill="#382673" enable-background="new    " d="M297.468,239.535l-9.563,14.344c4.781,0,5.26,9.563,0,9.563
				h23.906c5.26,0,9.563-4.304,9.563-9.563v-14.344H297.468z"/>
			<path fill="none" stroke="#F9A74E" stroke-width="4" stroke-linecap="round" stroke-linejoin="round" stroke-miterlimit="10" d="
				M330.937,86.535h90.846v4.781c0,50.203-40.643,90.844-90.846,90.844l0,0"/>
			<path fill="none" stroke="#FEC632" stroke-width="4" stroke-linecap="round" stroke-linejoin="round" stroke-miterlimit="10" d="
				M197.063,86.535h-90.844v4.781c0,50.203,40.641,90.844,90.844,90.844l0,0"/>
			<path fill="#FFDE39" d="M304.64,253.879h-81.28c-30.6,0-54.984-24.385-54.984-54.984V48.285h191.25v150.609
				C359.625,229.494,335.24,253.879,304.64,253.879z"/>
			
				<path opacity="0.3" fill="none" stroke="#FFFFFF" stroke-width="2" stroke-linecap="round" stroke-linejoin="round" stroke-miterlimit="10" enable-background="new    " d="
				M197.063,62.629c0,0,0,81.281,0,95.625"/>
			<path fill="#FEC632" d="M335.718,48.285v150.609c0,30.6-24.385,54.983-54.982,54.983h23.904
				c30.602,0,54.984-24.385,54.984-54.983V48.285H335.718z"/>
			<polygon fill="#F9A74E" points="373.968,48.285 154.031,48.285 168.375,62.629 359.625,62.629 			"/>
			<polygon opacity="0.2" fill="#382673" enable-background="new    " points="345.281,48.285 335.718,62.629 359.625,62.629 
				373.968,48.285 			"/>
			<path fill="#FFDE39" d="M378.75,29.16h-229.5c-5.259,0-9.563,4.303-9.563,9.563l0,0c0,5.259,4.303,9.563,9.563,9.563h229.5
				c5.26,0,9.563-4.303,9.563-9.563l0,0C388.312,33.463,384.009,29.16,378.75,29.16z"/>
			<path fill="#FEC632" d="M378.75,29.16h-28.688c5.26,0,9.563,4.303,9.563,9.563c0,5.26-4.303,9.563-9.563,9.563h28.688
				c5.26,0,9.563-4.303,9.563-9.563C388.312,33.463,384.009,29.16,378.75,29.16z"/>
			
				<line opacity="0.3" fill="none" stroke="#FFFFFF" stroke-width="2" stroke-linecap="round" stroke-linejoin="round" stroke-miterlimit="10" enable-background="new    " x1="197.063" y1="179.292" x2="197.063" y2="190.288"/>
			<path fill="#FEC632" d="M264,170.207l20.561,10.997c2.867,1.434,6.693-0.957,6.217-4.304l-4.305-23.428l16.734-16.256
				c2.391-2.391,0.955-6.693-2.391-7.172l-22.951-3.348l-10.52-21.037c-1.434-2.869-5.736-2.869-7.172,0l-10.519,21.037
				l-22.95,3.348c-3.347,0.479-4.781,4.781-2.391,7.172l16.734,16.256l-3.825,22.95c-0.478,3.347,2.868,5.737,6.215,4.304
				L264,170.207z"/>
			<path fill="#FFFFFF" stroke="#991020" stroke-miterlimit="10" d="M201.844,43.351"/>
			<path fill="#FFFFFF" stroke="#991020" stroke-miterlimit="10" d="M218.803,45.851"/>
		</g>
	</g>
</g>
</svg>
